<?xml version="1.0" encoding="utf-8" standalone="no"?>
<!DOCTYPE svg PUBLIC "-//W3C//DTD SVG 1.1//EN"
  "http://www.w3.org/Graphics/SVG/1.1/DTD/svg11.dtd">
<!-- Created with matplotlib (http://matplotlib.org/) -->
<svg height="432pt" version="1.1" viewBox="0 0 576 432" width="576pt" xmlns="http://www.w3.org/2000/svg" xmlns:xlink="http://www.w3.org/1999/xlink">
 <defs>
  <style type="text/css">
*{stroke-linecap:butt;stroke-linejoin:round;}
  </style>
 </defs>
 <g id="figure_1">
  <g id="patch_1">
   <path d="
M0 432
L576 432
L576 0
L0 0
z
" style="fill:#ffffff;"/>
  </g>
  <g id="axes_1">
   <g id="patch_2">
    <path d="
M44.185 193.82
L560.227 193.82
L560.227 28.76
L44.185 28.76
z
" style="fill:#ffffff;"/>
   </g>
   <g id="line2d_1">
    <path clip-path="url(#p69bacea51b)" d="
M44.185 56.27
L275.784 56.27" style="fill:none;stroke:#ff0000;stroke-linecap:square;"/>
   </g>
   <g id="line2d_2">
    <path clip-path="url(#p69bacea51b)" d="
M44.185 111.29
L48.8216 89.7337
L51.6036 77.9479
L53.4582 70.8911
L55.3129 64.6175
L57.1675 59.2185
L58.5585 55.7806
L59.9495 52.8827
L61.3405 50.5281
L62.7315 48.7097
L63.6588 47.7874
L64.5861 47.0889
L65.5135 46.6052
L66.4408 46.3257
L67.3681 46.2384
L68.2954 46.33
L69.2228 46.5861
L70.6138 47.2447
L72.0047 48.1834
L73.8594 49.771
L76.1777 52.1
L81.278 57.3656
L83.1326 58.9752
L84.9873 60.2857
L86.3783 61.0386
L87.7693 61.5781
L89.1602 61.8977
L90.5512 61.9981
L91.9422 61.8873
L93.3332 61.5795
L95.1879 60.8979
L97.0425 59.9625
L99.3608 58.5453
L106.316 54.104
L108.17 53.2128
L110.025 52.5506
L111.88 52.1483
L113.734 52.0207
L115.589 52.1654
L117.444 52.5639
L119.298 53.1836
L121.617 54.1996
L125.326 56.1243
L129.035 57.9909
L131.354 58.9253
L133.208 59.4717
L135.063 59.8057
L136.917 59.9107
L138.772 59.7839
L140.627 59.4369
L142.945 58.7319
L145.727 57.5874
L154.073 53.8696
L156.391 53.2089
L158.246 52.8978
L160.101 52.8012
L161.955 52.9252
L163.81 53.2621
L166.128 53.9502
L168.91 55.0773
L177.72 58.9715
L180.038 59.5915
L181.893 59.8582
L183.747 59.8986
L185.602 59.7067
L187.457 59.2903
L189.311 58.6714
L191.63 57.6672
L195.339 55.7531
L199.048 53.872
L201.367 52.9279
L203.221 52.3865
L205.076 52.08
L206.93 52.0362
L208.785 52.2674
L210.64 52.7697
L212.494 53.5224
L214.813 54.7571
L217.595 56.5281
L222.695 59.8311
L224.55 60.7935
L226.404 61.5103
L227.795 61.8492
L229.186 61.994
L230.577 61.9295
L231.968 61.6467
L233.359 61.1436
L234.75 60.4255
L236.605 59.1567
L238.46 57.5808
L240.778 55.2944
L246.805 49.1381
L248.66 47.6826
L250.051 46.8768
L251.442 46.3792
L252.369 46.245
L253.297 46.2863
L254.224 46.5166
L255.151 46.9482
L256.079 47.5921
L257.006 48.4577
L257.933 49.5527
L259.324 51.6377
L260.715 54.2637
L262.106 57.4326
L263.497 61.1361
L265.352 66.8719
L267.207 73.4514
L269.525 82.7041
L272.307 94.9684
L276.943 116.79
L280.653 133.874
L282.971 143.701
L285.289 152.518
L287.144 158.687
L288.999 163.972
L290.39 167.32
L291.781 170.127
L293.172 172.392
L294.563 174.122
L295.49 174.988
L296.417 175.632
L297.345 176.063
L298.272 176.294
L299.199 176.335
L300.127 176.201
L301.518 175.703
L302.909 174.897
L304.3 173.84
L306.154 172.14
L309.4 168.754
L312.645 165.433
L314.5 163.791
L316.355 162.44
L317.746 161.652
L319.137 161.077
L320.528 160.72
L321.919 160.584
L323.31 160.66
L324.701 160.936
L326.555 161.582
L328.41 162.489
L330.728 163.884
L338.147 168.598
L340.002 169.463
L341.856 170.094
L343.711 170.463
L345.566 170.556
L347.42 170.378
L349.275 169.95
L351.129 169.306
L353.448 168.268
L357.621 166.087
L360.866 164.485
L363.185 163.576
L365.039 163.054
L366.894 162.748
L368.749 162.673
L370.603 162.828
L372.458 163.201
L374.776 163.933
L377.558 165.098
L385.44 168.63
L387.759 169.318
L389.613 169.655
L391.468 169.779
L393.323 169.682
L395.177 169.371
L397.496 168.71
L399.814 167.808
L403.523 166.084
L407.696 164.2
L410.015 163.392
L411.869 162.943
L413.724 162.704
L415.579 162.693
L417.433 162.913
L419.288 163.357
L421.606 164.186
L424.388 165.485
L431.807 169.212
L434.125 170.016
L435.98 170.415
L437.834 170.559
L439.689 170.432
L441.544 170.029
L443.398 169.367
L445.253 168.476
L447.571 167.112
L455.917 161.895
L457.772 161.144
L459.163 160.774
L460.554 160.596
L461.945 160.625
L463.336 160.871
L464.727 161.337
L466.118 162.02
L467.509 162.908
L469.363 164.376
L471.682 166.572
L479.1 174.031
L480.491 175.051
L481.882 175.809
L483.273 176.25
L484.201 176.342
L485.128 176.254
L486.055 175.975
L486.983 175.491
L487.91 174.793
L488.837 173.87
L489.764 172.717
L491.155 170.542
L492.546 167.826
L493.937 164.567
L495.328 160.776
L497.183 154.93
L499.038 148.252
L501.356 138.896
L504.138 126.548
L507.384 111.29
L507.384 111.29" style="fill:none;stroke:#0000ff;stroke-linecap:square;"/>
   </g>
   <g id="line2d_3">
    <path clip-path="url(#p69bacea51b)" d="
M275.784 166.31
L507.384 166.31" style="fill:none;stroke:#ff0000;stroke-linecap:square;"/>
   </g>
   <g id="matplotlib.axis_1">
    <g id="xtick_1">
     <g id="line2d_4">
      <defs>
       <path d="
M0 0
L0 -4" id="m93b0483c22" style="stroke:#000000;stroke-width:0.5;"/>
      </defs>
      <g>
       <use style="stroke:#000000;stroke-width:0.5;" x="44.185" xlink:href="#m93b0483c22" y="193.82"/>
      </g>
     </g>
     <g id="line2d_5">
      <defs>
       <path d="
M0 0
L0 4" id="m741efc42ff" style="stroke:#000000;stroke-width:0.5;"/>
      </defs>
      <g>
       <use style="stroke:#000000;stroke-width:0.5;" x="44.185" xlink:href="#m741efc42ff" y="28.76"/>
      </g>
     </g>
     <g id="text_1">
      <!-- 0 -->
      <defs>
       <path d="
M31.7812 66.4062
Q24.1719 66.4062 20.3281 58.9062
Q16.5 51.4219 16.5 36.375
Q16.5 21.3906 20.3281 13.8906
Q24.1719 6.39062 31.7812 6.39062
Q39.4531 6.39062 43.2812 13.8906
Q47.125 21.3906 47.125 36.375
Q47.125 51.4219 43.2812 58.9062
Q39.4531 66.4062 31.7812 66.4062
M31.7812 74.2188
Q44.0469 74.2188 50.5156 64.5156
Q56.9844 54.8281 56.9844 36.375
Q56.9844 17.9688 50.5156 8.26562
Q44.0469 -1.42188 31.7812 -1.42188
Q19.5312 -1.42188 13.0625 8.26562
Q6.59375 17.9688 6.59375 36.375
Q6.59375 54.8281 13.0625 64.5156
Q19.5312 74.2188 31.7812 74.2188" id="BitstreamVeraSans-Roman-30"/>
      </defs>
      <g transform="translate(41.1615625 206.938125)scale(0.12 -0.12)">
       <use xlink:href="#BitstreamVeraSans-Roman-30"/>
      </g>
     </g>
    </g>
    <g id="xtick_2">
     <g id="line2d_6">
      <g>
       <use style="stroke:#000000;stroke-width:0.5;" x="117.905357143" xlink:href="#m93b0483c22" y="193.82"/>
      </g>
     </g>
     <g id="line2d_7">
      <g>
       <use style="stroke:#000000;stroke-width:0.5;" x="117.905357143" xlink:href="#m741efc42ff" y="28.76"/>
      </g>
     </g>
     <g id="text_2">
      <!-- 1 -->
      <defs>
       <path d="
M12.4062 8.29688
L28.5156 8.29688
L28.5156 63.9219
L10.9844 60.4062
L10.9844 69.3906
L28.4219 72.9062
L38.2812 72.9062
L38.2812 8.29688
L54.3906 8.29688
L54.3906 0
L12.4062 0
z
" id="BitstreamVeraSans-Roman-31"/>
      </defs>
      <g transform="translate(115.300982143 206.938125)scale(0.12 -0.12)">
       <use xlink:href="#BitstreamVeraSans-Roman-31"/>
      </g>
     </g>
    </g>
    <g id="xtick_3">
     <g id="line2d_8">
      <g>
       <use style="stroke:#000000;stroke-width:0.5;" x="191.625714286" xlink:href="#m93b0483c22" y="193.82"/>
      </g>
     </g>
     <g id="line2d_9">
      <g>
       <use style="stroke:#000000;stroke-width:0.5;" x="191.625714286" xlink:href="#m741efc42ff" y="28.76"/>
      </g>
     </g>
     <g id="text_3">
      <!-- 2 -->
      <defs>
       <path d="
M19.1875 8.29688
L53.6094 8.29688
L53.6094 0
L7.32812 0
L7.32812 8.29688
Q12.9375 14.1094 22.625 23.8906
Q32.3281 33.6875 34.8125 36.5312
Q39.5469 41.8438 41.4219 45.5312
Q43.3125 49.2188 43.3125 52.7812
Q43.3125 58.5938 39.2344 62.25
Q35.1562 65.9219 28.6094 65.9219
Q23.9688 65.9219 18.8125 64.3125
Q13.6719 62.7031 7.8125 59.4219
L7.8125 69.3906
Q13.7656 71.7812 18.9375 73
Q24.125 74.2188 28.4219 74.2188
Q39.75 74.2188 46.4844 68.5469
Q53.2188 62.8906 53.2188 53.4219
Q53.2188 48.9219 51.5312 44.8906
Q49.8594 40.875 45.4062 35.4062
Q44.1875 33.9844 37.6406 27.2188
Q31.1094 20.4531 19.1875 8.29688" id="BitstreamVeraSans-Roman-32"/>
      </defs>
      <g transform="translate(188.848839286 206.938125)scale(0.12 -0.12)">
       <use xlink:href="#BitstreamVeraSans-Roman-32"/>
      </g>
     </g>
    </g>
    <g id="xtick_4">
     <g id="line2d_10">
      <g>
       <use style="stroke:#000000;stroke-width:0.5;" x="265.346071429" xlink:href="#m93b0483c22" y="193.82"/>
      </g>
     </g>
     <g id="line2d_11">
      <g>
       <use style="stroke:#000000;stroke-width:0.5;" x="265.346071429" xlink:href="#m741efc42ff" y="28.76"/>
      </g>
     </g>
     <g id="text_4">
      <!-- 3 -->
      <defs>
       <path d="
M40.5781 39.3125
Q47.6562 37.7969 51.625 33
Q55.6094 28.2188 55.6094 21.1875
Q55.6094 10.4062 48.1875 4.48438
Q40.7656 -1.42188 27.0938 -1.42188
Q22.5156 -1.42188 17.6562 -0.515625
Q12.7969 0.390625 7.625 2.20312
L7.625 11.7188
Q11.7188 9.32812 16.5938 8.10938
Q21.4844 6.89062 26.8125 6.89062
Q36.0781 6.89062 40.9375 10.5469
Q45.7969 14.2031 45.7969 21.1875
Q45.7969 27.6406 41.2812 31.2656
Q36.7656 34.9062 28.7188 34.9062
L20.2188 34.9062
L20.2188 43.0156
L29.1094 43.0156
Q36.375 43.0156 40.2344 45.9219
Q44.0938 48.8281 44.0938 54.2969
Q44.0938 59.9062 40.1094 62.9062
Q36.1406 65.9219 28.7188 65.9219
Q24.6562 65.9219 20.0156 65.0312
Q15.375 64.1562 9.8125 62.3125
L9.8125 71.0938
Q15.4375 72.6562 20.3438 73.4375
Q25.25 74.2188 29.5938 74.2188
Q40.8281 74.2188 47.3594 69.1094
Q53.9062 64.0156 53.9062 55.3281
Q53.9062 49.2656 50.4375 45.0938
Q46.9688 40.9219 40.5781 39.3125" id="BitstreamVeraSans-Roman-33"/>
      </defs>
      <g transform="translate(262.467008929 206.938125)scale(0.12 -0.12)">
       <use xlink:href="#BitstreamVeraSans-Roman-33"/>
      </g>
     </g>
    </g>
    <g id="xtick_5">
     <g id="line2d_12">
      <g>
       <use style="stroke:#000000;stroke-width:0.5;" x="339.066428571" xlink:href="#m93b0483c22" y="193.82"/>
      </g>
     </g>
     <g id="line2d_13">
      <g>
       <use style="stroke:#000000;stroke-width:0.5;" x="339.066428571" xlink:href="#m741efc42ff" y="28.76"/>
      </g>
     </g>
     <g id="text_5">
      <!-- 4 -->
      <defs>
       <path d="
M37.7969 64.3125
L12.8906 25.3906
L37.7969 25.3906
z

M35.2031 72.9062
L47.6094 72.9062
L47.6094 25.3906
L58.0156 25.3906
L58.0156 17.1875
L47.6094 17.1875
L47.6094 0
L37.7969 0
L37.7969 17.1875
L4.89062 17.1875
L4.89062 26.7031
z
" id="BitstreamVeraSans-Roman-34"/>
      </defs>
      <g transform="translate(335.878928571 206.938125)scale(0.12 -0.12)">
       <use xlink:href="#BitstreamVeraSans-Roman-34"/>
      </g>
     </g>
    </g>
    <g id="xtick_6">
     <g id="line2d_14">
      <g>
       <use style="stroke:#000000;stroke-width:0.5;" x="412.786785714" xlink:href="#m93b0483c22" y="193.82"/>
      </g>
     </g>
     <g id="line2d_15">
      <g>
       <use style="stroke:#000000;stroke-width:0.5;" x="412.786785714" xlink:href="#m741efc42ff" y="28.76"/>
      </g>
     </g>
     <g id="text_6">
      <!-- 5 -->
      <defs>
       <path d="
M10.7969 72.9062
L49.5156 72.9062
L49.5156 64.5938
L19.8281 64.5938
L19.8281 46.7344
Q21.9688 47.4688 24.1094 47.8281
Q26.2656 48.1875 28.4219 48.1875
Q40.625 48.1875 47.75 41.5
Q54.8906 34.8125 54.8906 23.3906
Q54.8906 11.625 47.5625 5.09375
Q40.2344 -1.42188 26.9062 -1.42188
Q22.3125 -1.42188 17.5469 -0.640625
Q12.7969 0.140625 7.71875 1.70312
L7.71875 11.625
Q12.1094 9.23438 16.7969 8.0625
Q21.4844 6.89062 26.7031 6.89062
Q35.1562 6.89062 40.0781 11.3281
Q45.0156 15.7656 45.0156 23.3906
Q45.0156 31 40.0781 35.4375
Q35.1562 39.8906 26.7031 39.8906
Q22.75 39.8906 18.8125 39.0156
Q14.8906 38.1406 10.7969 36.2812
z
" id="BitstreamVeraSans-Roman-35"/>
      </defs>
      <g transform="translate(409.956473214 206.938125)scale(0.12 -0.12)">
       <use xlink:href="#BitstreamVeraSans-Roman-35"/>
      </g>
     </g>
    </g>
    <g id="xtick_7">
     <g id="line2d_16">
      <g>
       <use style="stroke:#000000;stroke-width:0.5;" x="486.507142857" xlink:href="#m93b0483c22" y="193.82"/>
      </g>
     </g>
     <g id="line2d_17">
      <g>
       <use style="stroke:#000000;stroke-width:0.5;" x="486.507142857" xlink:href="#m741efc42ff" y="28.76"/>
      </g>
     </g>
     <g id="text_7">
      <!-- 6 -->
      <defs>
       <path d="
M33.0156 40.375
Q26.375 40.375 22.4844 35.8281
Q18.6094 31.2969 18.6094 23.3906
Q18.6094 15.5312 22.4844 10.9531
Q26.375 6.39062 33.0156 6.39062
Q39.6562 6.39062 43.5312 10.9531
Q47.4062 15.5312 47.4062 23.3906
Q47.4062 31.2969 43.5312 35.8281
Q39.6562 40.375 33.0156 40.375
M52.5938 71.2969
L52.5938 62.3125
Q48.875 64.0625 45.0938 64.9844
Q41.3125 65.9219 37.5938 65.9219
Q27.8281 65.9219 22.6719 59.3281
Q17.5312 52.7344 16.7969 39.4062
Q19.6719 43.6562 24.0156 45.9219
Q28.375 48.1875 33.5938 48.1875
Q44.5781 48.1875 50.9531 41.5156
Q57.3281 34.8594 57.3281 23.3906
Q57.3281 12.1562 50.6875 5.35938
Q44.0469 -1.42188 33.0156 -1.42188
Q20.3594 -1.42188 13.6719 8.26562
Q6.98438 17.9688 6.98438 36.375
Q6.98438 53.6562 15.1875 63.9375
Q23.3906 74.2188 37.2031 74.2188
Q40.9219 74.2188 44.7031 73.4844
Q48.4844 72.75 52.5938 71.2969" id="BitstreamVeraSans-Roman-36"/>
      </defs>
      <g transform="translate(483.486517857 206.938125)scale(0.12 -0.12)">
       <use xlink:href="#BitstreamVeraSans-Roman-36"/>
      </g>
     </g>
    </g>
    <g id="xtick_8">
     <g id="line2d_18">
      <g>
       <use style="stroke:#000000;stroke-width:0.5;" x="560.2275" xlink:href="#m93b0483c22" y="193.82"/>
      </g>
     </g>
     <g id="line2d_19">
      <g>
       <use style="stroke:#000000;stroke-width:0.5;" x="560.2275" xlink:href="#m741efc42ff" y="28.76"/>
      </g>
     </g>
     <g id="text_8">
      <!-- 7 -->
      <defs>
       <path d="
M8.20312 72.9062
L55.0781 72.9062
L55.0781 68.7031
L28.6094 0
L18.3125 0
L43.2188 64.5938
L8.20312 64.5938
z
" id="BitstreamVeraSans-Roman-37"/>
      </defs>
      <g transform="translate(557.415 206.938125)scale(0.12 -0.12)">
       <use xlink:href="#BitstreamVeraSans-Roman-37"/>
      </g>
     </g>
    </g>
   </g>
   <g id="matplotlib.axis_2">
    <g id="ytick_1">
     <g id="line2d_20">
      <defs>
       <path d="
M0 0
L4 0" id="m728421d6d4" style="stroke:#000000;stroke-width:0.5;"/>
      </defs>
      <g>
       <use style="stroke:#000000;stroke-width:0.5;" x="44.185" xlink:href="#m728421d6d4" y="193.82"/>
      </g>
     </g>
     <g id="line2d_21">
      <defs>
       <path d="
M0 0
L-4 0" id="mcb0005524f" style="stroke:#000000;stroke-width:0.5;"/>
      </defs>
      <g>
       <use style="stroke:#000000;stroke-width:0.5;" x="560.2275" xlink:href="#mcb0005524f" y="193.82"/>
      </g>
     </g>
     <g id="text_9">
      <!-- −1.5 -->
      <defs>
       <path d="
M10.5938 35.5
L73.1875 35.5
L73.1875 27.2031
L10.5938 27.2031
z
" id="BitstreamVeraSans-Roman-2212"/>
       <path d="
M10.6875 12.4062
L21 12.4062
L21 0
L10.6875 0
z
" id="BitstreamVeraSans-Roman-2e"/>
      </defs>
      <g transform="translate(13.365 197.13125)scale(0.12 -0.12)">
       <use xlink:href="#BitstreamVeraSans-Roman-2212"/>
       <use x="83.7890625" xlink:href="#BitstreamVeraSans-Roman-31"/>
       <use x="147.412109375" xlink:href="#BitstreamVeraSans-Roman-2e"/>
       <use x="179.19921875" xlink:href="#BitstreamVeraSans-Roman-35"/>
      </g>
     </g>
    </g>
    <g id="ytick_2">
     <g id="line2d_22">
      <g>
       <use style="stroke:#000000;stroke-width:0.5;" x="44.185" xlink:href="#m728421d6d4" y="166.31"/>
      </g>
     </g>
     <g id="line2d_23">
      <g>
       <use style="stroke:#000000;stroke-width:0.5;" x="560.2275" xlink:href="#mcb0005524f" y="166.31"/>
      </g>
     </g>
     <g id="text_10">
      <!-- −1.0 -->
      <g transform="translate(13.11375 169.62125)scale(0.12 -0.12)">
       <use xlink:href="#BitstreamVeraSans-Roman-2212"/>
       <use x="83.7890625" xlink:href="#BitstreamVeraSans-Roman-31"/>
       <use x="147.412109375" xlink:href="#BitstreamVeraSans-Roman-2e"/>
       <use x="179.19921875" xlink:href="#BitstreamVeraSans-Roman-30"/>
      </g>
     </g>
    </g>
    <g id="ytick_3">
     <g id="line2d_24">
      <g>
       <use style="stroke:#000000;stroke-width:0.5;" x="44.185" xlink:href="#m728421d6d4" y="138.8"/>
      </g>
     </g>
     <g id="line2d_25">
      <g>
       <use style="stroke:#000000;stroke-width:0.5;" x="560.2275" xlink:href="#mcb0005524f" y="138.8"/>
      </g>
     </g>
     <g id="text_11">
      <!-- −0.5 -->
      <g transform="translate(13.365 142.11125)scale(0.12 -0.12)">
       <use xlink:href="#BitstreamVeraSans-Roman-2212"/>
       <use x="83.7890625" xlink:href="#BitstreamVeraSans-Roman-30"/>
       <use x="147.412109375" xlink:href="#BitstreamVeraSans-Roman-2e"/>
       <use x="179.19921875" xlink:href="#BitstreamVeraSans-Roman-35"/>
      </g>
     </g>
    </g>
    <g id="ytick_4">
     <g id="line2d_26">
      <g>
       <use style="stroke:#000000;stroke-width:0.5;" x="44.185" xlink:href="#m728421d6d4" y="111.29"/>
      </g>
     </g>
     <g id="line2d_27">
      <g>
       <use style="stroke:#000000;stroke-width:0.5;" x="560.2275" xlink:href="#mcb0005524f" y="111.29"/>
      </g>
     </g>
     <g id="text_12">
      <!-- 0.0 -->
      <g transform="translate(22.689375 114.60125)scale(0.12 -0.12)">
       <use xlink:href="#BitstreamVeraSans-Roman-30"/>
       <use x="63.623046875" xlink:href="#BitstreamVeraSans-Roman-2e"/>
       <use x="95.41015625" xlink:href="#BitstreamVeraSans-Roman-30"/>
      </g>
     </g>
    </g>
    <g id="ytick_5">
     <g id="line2d_28">
      <g>
       <use style="stroke:#000000;stroke-width:0.5;" x="44.185" xlink:href="#m728421d6d4" y="83.78"/>
      </g>
     </g>
     <g id="line2d_29">
      <g>
       <use style="stroke:#000000;stroke-width:0.5;" x="560.2275" xlink:href="#mcb0005524f" y="83.78"/>
      </g>
     </g>
     <g id="text_13">
      <!-- 0.5 -->
      <g transform="translate(22.940625 87.09125)scale(0.12 -0.12)">
       <use xlink:href="#BitstreamVeraSans-Roman-30"/>
       <use x="63.623046875" xlink:href="#BitstreamVeraSans-Roman-2e"/>
       <use x="95.41015625" xlink:href="#BitstreamVeraSans-Roman-35"/>
      </g>
     </g>
    </g>
    <g id="ytick_6">
     <g id="line2d_30">
      <g>
       <use style="stroke:#000000;stroke-width:0.5;" x="44.185" xlink:href="#m728421d6d4" y="56.27"/>
      </g>
     </g>
     <g id="line2d_31">
      <g>
       <use style="stroke:#000000;stroke-width:0.5;" x="560.2275" xlink:href="#mcb0005524f" y="56.27"/>
      </g>
     </g>
     <g id="text_14">
      <!-- 1.0 -->
      <g transform="translate(23.21625 59.58125)scale(0.12 -0.12)">
       <use xlink:href="#BitstreamVeraSans-Roman-31"/>
       <use x="63.623046875" xlink:href="#BitstreamVeraSans-Roman-2e"/>
       <use x="95.41015625" xlink:href="#BitstreamVeraSans-Roman-30"/>
      </g>
     </g>
    </g>
    <g id="ytick_7">
     <g id="line2d_32">
      <g>
       <use style="stroke:#000000;stroke-width:0.5;" x="44.185" xlink:href="#m728421d6d4" y="28.76"/>
      </g>
     </g>
     <g id="line2d_33">
      <g>
       <use style="stroke:#000000;stroke-width:0.5;" x="560.2275" xlink:href="#mcb0005524f" y="28.76"/>
      </g>
     </g>
     <g id="text_15">
      <!-- 1.5 -->
      <g transform="translate(23.4675 32.07125)scale(0.12 -0.12)">
       <use xlink:href="#BitstreamVeraSans-Roman-31"/>
       <use x="63.623046875" xlink:href="#BitstreamVeraSans-Roman-2e"/>
       <use x="95.41015625" xlink:href="#BitstreamVeraSans-Roman-35"/>
      </g>
     </g>
    </g>
   </g>
   <g id="patch_3">
    <path d="
M44.185 28.76
L560.227 28.76" style="fill:none;stroke:#000000;"/>
   </g>
   <g id="patch_4">
    <path d="
M560.227 193.82
L560.227 28.76" style="fill:none;stroke:#000000;"/>
   </g>
   <g id="patch_5">
    <path d="
M44.185 193.82
L560.227 193.82" style="fill:none;stroke:#000000;"/>
   </g>
   <g id="patch_6">
    <path d="
M44.185 193.82
L44.185 28.76" style="fill:none;stroke:#000000;"/>
   </g>
   <g id="text_16">
    <!-- f(t) ve Fourier Serisi, n=5 -->
    <defs>
     <path id="BitstreamVeraSans-Roman-20"/>
     <path d="
M8.5 21.5781
L8.5 54.6875
L17.4844 54.6875
L17.4844 21.9219
Q17.4844 14.1562 20.5 10.2656
Q23.5312 6.39062 29.5938 6.39062
Q36.8594 6.39062 41.0781 11.0312
Q45.3125 15.6719 45.3125 23.6875
L45.3125 54.6875
L54.2969 54.6875
L54.2969 0
L45.3125 0
L45.3125 8.40625
Q42.0469 3.42188 37.7188 1
Q33.4062 -1.42188 27.6875 -1.42188
Q18.2656 -1.42188 13.375 4.4375
Q8.5 10.2969 8.5 21.5781" id="BitstreamVeraSans-Roman-75"/>
     <path d="
M54.8906 33.0156
L54.8906 0
L45.9062 0
L45.9062 32.7188
Q45.9062 40.4844 42.875 44.3281
Q39.8438 48.1875 33.7969 48.1875
Q26.5156 48.1875 22.3125 43.5469
Q18.1094 38.9219 18.1094 30.9062
L18.1094 0
L9.07812 0
L9.07812 54.6875
L18.1094 54.6875
L18.1094 46.1875
Q21.3438 51.125 25.7031 53.5625
Q30.0781 56 35.7969 56
Q45.2188 56 50.0469 50.1719
Q54.8906 44.3438 54.8906 33.0156" id="BitstreamVeraSans-Roman-6e"/>
     <path d="
M9.8125 72.9062
L51.7031 72.9062
L51.7031 64.5938
L19.6719 64.5938
L19.6719 43.1094
L48.5781 43.1094
L48.5781 34.8125
L19.6719 34.8125
L19.6719 0
L9.8125 0
z
" id="BitstreamVeraSans-Roman-46"/>
     <path d="
M8.01562 75.875
L15.8281 75.875
Q23.1406 64.3594 26.7812 53.3125
Q30.4219 42.2812 30.4219 31.3906
Q30.4219 20.4531 26.7812 9.375
Q23.1406 -1.70312 15.8281 -13.1875
L8.01562 -13.1875
Q14.5 -2 17.7031 9.0625
Q20.9062 20.125 20.9062 31.3906
Q20.9062 42.6719 17.7031 53.6562
Q14.5 64.6562 8.01562 75.875" id="BitstreamVeraSans-Roman-29"/>
     <path d="
M31 75.875
Q24.4688 64.6562 21.2812 53.6562
Q18.1094 42.6719 18.1094 31.3906
Q18.1094 20.125 21.3125 9.0625
Q24.5156 -2 31 -13.1875
L23.1875 -13.1875
Q15.875 -1.70312 12.2344 9.375
Q8.59375 20.4531 8.59375 31.3906
Q8.59375 42.2812 12.2031 53.3125
Q15.8281 64.3594 23.1875 75.875
z
" id="BitstreamVeraSans-Roman-28"/>
     <path d="
M30.6094 48.3906
Q23.3906 48.3906 19.1875 42.75
Q14.9844 37.1094 14.9844 27.2969
Q14.9844 17.4844 19.1562 11.8438
Q23.3438 6.20312 30.6094 6.20312
Q37.7969 6.20312 41.9844 11.8594
Q46.1875 17.5312 46.1875 27.2969
Q46.1875 37.0156 41.9844 42.7031
Q37.7969 48.3906 30.6094 48.3906
M30.6094 56
Q42.3281 56 49.0156 48.375
Q55.7188 40.7656 55.7188 27.2969
Q55.7188 13.875 49.0156 6.21875
Q42.3281 -1.42188 30.6094 -1.42188
Q18.8438 -1.42188 12.1719 6.21875
Q5.51562 13.875 5.51562 27.2969
Q5.51562 40.7656 12.1719 48.375
Q18.8438 56 30.6094 56" id="BitstreamVeraSans-Roman-6f"/>
     <path d="
M56.2031 29.5938
L56.2031 25.2031
L14.8906 25.2031
Q15.4844 15.9219 20.4844 11.0625
Q25.4844 6.20312 34.4219 6.20312
Q39.5938 6.20312 44.4531 7.46875
Q49.3125 8.73438 54.1094 11.2812
L54.1094 2.78125
Q49.2656 0.734375 44.1875 -0.34375
Q39.1094 -1.42188 33.8906 -1.42188
Q20.7969 -1.42188 13.1562 6.1875
Q5.51562 13.8125 5.51562 26.8125
Q5.51562 40.2344 12.7656 48.1094
Q20.0156 56 32.3281 56
Q43.3594 56 49.7812 48.8906
Q56.2031 41.7969 56.2031 29.5938
M47.2188 32.2344
Q47.125 39.5938 43.0938 43.9844
Q39.0625 48.3906 32.4219 48.3906
Q24.9062 48.3906 20.3906 44.1406
Q15.875 39.8906 15.1875 32.1719
z
" id="BitstreamVeraSans-Roman-65"/>
     <path d="
M11.7188 12.4062
L22.0156 12.4062
L22.0156 4
L14.0156 -11.625
L7.71875 -11.625
L11.7188 4
z
" id="BitstreamVeraSans-Roman-2c"/>
     <path d="
M53.5156 70.5156
L53.5156 60.8906
Q47.9062 63.5781 42.9219 64.8906
Q37.9375 66.2188 33.2969 66.2188
Q25.25 66.2188 20.875 63.0938
Q16.5 59.9688 16.5 54.2031
Q16.5 49.3594 19.4062 46.8906
Q22.3125 44.4375 30.4219 42.9219
L36.375 41.7031
Q47.4062 39.5938 52.6562 34.2969
Q57.9062 29 57.9062 20.125
Q57.9062 9.51562 50.7969 4.04688
Q43.7031 -1.42188 29.9844 -1.42188
Q24.8125 -1.42188 18.9688 -0.25
Q13.1406 0.921875 6.89062 3.21875
L6.89062 13.375
Q12.8906 10.0156 18.6562 8.29688
Q24.4219 6.59375 29.9844 6.59375
Q38.4219 6.59375 43.0156 9.90625
Q47.6094 13.2344 47.6094 19.3906
Q47.6094 24.75 44.3125 27.7812
Q41.0156 30.8125 33.5 32.3281
L27.4844 33.5
Q16.4531 35.6875 11.5156 40.375
Q6.59375 45.0625 6.59375 53.4219
Q6.59375 63.0938 13.4062 68.6562
Q20.2188 74.2188 32.1719 74.2188
Q37.3125 74.2188 42.625 73.2812
Q47.9531 72.3594 53.5156 70.5156" id="BitstreamVeraSans-Roman-53"/>
     <path d="
M9.42188 54.6875
L18.4062 54.6875
L18.4062 0
L9.42188 0
z

M9.42188 75.9844
L18.4062 75.9844
L18.4062 64.5938
L9.42188 64.5938
z
" id="BitstreamVeraSans-Roman-69"/>
     <path d="
M10.5938 45.4062
L73.1875 45.4062
L73.1875 37.2031
L10.5938 37.2031
z

M10.5938 25.4844
L73.1875 25.4844
L73.1875 17.1875
L10.5938 17.1875
z
" id="BitstreamVeraSans-Roman-3d"/>
     <path d="
M2.98438 54.6875
L12.5 54.6875
L29.5938 8.79688
L46.6875 54.6875
L56.2031 54.6875
L35.6875 0
L23.4844 0
z
" id="BitstreamVeraSans-Roman-76"/>
     <path d="
M18.3125 70.2188
L18.3125 54.6875
L36.8125 54.6875
L36.8125 47.7031
L18.3125 47.7031
L18.3125 18.0156
Q18.3125 11.3281 20.1406 9.42188
Q21.9688 7.51562 27.5938 7.51562
L36.8125 7.51562
L36.8125 0
L27.5938 0
Q17.1875 0 13.2344 3.875
Q9.28125 7.76562 9.28125 18.0156
L9.28125 47.7031
L2.6875 47.7031
L2.6875 54.6875
L9.28125 54.6875
L9.28125 70.2188
z
" id="BitstreamVeraSans-Roman-74"/>
     <path d="
M37.1094 75.9844
L37.1094 68.5
L28.5156 68.5
Q23.6875 68.5 21.7969 66.5469
Q19.9219 64.5938 19.9219 59.5156
L19.9219 54.6875
L34.7188 54.6875
L34.7188 47.7031
L19.9219 47.7031
L19.9219 0
L10.8906 0
L10.8906 47.7031
L2.29688 47.7031
L2.29688 54.6875
L10.8906 54.6875
L10.8906 58.5
Q10.8906 67.625 15.1406 71.7969
Q19.3906 75.9844 28.6094 75.9844
z
" id="BitstreamVeraSans-Roman-66"/>
     <path d="
M41.1094 46.2969
Q39.5938 47.1719 37.8125 47.5781
Q36.0312 48 33.8906 48
Q26.2656 48 22.1875 43.0469
Q18.1094 38.0938 18.1094 28.8125
L18.1094 0
L9.07812 0
L9.07812 54.6875
L18.1094 54.6875
L18.1094 46.1875
Q20.9531 51.1719 25.4844 53.5781
Q30.0312 56 36.5312 56
Q37.4531 56 38.5781 55.875
Q39.7031 55.7656 41.0625 55.5156
z
" id="BitstreamVeraSans-Roman-72"/>
     <path d="
M44.2812 53.0781
L44.2812 44.5781
Q40.4844 46.5312 36.375 47.5
Q32.2812 48.4844 27.875 48.4844
Q21.1875 48.4844 17.8438 46.4375
Q14.5 44.3906 14.5 40.2812
Q14.5 37.1562 16.8906 35.375
Q19.2812 33.5938 26.5156 31.9844
L29.5938 31.2969
Q39.1562 29.25 43.1875 25.5156
Q47.2188 21.7812 47.2188 15.0938
Q47.2188 7.46875 41.1875 3.01562
Q35.1562 -1.42188 24.6094 -1.42188
Q20.2188 -1.42188 15.4531 -0.5625
Q10.6875 0.296875 5.42188 2
L5.42188 11.2812
Q10.4062 8.6875 15.2344 7.39062
Q20.0625 6.10938 24.8125 6.10938
Q31.1562 6.10938 34.5625 8.28125
Q37.9844 10.4531 37.9844 14.4062
Q37.9844 18.0625 35.5156 20.0156
Q33.0625 21.9688 24.7031 23.7812
L21.5781 24.5156
Q13.2344 26.2656 9.51562 29.9062
Q5.8125 33.5469 5.8125 39.8906
Q5.8125 47.6094 11.2812 51.7969
Q16.75 56 26.8125 56
Q31.7812 56 36.1719 55.2656
Q40.5781 54.5469 44.2812 53.0781" id="BitstreamVeraSans-Roman-73"/>
    </defs>
    <g transform="translate(211.638125 23.76)scale(0.144 -0.144)">
     <use xlink:href="#BitstreamVeraSans-Roman-66"/>
     <use x="35.205078125" xlink:href="#BitstreamVeraSans-Roman-28"/>
     <use x="74.21875" xlink:href="#BitstreamVeraSans-Roman-74"/>
     <use x="113.427734375" xlink:href="#BitstreamVeraSans-Roman-29"/>
     <use x="152.44140625" xlink:href="#BitstreamVeraSans-Roman-20"/>
     <use x="184.228515625" xlink:href="#BitstreamVeraSans-Roman-76"/>
     <use x="243.408203125" xlink:href="#BitstreamVeraSans-Roman-65"/>
     <use x="304.931640625" xlink:href="#BitstreamVeraSans-Roman-20"/>
     <use x="336.71875" xlink:href="#BitstreamVeraSans-Roman-46"/>
     <use x="390.61328125" xlink:href="#BitstreamVeraSans-Roman-6f"/>
     <use x="451.794921875" xlink:href="#BitstreamVeraSans-Roman-75"/>
     <use x="515.173828125" xlink:href="#BitstreamVeraSans-Roman-72"/>
     <use x="556.287109375" xlink:href="#BitstreamVeraSans-Roman-69"/>
     <use x="584.0703125" xlink:href="#BitstreamVeraSans-Roman-65"/>
     <use x="645.59375" xlink:href="#BitstreamVeraSans-Roman-72"/>
     <use x="686.70703125" xlink:href="#BitstreamVeraSans-Roman-20"/>
     <use x="718.494140625" xlink:href="#BitstreamVeraSans-Roman-53"/>
     <use x="781.970703125" xlink:href="#BitstreamVeraSans-Roman-65"/>
     <use x="843.494140625" xlink:href="#BitstreamVeraSans-Roman-72"/>
     <use x="884.607421875" xlink:href="#BitstreamVeraSans-Roman-69"/>
     <use x="912.390625" xlink:href="#BitstreamVeraSans-Roman-73"/>
     <use x="964.490234375" xlink:href="#BitstreamVeraSans-Roman-69"/>
     <use x="992.2734375" xlink:href="#BitstreamVeraSans-Roman-2c"/>
     <use x="1024.06054688" xlink:href="#BitstreamVeraSans-Roman-20"/>
     <use x="1055.84765625" xlink:href="#BitstreamVeraSans-Roman-6e"/>
     <use x="1119.2265625" xlink:href="#BitstreamVeraSans-Roman-3d"/>
     <use x="1203.015625" xlink:href="#BitstreamVeraSans-Roman-35"/>
    </g>
   </g>
   <g id="legend_1">
    <g id="patch_7">
     <path d="
M452.203 82.553
L553.027 82.553
L553.027 35.96
L452.203 35.96
L452.203 82.553
z
" style="fill:#ffffff;stroke:#000000;"/>
    </g>
    <g id="line2d_34">
     <path d="
M462.283 47.6217
L482.443 47.6217" style="fill:none;stroke:#ff0000;stroke-linecap:square;"/>
    </g>
    <g id="line2d_35"/>
    <g id="text_17">
     <!-- f(t) -->
     <g transform="translate(498.28275 52.66175)scale(0.144 -0.144)">
      <use xlink:href="#BitstreamVeraSans-Roman-66"/>
      <use x="35.205078125" xlink:href="#BitstreamVeraSans-Roman-28"/>
      <use x="74.21875" xlink:href="#BitstreamVeraSans-Roman-74"/>
      <use x="113.427734375" xlink:href="#BitstreamVeraSans-Roman-29"/>
     </g>
    </g>
    <g id="line2d_36">
     <path d="
M462.283 68.7583
L482.443 68.7583" style="fill:none;stroke:#0000ff;stroke-linecap:square;"/>
    </g>
    <g id="line2d_37"/>
    <g id="text_18">
     <!-- Fourier -->
     <g transform="translate(498.28275 73.79825)scale(0.144 -0.144)">
      <use xlink:href="#BitstreamVeraSans-Roman-46"/>
      <use x="53.89453125" xlink:href="#BitstreamVeraSans-Roman-6f"/>
      <use x="115.076171875" xlink:href="#BitstreamVeraSans-Roman-75"/>
      <use x="178.455078125" xlink:href="#BitstreamVeraSans-Roman-72"/>
      <use x="219.568359375" xlink:href="#BitstreamVeraSans-Roman-69"/>
      <use x="247.3515625" xlink:href="#BitstreamVeraSans-Roman-65"/>
      <use x="308.875" xlink:href="#BitstreamVeraSans-Roman-72"/>
     </g>
    </g>
   </g>
  </g>
  <g id="axes_2">
   <g id="patch_8">
    <path d="
M44.185 403.34
L560.227 403.34
L560.227 238.28
L44.185 238.28
z
" style="fill:#ffffff;"/>
   </g>
   <g id="line2d_38">
    <path clip-path="url(#p63ad3a7d3c)" d="
M44.185 265.79
L275.784 265.79" style="fill:none;stroke:#ff0000;stroke-linecap:square;"/>
   </g>
   <g id="line2d_39">
    <path clip-path="url(#p63ad3a7d3c)" d="
M44.185 320.81
L44.6487 299.258
L45.1123 280.444
L45.576 266.476
L46.0396 258.382
L46.5033 255.941
L46.967 257.845
L48.358 270.019
L48.8216 271.14
L49.2853 270.12
L50.6763 262.866
L51.1399 262.143
L51.6036 262.845
L52.9946 268.02
L53.4582 268.551
L53.9219 268.014
L55.3129 263.987
L55.7766 263.568
L56.2402 264.006
L57.6312 267.305
L58.0949 267.649
L58.5585 267.279
L59.9495 264.483
L60.4132 264.191
L60.8768 264.513
L62.2678 266.941
L62.7315 267.194
L63.1952 266.908
L64.5861 264.76
L65.0498 264.538
L65.5135 264.795
L66.9045 266.722
L67.3681 266.921
L67.8318 266.686
L69.2228 264.937
L69.6864 264.758
L70.1501 264.974
L71.5411 266.577
L72.0047 266.74
L72.4684 266.539
L73.8594 265.059
L74.3231 264.91
L74.7867 265.098
L76.1777 266.474
L76.6414 266.611
L77.105 266.434
L78.496 265.147
L78.9597 265.02
L79.4233 265.187
L80.8143 266.397
L81.278 266.516
L81.7416 266.356
L83.1326 265.214
L83.5963 265.103
L84.06 265.255
L85.4509 266.339
L85.9146 266.442
L86.3783 266.297
L87.7693 265.266
L88.2329 265.168
L88.6966 265.308
L90.0876 266.292
L90.5512 266.384
L91.0149 266.249
L92.4059 265.307
L92.8695 265.22
L93.3332 265.351
L94.7242 266.255
L95.1879 266.338
L95.6515 266.211
L97.0425 265.341
L97.5062 265.262
L97.9698 265.385
L99.3608 266.225
L99.8245 266.3
L100.288 266.18
L101.679 265.368
L102.143 265.296
L102.606 265.413
L103.997 266.2
L104.461 266.269
L104.925 266.155
L106.316 265.391
L106.779 265.325
L107.243 265.437
L108.634 266.179
L109.098 266.243
L109.561 266.133
L110.952 265.41
L111.416 265.349
L111.88 265.456
L113.271 266.162
L113.734 266.221
L114.198 266.115
L115.589 265.425
L116.053 265.369
L116.516 265.473
L117.907 266.148
L118.371 266.203
L118.835 266.099
L120.226 265.438
L120.689 265.385
L121.153 265.487
L122.544 266.136
L123.008 266.187
L123.935 265.873
L124.862 265.449
L125.326 265.399
L126.253 265.709
L127.181 266.127
L127.644 266.175
L128.572 265.868
L129.499 265.458
L129.963 265.411
L130.89 265.714
L131.817 266.119
L132.281 266.164
L133.208 265.863
L134.135 265.465
L134.599 265.421
L135.526 265.719
L136.454 266.113
L136.917 266.155
L137.845 265.859
L138.772 265.47
L139.236 265.428
L140.163 265.723
L141.09 266.108
L141.554 266.148
L142.481 265.856
L143.409 265.474
L143.872 265.434
L144.8 265.726
L145.727 266.104
L146.191 266.143
L147.118 265.852
L148.045 265.477
L148.509 265.439
L149.436 265.729
L150.364 266.102
L150.827 266.139
L151.755 265.849
L152.682 265.478
L153.146 265.442
L154.073 265.732
L155 266.102
L155.464 266.137
L156.391 265.847
L157.319 265.478
L157.782 265.444
L158.71 265.735
L159.637 266.102
L160.101 266.136
L161.028 265.844
L161.955 265.477
L162.419 265.444
L163.346 265.737
L164.274 266.104
L164.737 266.136
L165.665 265.842
L166.592 265.475
L167.056 265.443
L167.983 265.739
L168.91 266.106
L169.374 266.138
L170.301 265.84
L171.228 265.472
L171.692 265.441
L172.619 265.741
L173.547 266.111
L174.01 266.141
L174.938 265.838
L175.865 265.467
L176.329 265.437
L177.256 265.743
L178.183 266.116
L178.647 266.146
L179.574 265.836
L180.502 265.461
L180.965 265.432
L181.893 265.745
L182.82 266.123
L183.284 266.152
L184.211 265.835
L185.138 265.453
L185.602 265.425
L186.529 265.746
L187.457 266.132
L187.92 266.16
L188.848 265.833
L189.775 265.443
L190.239 265.416
L191.166 265.748
L192.093 266.142
L192.557 266.169
L193.484 265.832
L194.412 265.432
L194.875 265.405
L195.803 265.749
L196.73 266.155
L197.194 266.181
L198.121 265.83
L199.048 265.418
L199.512 265.392
L200.439 265.751
L201.367 266.17
L201.83 266.195
L202.758 265.829
L203.685 265.402
L204.149 265.377
L205.076 265.752
L206.003 266.187
L206.467 266.212
L207.394 265.827
L208.321 265.383
L208.785 265.358
L209.712 265.753
L210.64 266.208
L211.103 266.233
L212.031 265.826
L212.958 265.36
L213.422 265.335
L213.885 265.486
L215.276 266.233
L215.74 266.257
L216.204 266.102
L217.595 265.332
L218.058 265.309
L218.522 265.47
L219.913 266.263
L220.377 266.287
L220.84 266.119
L222.231 265.3
L222.695 265.276
L223.159 265.45
L224.55 266.299
L225.013 266.323
L225.477 266.141
L226.868 265.26
L227.332 265.236
L227.795 265.427
L229.186 266.344
L229.65 266.367
L230.114 266.167
L231.505 265.21
L231.968 265.187
L232.432 265.397
L233.823 266.399
L234.287 266.422
L234.75 266.2
L236.141 265.148
L236.605 265.126
L237.069 265.36
L238.46 266.469
L238.923 266.491
L239.387 266.242
L240.778 265.069
L241.241 265.047
L241.705 265.312
L243.096 266.56
L243.56 266.582
L244.023 266.297
L245.414 264.964
L245.878 264.942
L246.342 265.249
L247.733 266.682
L248.196 266.704
L248.66 266.37
L250.051 264.82
L250.515 264.798
L250.978 265.163
L252.369 266.855
L252.833 266.876
L253.297 266.473
L254.688 264.61
L255.151 264.589
L255.615 265.038
L256.542 266.598
L257.006 267.114
L257.47 267.135
L257.933 266.628
L258.861 264.864
L259.324 264.28
L259.788 264.26
L260.252 264.843
L261.179 266.874
L261.643 267.547
L262.106 267.567
L262.57 266.881
L263.497 264.485
L263.961 263.688
L264.425 263.669
L264.888 264.501
L265.816 267.425
L266.279 268.406
L266.743 268.423
L267.207 267.368
L268.598 262.332
L269.061 262.319
L269.525 263.757
L270.916 270.865
L271.38 270.869
L271.843 268.614
L273.234 256.464
L273.698 256.515
L274.162 261.68
L274.625 272.761
L275.553 309.855
L276.48 352.264
L276.943 368.859
L277.407 379.94
L277.871 385.105
L278.334 385.156
L278.798 381.796
L279.725 373.006
L280.189 370.751
L280.653 370.755
L281.116 372.604
L282.044 377.863
L282.507 379.301
L282.971 379.288
L283.435 378.008
L284.362 374.252
L284.826 373.197
L285.289 373.214
L285.753 374.195
L286.68 377.119
L287.144 377.951
L287.608 377.932
L288.071 377.135
L288.999 374.739
L289.462 374.053
L289.926 374.073
L290.39 374.746
L291.317 376.777
L291.781 377.36
L292.244 377.34
L292.708 376.756
L293.635 374.992
L294.099 374.485
L294.563 374.506
L295.026 375.022
L295.954 376.582
L296.417 377.031
L296.881 377.01
L297.345 376.547
L298.272 375.147
L298.736 374.744
L299.199 374.765
L299.663 375.186
L300.59 376.457
L301.054 376.822
L301.518 376.8
L301.981 376.414
L302.909 375.25
L303.372 374.916
L303.836 374.938
L304.3 375.295
L305.227 376.371
L305.691 376.678
L306.154 376.656
L306.618 376.323
L307.545 375.323
L308.009 375.038
L308.473 375.06
L308.936 375.373
L309.864 376.308
L310.327 376.573
L310.791 376.551
L311.255 376.257
L312.182 375.378
L312.645 375.129
L313.109 375.151
L313.573 375.43
L314.5 376.26
L314.964 376.494
L315.427 376.472
L315.891 376.207
L316.818 375.42
L317.282 375.198
L317.746 375.221
L318.209 375.474
L319.137 376.223
L319.6 376.433
L320.064 376.41
L320.991 375.801
L321.455 375.453
L321.919 375.253
L322.382 375.276
L323.31 375.86
L323.773 376.193
L324.237 376.384
L324.701 376.36
L325.628 375.799
L326.092 375.479
L326.555 375.297
L327.019 375.321
L327.946 375.862
L328.41 376.17
L328.874 376.344
L329.337 376.32
L330.265 375.797
L331.192 375.333
L331.656 375.357
L332.583 375.864
L333.51 376.311
L333.974 376.288
L334.901 375.796
L335.829 375.363
L336.292 375.387
L337.22 375.865
L338.147 376.285
L338.611 376.26
L339.538 375.794
L340.465 375.387
L340.929 375.412
L341.856 375.867
L342.784 376.262
L343.247 376.237
L344.175 375.793
L345.102 375.408
L345.566 375.433
L346.493 375.868
L347.42 376.243
L347.884 376.218
L348.811 375.791
L349.738 375.425
L350.202 375.45
L351.129 375.869
L352.057 376.228
L352.52 376.202
L353.448 375.79
L354.375 375.439
L354.839 375.465
L355.766 375.871
L356.693 376.215
L357.157 376.188
L358.084 375.788
L359.012 375.451
L359.475 375.478
L360.403 375.872
L361.33 376.204
L361.794 376.177
L362.721 375.787
L363.648 375.46
L364.112 375.488
L365.039 375.874
L365.967 376.195
L366.43 376.167
L367.358 375.785
L368.285 375.468
L368.749 375.497
L371.067 376.159
L372.922 375.474
L373.385 375.504
L375.24 376.183
L375.704 376.153
L377.558 375.479
L378.022 375.509
L379.877 376.179
L380.34 376.148
L382.195 375.482
L382.658 375.514
L384.513 376.177
L384.977 376.145
L386.831 375.484
L387.295 375.516
L389.15 376.176
L389.613 376.143
L391.468 375.484
L391.932 375.518
L393.786 376.176
L394.25 376.142
L396.105 375.483
L396.568 375.518
L398.423 376.178
L398.887 376.142
L400.741 375.481
L401.205 375.518
L403.06 376.181
L403.523 376.143
L405.378 375.477
L405.842 375.516
L407.696 376.186
L408.16 376.146
L410.015 375.472
L410.478 375.512
L412.333 376.192
L412.797 376.15
L414.651 375.465
L415.115 375.507
L416.97 376.199
L417.433 376.155
L419.288 375.456
L419.751 375.501
L421.606 376.209
L422.07 376.162
L423.924 375.445
L424.388 375.493
L426.243 376.221
L426.706 376.171
L428.561 375.433
L429.025 375.484
L430.879 376.235
L431.343 376.182
L433.198 375.417
L433.661 375.472
L435.516 376.251
L435.98 376.195
L437.834 375.399
L438.298 375.458
L440.153 376.271
L440.616 376.21
L442.471 375.377
L442.935 375.441
L444.789 376.295
L445.253 376.229
L447.108 375.351
L447.571 375.42
L449.426 376.324
L449.89 376.252
L451.744 375.32
L452.208 375.395
L454.062 376.358
L454.526 376.279
L456.381 375.282
L456.844 375.365
L458.699 376.4
L459.163 376.313
L461.017 375.236
L461.481 375.328
L463.336 376.452
L463.799 376.354
L465.654 375.178
L466.118 375.281
L467.972 376.517
L468.436 376.406
L470.291 375.104
L470.754 375.223
L471.682 376.041
L472.145 376.433
L472.609 376.6
L473.073 376.473
L474 375.602
L474.464 375.186
L474.927 375.009
L475.391 375.146
L476.318 376.078
L476.782 376.522
L477.246 376.71
L477.709 376.561
L478.637 375.558
L479.1 375.081
L479.564 374.88
L480.028 375.043
L480.955 376.129
L481.419 376.646
L481.882 376.862
L482.346 376.683
L483.273 375.497
L483.737 374.934
L484.201 374.699
L484.664 374.898
L485.592 376.204
L486.055 376.825
L486.519 377.082
L486.983 376.86
L487.91 375.403
L488.374 374.712
L488.837 374.426
L489.301 374.679
L489.764 375.398
L490.692 377.107
L491.155 377.429
L491.619 377.137
L492.083 376.311
L493.01 374.341
L493.474 373.971
L493.937 374.315
L494.401 375.287
L495.328 377.614
L495.792 378.052
L496.256 377.633
L496.719 376.453
L497.647 373.606
L498.11 373.069
L498.574 373.6
L499.038 375.101
L499.965 378.775
L500.429 379.477
L500.892 378.754
L501.356 376.693
L502.283 371.5
L502.747 370.48
L503.211 371.601
L503.674 374.887
L504.602 383.775
L505.065 385.679
L505.529 383.238
L505.993 375.144
L506.456 361.176
L507.384 320.81
L507.384 320.81" style="fill:none;stroke:#0000ff;stroke-linecap:square;"/>
   </g>
   <g id="line2d_40">
    <path clip-path="url(#p63ad3a7d3c)" d="
M275.784 375.83
L507.384 375.83" style="fill:none;stroke:#ff0000;stroke-linecap:square;"/>
   </g>
   <g id="matplotlib.axis_3">
    <g id="xtick_9">
     <g id="line2d_41">
      <g>
       <use style="stroke:#000000;stroke-width:0.5;" x="44.185" xlink:href="#m93b0483c22" y="403.34"/>
      </g>
     </g>
     <g id="line2d_42">
      <g>
       <use style="stroke:#000000;stroke-width:0.5;" x="44.185" xlink:href="#m741efc42ff" y="238.28"/>
      </g>
     </g>
     <g id="text_19">
      <!-- 0 -->
      <g transform="translate(41.1615625 416.458125)scale(0.12 -0.12)">
       <use xlink:href="#BitstreamVeraSans-Roman-30"/>
      </g>
     </g>
    </g>
    <g id="xtick_10">
     <g id="line2d_43">
      <g>
       <use style="stroke:#000000;stroke-width:0.5;" x="117.905357143" xlink:href="#m93b0483c22" y="403.34"/>
      </g>
     </g>
     <g id="line2d_44">
      <g>
       <use style="stroke:#000000;stroke-width:0.5;" x="117.905357143" xlink:href="#m741efc42ff" y="238.28"/>
      </g>
     </g>
     <g id="text_20">
      <!-- 1 -->
      <g transform="translate(115.300982143 416.458125)scale(0.12 -0.12)">
       <use xlink:href="#BitstreamVeraSans-Roman-31"/>
      </g>
     </g>
    </g>
    <g id="xtick_11">
     <g id="line2d_45">
      <g>
       <use style="stroke:#000000;stroke-width:0.5;" x="191.625714286" xlink:href="#m93b0483c22" y="403.34"/>
      </g>
     </g>
     <g id="line2d_46">
      <g>
       <use style="stroke:#000000;stroke-width:0.5;" x="191.625714286" xlink:href="#m741efc42ff" y="238.28"/>
      </g>
     </g>
     <g id="text_21">
      <!-- 2 -->
      <g transform="translate(188.848839286 416.458125)scale(0.12 -0.12)">
       <use xlink:href="#BitstreamVeraSans-Roman-32"/>
      </g>
     </g>
    </g>
    <g id="xtick_12">
     <g id="line2d_47">
      <g>
       <use style="stroke:#000000;stroke-width:0.5;" x="265.346071429" xlink:href="#m93b0483c22" y="403.34"/>
      </g>
     </g>
     <g id="line2d_48">
      <g>
       <use style="stroke:#000000;stroke-width:0.5;" x="265.346071429" xlink:href="#m741efc42ff" y="238.28"/>
      </g>
     </g>
     <g id="text_22">
      <!-- 3 -->
      <g transform="translate(262.467008929 416.458125)scale(0.12 -0.12)">
       <use xlink:href="#BitstreamVeraSans-Roman-33"/>
      </g>
     </g>
    </g>
    <g id="xtick_13">
     <g id="line2d_49">
      <g>
       <use style="stroke:#000000;stroke-width:0.5;" x="339.066428571" xlink:href="#m93b0483c22" y="403.34"/>
      </g>
     </g>
     <g id="line2d_50">
      <g>
       <use style="stroke:#000000;stroke-width:0.5;" x="339.066428571" xlink:href="#m741efc42ff" y="238.28"/>
      </g>
     </g>
     <g id="text_23">
      <!-- 4 -->
      <g transform="translate(335.878928571 416.458125)scale(0.12 -0.12)">
       <use xlink:href="#BitstreamVeraSans-Roman-34"/>
      </g>
     </g>
    </g>
    <g id="xtick_14">
     <g id="line2d_51">
      <g>
       <use style="stroke:#000000;stroke-width:0.5;" x="412.786785714" xlink:href="#m93b0483c22" y="403.34"/>
      </g>
     </g>
     <g id="line2d_52">
      <g>
       <use style="stroke:#000000;stroke-width:0.5;" x="412.786785714" xlink:href="#m741efc42ff" y="238.28"/>
      </g>
     </g>
     <g id="text_24">
      <!-- 5 -->
      <g transform="translate(409.956473214 416.458125)scale(0.12 -0.12)">
       <use xlink:href="#BitstreamVeraSans-Roman-35"/>
      </g>
     </g>
    </g>
    <g id="xtick_15">
     <g id="line2d_53">
      <g>
       <use style="stroke:#000000;stroke-width:0.5;" x="486.507142857" xlink:href="#m93b0483c22" y="403.34"/>
      </g>
     </g>
     <g id="line2d_54">
      <g>
       <use style="stroke:#000000;stroke-width:0.5;" x="486.507142857" xlink:href="#m741efc42ff" y="238.28"/>
      </g>
     </g>
     <g id="text_25">
      <!-- 6 -->
      <g transform="translate(483.486517857 416.458125)scale(0.12 -0.12)">
       <use xlink:href="#BitstreamVeraSans-Roman-36"/>
      </g>
     </g>
    </g>
    <g id="xtick_16">
     <g id="line2d_55">
      <g>
       <use style="stroke:#000000;stroke-width:0.5;" x="560.2275" xlink:href="#m93b0483c22" y="403.34"/>
      </g>
     </g>
     <g id="line2d_56">
      <g>
       <use style="stroke:#000000;stroke-width:0.5;" x="560.2275" xlink:href="#m741efc42ff" y="238.28"/>
      </g>
     </g>
     <g id="text_26">
      <!-- 7 -->
      <g transform="translate(557.415 416.458125)scale(0.12 -0.12)">
       <use xlink:href="#BitstreamVeraSans-Roman-37"/>
      </g>
     </g>
    </g>
   </g>
   <g id="matplotlib.axis_4">
    <g id="ytick_8">
     <g id="line2d_57">
      <g>
       <use style="stroke:#000000;stroke-width:0.5;" x="44.185" xlink:href="#m728421d6d4" y="403.34"/>
      </g>
     </g>
     <g id="line2d_58">
      <g>
       <use style="stroke:#000000;stroke-width:0.5;" x="560.2275" xlink:href="#mcb0005524f" y="403.34"/>
      </g>
     </g>
     <g id="text_27">
      <!-- −1.5 -->
      <g transform="translate(13.365 406.65125)scale(0.12 -0.12)">
       <use xlink:href="#BitstreamVeraSans-Roman-2212"/>
       <use x="83.7890625" xlink:href="#BitstreamVeraSans-Roman-31"/>
       <use x="147.412109375" xlink:href="#BitstreamVeraSans-Roman-2e"/>
       <use x="179.19921875" xlink:href="#BitstreamVeraSans-Roman-35"/>
      </g>
     </g>
    </g>
    <g id="ytick_9">
     <g id="line2d_59">
      <g>
       <use style="stroke:#000000;stroke-width:0.5;" x="44.185" xlink:href="#m728421d6d4" y="375.83"/>
      </g>
     </g>
     <g id="line2d_60">
      <g>
       <use style="stroke:#000000;stroke-width:0.5;" x="560.2275" xlink:href="#mcb0005524f" y="375.83"/>
      </g>
     </g>
     <g id="text_28">
      <!-- −1.0 -->
      <g transform="translate(13.11375 379.14125)scale(0.12 -0.12)">
       <use xlink:href="#BitstreamVeraSans-Roman-2212"/>
       <use x="83.7890625" xlink:href="#BitstreamVeraSans-Roman-31"/>
       <use x="147.412109375" xlink:href="#BitstreamVeraSans-Roman-2e"/>
       <use x="179.19921875" xlink:href="#BitstreamVeraSans-Roman-30"/>
      </g>
     </g>
    </g>
    <g id="ytick_10">
     <g id="line2d_61">
      <g>
       <use style="stroke:#000000;stroke-width:0.5;" x="44.185" xlink:href="#m728421d6d4" y="348.32"/>
      </g>
     </g>
     <g id="line2d_62">
      <g>
       <use style="stroke:#000000;stroke-width:0.5;" x="560.2275" xlink:href="#mcb0005524f" y="348.32"/>
      </g>
     </g>
     <g id="text_29">
      <!-- −0.5 -->
      <g transform="translate(13.365 351.63125)scale(0.12 -0.12)">
       <use xlink:href="#BitstreamVeraSans-Roman-2212"/>
       <use x="83.7890625" xlink:href="#BitstreamVeraSans-Roman-30"/>
       <use x="147.412109375" xlink:href="#BitstreamVeraSans-Roman-2e"/>
       <use x="179.19921875" xlink:href="#BitstreamVeraSans-Roman-35"/>
      </g>
     </g>
    </g>
    <g id="ytick_11">
     <g id="line2d_63">
      <g>
       <use style="stroke:#000000;stroke-width:0.5;" x="44.185" xlink:href="#m728421d6d4" y="320.81"/>
      </g>
     </g>
     <g id="line2d_64">
      <g>
       <use style="stroke:#000000;stroke-width:0.5;" x="560.2275" xlink:href="#mcb0005524f" y="320.81"/>
      </g>
     </g>
     <g id="text_30">
      <!-- 0.0 -->
      <g transform="translate(22.689375 324.12125)scale(0.12 -0.12)">
       <use xlink:href="#BitstreamVeraSans-Roman-30"/>
       <use x="63.623046875" xlink:href="#BitstreamVeraSans-Roman-2e"/>
       <use x="95.41015625" xlink:href="#BitstreamVeraSans-Roman-30"/>
      </g>
     </g>
    </g>
    <g id="ytick_12">
     <g id="line2d_65">
      <g>
       <use style="stroke:#000000;stroke-width:0.5;" x="44.185" xlink:href="#m728421d6d4" y="293.3"/>
      </g>
     </g>
     <g id="line2d_66">
      <g>
       <use style="stroke:#000000;stroke-width:0.5;" x="560.2275" xlink:href="#mcb0005524f" y="293.3"/>
      </g>
     </g>
     <g id="text_31">
      <!-- 0.5 -->
      <g transform="translate(22.940625 296.61125)scale(0.12 -0.12)">
       <use xlink:href="#BitstreamVeraSans-Roman-30"/>
       <use x="63.623046875" xlink:href="#BitstreamVeraSans-Roman-2e"/>
       <use x="95.41015625" xlink:href="#BitstreamVeraSans-Roman-35"/>
      </g>
     </g>
    </g>
    <g id="ytick_13">
     <g id="line2d_67">
      <g>
       <use style="stroke:#000000;stroke-width:0.5;" x="44.185" xlink:href="#m728421d6d4" y="265.79"/>
      </g>
     </g>
     <g id="line2d_68">
      <g>
       <use style="stroke:#000000;stroke-width:0.5;" x="560.2275" xlink:href="#mcb0005524f" y="265.79"/>
      </g>
     </g>
     <g id="text_32">
      <!-- 1.0 -->
      <g transform="translate(23.21625 269.10125)scale(0.12 -0.12)">
       <use xlink:href="#BitstreamVeraSans-Roman-31"/>
       <use x="63.623046875" xlink:href="#BitstreamVeraSans-Roman-2e"/>
       <use x="95.41015625" xlink:href="#BitstreamVeraSans-Roman-30"/>
      </g>
     </g>
    </g>
    <g id="ytick_14">
     <g id="line2d_69">
      <g>
       <use style="stroke:#000000;stroke-width:0.5;" x="44.185" xlink:href="#m728421d6d4" y="238.28"/>
      </g>
     </g>
     <g id="line2d_70">
      <g>
       <use style="stroke:#000000;stroke-width:0.5;" x="560.2275" xlink:href="#mcb0005524f" y="238.28"/>
      </g>
     </g>
     <g id="text_33">
      <!-- 1.5 -->
      <g transform="translate(23.4675 241.59125)scale(0.12 -0.12)">
       <use xlink:href="#BitstreamVeraSans-Roman-31"/>
       <use x="63.623046875" xlink:href="#BitstreamVeraSans-Roman-2e"/>
       <use x="95.41015625" xlink:href="#BitstreamVeraSans-Roman-35"/>
      </g>
     </g>
    </g>
   </g>
   <g id="patch_9">
    <path d="
M44.185 238.28
L560.227 238.28" style="fill:none;stroke:#000000;"/>
   </g>
   <g id="patch_10">
    <path d="
M560.227 403.34
L560.227 238.28" style="fill:none;stroke:#000000;"/>
   </g>
   <g id="patch_11">
    <path d="
M44.185 403.34
L560.227 403.34" style="fill:none;stroke:#000000;"/>
   </g>
   <g id="patch_12">
    <path d="
M44.185 403.34
L44.185 238.28" style="fill:none;stroke:#000000;"/>
   </g>
   <g id="text_34">
    <!-- f(t) ve Fourier Serisi, n=50 -->
    <g transform="translate(206.906375 233.28)scale(0.144 -0.144)">
     <use xlink:href="#BitstreamVeraSans-Roman-66"/>
     <use x="35.205078125" xlink:href="#BitstreamVeraSans-Roman-28"/>
     <use x="74.21875" xlink:href="#BitstreamVeraSans-Roman-74"/>
     <use x="113.427734375" xlink:href="#BitstreamVeraSans-Roman-29"/>
     <use x="152.44140625" xlink:href="#BitstreamVeraSans-Roman-20"/>
     <use x="184.228515625" xlink:href="#BitstreamVeraSans-Roman-76"/>
     <use x="243.408203125" xlink:href="#BitstreamVeraSans-Roman-65"/>
     <use x="304.931640625" xlink:href="#BitstreamVeraSans-Roman-20"/>
     <use x="336.71875" xlink:href="#BitstreamVeraSans-Roman-46"/>
     <use x="390.61328125" xlink:href="#BitstreamVeraSans-Roman-6f"/>
     <use x="451.794921875" xlink:href="#BitstreamVeraSans-Roman-75"/>
     <use x="515.173828125" xlink:href="#BitstreamVeraSans-Roman-72"/>
     <use x="556.287109375" xlink:href="#BitstreamVeraSans-Roman-69"/>
     <use x="584.0703125" xlink:href="#BitstreamVeraSans-Roman-65"/>
     <use x="645.59375" xlink:href="#BitstreamVeraSans-Roman-72"/>
     <use x="686.70703125" xlink:href="#BitstreamVeraSans-Roman-20"/>
     <use x="718.494140625" xlink:href="#BitstreamVeraSans-Roman-53"/>
     <use x="781.970703125" xlink:href="#BitstreamVeraSans-Roman-65"/>
     <use x="843.494140625" xlink:href="#BitstreamVeraSans-Roman-72"/>
     <use x="884.607421875" xlink:href="#BitstreamVeraSans-Roman-69"/>
     <use x="912.390625" xlink:href="#BitstreamVeraSans-Roman-73"/>
     <use x="964.490234375" xlink:href="#BitstreamVeraSans-Roman-69"/>
     <use x="992.2734375" xlink:href="#BitstreamVeraSans-Roman-2c"/>
     <use x="1024.06054688" xlink:href="#BitstreamVeraSans-Roman-20"/>
     <use x="1055.84765625" xlink:href="#BitstreamVeraSans-Roman-6e"/>
     <use x="1119.2265625" xlink:href="#BitstreamVeraSans-Roman-3d"/>
     <use x="1203.015625" xlink:href="#BitstreamVeraSans-Roman-35"/>
     <use x="1266.63867188" xlink:href="#BitstreamVeraSans-Roman-30"/>
    </g>
   </g>
   <g id="legend_2">
    <g id="patch_13">
     <path d="
M452.203 292.073
L553.027 292.073
L553.027 245.48
L452.203 245.48
L452.203 292.073
z
" style="fill:#ffffff;stroke:#000000;"/>
    </g>
    <g id="line2d_71">
     <path d="
M462.283 257.142
L482.443 257.142" style="fill:none;stroke:#ff0000;stroke-linecap:square;"/>
    </g>
    <g id="line2d_72"/>
    <g id="text_35">
     <!-- f(t) -->
     <g transform="translate(498.28275 262.18175)scale(0.144 -0.144)">
      <use xlink:href="#BitstreamVeraSans-Roman-66"/>
      <use x="35.205078125" xlink:href="#BitstreamVeraSans-Roman-28"/>
      <use x="74.21875" xlink:href="#BitstreamVeraSans-Roman-74"/>
      <use x="113.427734375" xlink:href="#BitstreamVeraSans-Roman-29"/>
     </g>
    </g>
    <g id="line2d_73">
     <path d="
M462.283 278.278
L482.443 278.278" style="fill:none;stroke:#0000ff;stroke-linecap:square;"/>
    </g>
    <g id="line2d_74"/>
    <g id="text_36">
     <!-- Fourier -->
     <g transform="translate(498.28275 283.31825)scale(0.144 -0.144)">
      <use xlink:href="#BitstreamVeraSans-Roman-46"/>
      <use x="53.89453125" xlink:href="#BitstreamVeraSans-Roman-6f"/>
      <use x="115.076171875" xlink:href="#BitstreamVeraSans-Roman-75"/>
      <use x="178.455078125" xlink:href="#BitstreamVeraSans-Roman-72"/>
      <use x="219.568359375" xlink:href="#BitstreamVeraSans-Roman-69"/>
      <use x="247.3515625" xlink:href="#BitstreamVeraSans-Roman-65"/>
      <use x="308.875" xlink:href="#BitstreamVeraSans-Roman-72"/>
     </g>
    </g>
   </g>
  </g>
 </g>
 <defs>
  <clipPath id="p69bacea51b">
   <rect height="165.06" width="516.0425" x="44.185" y="28.76"/>
  </clipPath>
  <clipPath id="p63ad3a7d3c">
   <rect height="165.06" width="516.0425" x="44.185" y="238.28"/>
  </clipPath>
 </defs>
</svg>
