<?xml version="1.0" encoding="utf-8" standalone="no"?>
<!DOCTYPE svg PUBLIC "-//W3C//DTD SVG 1.1//EN"
  "http://www.w3.org/Graphics/SVG/1.1/DTD/svg11.dtd">
<!-- Created with matplotlib (https://matplotlib.org/) -->
<svg height="345.6pt" version="1.1" viewBox="0 0 460.8 345.6" width="460.8pt" xmlns="http://www.w3.org/2000/svg" xmlns:xlink="http://www.w3.org/1999/xlink">
 <defs>
  <style type="text/css">
*{stroke-linecap:butt;stroke-linejoin:round;}
  </style>
 </defs>
 <g id="figure_1">
  <g id="patch_1">
   <path d="M 0 345.6 
L 460.8 345.6 
L 460.8 0 
L 0 0 
z
" style="fill:#ffffff;"/>
  </g>
  <g id="patch_2">
   <path d="M 57.6 307.584 
L 414.72 307.584 
L 414.72 41.472 
L 57.6 41.472 
z
" style="fill:#ffffff;"/>
  </g>
  <g id="pane3d_1">
   <g id="patch_3">
    <path d="M 104.941774 248.782626 
L 207.151387 183.537994 
L 205.449705 58.866209 
L 97.541237 117.48717 
" style="fill:#f2f2f2;opacity:0.5;stroke:#f2f2f2;stroke-linejoin:miter;"/>
   </g>
  </g>
  <g id="pane3d_2">
   <g id="patch_4">
    <path d="M 207.151387 183.537994 
L 372.72135 220.013954 
L 379.648599 91.582742 
L 205.449705 58.866209 
" style="fill:#e6e6e6;opacity:0.5;stroke:#e6e6e6;stroke-linejoin:miter;"/>
   </g>
  </g>
  <g id="pane3d_3">
   <g id="patch_5">
    <path d="M 104.941774 248.782626 
L 279.143747 291.264825 
L 372.72135 220.013954 
L 207.151387 183.537994 
" style="fill:#ececec;opacity:0.5;stroke:#ececec;stroke-linejoin:miter;"/>
   </g>
  </g>
  <g id="axis3d_1">
   <g id="line2d_1">
    <path d="M 104.941774 248.782626 
L 279.143747 291.264825 
" style="fill:none;stroke:#000000;stroke-linecap:square;stroke-width:0.8;"/>
   </g>
   <g id="Line3DCollection_1">
    <path d="M 111.38677 250.354351 
L 213.296836 184.89187 
L 211.901886 60.078002 
" style="fill:none;stroke:#b0b0b0;stroke-width:0.8;"/>
    <path d="M 135.956812 256.346186 
L 236.710924 190.05012 
L 236.494171 64.696713 
" style="fill:none;stroke:#b0b0b0;stroke-width:0.8;"/>
    <path d="M 160.852592 262.417457 
L 260.412818 195.271776 
L 261.404169 69.375094 
" style="fill:none;stroke:#b0b0b0;stroke-width:0.8;"/>
    <path d="M 186.08063 268.569756 
L 284.407856 200.558013 
L 286.638078 74.114309 
" style="fill:none;stroke:#b0b0b0;stroke-width:0.8;"/>
    <path d="M 211.647622 274.804714 
L 308.701512 205.910036 
L 312.202256 78.915552 
" style="fill:none;stroke:#b0b0b0;stroke-width:0.8;"/>
    <path d="M 237.560446 281.12401 
L 333.299393 211.329083 
L 338.103231 83.780049 
" style="fill:none;stroke:#b0b0b0;stroke-width:0.8;"/>
    <path d="M 263.826166 287.529365 
L 358.207252 216.816419 
L 364.347701 88.70906 
" style="fill:none;stroke:#b0b0b0;stroke-width:0.8;"/>
   </g>
   <g id="xtick_1">
    <g id="line2d_2">
     <path d="M 112.264708 249.790403 
L 109.627624 251.484348 
" style="fill:none;stroke:#000000;stroke-linecap:square;stroke-width:0.8;"/>
    </g>
    <g id="text_1">
     <!-- −30 -->
     <defs>
      <path d="M 10.59375 35.5 
L 73.1875 35.5 
L 73.1875 27.203125 
L 10.59375 27.203125 
z
" id="DejaVuSans-8722"/>
      <path d="M 40.578125 39.3125 
Q 47.65625 37.796875 51.625 33 
Q 55.609375 28.21875 55.609375 21.1875 
Q 55.609375 10.40625 48.1875 4.484375 
Q 40.765625 -1.421875 27.09375 -1.421875 
Q 22.515625 -1.421875 17.65625 -0.515625 
Q 12.796875 0.390625 7.625 2.203125 
L 7.625 11.71875 
Q 11.71875 9.328125 16.59375 8.109375 
Q 21.484375 6.890625 26.8125 6.890625 
Q 36.078125 6.890625 40.9375 10.546875 
Q 45.796875 14.203125 45.796875 21.1875 
Q 45.796875 27.640625 41.28125 31.265625 
Q 36.765625 34.90625 28.71875 34.90625 
L 20.21875 34.90625 
L 20.21875 43.015625 
L 29.109375 43.015625 
Q 36.375 43.015625 40.234375 45.921875 
Q 44.09375 48.828125 44.09375 54.296875 
Q 44.09375 59.90625 40.109375 62.90625 
Q 36.140625 65.921875 28.71875 65.921875 
Q 24.65625 65.921875 20.015625 65.03125 
Q 15.375 64.15625 9.8125 62.3125 
L 9.8125 71.09375 
Q 15.4375 72.65625 20.34375 73.4375 
Q 25.25 74.21875 29.59375 74.21875 
Q 40.828125 74.21875 47.359375 69.109375 
Q 53.90625 64.015625 53.90625 55.328125 
Q 53.90625 49.265625 50.4375 45.09375 
Q 46.96875 40.921875 40.578125 39.3125 
z
" id="DejaVuSans-51"/>
      <path d="M 31.78125 66.40625 
Q 24.171875 66.40625 20.328125 58.90625 
Q 16.5 51.421875 16.5 36.375 
Q 16.5 21.390625 20.328125 13.890625 
Q 24.171875 6.390625 31.78125 6.390625 
Q 39.453125 6.390625 43.28125 13.890625 
Q 47.125 21.390625 47.125 36.375 
Q 47.125 51.421875 43.28125 58.90625 
Q 39.453125 66.40625 31.78125 66.40625 
z
M 31.78125 74.21875 
Q 44.046875 74.21875 50.515625 64.515625 
Q 56.984375 54.828125 56.984375 36.375 
Q 56.984375 17.96875 50.515625 8.265625 
Q 44.046875 -1.421875 31.78125 -1.421875 
Q 19.53125 -1.421875 13.0625 8.265625 
Q 6.59375 17.96875 6.59375 36.375 
Q 6.59375 54.828125 13.0625 64.515625 
Q 19.53125 74.21875 31.78125 74.21875 
z
" id="DejaVuSans-48"/>
     </defs>
     <g transform="translate(93.514842 271.808852)scale(0.1 -0.1)">
      <use xlink:href="#DejaVuSans-8722"/>
      <use x="83.789062" xlink:href="#DejaVuSans-51"/>
      <use x="147.412109" xlink:href="#DejaVuSans-48"/>
     </g>
    </g>
   </g>
   <g id="xtick_2">
    <g id="line2d_3">
     <path d="M 136.825199 255.774789 
L 134.216782 257.491124 
" style="fill:none;stroke:#000000;stroke-linecap:square;stroke-width:0.8;"/>
    </g>
    <g id="text_2">
     <!-- −20 -->
     <defs>
      <path d="M 19.1875 8.296875 
L 53.609375 8.296875 
L 53.609375 0 
L 7.328125 0 
L 7.328125 8.296875 
Q 12.9375 14.109375 22.625 23.890625 
Q 32.328125 33.6875 34.8125 36.53125 
Q 39.546875 41.84375 41.421875 45.53125 
Q 43.3125 49.21875 43.3125 52.78125 
Q 43.3125 58.59375 39.234375 62.25 
Q 35.15625 65.921875 28.609375 65.921875 
Q 23.96875 65.921875 18.8125 64.3125 
Q 13.671875 62.703125 7.8125 59.421875 
L 7.8125 69.390625 
Q 13.765625 71.78125 18.9375 73 
Q 24.125 74.21875 28.421875 74.21875 
Q 39.75 74.21875 46.484375 68.546875 
Q 53.21875 62.890625 53.21875 53.421875 
Q 53.21875 48.921875 51.53125 44.890625 
Q 49.859375 40.875 45.40625 35.40625 
Q 44.1875 33.984375 37.640625 27.21875 
Q 31.109375 20.453125 19.1875 8.296875 
z
" id="DejaVuSans-50"/>
     </defs>
     <g transform="translate(118.081962 277.903162)scale(0.1 -0.1)">
      <use xlink:href="#DejaVuSans-8722"/>
      <use x="83.789062" xlink:href="#DejaVuSans-50"/>
      <use x="147.412109" xlink:href="#DejaVuSans-48"/>
     </g>
    </g>
   </g>
   <g id="xtick_3">
    <g id="line2d_4">
     <path d="M 161.711097 261.838462 
L 159.132341 263.577634 
" style="fill:none;stroke:#000000;stroke-linecap:square;stroke-width:0.8;"/>
    </g>
    <g id="text_3">
     <!-- −10 -->
     <defs>
      <path d="M 12.40625 8.296875 
L 28.515625 8.296875 
L 28.515625 63.921875 
L 10.984375 60.40625 
L 10.984375 69.390625 
L 28.421875 72.90625 
L 38.28125 72.90625 
L 38.28125 8.296875 
L 54.390625 8.296875 
L 54.390625 0 
L 12.40625 0 
z
" id="DejaVuSans-49"/>
     </defs>
     <g transform="translate(142.975386 284.078417)scale(0.1 -0.1)">
      <use xlink:href="#DejaVuSans-8722"/>
      <use x="83.789062" xlink:href="#DejaVuSans-49"/>
      <use x="147.412109" xlink:href="#DejaVuSans-48"/>
     </g>
    </g>
   </g>
   <g id="xtick_4">
    <g id="line2d_5">
     <path d="M 186.928911 267.98301 
L 184.380843 269.745478 
" style="fill:none;stroke:#000000;stroke-linecap:square;stroke-width:0.8;"/>
    </g>
    <g id="text_4">
     <!-- 0 -->
     <g transform="translate(175.572751 290.336242)scale(0.1 -0.1)">
      <use xlink:href="#DejaVuSans-48"/>
     </g>
    </g>
   </g>
   <g id="xtick_5">
    <g id="line2d_6">
     <path d="M 212.485327 274.210061 
L 209.969007 275.996296 
" style="fill:none;stroke:#000000;stroke-linecap:square;stroke-width:0.8;"/>
    </g>
    <g id="text_5">
     <!-- 10 -->
     <g transform="translate(197.957343 296.678303)scale(0.1 -0.1)">
      <use xlink:href="#DejaVuSans-49"/>
      <use x="63.623047" xlink:href="#DejaVuSans-48"/>
     </g>
    </g>
   </g>
   <g id="xtick_6">
    <g id="line2d_7">
     <path d="M 238.38721 280.521288 
L 235.903734 282.331774 
" style="fill:none;stroke:#000000;stroke-linecap:square;stroke-width:0.8;"/>
    </g>
    <g id="text_6">
     <!-- 20 -->
     <g transform="translate(223.869656 303.106312)scale(0.1 -0.1)">
      <use xlink:href="#DejaVuSans-50"/>
      <use x="63.623047" xlink:href="#DejaVuSans-48"/>
     </g>
    </g>
   </g>
   <g id="xtick_7">
    <g id="line2d_8">
     <path d="M 264.641612 286.91841 
L 262.192112 288.753644 
" style="fill:none;stroke:#000000;stroke-linecap:square;stroke-width:0.8;"/>
    </g>
    <g id="text_7">
     <!-- 30 -->
     <g transform="translate(250.135532 309.622029)scale(0.1 -0.1)">
      <use xlink:href="#DejaVuSans-51"/>
      <use x="63.623047" xlink:href="#DejaVuSans-48"/>
     </g>
    </g>
   </g>
  </g>
  <g id="axis3d_2">
   <g id="line2d_9">
    <path d="M 372.72135 220.013954 
L 279.143747 291.264825 
" style="fill:none;stroke:#000000;stroke-linecap:square;stroke-width:0.8;"/>
   </g>
   <g id="Line3DCollection_2">
    <path d="M 104.683603 113.607101 
L 111.682343 244.479842 
L 285.334408 286.551197 
" style="fill:none;stroke:#b0b0b0;stroke-width:0.8;"/>
    <path d="M 122.285741 104.04479 
L 128.309106 233.86629 
L 300.593011 274.933153 
" style="fill:none;stroke:#b0b0b0;stroke-width:0.8;"/>
    <path d="M 139.457798 94.71612 
L 144.549995 223.499057 
L 315.481412 263.596984 
" style="fill:none;stroke:#b0b0b0;stroke-width:0.8;"/>
    <path d="M 156.215347 85.61263 
L 160.418289 213.369667 
L 330.012923 252.532554 
" style="fill:none;stroke:#b0b0b0;stroke-width:0.8;"/>
    <path d="M 172.573217 76.726265 
L 175.926666 203.470027 
L 344.200224 241.730209 
" style="fill:none;stroke:#b0b0b0;stroke-width:0.8;"/>
    <path d="M 188.545538 68.049348 
L 191.087233 193.792409 
L 358.055402 231.180745 
" style="fill:none;stroke:#b0b0b0;stroke-width:0.8;"/>
   </g>
   <g id="xtick_8">
    <g id="line2d_10">
     <path d="M 283.881083 286.199094 
L 288.244309 287.25619 
" style="fill:none;stroke:#000000;stroke-linecap:square;stroke-width:0.8;"/>
    </g>
    <g id="text_8">
     <!-- −30 -->
     <g transform="translate(287.483704 306.309412)scale(0.1 -0.1)">
      <use xlink:href="#DejaVuSans-8722"/>
      <use x="83.789062" xlink:href="#DejaVuSans-51"/>
      <use x="147.412109" xlink:href="#DejaVuSans-48"/>
     </g>
    </g>
   </g>
   <g id="xtick_9">
    <g id="line2d_11">
     <path d="M 299.151916 274.589643 
L 303.478382 275.620932 
" style="fill:none;stroke:#000000;stroke-linecap:square;stroke-width:0.8;"/>
    </g>
    <g id="text_9">
     <!-- −20 -->
     <g transform="translate(302.578726 294.547974)scale(0.1 -0.1)">
      <use xlink:href="#DejaVuSans-8722"/>
      <use x="83.789062" xlink:href="#DejaVuSans-50"/>
      <use x="147.412109" xlink:href="#DejaVuSans-48"/>
     </g>
    </g>
   </g>
   <g id="xtick_10">
    <g id="line2d_12">
     <path d="M 314.052386 263.261756 
L 318.34258 264.268171 
" style="fill:none;stroke:#000000;stroke-linecap:square;stroke-width:0.8;"/>
    </g>
    <g id="text_10">
     <!-- −10 -->
     <g transform="translate(317.307698 283.071747)scale(0.1 -0.1)">
      <use xlink:href="#DejaVuSans-8722"/>
      <use x="83.789062" xlink:href="#DejaVuSans-49"/>
      <use x="147.412109" xlink:href="#DejaVuSans-48"/>
     </g>
    </g>
   </g>
   <g id="xtick_11">
    <g id="line2d_13">
     <path d="M 328.595804 252.205312 
L 332.850213 253.187743 
" style="fill:none;stroke:#000000;stroke-linecap:square;stroke-width:0.8;"/>
    </g>
    <g id="text_11">
     <!-- 0 -->
     <g transform="translate(339.054869 271.870482)scale(0.1 -0.1)">
      <use xlink:href="#DejaVuSans-48"/>
     </g>
    </g>
   </g>
   <g id="xtick_12">
    <g id="line2d_14">
     <path d="M 342.794854 241.410671 
L 347.013957 242.369964 
" style="fill:none;stroke:#000000;stroke-linecap:square;stroke-width:0.8;"/>
    </g>
    <g id="text_12">
     <!-- 10 -->
     <g transform="translate(349.909333 260.934414)scale(0.1 -0.1)">
      <use xlink:href="#DejaVuSans-49"/>
      <use x="63.623047" xlink:href="#DejaVuSans-48"/>
     </g>
    </g>
   </g>
   <g id="xtick_13">
    <g id="line2d_15">
     <path d="M 356.661622 230.868642 
L 360.845898 231.805606 
" style="fill:none;stroke:#000000;stroke-linecap:square;stroke-width:0.8;"/>
    </g>
    <g id="text_13">
     <!-- 20 -->
     <g transform="translate(363.616631 250.254234)scale(0.1 -0.1)">
      <use xlink:href="#DejaVuSans-50"/>
      <use x="63.623047" xlink:href="#DejaVuSans-48"/>
     </g>
    </g>
   </g>
  </g>
  <g id="axis3d_3">
   <g id="line2d_16">
    <path d="M 372.72135 220.013954 
L 379.648599 91.582742 
" style="fill:none;stroke:#000000;stroke-linecap:square;stroke-width:0.8;"/>
   </g>
   <g id="Line3DCollection_3">
    <path d="M 372.853105 217.571211 
L 207.118952 181.161682 
L 104.801255 246.28962 
" style="fill:none;stroke:#b0b0b0;stroke-width:0.8;"/>
    <path d="M 373.868405 198.747544 
L 206.8691 162.856542 
L 103.718108 227.073147 
" style="fill:none;stroke:#b0b0b0;stroke-width:0.8;"/>
    <path d="M 374.899461 179.631765 
L 206.615534 144.279303 
L 102.617594 207.548547 
" style="fill:none;stroke:#b0b0b0;stroke-width:0.8;"/>
    <path d="M 375.946642 160.217021 
L 206.35817 125.423854 
L 101.499291 187.708348 
" style="fill:none;stroke:#b0b0b0;stroke-width:0.8;"/>
    <path d="M 377.01033 140.496245 
L 206.096923 106.283898 
L 100.362764 167.544836 
" style="fill:none;stroke:#b0b0b0;stroke-width:0.8;"/>
    <path d="M 378.090918 120.462142 
L 205.831704 86.852946 
L 99.207564 147.050044 
" style="fill:none;stroke:#b0b0b0;stroke-width:0.8;"/>
    <path d="M 379.188812 100.107185 
L 205.562422 67.124312 
L 98.033228 126.215739 
" style="fill:none;stroke:#b0b0b0;stroke-width:0.8;"/>
   </g>
   <g id="xtick_14">
    <g id="line2d_17">
     <path d="M 371.47029 217.267425 
L 375.621611 218.179414 
" style="fill:none;stroke:#000000;stroke-linecap:square;stroke-width:0.8;"/>
    </g>
    <g id="text_14">
     <!-- 0 -->
     <g transform="translate(388.021682 223.203694)scale(0.1 -0.1)">
      <use xlink:href="#DejaVuSans-48"/>
     </g>
    </g>
   </g>
   <g id="xtick_15">
    <g id="line2d_18">
     <path d="M 372.474593 198.44799 
L 376.658951 199.34728 
" style="fill:none;stroke:#000000;stroke-linecap:square;stroke-width:0.8;"/>
    </g>
    <g id="text_15">
     <!-- 5 -->
     <defs>
      <path d="M 10.796875 72.90625 
L 49.515625 72.90625 
L 49.515625 64.59375 
L 19.828125 64.59375 
L 19.828125 46.734375 
Q 21.96875 47.46875 24.109375 47.828125 
Q 26.265625 48.1875 28.421875 48.1875 
Q 40.625 48.1875 47.75 41.5 
Q 54.890625 34.8125 54.890625 23.390625 
Q 54.890625 11.625 47.5625 5.09375 
Q 40.234375 -1.421875 26.90625 -1.421875 
Q 22.3125 -1.421875 17.546875 -0.640625 
Q 12.796875 0.140625 7.71875 1.703125 
L 7.71875 11.625 
Q 12.109375 9.234375 16.796875 8.0625 
Q 21.484375 6.890625 26.703125 6.890625 
Q 35.15625 6.890625 40.078125 11.328125 
Q 45.015625 15.765625 45.015625 23.390625 
Q 45.015625 31 40.078125 35.4375 
Q 35.15625 39.890625 26.703125 39.890625 
Q 22.75 39.890625 18.8125 39.015625 
Q 14.890625 38.140625 10.796875 36.28125 
z
" id="DejaVuSans-53"/>
     </defs>
     <g transform="translate(389.175653 204.407438)scale(0.1 -0.1)">
      <use xlink:href="#DejaVuSans-53"/>
     </g>
    </g>
   </g>
   <g id="xtick_16">
    <g id="line2d_19">
     <path d="M 373.494475 179.33661 
L 377.712401 180.222697 
" style="fill:none;stroke:#000000;stroke-linecap:square;stroke-width:0.8;"/>
    </g>
    <g id="text_16">
     <!-- 10 -->
     <g transform="translate(387.166241 185.320161)scale(0.1 -0.1)">
      <use xlink:href="#DejaVuSans-49"/>
      <use x="63.623047" xlink:href="#DejaVuSans-48"/>
     </g>
    </g>
   </g>
   <g id="xtick_17">
    <g id="line2d_20">
     <path d="M 374.530302 159.926442 
L 378.782338 160.798799 
" style="fill:none;stroke:#000000;stroke-linecap:square;stroke-width:0.8;"/>
    </g>
    <g id="text_17">
     <!-- 15 -->
     <g transform="translate(388.356364 165.93505)scale(0.1 -0.1)">
      <use xlink:href="#DejaVuSans-49"/>
      <use x="63.623047" xlink:href="#DejaVuSans-53"/>
     </g>
    </g>
   </g>
   <g id="xtick_18">
    <g id="line2d_21">
     <path d="M 375.582451 140.210421 
L 379.869152 141.068505 
" style="fill:none;stroke:#000000;stroke-linecap:square;stroke-width:0.8;"/>
    </g>
    <g id="text_18">
     <!-- 20 -->
     <g transform="translate(389.565203 146.245079)scale(0.1 -0.1)">
      <use xlink:href="#DejaVuSans-50"/>
      <use x="63.623047" xlink:href="#DejaVuSans-48"/>
     </g>
    </g>
   </g>
   <g id="xtick_19">
    <g id="line2d_22">
     <path d="M 376.651311 120.181262 
L 380.973246 121.024507 
" style="fill:none;stroke:#000000;stroke-linecap:square;stroke-width:0.8;"/>
    </g>
    <g id="text_19">
     <!-- 25 -->
     <g transform="translate(390.793204 126.242999)scale(0.1 -0.1)">
      <use xlink:href="#DejaVuSans-50"/>
      <use x="63.623047" xlink:href="#DejaVuSans-53"/>
     </g>
    </g>
   </g>
   <g id="xtick_20">
    <g id="line2d_23">
     <path d="M 377.737283 99.831445 
L 382.095035 100.659264 
" style="fill:none;stroke:#000000;stroke-linecap:square;stroke-width:0.8;"/>
    </g>
    <g id="text_20">
     <!-- 30 -->
     <g transform="translate(392.040826 105.921332)scale(0.1 -0.1)">
      <use xlink:href="#DejaVuSans-51"/>
      <use x="63.623047" xlink:href="#DejaVuSans-48"/>
     </g>
    </g>
   </g>
  </g>
  <g id="axes_1">
   <g id="line2d_24">
    <path clip-path="url(#pf00a5c22ce)" d="M 239.486526 229.165237 
L 241.389506 226.550202 
L 241.957782 225.292858 
L 242.22452 224.102127 
L 242.227256 223.037697 
L 241.98916 221.956992 
L 241.493787 220.88553 
L 240.739755 219.849951 
L 239.741387 218.876578 
L 238.528567 217.989979 
L 236.90274 217.09364 
L 235.139015 216.370702 
L 233.098577 215.776634 
L 230.995106 215.407592 
L 229.35849 215.327147 
L 228.443526 215.470667 
L 228.339219 215.64385 
L 228.600409 215.806051 
L 229.528138 216.014761 
L 231.118209 216.142597 
L 233.704691 216.105137 
L 236.555277 215.842351 
L 239.830237 215.309185 
L 242.858326 214.606072 
L 245.970278 213.658409 
L 248.537688 212.677082 
L 251.001305 211.523451 
L 253.285523 210.204804 
L 255.316859 208.733634 
L 256.713271 207.458466 
L 257.871216 206.10786 
L 258.761805 204.6946 
L 259.360212 203.232966 
L 259.604921 202.114297 
L 259.667114 200.984061 
L 259.541799 199.849429 
L 259.225743 198.717748 
L 258.717526 197.596469 
L 258.017576 196.493072 
L 257.128184 195.414995 
L 255.655086 194.029583 
L 253.867722 192.719009 
L 251.786676 191.499225 
L 249.437941 190.385041 
L 246.85259 189.389869 
L 244.066374 188.525482 
L 240.362358 187.643848 
L 236.493115 186.996791 
L 232.551695 186.59371 
L 228.636255 186.438155 
L 224.847881 186.527551 
L 221.288272 186.853037 
L 218.057298 187.399435 
L 215.773541 187.981436 
L 213.807216 188.677522 
L 212.200476 189.471649 
L 210.990955 190.34562 
L 210.36414 191.041447 
L 209.99046 191.761765 
L 209.879213 192.496979 
L 210.037431 193.237111 
L 210.469741 193.971887 
L 211.178233 194.690823 
L 212.16236 195.38333 
L 213.41886 196.038817 
L 215.50706 196.837125 
L 218.046426 197.526825 
L 221.006209 198.084916 
L 224.347169 198.490064 
L 228.022033 198.723077 
L 231.976141 198.767351 
L 236.148296 198.609271 
L 240.471787 198.238572 
L 244.875567 197.648622 
L 249.285574 196.836635 
L 253.626137 195.803797 
L 257.821452 194.555313 
L 261.797068 193.100347 
L 265.481356 191.451887 
L 268.012648 190.098412 
L 270.315597 188.653588 
L 272.365792 187.126602 
L 274.141119 185.527503 
L 275.621985 183.867095 
L 276.791508 182.156825 
L 277.635684 180.408669 
L 278.143508 178.635004 
L 278.291158 177.444634 
L 278.284169 176.252348 
L 278.121599 175.061957 
L 277.803135 173.877274 
L 277.329088 172.702094 
L 276.328516 170.965372 
L 274.985876 169.271001 
L 273.309958 167.631148 
L 271.312501 166.057545 
L 269.008082 164.561392 
L 266.413978 163.153265 
L 263.550023 161.843044 
L 260.43844 160.639829 
L 257.103668 159.551877 
L 253.572174 158.586542 
L 248.606664 157.501071 
L 243.413448 156.65718 
L 238.068313 156.063856 
L 232.650397 155.726578 
L 227.241239 155.647207 
L 221.923779 155.823899 
L 216.781332 156.251052 
L 211.896522 156.919285 
L 207.350171 157.81545 
L 204.209511 158.627151 
L 201.334506 159.549204 
L 198.754945 160.572045 
L 196.498731 161.685046 
L 194.591588 162.876559 
L 193.056768 164.133992 
L 191.914761 165.443877 
L 191.380402 166.339265 
L 191.032811 167.247249 
L 190.875661 168.163315 
L 190.911902 169.082843 
L 191.143734 170.001126 
L 191.572578 170.91339 
L 192.199049 171.814808 
L 193.022934 172.700529 
L 194.626367 173.989043 
L 196.664189 175.214976 
L 199.124757 176.362248 
L 201.991973 177.415205 
L 205.245317 178.358805 
L 208.859936 179.178798 
L 212.806797 179.861914 
L 217.052901 180.396034 
L 221.561561 180.770361 
L 226.292743 180.975575 
L 231.20346 181.003972 
L 236.248221 180.849581 
L 241.37953 180.508267 
L 246.548412 179.977799 
L 251.704982 179.257902 
L 256.799019 178.350272 
L 261.78056 177.258572 
L 266.600484 175.988393 
L 271.211087 174.547192 
L 275.566626 172.9442 
L 279.623841 171.190316 
L 283.342427 169.297965 
L 286.685459 167.280954 
L 289.619764 165.154301 
L 291.334348 163.683512 
L 292.846684 162.176086 
L 294.150086 160.637141 
L 295.23877 159.071915 
L 296.10787 157.485737 
L 296.753449 155.884006 
L 297.172503 154.272164 
L 297.362964 152.655674 
L 297.323696 151.039995 
L 297.054487 149.430562 
L 296.556037 147.83276 
L 295.829943 146.251909 
L 294.878681 144.693239 
L 293.705585 143.161873 
L 292.31482 141.662812 
L 290.711361 140.200914 
L 288.900958 138.780883 
L 286.890112 137.407249 
L 283.513991 135.443253 
L 279.730486 133.607226 
L 275.57002 131.911926 
L 271.065967 130.368965 
L 266.254379 128.98874 
L 261.173728 127.78038 
L 255.864628 126.751698 
L 250.369572 125.909151 
L 244.732661 125.257804 
L 238.999337 124.801302 
L 233.21611 124.54184 
L 227.430285 124.480147 
L 221.689686 124.615463 
L 216.042374 124.945529 
L 210.536349 125.466573 
L 205.219255 126.17331 
L 200.138063 127.058934 
L 195.338743 128.115132 
L 190.865925 129.332088 
L 186.762544 130.698511 
L 183.069466 132.201663 
L 179.825106 133.827404 
L 177.929181 134.971742 
L 176.258314 136.158797 
L 174.821562 137.383423 
L 173.627232 138.640241 
L 172.682826 139.92366 
L 171.994992 141.227889 
L 171.569466 142.546957 
L 171.411026 143.874733 
L 171.523443 145.204944 
L 171.909432 146.531202 
L 172.570613 147.847025 
L 173.507469 149.145868 
L 174.719313 150.421147 
L 176.204259 151.666272 
L 177.959193 152.874675 
L 179.979764 154.039845 
L 182.260362 155.155362 
L 184.794123 156.214929 
L 189.051345 157.685998 
L 193.827008 158.997557 
L 199.082388 160.131 
L 204.772927 161.069234 
L 210.848609 161.79693 
L 217.254433 162.300757 
L 223.930978 162.569594 
L 230.815065 162.594712 
L 237.840488 162.369926 
L 244.938808 161.891702 
L 252.040202 161.159235 
L 259.074338 160.174472 
L 265.971257 158.9421 
L 272.662262 157.469487 
L 279.080763 155.766581 
L 285.163099 153.845767 
L 290.849284 151.7217 
L 294.392321 150.200912 
L 297.719184 148.602593 
L 300.815641 146.932486 
L 303.668569 145.196628 
L 306.266005 143.401317 
L 308.59719 141.553076 
L 310.652602 139.658615 
L 312.423982 137.724799 
L 313.904351 135.758607 
L 315.088019 133.767103 
L 315.970585 131.757396 
L 316.548934 129.736612 
L 316.821222 127.711859 
L 316.78686 125.690199 
L 316.446485 123.678618 
L 315.801937 121.683997 
L 314.856222 119.713091 
L 313.613473 117.772502 
L 312.078915 115.86866 
L 310.258818 114.007801 
L 308.160455 112.195949 
L 305.792051 110.438901 
L 303.162742 108.742213 
L 300.282521 107.111183 
L 297.162194 105.550844 
L 293.81333 104.065951 
L 290.248213 102.660971 
L 284.523568 100.712389 
L 278.387932 98.965747 
L 271.890399 97.432291 
L 265.082538 96.121663 
L 258.018067 95.041878 
L 250.752549 94.199293 
L 243.343085 93.598596 
L 235.848025 93.242778 
L 228.326673 93.133125 
L 220.838995 93.269196 
L 213.445326 93.648812 
L 206.206063 94.268039 
L 199.181347 95.121177 
L 192.430732 96.200746 
L 186.012825 97.497481 
L 179.984913 99.000327 
L 174.402551 100.696443 
L 169.319135 102.571218 
L 166.232577 103.912314 
L 163.404697 105.320307 
L 160.849107 106.789594 
L 158.578669 108.314252 
L 156.605421 109.888044 
L 154.940505 111.504435 
L 153.594097 113.156606 
L 152.575326 114.837469 
L 151.892207 116.539688 
L 151.551565 118.255701 
L 151.558961 119.977745 
L 151.91863 121.697881 
L 152.633408 123.408027 
L 153.704675 125.099986 
L 155.132298 126.765487 
L 156.91458 128.396218 
L 159.048219 129.983867 
L 161.52827 131.520167 
L 164.348124 132.996935 
L 167.499489 134.406121 
L 170.972388 135.739857 
L 174.755166 136.990498 
L 178.834507 138.150677 
L 183.195472 139.213348 
L 187.821539 140.171839 
L 192.694668 141.019892 
L 197.795369 141.751712 
L 205.827158 142.620085 
L 214.248188 143.199647 
L 222.97736 143.477911 
L 231.929045 143.445643 
L 241.014185 143.097038 
L 250.141459 142.429838 
L 259.21852 141.445385 
L 268.153246 140.148618 
L 273.985791 139.114635 
L 279.688487 137.948888 
L 285.235775 136.655373 
L 290.602929 135.238708 
L 295.766189 133.704095 
L 300.702894 132.057285 
L 305.391597 130.304538 
L 309.812171 128.45258 
L 313.945898 126.508557 
L 317.775554 124.47999 
L 321.285473 122.374726 
L 322.916075 121.295861 
L 322.916075 121.295861 
" style="fill:none;stroke:#ff0000;stroke-linecap:square;stroke-width:2;"/>
   </g>
  </g>
 </g>
 <defs>
  <clipPath id="pf00a5c22ce">
   <rect height="266.112" width="357.12" x="57.6" y="41.472"/>
  </clipPath>
 </defs>
</svg>
