<?xml version="1.0" encoding="utf-8" standalone="no"?>
<!DOCTYPE svg PUBLIC "-//W3C//DTD SVG 1.1//EN"
  "http://www.w3.org/Graphics/SVG/1.1/DTD/svg11.dtd">
<!-- Created with matplotlib (https://matplotlib.org/) -->
<svg height="345.6pt" version="1.1" viewBox="0 0 863.28 345.6" width="863.28pt" xmlns="http://www.w3.org/2000/svg" xmlns:xlink="http://www.w3.org/1999/xlink">
 <defs>
  <style type="text/css">
*{stroke-linecap:butt;stroke-linejoin:round;}
  </style>
 </defs>
 <g id="figure_1">
  <g id="patch_1">
   <path d="M 0 345.6 
L 863.28 345.6 
L 863.28 0 
L 0 0 
z
" style="fill:#ffffff;"/>
  </g>
  <g id="axes_1">
   <g id="patch_2">
    <path d="M 107.91 307.584 
L 412.02 307.584 
L 412.02 41.472 
L 107.91 41.472 
z
" style="fill:#ffffff;"/>
   </g>
   <g id="matplotlib.axis_1">
    <g id="xtick_1">
     <g id="line2d_1">
      <defs>
       <path d="M 0 0 
L 0 3.5 
" id="me05c31a4ef" style="stroke:#000000;stroke-width:0.8;"/>
      </defs>
      <g>
       <use style="stroke:#000000;stroke-width:0.8;" x="145.917" xlink:href="#me05c31a4ef" y="307.584"/>
      </g>
     </g>
     <g id="text_1">
      <!-- −3 -->
      <defs>
       <path d="M 10.59375 35.5 
L 73.1875 35.5 
L 73.1875 27.203125 
L 10.59375 27.203125 
z
" id="DejaVuSans-8722"/>
       <path d="M 40.578125 39.3125 
Q 47.65625 37.796875 51.625 33 
Q 55.609375 28.21875 55.609375 21.1875 
Q 55.609375 10.40625 48.1875 4.484375 
Q 40.765625 -1.421875 27.09375 -1.421875 
Q 22.515625 -1.421875 17.65625 -0.515625 
Q 12.796875 0.390625 7.625 2.203125 
L 7.625 11.71875 
Q 11.71875 9.328125 16.59375 8.109375 
Q 21.484375 6.890625 26.8125 6.890625 
Q 36.078125 6.890625 40.9375 10.546875 
Q 45.796875 14.203125 45.796875 21.1875 
Q 45.796875 27.640625 41.28125 31.265625 
Q 36.765625 34.90625 28.71875 34.90625 
L 20.21875 34.90625 
L 20.21875 43.015625 
L 29.109375 43.015625 
Q 36.375 43.015625 40.234375 45.921875 
Q 44.09375 48.828125 44.09375 54.296875 
Q 44.09375 59.90625 40.109375 62.90625 
Q 36.140625 65.921875 28.71875 65.921875 
Q 24.65625 65.921875 20.015625 65.03125 
Q 15.375 64.15625 9.8125 62.3125 
L 9.8125 71.09375 
Q 15.4375 72.65625 20.34375 73.4375 
Q 25.25 74.21875 29.59375 74.21875 
Q 40.828125 74.21875 47.359375 69.109375 
Q 53.90625 64.015625 53.90625 55.328125 
Q 53.90625 49.265625 50.4375 45.09375 
Q 46.96875 40.921875 40.578125 39.3125 
z
" id="DejaVuSans-51"/>
      </defs>
      <g transform="translate(138.545906 322.182437)scale(0.1 -0.1)">
       <use xlink:href="#DejaVuSans-8722"/>
       <use x="83.789062" xlink:href="#DejaVuSans-51"/>
      </g>
     </g>
    </g>
    <g id="xtick_2">
     <g id="line2d_2">
      <g>
       <use style="stroke:#000000;stroke-width:0.8;" x="183.933" xlink:href="#me05c31a4ef" y="307.584"/>
      </g>
     </g>
     <g id="text_2">
      <!-- −2 -->
      <defs>
       <path d="M 19.1875 8.296875 
L 53.609375 8.296875 
L 53.609375 0 
L 7.328125 0 
L 7.328125 8.296875 
Q 12.9375 14.109375 22.625 23.890625 
Q 32.328125 33.6875 34.8125 36.53125 
Q 39.546875 41.84375 41.421875 45.53125 
Q 43.3125 49.21875 43.3125 52.78125 
Q 43.3125 58.59375 39.234375 62.25 
Q 35.15625 65.921875 28.609375 65.921875 
Q 23.96875 65.921875 18.8125 64.3125 
Q 13.671875 62.703125 7.8125 59.421875 
L 7.8125 69.390625 
Q 13.765625 71.78125 18.9375 73 
Q 24.125 74.21875 28.421875 74.21875 
Q 39.75 74.21875 46.484375 68.546875 
Q 53.21875 62.890625 53.21875 53.421875 
Q 53.21875 48.921875 51.53125 44.890625 
Q 49.859375 40.875 45.40625 35.40625 
Q 44.1875 33.984375 37.640625 27.21875 
Q 31.109375 20.453125 19.1875 8.296875 
z
" id="DejaVuSans-50"/>
      </defs>
      <g transform="translate(176.561906 322.182437)scale(0.1 -0.1)">
       <use xlink:href="#DejaVuSans-8722"/>
       <use x="83.789062" xlink:href="#DejaVuSans-50"/>
      </g>
     </g>
    </g>
    <g id="xtick_3">
     <g id="line2d_3">
      <g>
       <use style="stroke:#000000;stroke-width:0.8;" x="221.949" xlink:href="#me05c31a4ef" y="307.584"/>
      </g>
     </g>
     <g id="text_3">
      <!-- −1 -->
      <defs>
       <path d="M 12.40625 8.296875 
L 28.515625 8.296875 
L 28.515625 63.921875 
L 10.984375 60.40625 
L 10.984375 69.390625 
L 28.421875 72.90625 
L 38.28125 72.90625 
L 38.28125 8.296875 
L 54.390625 8.296875 
L 54.390625 0 
L 12.40625 0 
z
" id="DejaVuSans-49"/>
      </defs>
      <g transform="translate(214.577906 322.182437)scale(0.1 -0.1)">
       <use xlink:href="#DejaVuSans-8722"/>
       <use x="83.789062" xlink:href="#DejaVuSans-49"/>
      </g>
     </g>
    </g>
    <g id="xtick_4">
     <g id="line2d_4">
      <g>
       <use style="stroke:#000000;stroke-width:0.8;" x="259.965" xlink:href="#me05c31a4ef" y="307.584"/>
      </g>
     </g>
     <g id="text_4">
      <!-- 0 -->
      <defs>
       <path d="M 31.78125 66.40625 
Q 24.171875 66.40625 20.328125 58.90625 
Q 16.5 51.421875 16.5 36.375 
Q 16.5 21.390625 20.328125 13.890625 
Q 24.171875 6.390625 31.78125 6.390625 
Q 39.453125 6.390625 43.28125 13.890625 
Q 47.125 21.390625 47.125 36.375 
Q 47.125 51.421875 43.28125 58.90625 
Q 39.453125 66.40625 31.78125 66.40625 
z
M 31.78125 74.21875 
Q 44.046875 74.21875 50.515625 64.515625 
Q 56.984375 54.828125 56.984375 36.375 
Q 56.984375 17.96875 50.515625 8.265625 
Q 44.046875 -1.421875 31.78125 -1.421875 
Q 19.53125 -1.421875 13.0625 8.265625 
Q 6.59375 17.96875 6.59375 36.375 
Q 6.59375 54.828125 13.0625 64.515625 
Q 19.53125 74.21875 31.78125 74.21875 
z
" id="DejaVuSans-48"/>
      </defs>
      <g transform="translate(256.78375 322.182437)scale(0.1 -0.1)">
       <use xlink:href="#DejaVuSans-48"/>
      </g>
     </g>
    </g>
    <g id="xtick_5">
     <g id="line2d_5">
      <g>
       <use style="stroke:#000000;stroke-width:0.8;" x="297.981" xlink:href="#me05c31a4ef" y="307.584"/>
      </g>
     </g>
     <g id="text_5">
      <!-- 1 -->
      <g transform="translate(294.79975 322.182437)scale(0.1 -0.1)">
       <use xlink:href="#DejaVuSans-49"/>
      </g>
     </g>
    </g>
    <g id="xtick_6">
     <g id="line2d_6">
      <g>
       <use style="stroke:#000000;stroke-width:0.8;" x="335.997" xlink:href="#me05c31a4ef" y="307.584"/>
      </g>
     </g>
     <g id="text_6">
      <!-- 2 -->
      <g transform="translate(332.81575 322.182437)scale(0.1 -0.1)">
       <use xlink:href="#DejaVuSans-50"/>
      </g>
     </g>
    </g>
    <g id="xtick_7">
     <g id="line2d_7">
      <g>
       <use style="stroke:#000000;stroke-width:0.8;" x="374.013" xlink:href="#me05c31a4ef" y="307.584"/>
      </g>
     </g>
     <g id="text_7">
      <!-- 3 -->
      <g transform="translate(370.83175 322.182437)scale(0.1 -0.1)">
       <use xlink:href="#DejaVuSans-51"/>
      </g>
     </g>
    </g>
   </g>
   <g id="matplotlib.axis_2">
    <g id="ytick_1">
     <g id="line2d_8">
      <defs>
       <path d="M 0 0 
L -3.5 0 
" id="m85723802cd" style="stroke:#000000;stroke-width:0.8;"/>
      </defs>
      <g>
       <use style="stroke:#000000;stroke-width:0.8;" x="107.91" xlink:href="#m85723802cd" y="288.576"/>
      </g>
     </g>
     <g id="text_8">
      <!-- −3 -->
      <g transform="translate(86.167812 292.375219)scale(0.1 -0.1)">
       <use xlink:href="#DejaVuSans-8722"/>
       <use x="83.789062" xlink:href="#DejaVuSans-51"/>
      </g>
     </g>
    </g>
    <g id="ytick_2">
     <g id="line2d_9">
      <g>
       <use style="stroke:#000000;stroke-width:0.8;" x="107.91" xlink:href="#m85723802cd" y="250.56"/>
      </g>
     </g>
     <g id="text_9">
      <!-- −2 -->
      <g transform="translate(86.167812 254.359219)scale(0.1 -0.1)">
       <use xlink:href="#DejaVuSans-8722"/>
       <use x="83.789062" xlink:href="#DejaVuSans-50"/>
      </g>
     </g>
    </g>
    <g id="ytick_3">
     <g id="line2d_10">
      <g>
       <use style="stroke:#000000;stroke-width:0.8;" x="107.91" xlink:href="#m85723802cd" y="212.544"/>
      </g>
     </g>
     <g id="text_10">
      <!-- −1 -->
      <g transform="translate(86.167812 216.343219)scale(0.1 -0.1)">
       <use xlink:href="#DejaVuSans-8722"/>
       <use x="83.789062" xlink:href="#DejaVuSans-49"/>
      </g>
     </g>
    </g>
    <g id="ytick_4">
     <g id="line2d_11">
      <g>
       <use style="stroke:#000000;stroke-width:0.8;" x="107.91" xlink:href="#m85723802cd" y="174.528"/>
      </g>
     </g>
     <g id="text_11">
      <!-- 0 -->
      <g transform="translate(94.5475 178.327219)scale(0.1 -0.1)">
       <use xlink:href="#DejaVuSans-48"/>
      </g>
     </g>
    </g>
    <g id="ytick_5">
     <g id="line2d_12">
      <g>
       <use style="stroke:#000000;stroke-width:0.8;" x="107.91" xlink:href="#m85723802cd" y="136.512"/>
      </g>
     </g>
     <g id="text_12">
      <!-- 1 -->
      <g transform="translate(94.5475 140.311219)scale(0.1 -0.1)">
       <use xlink:href="#DejaVuSans-49"/>
      </g>
     </g>
    </g>
    <g id="ytick_6">
     <g id="line2d_13">
      <g>
       <use style="stroke:#000000;stroke-width:0.8;" x="107.91" xlink:href="#m85723802cd" y="98.496"/>
      </g>
     </g>
     <g id="text_13">
      <!-- 2 -->
      <g transform="translate(94.5475 102.295219)scale(0.1 -0.1)">
       <use xlink:href="#DejaVuSans-50"/>
      </g>
     </g>
    </g>
    <g id="ytick_7">
     <g id="line2d_14">
      <g>
       <use style="stroke:#000000;stroke-width:0.8;" x="107.91" xlink:href="#m85723802cd" y="60.48"/>
      </g>
     </g>
     <g id="text_14">
      <!-- 3 -->
      <g transform="translate(94.5475 64.279219)scale(0.1 -0.1)">
       <use xlink:href="#DejaVuSans-51"/>
      </g>
     </g>
    </g>
   </g>
   <g id="LineCollection_1"/>
   <g id="LineCollection_2">
    <path clip-path="url(#p658bb67487)" d="M 242.447582 103.296 
L 242.493 103.761889 
L 242.76304 105.984 
L 245.181 108.578713 
L 245.298223 108.672 
L 247.869 109.720917 
L 250.557 110.496585 
L 253.245 111.023977 
L 255.933 111.351776 
L 256.071907 111.36 
L 258.621 111.465468 
L 261.309 111.465468 
L 263.858093 111.36 
L 263.997 111.351776 
L 266.685 111.023977 
L 269.373 110.496585 
L 272.061 109.720917 
L 274.631777 108.672 
L 274.749 108.578713 
L 277.16696 105.984 
L 277.437 103.761889 
L 277.482418 103.296 
L 277.437 103.188405 
L 276.249055 100.608 
L 274.749 99.020527 
L 273.55676 97.92 
L 272.061 96.993287 
L 269.373 95.628861 
L 268.350512 95.232 
L 266.685 94.738373 
L 263.997 94.203698 
L 261.309 93.935331 
L 258.621 93.935331 
L 255.933 94.203698 
L 253.245 94.738373 
L 251.579488 95.232 
L 250.557 95.628861 
L 247.869 96.993287 
L 246.37324 97.92 
L 245.181 99.020527 
L 243.680945 100.608 
L 242.493 103.188405 
L 242.447582 103.296 
" style="fill:none;stroke:#0000c4;stroke-width:1.5;"/>
   </g>
   <g id="LineCollection_3">
    <path clip-path="url(#p658bb67487)" d="M 226.224701 108.672 
L 226.365 109.169841 
L 227.09974 111.36 
L 229.053 113.710349 
L 229.417316 114.048 
L 231.741 115.340003 
L 234.429 116.379018 
L 235.704532 116.736 
L 237.117 117.019664 
L 239.805 117.415263 
L 242.493 117.690602 
L 245.181 117.88055 
L 247.869 118.009807 
L 250.557 118.095881 
L 253.245 118.151038 
L 255.933 118.183572 
L 258.621 118.198612 
L 261.309 118.198612 
L 263.997 118.183572 
L 266.685 118.151038 
L 269.373 118.095881 
L 272.061 118.009807 
L 274.749 117.88055 
L 277.437 117.690602 
L 280.125 117.415263 
L 282.813 117.019664 
L 284.225468 116.736 
L 285.501 116.379018 
L 288.189 115.340003 
L 290.512684 114.048 
L 290.877 113.710349 
L 292.83026 111.36 
L 293.565 109.169841 
L 293.705299 108.672 
L 293.694651 105.984 
L 293.565 105.464469 
L 293.024185 103.296 
L 291.789767 100.608 
L 290.877 99.212513 
L 289.999394 97.92 
L 288.189 95.860464 
L 287.602198 95.232 
L 285.501 93.390743 
L 284.448978 92.544 
L 282.813 91.418116 
L 280.274334 89.856 
L 280.125 89.774564 
L 277.437 88.479403 
L 274.749 87.377509 
L 274.138043 87.168 
L 272.061 86.517144 
L 269.373 85.846771 
L 266.685 85.347202 
L 263.997 85.015638 
L 261.309 84.850291 
L 258.621 84.850291 
L 255.933 85.015638 
L 253.245 85.347202 
L 250.557 85.846771 
L 247.869 86.517144 
L 245.791957 87.168 
L 245.181 87.377509 
L 242.493 88.479403 
L 239.805 89.774564 
L 239.655666 89.856 
L 237.117 91.418116 
L 235.481022 92.544 
L 234.429 93.390743 
L 232.327802 95.232 
L 231.741 95.860464 
L 229.930606 97.92 
L 229.053 99.212513 
L 228.140233 100.608 
L 226.905815 103.296 
L 226.365 105.464469 
L 226.235349 105.984 
L 226.224701 108.672 
" style="fill:none;stroke:#0000ff;stroke-width:1.5;"/>
   </g>
   <g id="LineCollection_4">
    <path clip-path="url(#p658bb67487)" d="M 215.202943 119.424 
L 215.613 119.87392 
L 218.301 121.932835 
L 218.656618 122.112 
L 220.989 122.924485 
L 223.677 123.454624 
L 226.365 123.714824 
L 229.053 123.804495 
L 231.741 123.787578 
L 234.429 123.706345 
L 237.117 123.589352 
L 239.805 123.456205 
L 242.493 123.320532 
L 245.181 123.191879 
L 247.869 123.076958 
L 250.557 122.980468 
L 253.245 122.905659 
L 255.933 122.854695 
L 258.621 122.828899 
L 261.309 122.828899 
L 263.997 122.854695 
L 266.685 122.905659 
L 269.373 122.980468 
L 272.061 123.076958 
L 274.749 123.191879 
L 277.437 123.320532 
L 280.125 123.456205 
L 282.813 123.589352 
L 285.501 123.706345 
L 288.189 123.787578 
L 290.877 123.804495 
L 293.565 123.714824 
L 296.253 123.454624 
L 298.941 122.924485 
L 301.273382 122.112 
L 301.629 121.932835 
L 304.317 119.87392 
L 304.727057 119.424 
L 306.191189 116.736 
L 306.81439 114.048 
L 306.887609 111.36 
L 306.548694 108.672 
L 305.864467 105.984 
L 304.863698 103.296 
L 304.317 102.181177 
L 303.546424 100.608 
L 301.909718 97.92 
L 301.629 97.532562 
L 299.921528 95.232 
L 298.941 94.097232 
L 297.544183 92.544 
L 296.253 91.282754 
L 294.70686 89.856 
L 293.565 88.910142 
L 291.298171 87.168 
L 290.877 86.871355 
L 288.189 85.125801 
L 287.090223 84.48 
L 285.501 83.60645 
L 282.813 82.291383 
L 281.657097 81.792 
L 280.125 81.159525 
L 277.437 80.198149 
L 274.749 79.389616 
L 273.603044 79.104 
L 272.061 78.727588 
L 269.373 78.206131 
L 266.685 77.819428 
L 263.997 77.563685 
L 261.309 77.436425 
L 258.621 77.436425 
L 255.933 77.563685 
L 253.245 77.819428 
L 250.557 78.206131 
L 247.869 78.727588 
L 246.326956 79.104 
L 245.181 79.389616 
L 242.493 80.198149 
L 239.805 81.159525 
L 238.272903 81.792 
L 237.117 82.291383 
L 234.429 83.60645 
L 232.839777 84.48 
L 231.741 85.125801 
L 229.053 86.871355 
L 228.631829 87.168 
L 226.365 88.910142 
L 225.22314 89.856 
L 223.677 91.282754 
L 222.385817 92.544 
L 220.989 94.097232 
L 220.008472 95.232 
L 218.301 97.532562 
L 218.020282 97.92 
L 216.383576 100.608 
L 215.613 102.181177 
L 215.066302 103.296 
L 214.065533 105.984 
L 213.381306 108.672 
L 213.042391 111.36 
L 213.11561 114.048 
L 213.738811 116.736 
L 215.202943 119.424 
" style="fill:none;stroke:#0034ff;stroke-width:1.5;"/>
   </g>
   <g id="LineCollection_5">
    <path clip-path="url(#p658bb67487)" d="M 199.270308 124.8 
L 199.562209 127.488 
L 200.208016 130.176 
L 201.398765 132.864 
L 202.173 133.989729 
L 204.861 135.656096 
L 207.549 135.876775 
L 210.237 135.495788 
L 215.613 134.077932 
L 226.365 131.007213 
L 231.741 129.726134 
L 237.117 128.656239 
L 242.493 127.834791 
L 247.869 127.22862 
L 253.245 126.834111 
L 258.621 126.666967 
L 263.997 126.722553 
L 269.373 127.002414 
L 274.749 127.512431 
L 280.125 128.215425 
L 285.501 129.159194 
L 290.877 130.348551 
L 296.253 131.723633 
L 309.693 135.495788 
L 312.381 135.876775 
L 315.310084 135.552 
L 317.757 133.989729 
L 318.531235 132.864 
L 319.721984 130.176 
L 320.445 126.877354 
L 320.659692 124.8 
L 320.721284 122.112 
L 320.445 118.225073 
L 320.275363 116.736 
L 319.793376 114.048 
L 319.146095 111.36 
L 317.757 107.14564 
L 317.334922 105.984 
L 316.165822 103.296 
L 314.797315 100.608 
L 312.381 96.640364 
L 311.438658 95.232 
L 309.395048 92.544 
L 307.005 89.782049 
L 304.317 87.058365 
L 301.409468 84.48 
L 297.908039 81.792 
L 296.253 80.651002 
L 293.565 78.96698 
L 290.877 77.460999 
L 288.189 76.126572 
L 285.501 74.936952 
L 280.125 72.984969 
L 277.437 72.199887 
L 272.232049 71.04 
L 269.373 70.564091 
L 263.997 70.022463 
L 258.621 69.915385 
L 253.245 70.23786 
L 250.557 70.564091 
L 245.181 71.542966 
L 242.493 72.199887 
L 237.626831 73.728 
L 237.117 73.901765 
L 234.429 74.936952 
L 231.148582 76.416 
L 229.053 77.460999 
L 226.138521 79.104 
L 222.021961 81.792 
L 220.989 82.543163 
L 218.301 84.664493 
L 215.495836 87.168 
L 212.855097 89.856 
L 210.237 92.929782 
L 207.549 96.640364 
L 206.698078 97.92 
L 204.861 101.146974 
L 203.764178 103.296 
L 202.173 107.14564 
L 201.602338 108.672 
L 200.783905 111.36 
L 200.136624 114.048 
L 199.485 118.225073 
L 199.341486 119.424 
L 199.208716 122.112 
L 199.270308 124.8 
L 199.270308 124.8 
" style="fill:none;stroke:#0070ff;stroke-width:1.5;"/>
   </g>
   <g id="LineCollection_6">
    <path clip-path="url(#p658bb67487)" d="M 172.579516 181.248 
L 173.126087 183.936 
L 173.908242 186.624 
L 175.293 189.959457 
L 176.414665 192 
L 178.362136 194.688 
L 181.209665 197.376 
L 183.357 198.753227 
L 186.045 199.91027 
L 188.733 200.485434 
L 191.421 200.583429 
L 194.71976 200.064 
L 196.797 199.429087 
L 199.485 198.142762 
L 202.173 196.272875 
L 204.861 193.606346 
L 206.040913 192 
L 207.659884 189.312 
L 208.700863 186.624 
L 209.457333 183.936 
L 209.956584 181.248 
L 210.239268 178.56 
L 210.338066 173.184 
L 210.237 163.388672 
L 210.25499 162.432 
L 210.424016 159.744 
L 210.765192 157.056 
L 211.346674 154.368 
L 212.265821 151.68 
L 213.551278 148.992 
L 215.613 145.963658 
L 217.636311 143.616 
L 220.989 140.743543 
L 224.759288 138.24 
L 226.365 137.373897 
L 230.231562 135.552 
L 234.429 133.983068 
L 239.805 132.445078 
L 245.181 131.333374 
L 250.557 130.604625 
L 255.933 130.213165 
L 261.309 130.133998 
L 266.685 130.368638 
L 272.061 130.92459 
L 277.437 131.837419 
L 282.813 133.1583 
L 285.501 133.983068 
L 289.698438 135.552 
L 290.877 136.069702 
L 295.170712 138.24 
L 296.253 138.912184 
L 299.202615 140.928 
L 302.293689 143.616 
L 304.609776 146.304 
L 306.378722 148.992 
L 307.664179 151.68 
L 308.583326 154.368 
L 309.164808 157.056 
L 309.505984 159.744 
L 309.693 163.388672 
L 309.693 168.099254 
L 309.593768 175.872 
L 309.693 178.585996 
L 309.973416 181.248 
L 310.472667 183.936 
L 311.229137 186.624 
L 312.381 189.535438 
L 313.889087 192 
L 315.069 193.606346 
L 316.077505 194.688 
L 317.757 196.272875 
L 320.445 198.142762 
L 323.133 199.429087 
L 325.821 200.243877 
L 328.509 200.583429 
L 331.197 200.485434 
L 333.885 199.91027 
L 336.573 198.753227 
L 339.261 196.957543 
L 341.949 194.222595 
L 343.515335 192 
L 344.961451 189.312 
L 346.021758 186.624 
L 346.803913 183.936 
L 347.350484 181.248 
L 347.689644 178.56 
L 347.850487 175.872 
L 347.851108 173.184 
L 347.706555 170.496 
L 347.325 167.08753 
L 346.525388 162.432 
L 345.252303 157.056 
L 343.721654 151.68 
L 338.960424 135.552 
L 333.818501 116.736 
L 331.992873 111.36 
L 329.810346 105.984 
L 327.182333 100.608 
L 324.010442 95.232 
L 322.186737 92.544 
L 320.171574 89.856 
L 317.757 86.938489 
L 315.069 84.01495 
L 312.381 81.387735 
L 309.693 79.017188 
L 306.411841 76.416 
L 302.562495 73.728 
L 301.629 73.11893 
L 298.107939 71.04 
L 296.253 70.019485 
L 290.877 67.474758 
L 286.14776 65.664 
L 282.813 64.548345 
L 277.437 63.153794 
L 272.061 62.118787 
L 266.685 61.475602 
L 261.309 61.205693 
L 255.933 61.295285 
L 250.557 61.748934 
L 245.181 62.589957 
L 239.805 63.793876 
L 237.117 64.548345 
L 231.741 66.389492 
L 227.123727 68.352 
L 223.677 70.019485 
L 220.989 71.500764 
L 217.367505 73.728 
L 213.518159 76.416 
L 212.925 76.86094 
L 210.133859 79.104 
L 207.113869 81.792 
L 204.407155 84.48 
L 201.969749 87.168 
L 199.485 90.218183 
L 196.797 93.940204 
L 195.919558 95.232 
L 192.747667 100.608 
L 190.119654 105.984 
L 187.937127 111.36 
L 186.045 116.961409 
L 184.519438 122.112 
L 178.660847 143.616 
L 175.293 154.800878 
L 174.002937 159.744 
L 172.898352 165.12 
L 172.499834 167.808 
L 172.223445 170.496 
L 172.078892 173.184 
L 172.079513 175.872 
L 172.240356 178.56 
L 172.579516 181.248 
L 172.579516 181.248 
" style="fill:none;stroke:#00acff;stroke-width:1.5;"/>
   </g>
   <g id="LineCollection_7">
    <path clip-path="url(#p658bb67487)" d="M 156.123898 183.936 
L 157.176943 189.312 
L 157.927869 192 
L 159.165 195.380094 
L 159.999988 197.376 
L 161.853 200.840648 
L 163.056831 202.752 
L 165.141487 205.44 
L 167.81159 208.128 
L 169.917 209.78299 
L 172.605 211.416259 
L 175.293 212.58487 
L 178.874912 213.504 
L 180.669 213.775693 
L 183.357 213.876489 
L 187.029911 213.504 
L 188.733 213.217962 
L 191.421 212.493433 
L 194.109 211.516954 
L 196.797 210.285874 
L 200.480601 208.128 
L 202.173 207.01085 
L 204.861 204.902634 
L 207.549 202.371512 
L 210.237 199.218174 
L 211.509987 197.376 
L 213.115996 194.688 
L 214.310833 192 
L 215.613 187.986814 
L 215.931145 186.624 
L 216.366342 183.936 
L 216.635806 181.248 
L 216.82595 175.872 
L 216.850374 167.808 
L 216.953654 165.12 
L 217.1754 162.432 
L 217.564025 159.744 
L 218.301 156.67117 
L 219.011067 154.368 
L 220.18779 151.68 
L 221.773054 148.992 
L 223.877645 146.304 
L 226.621352 143.616 
L 230.25521 140.928 
L 231.741 140.041587 
L 235.259275 138.24 
L 237.117 137.4494 
L 239.805 136.46468 
L 242.844798 135.552 
L 245.181 134.965359 
L 247.869 134.418148 
L 250.557 133.992313 
L 255.933 133.474278 
L 261.309 133.372513 
L 266.685 133.679633 
L 269.373 133.992313 
L 272.061 134.418148 
L 277.085202 135.552 
L 277.437 135.644309 
L 280.125 136.46468 
L 284.670725 138.24 
L 285.501 138.628052 
L 289.67479 140.928 
L 290.877 141.752207 
L 293.565 143.850671 
L 296.253 146.551132 
L 298.156946 148.992 
L 299.74221 151.68 
L 300.918933 154.368 
L 301.752404 157.056 
L 302.365975 159.744 
L 302.7546 162.432 
L 302.976346 165.12 
L 303.107843 170.496 
L 303.154267 178.56 
L 303.294194 181.248 
L 303.563658 183.936 
L 304.317 187.986814 
L 304.668962 189.312 
L 305.619167 192 
L 307.005 195.047713 
L 308.420013 197.376 
L 310.370213 200.064 
L 312.768983 202.752 
L 315.746358 205.44 
L 317.757 207.01085 
L 320.445 208.794182 
L 323.133 210.285874 
L 325.821 211.516954 
L 328.509 212.493433 
L 331.197 213.217962 
L 333.885 213.683665 
L 336.573 213.876489 
L 339.261 213.775693 
L 341.949 213.355895 
L 344.637 212.58487 
L 347.325 211.416259 
L 350.013 209.78299 
L 352.701 207.599147 
L 355.389 204.707576 
L 356.873169 202.752 
L 358.547995 200.064 
L 359.930012 197.376 
L 361.056126 194.688 
L 362.002131 192 
L 362.753057 189.312 
L 363.453 185.936362 
L 363.806102 183.936 
L 364.146416 181.248 
L 364.363456 178.56 
L 364.468207 173.184 
L 364.181155 167.808 
L 363.541509 162.432 
L 362.646009 157.056 
L 361.485461 151.68 
L 359.400098 143.616 
L 357.022808 135.552 
L 353.55577 124.8 
L 349.657061 114.048 
L 347.325 108.412242 
L 344.995627 103.296 
L 341.949 97.449404 
L 340.711953 95.232 
L 337.321967 89.856 
L 333.415539 84.48 
L 331.197 81.760131 
L 328.509 78.698122 
L 325.821 75.894403 
L 323.133 73.318942 
L 320.445 70.9504 
L 317.247046 68.352 
L 313.591625 65.664 
L 312.381 64.819535 
L 307.005 61.457665 
L 301.629 58.587852 
L 296.253 56.148503 
L 290.877 54.112949 
L 288.189 53.226739 
L 282.813 51.739721 
L 277.437 50.558733 
L 272.061 49.741703 
L 266.685 49.202635 
L 261.309 48.965126 
L 255.933 49.043938 
L 250.557 49.443391 
L 245.181 50.108104 
L 239.805 51.099989 
L 234.429 52.457744 
L 231.741 53.226739 
L 226.365 55.107276 
L 223.677 56.148503 
L 218.301 58.587852 
L 212.925 61.457665 
L 207.549 64.819535 
L 204.861 66.700514 
L 202.173 68.745387 
L 199.38021 71.04 
L 196.354806 73.728 
L 193.587386 76.416 
L 191.045183 79.104 
L 188.705651 81.792 
L 186.045 85.101689 
L 183.357 88.788907 
L 182.608033 89.856 
L 179.218047 95.232 
L 176.262861 100.608 
L 173.656077 105.984 
L 170.272939 114.048 
L 166.37423 124.8 
L 163.746434 132.864 
L 161.305087 140.928 
L 159.801484 146.304 
L 157.831895 154.368 
L 156.804041 159.744 
L 156.026538 165.12 
L 155.559146 170.496 
L 155.462065 175.872 
L 155.566544 178.56 
L 155.783584 181.248 
L 156.123898 183.936 
L 156.123898 183.936 
" style="fill:none;stroke:#02e8f4;stroke-width:1.5;"/>
   </g>
   <g id="LineCollection_8">
    <path clip-path="url(#p658bb67487)" d="M 126.909 259.765825 
L 127.856974 259.2 
L 129.597 258.519844 
L 132.285 257.252573 
L 133.559486 256.512 
L 134.973 255.962225 
L 137.661 254.683726 
L 139.157244 253.824 
L 140.349 253.355597 
L 143.037 252.056673 
L 144.633173 251.136 
L 145.725 250.695807 
L 148.413 249.366951 
L 149.977821 248.448 
L 151.101 247.976885 
L 153.789 246.608 
L 155.189149 245.76 
L 156.477 245.190691 
L 164.541 240.843268 
L 165.230974 240.384 
L 167.229 239.369829 
L 177.981 233.099753 
L 179.11443 232.32 
L 180.669 231.44966 
L 188.733 226.221291 
L 194.109 222.452793 
L 198.759857 218.88 
L 199.485 218.350928 
L 204.861 213.785264 
L 210.521634 208.128 
L 212.925 205.310179 
L 215.613 201.566848 
L 216.538861 200.064 
L 218.301 196.763649 
L 219.187728 194.688 
L 220.122284 192 
L 220.989 188.550595 
L 221.33105 186.624 
L 221.644693 183.936 
L 221.905399 178.56 
L 222.03209 167.808 
L 222.215272 165.12 
L 222.543979 162.432 
L 223.068039 159.744 
L 223.837249 157.056 
L 224.8804 154.368 
L 226.365 151.623256 
L 228.218303 148.992 
L 230.739237 146.304 
L 231.741 145.443475 
L 234.429 143.408331 
L 237.117 141.800732 
L 239.805 140.479236 
L 242.493 139.410662 
L 246.292421 138.24 
L 247.869 137.841714 
L 250.557 137.305679 
L 253.245 136.913135 
L 255.933 136.655819 
L 258.621 136.528449 
L 261.309 136.528449 
L 263.997 136.655819 
L 266.685 136.913135 
L 269.373 137.305679 
L 273.637579 138.24 
L 274.749 138.536832 
L 277.437 139.410662 
L 281.10241 140.928 
L 282.813 141.800732 
L 285.814816 143.616 
L 289.190763 146.304 
L 291.711697 148.992 
L 293.603296 151.68 
L 295.0496 154.368 
L 296.253 157.621084 
L 296.861961 159.744 
L 297.386021 162.432 
L 297.714728 165.12 
L 297.979689 170.496 
L 298.105837 181.248 
L 298.285307 183.936 
L 298.59895 186.624 
L 299.088591 189.312 
L 299.807716 192 
L 300.742272 194.688 
L 301.917188 197.376 
L 304.317 201.566848 
L 305.124958 202.752 
L 307.111417 205.44 
L 309.693 208.455762 
L 312.381 211.245453 
L 315.069 213.785264 
L 320.445 218.350928 
L 321.170143 218.88 
L 323.133 220.452726 
L 333.885 228.019647 
L 344.637 234.695016 
L 345.263644 235.008 
L 347.325 236.302386 
L 363.453 245.190691 
L 364.740851 245.76 
L 366.141 246.608 
L 374.205 250.695807 
L 375.296827 251.136 
L 376.893 252.056673 
L 384.957 255.962225 
L 386.370514 256.512 
L 387.645 257.252573 
L 390.333 258.519844 
L 392.073026 259.2 
L 393.021 259.765825 
L 393.021 259.765825 
" style="fill:none;stroke:#33ffc4;stroke-width:1.5;"/>
   </g>
   <g id="LineCollection_9">
    <path clip-path="url(#p658bb67487)" d="M 191.133752 253.824 
L 191.062 251.136 
L 191.421 247.467931 
L 191.677582 245.76 
L 192.341174 243.072 
L 193.288651 240.384 
L 195.931465 235.008 
L 199.522167 229.632 
L 202.173 226.224213 
L 204.861 222.974675 
L 205.996781 221.568 
L 210.237 216.693212 
L 217.065775 208.128 
L 218.932186 205.44 
L 220.989 202.064144 
L 222.042235 200.064 
L 223.677 196.335546 
L 224.273045 194.688 
L 225.045733 192 
L 225.620933 189.312 
L 226.016207 186.624 
L 226.365 181.603887 
L 226.420364 178.56 
L 226.465954 170.496 
L 226.591768 167.808 
L 226.843014 165.12 
L 227.265929 162.432 
L 227.913056 159.744 
L 229.053 156.610247 
L 230.124611 154.368 
L 231.855813 151.68 
L 234.429 148.74962 
L 237.324307 146.304 
L 239.805 144.70545 
L 242.493 143.29181 
L 245.181 142.189713 
L 249.353269 140.928 
L 250.557 140.63882 
L 253.245 140.157895 
L 255.933 139.843084 
L 258.621 139.687384 
L 261.309 139.687384 
L 263.997 139.843084 
L 266.685 140.157895 
L 270.576731 140.928 
L 272.061 141.30949 
L 274.749 142.189713 
L 278.111244 143.616 
L 280.125 144.70545 
L 282.813 146.45967 
L 285.756617 148.992 
L 288.189 151.847511 
L 289.805389 154.368 
L 291.08247 157.056 
L 292.016944 159.744 
L 292.664071 162.432 
L 293.086986 165.12 
L 293.338232 167.808 
L 293.507213 173.184 
L 293.565 181.603887 
L 293.67163 183.936 
L 293.913793 186.624 
L 294.309067 189.312 
L 294.884267 192 
L 295.656955 194.688 
L 296.653821 197.376 
L 297.887765 200.064 
L 299.329583 202.752 
L 301.629 206.393927 
L 304.880572 210.816 
L 309.693 216.693212 
L 316.208716 224.256 
L 320.445 229.689996 
L 322.322939 232.32 
L 325.427107 237.696 
L 327.588826 243.072 
L 328.252418 245.76 
L 328.679372 248.448 
L 328.868 251.136 
L 328.796248 253.824 
L 328.472068 256.512 
L 327.943589 259.2 
L 327.165319 261.888 
L 325.821 265.200224 
L 324.863612 267.264 
L 323.133 270.250196 
L 321.571654 272.64 
L 319.520462 275.328 
L 317.170778 278.016 
L 314.500335 280.704 
L 311.464339 283.392 
L 307.990855 286.08 
L 307.005 286.793563 
L 301.629 290.206638 
L 296.253 293.011178 
L 290.877 295.312969 
L 285.501 297.150647 
L 282.813 297.953559 
L 277.437 299.206208 
L 272.061 300.137762 
L 266.685 300.728933 
L 261.309 300.975446 
L 255.933 300.893724 
L 250.557 300.478342 
L 245.181 299.701428 
L 239.805 298.634535 
L 237.117 297.953559 
L 231.741 296.282474 
L 229.053 295.312969 
L 223.677 293.011178 
L 218.301 290.206638 
L 212.925 286.793563 
L 210.237 284.823056 
L 207.549 282.621749 
L 204.861 280.15737 
L 202.173 277.366339 
L 199.485 274.133529 
L 198.358346 272.64 
L 196.603904 269.952 
L 195.066388 267.264 
L 193.814301 264.576 
L 192.764681 261.888 
L 191.986411 259.2 
L 191.421 256.18671 
L 191.133752 253.824 
L 191.133752 253.824 
" style="fill:none;stroke:#63ff94;stroke-width:1.5;"/>
   </g>
   <g id="LineCollection_10">
    <path clip-path="url(#p658bb67487)" d="M 204.478729 256.512 
L 203.710426 253.824 
L 203.213381 251.136 
L 202.972517 248.448 
L 202.979128 245.76 
L 203.230358 243.072 
L 203.728849 240.384 
L 204.861 236.703318 
L 205.445803 235.008 
L 206.62607 232.32 
L 209.583046 226.944 
L 215.613 218.08637 
L 222.502258 208.128 
L 224.153102 205.44 
L 226.365 201.261677 
L 226.931381 200.064 
L 228.02263 197.376 
L 229.053 194.145331 
L 229.590232 192 
L 230.074493 189.312 
L 230.389072 186.624 
L 230.633435 181.248 
L 230.68748 170.496 
L 230.860618 167.808 
L 231.188523 165.12 
L 231.741 162.366788 
L 232.519726 159.744 
L 233.650699 157.056 
L 235.217655 154.368 
L 237.353166 151.68 
L 240.327914 148.992 
L 242.493 147.527922 
L 245.181 146.057388 
L 247.869 144.960733 
L 250.557 144.114957 
L 253.245 143.504458 
L 255.933 143.122685 
L 258.621 142.934 
L 261.309 142.934 
L 263.997 143.122685 
L 267.209109 143.616 
L 269.373 144.114957 
L 272.061 144.960733 
L 275.251356 146.304 
L 277.437 147.527922 
L 280.125 149.41047 
L 282.813 151.949795 
L 284.712345 154.368 
L 286.279301 157.056 
L 287.410274 159.744 
L 288.207692 162.432 
L 288.741477 165.12 
L 289.069382 167.808 
L 289.307703 173.184 
L 289.3665 183.936 
L 289.540928 186.624 
L 289.855507 189.312 
L 290.339768 192 
L 291.017174 194.688 
L 291.90737 197.376 
L 293.565 201.261677 
L 294.298319 202.752 
L 296.253 206.241239 
L 299.189634 210.816 
L 310.346954 226.944 
L 312.381 230.599403 
L 313.30393 232.32 
L 314.484197 235.008 
L 315.447506 237.696 
L 316.201151 240.384 
L 316.699642 243.072 
L 316.950872 245.76 
L 316.957483 248.448 
L 316.716619 251.136 
L 316.219574 253.824 
L 315.069 257.52041 
L 314.435975 259.2 
L 313.142477 261.888 
L 311.556968 264.576 
L 309.646756 267.264 
L 307.005 270.396682 
L 304.317 273.084742 
L 301.629 275.397168 
L 298.088686 278.016 
L 296.253 279.233461 
L 293.565 280.804544 
L 290.877 282.235121 
L 285.501 284.595417 
L 281.11676 286.08 
L 280.125 286.399122 
L 277.437 287.144728 
L 274.749 287.760327 
L 269.373 288.644728 
L 263.997 289.153147 
L 258.621 289.255647 
L 253.245 288.946394 
L 247.869 288.257318 
L 245.181 287.760327 
L 242.493 287.144728 
L 237.117 285.557915 
L 234.429 284.595417 
L 229.053 282.235121 
L 226.191533 280.704 
L 223.677 279.233461 
L 220.989 277.434462 
L 218.215974 275.328 
L 215.136817 272.64 
L 212.513502 269.952 
L 210.237 267.201337 
L 208.373032 264.576 
L 206.787523 261.888 
L 205.494025 259.2 
L 204.478729 256.512 
L 204.478729 256.512 
" style="fill:none;stroke:#94ff63;stroke-width:1.5;"/>
   </g>
   <g id="LineCollection_11">
    <path clip-path="url(#p658bb67487)" d="M 212.853746 253.824 
L 212.004602 251.136 
L 211.447452 248.448 
L 211.163025 245.76 
L 211.137708 243.072 
L 211.362624 240.384 
L 211.832787 237.696 
L 212.925 233.950388 
L 213.46639 232.32 
L 214.585352 229.632 
L 217.356189 224.256 
L 222.34961 216.192 
L 226.365 209.91221 
L 229.053 205.29146 
L 230.358971 202.752 
L 231.741 199.623312 
L 232.594828 197.376 
L 233.411011 194.688 
L 234.021833 192 
L 234.441506 189.312 
L 234.699295 186.624 
L 234.843377 181.248 
L 234.777648 173.184 
L 234.86738 170.496 
L 235.09439 167.808 
L 235.511044 165.12 
L 236.174832 162.432 
L 237.153338 159.744 
L 238.58183 157.056 
L 240.572505 154.368 
L 243.424126 151.68 
L 245.181 150.451955 
L 247.869 148.939986 
L 250.557 147.886829 
L 253.245 147.120247 
L 255.933 146.619897 
L 258.621 146.372859 
L 261.309 146.372859 
L 263.997 146.619897 
L 266.685 147.120247 
L 269.373 147.886829 
L 272.167551 148.992 
L 274.749 150.451955 
L 277.437 152.464297 
L 279.357495 154.368 
L 280.125 155.327694 
L 281.34817 157.056 
L 282.813 159.836609 
L 283.755168 162.432 
L 284.418956 165.12 
L 284.83561 167.808 
L 285.06262 170.496 
L 285.154354 175.872 
L 285.110034 183.936 
L 285.230705 186.624 
L 285.501 189.391612 
L 285.908167 192 
L 286.518989 194.688 
L 287.335172 197.376 
L 288.35797 200.064 
L 289.571029 202.752 
L 290.954983 205.44 
L 294.126603 210.816 
L 302.573811 224.256 
L 304.317 227.567858 
L 305.344648 229.632 
L 306.46361 232.32 
L 307.383783 235.008 
L 308.097213 237.696 
L 308.567376 240.384 
L 308.792292 243.072 
L 308.766975 245.76 
L 308.482548 248.448 
L 307.925398 251.136 
L 307.005 253.998025 
L 305.957894 256.512 
L 304.317 259.492388 
L 302.721999 261.888 
L 300.548177 264.576 
L 297.93103 267.264 
L 294.777551 269.952 
L 293.565 270.870401 
L 290.877 272.679141 
L 288.189 274.266229 
L 285.501 275.628751 
L 282.813 276.826918 
L 279.573058 278.016 
L 277.437 278.721885 
L 274.749 279.460033 
L 272.061 280.054991 
L 266.685 280.869687 
L 263.997 281.109652 
L 261.309 281.228572 
L 258.621 281.228572 
L 255.933 281.109652 
L 252.014552 280.704 
L 250.557 280.518147 
L 247.869 280.054991 
L 245.181 279.460033 
L 242.493 278.721885 
L 239.805 277.837098 
L 237.117 276.826918 
L 233.829817 275.328 
L 231.741 274.266229 
L 228.992459 272.64 
L 225.152449 269.952 
L 221.99897 267.264 
L 219.381823 264.576 
L 217.208001 261.888 
L 215.42662 259.2 
L 213.972106 256.512 
L 212.853746 253.824 
L 212.853746 253.824 
" style="fill:none;stroke:#c4ff33;stroke-width:1.5;"/>
   </g>
   <g id="LineCollection_12">
    <path clip-path="url(#p658bb67487)" d="M 218.098342 245.76 
L 217.827789 243.072 
L 217.832516 240.384 
L 218.301 236.666909 
L 218.606415 235.008 
L 219.336911 232.32 
L 220.288092 229.632 
L 222.734901 224.256 
L 225.730746 218.88 
L 232.215078 208.128 
L 234.429 203.991444 
L 235.05915 202.752 
L 236.248237 200.064 
L 237.234407 197.376 
L 238.033828 194.688 
L 238.611035 192 
L 238.984621 189.312 
L 239.184248 186.624 
L 239.221645 181.248 
L 239.095681 173.184 
L 239.213462 170.496 
L 239.50252 167.808 
L 240.037508 165.12 
L 240.910747 162.432 
L 242.493 159.252134 
L 244.095897 157.056 
L 245.181 155.909303 
L 246.942537 154.368 
L 247.869 153.70982 
L 250.557 152.201952 
L 253.245 151.176887 
L 255.933 150.549832 
L 258.621 150.240479 
L 261.309 150.240479 
L 263.997 150.549832 
L 266.685 151.176887 
L 269.373 152.201952 
L 272.061 153.70982 
L 272.987463 154.368 
L 274.749 155.909303 
L 275.834103 157.056 
L 277.748533 159.744 
L 279.019253 162.432 
L 279.892492 165.12 
L 280.42748 167.808 
L 280.716538 170.496 
L 280.834319 173.184 
L 280.777047 178.56 
L 280.681655 183.936 
L 280.745752 186.624 
L 280.945379 189.312 
L 281.318965 192 
L 281.896172 194.688 
L 282.813 197.687469 
L 283.681763 200.064 
L 285.501 203.991444 
L 286.227239 205.44 
L 289.297614 210.816 
L 295.746617 221.568 
L 298.497641 226.944 
L 299.641908 229.632 
L 300.593089 232.32 
L 301.323585 235.008 
L 301.830447 237.696 
L 302.097484 240.384 
L 302.102211 243.072 
L 301.629 246.756628 
L 301.279503 248.448 
L 300.426639 251.136 
L 298.941 254.364242 
L 297.697711 256.512 
L 295.750144 259.2 
L 293.335089 261.888 
L 290.339646 264.576 
L 288.189 266.197291 
L 285.501 267.93544 
L 281.657848 269.952 
L 280.125 270.657563 
L 277.437 271.710135 
L 274.503034 272.64 
L 272.061 273.294518 
L 269.373 273.856199 
L 266.685 274.268214 
L 263.997 274.53857 
L 261.309 274.672468 
L 258.621 274.672468 
L 255.933 274.53857 
L 253.245 274.268214 
L 250.557 273.856199 
L 247.869 273.294518 
L 245.181 272.574652 
L 242.493 271.710135 
L 238.272152 269.952 
L 237.117 269.406721 
L 233.354646 267.264 
L 231.741 266.197291 
L 229.053 264.135836 
L 226.365 261.652157 
L 223.677 258.54147 
L 222.232289 256.512 
L 220.691768 253.824 
L 219.503361 251.136 
L 218.650497 248.448 
L 218.098342 245.76 
L 218.098342 245.76 
" style="fill:none;stroke:#f4f802;stroke-width:1.5;"/>
   </g>
   <g id="LineCollection_13">
    <path clip-path="url(#p658bb67487)" d="M 225.329072 248.448 
L 224.485831 245.76 
L 223.972804 243.072 
L 223.764424 240.384 
L 223.839283 237.696 
L 224.178744 235.008 
L 224.765565 232.32 
L 225.582502 229.632 
L 226.60887 226.944 
L 227.813985 224.256 
L 230.662231 218.88 
L 235.501721 210.816 
L 238.633417 205.44 
L 241.282217 200.064 
L 242.493 196.712818 
L 243.132018 194.688 
L 243.720348 192 
L 244.070707 189.312 
L 244.221844 186.624 
L 244.129864 181.248 
L 243.909944 175.872 
L 243.912756 173.184 
L 244.080285 170.496 
L 244.482893 167.808 
L 245.197965 165.12 
L 246.465053 162.432 
L 248.379262 159.744 
L 250.557 157.790896 
L 251.664585 157.056 
L 253.245 156.218397 
L 255.933 155.281502 
L 258.621 154.820042 
L 261.309 154.820042 
L 263.997 155.281502 
L 266.685 156.218397 
L 268.265415 157.056 
L 269.373 157.790896 
L 271.550738 159.744 
L 272.061 160.35135 
L 273.464947 162.432 
L 274.749 165.174865 
L 275.447107 167.808 
L 275.849715 170.496 
L 276.017244 173.184 
L 275.925746 178.56 
L 275.707226 183.936 
L 275.708156 186.624 
L 275.859293 189.312 
L 276.209652 192 
L 276.797982 194.688 
L 277.629685 197.376 
L 278.647783 200.064 
L 280.125 203.154112 
L 281.296583 205.44 
L 285.501 212.561071 
L 289.267769 218.88 
L 292.116015 224.256 
L 293.565 227.594005 
L 294.347498 229.632 
L 295.164435 232.32 
L 295.751256 235.008 
L 296.090717 237.696 
L 296.165576 240.384 
L 295.957196 243.072 
L 295.444169 245.76 
L 294.600928 248.448 
L 293.395347 251.136 
L 291.78027 253.824 
L 289.688086 256.512 
L 287.010658 259.2 
L 285.501 260.463889 
L 282.813 262.387403 
L 278.888663 264.576 
L 277.437 265.262701 
L 274.749 266.325372 
L 271.715042 267.264 
L 269.373 267.845515 
L 266.685 268.335963 
L 263.997 268.657458 
L 261.309 268.816587 
L 258.621 268.816587 
L 255.933 268.657458 
L 253.245 268.335963 
L 250.557 267.845515 
L 247.869 267.177155 
L 245.181 266.325372 
L 241.041337 264.576 
L 239.805 263.962026 
L 236.374524 261.888 
L 234.429 260.463889 
L 231.741 258.0901 
L 230.241914 256.512 
L 228.14973 253.824 
L 226.365 250.77735 
L 225.329072 248.448 
L 225.329072 248.448 
" style="fill:none;stroke:#ffc100;stroke-width:1.5;"/>
   </g>
   <g id="LineCollection_14">
    <path clip-path="url(#p658bb67487)" d="M 230.803433 245.76 
L 229.99684 243.072 
L 229.547964 240.384 
L 229.42708 237.696 
L 229.607816 235.008 
L 230.065565 232.32 
L 230.77595 229.632 
L 231.713342 226.944 
L 231.741 226.879549 
L 232.87237 224.256 
L 234.197716 221.568 
L 234.429 221.144538 
L 235.693677 218.88 
L 237.117 216.471801 
L 237.289287 216.192 
L 238.995544 213.504 
L 239.805 212.218947 
L 240.745343 210.816 
L 242.470772 208.128 
L 242.493 208.090804 
L 244.221968 205.44 
L 245.181 203.779513 
L 245.851434 202.752 
L 247.337249 200.064 
L 247.869 198.859801 
L 248.644593 197.376 
L 249.680872 194.688 
L 250.355384 192 
L 250.557 190.47393 
L 250.752398 189.312 
L 250.866817 186.624 
L 250.732526 183.936 
L 250.557 182.237567 
L 250.478935 181.248 
L 250.244134 178.56 
L 250.080982 175.872 
L 250.085078 173.184 
L 250.354908 170.496 
L 250.557 169.63856 
L 251.122037 167.808 
L 252.569177 165.12 
L 253.245 164.289513 
L 255.523315 162.432 
L 255.933 162.189657 
L 258.621 161.394967 
L 261.309 161.394967 
L 263.997 162.189657 
L 264.406685 162.432 
L 266.685 164.289513 
L 267.360823 165.12 
L 268.807963 167.808 
L 269.373 169.63856 
L 269.575092 170.496 
L 269.844922 173.184 
L 269.849018 175.872 
L 269.685866 178.56 
L 269.451065 181.248 
L 269.373 182.237567 
L 269.197474 183.936 
L 269.063183 186.624 
L 269.177602 189.312 
L 269.373 190.47393 
L 269.574616 192 
L 270.249128 194.688 
L 271.285407 197.376 
L 272.061 198.859801 
L 272.592751 200.064 
L 274.078566 202.752 
L 274.749 203.779513 
L 275.708032 205.44 
L 277.437 208.090804 
L 277.459228 208.128 
L 279.184657 210.816 
L 280.125 212.218947 
L 280.934456 213.504 
L 282.640713 216.192 
L 282.813 216.471801 
L 284.236323 218.88 
L 285.501 221.144538 
L 285.732284 221.568 
L 287.05763 224.256 
L 288.189 226.879549 
L 288.216658 226.944 
L 289.15405 229.632 
L 289.864435 232.32 
L 290.322184 235.008 
L 290.50292 237.696 
L 290.382036 240.384 
L 289.93316 243.072 
L 289.126567 245.76 
L 288.189 247.885455 
L 287.918985 248.448 
L 286.231003 251.136 
L 285.501 252.070521 
L 283.965087 253.824 
L 282.813 254.937209 
L 280.93837 256.512 
L 280.125 257.116638 
L 277.437 258.824277 
L 276.730229 259.2 
L 274.749 260.174124 
L 272.061 261.240455 
L 269.959583 261.888 
L 269.373 262.061257 
L 266.685 262.653549 
L 263.997 263.041216 
L 261.309 263.232923 
L 258.621 263.232923 
L 255.933 263.041216 
L 253.245 262.653549 
L 250.557 262.061257 
L 249.970417 261.888 
L 247.869 261.240455 
L 245.181 260.174124 
L 243.199771 259.2 
L 242.493 258.824277 
L 239.805 257.116638 
L 238.99163 256.512 
L 237.117 254.937209 
L 235.964913 253.824 
L 234.429 252.070521 
L 233.698997 251.136 
L 232.011015 248.448 
L 231.741 247.885455 
L 230.803433 245.76 
" style="fill:none;stroke:#ff8900;stroke-width:1.5;"/>
   </g>
   <g id="LineCollection_15">
    <path clip-path="url(#p658bb67487)" d="M 236.325742 243.072 
L 235.568807 240.384 
L 235.209445 237.696 
L 235.211428 235.008 
L 235.540945 232.32 
L 236.164833 229.632 
L 237.048933 226.944 
L 237.117 226.781709 
L 238.218607 224.256 
L 239.583453 221.568 
L 239.805 221.17832 
L 241.196692 218.88 
L 242.493 216.869129 
L 242.970828 216.192 
L 244.925345 213.504 
L 245.181 213.15082 
L 247.095932 210.816 
L 247.869 209.831813 
L 249.458835 208.128 
L 250.557 206.852286 
L 252.107742 205.44 
L 253.245 204.269644 
L 255.375851 202.752 
L 255.933 202.281453 
L 258.621 201.119877 
L 261.309 201.119877 
L 263.997 202.281453 
L 264.554149 202.752 
L 266.685 204.269644 
L 267.822258 205.44 
L 269.373 206.852286 
L 270.471165 208.128 
L 272.061 209.831813 
L 272.834068 210.816 
L 274.749 213.15082 
L 275.004655 213.504 
L 276.959172 216.192 
L 277.437 216.869129 
L 278.733308 218.88 
L 280.125 221.17832 
L 280.346547 221.568 
L 281.711393 224.256 
L 282.813 226.781709 
L 282.881067 226.944 
L 283.765167 229.632 
L 284.389055 232.32 
L 284.718572 235.008 
L 284.720555 237.696 
L 284.361193 240.384 
L 283.604258 243.072 
L 282.813 244.880747 
L 282.381618 245.76 
L 280.585182 248.448 
L 280.125 248.994194 
L 278.029442 251.136 
L 277.437 251.643246 
L 274.749 253.57267 
L 274.319213 253.824 
L 272.061 254.997705 
L 269.373 256.077026 
L 267.896749 256.512 
L 266.685 256.843658 
L 263.997 257.329679 
L 261.309 257.569682 
L 258.621 257.569682 
L 255.933 257.329679 
L 253.245 256.843658 
L 252.033251 256.512 
L 250.557 256.077026 
L 247.869 254.997705 
L 245.610787 253.824 
L 245.181 253.57267 
L 242.493 251.643246 
L 241.900558 251.136 
L 239.805 248.994194 
L 239.344818 248.448 
L 237.548382 245.76 
L 237.117 244.880747 
L 236.325742 243.072 
" style="fill:none;stroke:#ff5200;stroke-width:1.5;"/>
   </g>
   <g id="LineCollection_16">
    <path clip-path="url(#p658bb67487)" d="M 242.419747 240.384 
L 241.719454 237.696 
L 241.482273 235.008 
L 241.660821 232.32 
L 242.209039 229.632 
L 242.493 228.769979 
L 243.148287 226.944 
L 244.424411 224.256 
L 245.181 222.93152 
L 246.062395 221.568 
L 247.869 219.094495 
L 248.055082 218.88 
L 250.557 216.215017 
L 250.584584 216.192 
L 253.245 214.060226 
L 254.249281 213.504 
L 255.933 212.575748 
L 258.621 211.818125 
L 261.309 211.818125 
L 263.997 212.575748 
L 265.680719 213.504 
L 266.685 214.060226 
L 269.345416 216.192 
L 269.373 216.215017 
L 271.874918 218.88 
L 272.061 219.094495 
L 273.867605 221.568 
L 274.749 222.93152 
L 275.505589 224.256 
L 276.781713 226.944 
L 277.437 228.769979 
L 277.720961 229.632 
L 278.269179 232.32 
L 278.447727 235.008 
L 278.210546 237.696 
L 277.510253 240.384 
L 277.437 240.553134 
L 276.157952 243.072 
L 274.749 244.990946 
L 274.059574 245.76 
L 272.061 247.496277 
L 270.650648 248.448 
L 269.373 249.169537 
L 266.685 250.284056 
L 263.997 251.006424 
L 263.021591 251.136 
L 261.309 251.340122 
L 258.621 251.340122 
L 256.908409 251.136 
L 255.933 251.006424 
L 253.245 250.284056 
L 250.557 249.169537 
L 249.279352 248.448 
L 247.869 247.496277 
L 245.870426 245.76 
L 245.181 244.990946 
L 243.772048 243.072 
L 242.493 240.553134 
L 242.419747 240.384 
" style="fill:none;stroke:#ff1a00;stroke-width:1.5;"/>
   </g>
   <g id="LineCollection_17">
    <path clip-path="url(#p658bb67487)" d="M 249.951487 235.008 
L 249.891072 232.32 
L 250.458069 229.632 
L 250.557 229.398015 
L 251.872995 226.944 
L 253.245 225.146846 
L 254.22405 224.256 
L 255.933 223.027215 
L 258.621 222.032772 
L 261.309 222.032772 
L 263.997 223.027215 
L 265.70595 224.256 
L 266.685 225.146846 
L 268.057005 226.944 
L 269.373 229.398015 
L 269.471931 229.632 
L 270.038928 232.32 
L 269.978513 235.008 
L 269.373 237.131749 
L 269.155221 237.696 
L 267.103803 240.384 
L 266.685 240.748086 
L 263.997 242.279116 
L 261.309 243.021487 
L 258.621 243.021487 
L 255.933 242.279116 
L 253.245 240.748086 
L 252.826197 240.384 
L 250.774779 237.696 
L 250.557 237.131749 
L 249.951487 235.008 
" style="fill:none;stroke:#c40000;stroke-width:1.5;"/>
   </g>
   <g id="LineCollection_18"/>
   <g id="patch_3">
    <path d="M 107.91 307.584 
L 107.91 41.472 
" style="fill:none;stroke:#000000;stroke-linecap:square;stroke-linejoin:miter;stroke-width:0.8;"/>
   </g>
   <g id="patch_4">
    <path d="M 412.02 307.584 
L 412.02 41.472 
" style="fill:none;stroke:#000000;stroke-linecap:square;stroke-linejoin:miter;stroke-width:0.8;"/>
   </g>
   <g id="patch_5">
    <path d="M 107.91 307.584 
L 412.02 307.584 
" style="fill:none;stroke:#000000;stroke-linecap:square;stroke-linejoin:miter;stroke-width:0.8;"/>
   </g>
   <g id="patch_6">
    <path d="M 107.91 41.472 
L 412.02 41.472 
" style="fill:none;stroke:#000000;stroke-linecap:square;stroke-linejoin:miter;stroke-width:0.8;"/>
   </g>
  </g>
  <g id="axes_2">
   <g id="patch_7">
    <path d="M 472.842 307.584 
L 776.952 307.584 
L 776.952 41.472 
L 472.842 41.472 
z
" style="fill:#ffffff;"/>
   </g>
   <g id="matplotlib.axis_3">
    <g id="xtick_8">
     <g id="line2d_15">
      <g>
       <use style="stroke:#000000;stroke-width:0.8;" x="510.849" xlink:href="#me05c31a4ef" y="307.584"/>
      </g>
     </g>
     <g id="text_15">
      <!-- −3 -->
      <g transform="translate(503.477906 322.182437)scale(0.1 -0.1)">
       <use xlink:href="#DejaVuSans-8722"/>
       <use x="83.789062" xlink:href="#DejaVuSans-51"/>
      </g>
     </g>
    </g>
    <g id="xtick_9">
     <g id="line2d_16">
      <g>
       <use style="stroke:#000000;stroke-width:0.8;" x="548.865" xlink:href="#me05c31a4ef" y="307.584"/>
      </g>
     </g>
     <g id="text_16">
      <!-- −2 -->
      <g transform="translate(541.493906 322.182437)scale(0.1 -0.1)">
       <use xlink:href="#DejaVuSans-8722"/>
       <use x="83.789062" xlink:href="#DejaVuSans-50"/>
      </g>
     </g>
    </g>
    <g id="xtick_10">
     <g id="line2d_17">
      <g>
       <use style="stroke:#000000;stroke-width:0.8;" x="586.881" xlink:href="#me05c31a4ef" y="307.584"/>
      </g>
     </g>
     <g id="text_17">
      <!-- −1 -->
      <g transform="translate(579.509906 322.182437)scale(0.1 -0.1)">
       <use xlink:href="#DejaVuSans-8722"/>
       <use x="83.789062" xlink:href="#DejaVuSans-49"/>
      </g>
     </g>
    </g>
    <g id="xtick_11">
     <g id="line2d_18">
      <g>
       <use style="stroke:#000000;stroke-width:0.8;" x="624.897" xlink:href="#me05c31a4ef" y="307.584"/>
      </g>
     </g>
     <g id="text_18">
      <!-- 0 -->
      <g transform="translate(621.71575 322.182437)scale(0.1 -0.1)">
       <use xlink:href="#DejaVuSans-48"/>
      </g>
     </g>
    </g>
    <g id="xtick_12">
     <g id="line2d_19">
      <g>
       <use style="stroke:#000000;stroke-width:0.8;" x="662.913" xlink:href="#me05c31a4ef" y="307.584"/>
      </g>
     </g>
     <g id="text_19">
      <!-- 1 -->
      <g transform="translate(659.73175 322.182437)scale(0.1 -0.1)">
       <use xlink:href="#DejaVuSans-49"/>
      </g>
     </g>
    </g>
    <g id="xtick_13">
     <g id="line2d_20">
      <g>
       <use style="stroke:#000000;stroke-width:0.8;" x="700.929" xlink:href="#me05c31a4ef" y="307.584"/>
      </g>
     </g>
     <g id="text_20">
      <!-- 2 -->
      <g transform="translate(697.74775 322.182437)scale(0.1 -0.1)">
       <use xlink:href="#DejaVuSans-50"/>
      </g>
     </g>
    </g>
    <g id="xtick_14">
     <g id="line2d_21">
      <g>
       <use style="stroke:#000000;stroke-width:0.8;" x="738.945" xlink:href="#me05c31a4ef" y="307.584"/>
      </g>
     </g>
     <g id="text_21">
      <!-- 3 -->
      <g transform="translate(735.76375 322.182437)scale(0.1 -0.1)">
       <use xlink:href="#DejaVuSans-51"/>
      </g>
     </g>
    </g>
   </g>
   <g id="matplotlib.axis_4">
    <g id="ytick_8">
     <g id="line2d_22">
      <g>
       <use style="stroke:#000000;stroke-width:0.8;" x="472.842" xlink:href="#m85723802cd" y="288.576"/>
      </g>
     </g>
     <g id="text_22">
      <!-- −3 -->
      <g transform="translate(451.099812 292.375219)scale(0.1 -0.1)">
       <use xlink:href="#DejaVuSans-8722"/>
       <use x="83.789062" xlink:href="#DejaVuSans-51"/>
      </g>
     </g>
    </g>
    <g id="ytick_9">
     <g id="line2d_23">
      <g>
       <use style="stroke:#000000;stroke-width:0.8;" x="472.842" xlink:href="#m85723802cd" y="250.56"/>
      </g>
     </g>
     <g id="text_23">
      <!-- −2 -->
      <g transform="translate(451.099812 254.359219)scale(0.1 -0.1)">
       <use xlink:href="#DejaVuSans-8722"/>
       <use x="83.789062" xlink:href="#DejaVuSans-50"/>
      </g>
     </g>
    </g>
    <g id="ytick_10">
     <g id="line2d_24">
      <g>
       <use style="stroke:#000000;stroke-width:0.8;" x="472.842" xlink:href="#m85723802cd" y="212.544"/>
      </g>
     </g>
     <g id="text_24">
      <!-- −1 -->
      <g transform="translate(451.099812 216.343219)scale(0.1 -0.1)">
       <use xlink:href="#DejaVuSans-8722"/>
       <use x="83.789062" xlink:href="#DejaVuSans-49"/>
      </g>
     </g>
    </g>
    <g id="ytick_11">
     <g id="line2d_25">
      <g>
       <use style="stroke:#000000;stroke-width:0.8;" x="472.842" xlink:href="#m85723802cd" y="174.528"/>
      </g>
     </g>
     <g id="text_25">
      <!-- 0 -->
      <g transform="translate(459.4795 178.327219)scale(0.1 -0.1)">
       <use xlink:href="#DejaVuSans-48"/>
      </g>
     </g>
    </g>
    <g id="ytick_12">
     <g id="line2d_26">
      <g>
       <use style="stroke:#000000;stroke-width:0.8;" x="472.842" xlink:href="#m85723802cd" y="136.512"/>
      </g>
     </g>
     <g id="text_26">
      <!-- 1 -->
      <g transform="translate(459.4795 140.311219)scale(0.1 -0.1)">
       <use xlink:href="#DejaVuSans-49"/>
      </g>
     </g>
    </g>
    <g id="ytick_13">
     <g id="line2d_27">
      <g>
       <use style="stroke:#000000;stroke-width:0.8;" x="472.842" xlink:href="#m85723802cd" y="98.496"/>
      </g>
     </g>
     <g id="text_27">
      <!-- 2 -->
      <g transform="translate(459.4795 102.295219)scale(0.1 -0.1)">
       <use xlink:href="#DejaVuSans-50"/>
      </g>
     </g>
    </g>
    <g id="ytick_14">
     <g id="line2d_28">
      <g>
       <use style="stroke:#000000;stroke-width:0.8;" x="472.842" xlink:href="#m85723802cd" y="60.48"/>
      </g>
     </g>
     <g id="text_28">
      <!-- 3 -->
      <g transform="translate(459.4795 64.279219)scale(0.1 -0.1)">
       <use xlink:href="#DejaVuSans-51"/>
      </g>
     </g>
    </g>
   </g>
   <g id="LineCollection_19">
    <path clip-path="url(#p8dfd5293e8)" d="M 591.156701 108.672 
L 591.297 109.169841 
L 592.03174 111.36 
L 593.985 113.710349 
L 594.349316 114.048 
L 596.673 115.340003 
L 599.361 116.379018 
L 600.636532 116.736 
L 602.049 117.019664 
L 604.737 117.415263 
L 607.425 117.690602 
L 610.113 117.88055 
L 612.801 118.009807 
L 615.489 118.095881 
L 618.177 118.151038 
L 620.865 118.183572 
L 623.553 118.198612 
L 626.241 118.198612 
L 628.929 118.183572 
L 631.617 118.151038 
L 634.305 118.095881 
L 636.993 118.009807 
L 639.681 117.88055 
L 642.369 117.690602 
L 645.057 117.415263 
L 647.745 117.019664 
L 649.157468 116.736 
L 650.433 116.379018 
L 653.121 115.340003 
L 655.444684 114.048 
L 655.809 113.710349 
L 657.76226 111.36 
L 658.497 109.169841 
L 658.637299 108.672 
L 658.626651 105.984 
L 658.497 105.464469 
L 657.956185 103.296 
L 656.721767 100.608 
L 655.809 99.212513 
L 654.931394 97.92 
L 653.121 95.860464 
L 652.534198 95.232 
L 650.433 93.390743 
L 649.380978 92.544 
L 647.745 91.418116 
L 645.206334 89.856 
L 645.057 89.774564 
L 642.369 88.479403 
L 639.681 87.377509 
L 639.070043 87.168 
L 636.993 86.517144 
L 634.305 85.846771 
L 631.617 85.347202 
L 628.929 85.015638 
L 626.241 84.850291 
L 623.553 84.850291 
L 620.865 85.015638 
L 618.177 85.347202 
L 615.489 85.846771 
L 612.801 86.517144 
L 610.723957 87.168 
L 610.113 87.377509 
L 607.425 88.479403 
L 604.737 89.774564 
L 604.587666 89.856 
L 602.049 91.418116 
L 600.413022 92.544 
L 599.361 93.390743 
L 597.259802 95.232 
L 596.673 95.860464 
L 594.862606 97.92 
L 593.985 99.212513 
L 593.072233 100.608 
L 591.837815 103.296 
L 591.297 105.464469 
L 591.167349 105.984 
L 591.156701 108.672 
" style="fill:none;stroke:#000080;stroke-width:1.5;"/>
   </g>
   <g id="LineCollection_20">
    <path clip-path="url(#p8dfd5293e8)" d="M 569.441423 122.112 
L 570.288511 124.8 
L 572.030189 127.488 
L 572.481 127.935036 
L 575.169 129.487007 
L 577.857 130.072144 
L 580.545 130.149985 
L 583.233 129.95348 
L 588.609 129.194298 
L 602.049 127.068665 
L 607.425 126.394401 
L 612.801 125.897762 
L 618.177 125.582042 
L 623.553 125.446971 
L 628.929 125.491975 
L 634.305 125.717272 
L 639.681 126.12353 
L 645.057 126.709836 
L 653.121 127.873851 
L 666.561 129.95348 
L 669.249 130.149985 
L 671.937 130.072144 
L 674.625 129.487007 
L 677.313 127.935036 
L 677.763811 127.488 
L 679.505489 124.8 
L 680.352577 122.112 
L 680.710257 119.424 
L 680.740092 116.736 
L 680.502021 114.048 
L 680.001 111.265303 
L 679.329684 108.672 
L 678.419614 105.984 
L 677.288452 103.296 
L 675.939916 100.608 
L 674.347776 97.92 
L 671.937 94.506597 
L 669.249 91.292432 
L 666.561 88.541903 
L 663.873 86.150879 
L 661.185 84.050711 
L 657.847771 81.792 
L 655.809 80.566299 
L 653.086324 79.104 
L 650.433 77.843135 
L 646.890712 76.416 
L 645.057 75.753592 
L 642.369 74.917778 
L 637.389447 73.728 
L 636.993 73.64243 
L 634.305 73.178036 
L 631.617 72.834224 
L 628.929 72.607121 
L 626.241 72.494196 
L 623.553 72.494196 
L 620.865 72.607121 
L 618.177 72.834224 
L 615.489 73.178036 
L 610.113 74.217489 
L 607.425 74.917778 
L 602.903288 76.416 
L 602.049 76.728596 
L 599.361 77.843135 
L 596.673 79.12102 
L 593.985 80.566299 
L 591.297 82.202752 
L 588.029058 84.48 
L 584.72165 87.168 
L 581.881189 89.856 
L 579.423175 92.544 
L 577.29138 95.232 
L 575.169 98.387374 
L 573.854084 100.608 
L 572.481 103.355381 
L 571.374386 105.984 
L 570.464316 108.672 
L 569.767602 111.36 
L 569.291979 114.048 
L 569.053908 116.736 
L 569.083743 119.424 
L 569.441423 122.112 
L 569.441423 122.112 
" style="fill:none;stroke:#0028ff;stroke-width:1.5;"/>
   </g>
   <g id="LineCollection_21">
    <path clip-path="url(#p8dfd5293e8)" d="M 532.038404 178.56 
L 532.323341 181.248 
L 532.769687 183.936 
L 533.403176 186.624 
L 534.253869 189.312 
L 535.360288 192 
L 536.781892 194.688 
L 538.635216 197.376 
L 541.129706 200.064 
L 542.913 201.516248 
L 545.601 203.152892 
L 548.289 204.211461 
L 550.977 204.815809 
L 553.665 205.005407 
L 556.353 204.809459 
L 559.041 204.248424 
L 561.729 203.335214 
L 564.417 202.026292 
L 567.394571 200.064 
L 570.373892 197.376 
L 572.631623 194.688 
L 574.258333 192 
L 575.524116 189.312 
L 576.384902 186.624 
L 576.999275 183.936 
L 577.396391 181.248 
L 577.615675 178.56 
L 577.704464 173.184 
L 577.673785 165.12 
L 577.857 161.952596 
L 578.062367 159.744 
L 578.496124 157.056 
L 579.183057 154.368 
L 580.545 151.051474 
L 581.581386 148.992 
L 583.466907 146.304 
L 585.927092 143.616 
L 589.126085 140.928 
L 591.297 139.482358 
L 593.985 137.936833 
L 596.673 136.640436 
L 599.361 135.537615 
L 602.049 134.593525 
L 604.737 133.795187 
L 610.113 132.56401 
L 615.489 131.744398 
L 620.865 131.305853 
L 626.241 131.219521 
L 631.617 131.479882 
L 636.993 132.103741 
L 642.369 133.125806 
L 645.057 133.795187 
L 647.745 134.593525 
L 650.471026 135.552 
L 653.121 136.640436 
L 656.392539 138.24 
L 658.497 139.482358 
L 661.185 141.334542 
L 663.873 143.622394 
L 666.561 146.636505 
L 668.212614 148.992 
L 669.576265 151.68 
L 670.610943 154.368 
L 671.297876 157.056 
L 671.731633 159.744 
L 672.120215 165.12 
L 672.1247 170.496 
L 672.091526 175.872 
L 672.178325 178.56 
L 672.397609 181.248 
L 672.794725 183.936 
L 673.409098 186.624 
L 674.625 190.165058 
L 675.535667 192 
L 677.313 194.900934 
L 680.001 197.990264 
L 682.689 200.298655 
L 685.377 202.026292 
L 688.065 203.335214 
L 690.753 204.248424 
L 693.441 204.809459 
L 696.129 205.005407 
L 698.817 204.815809 
L 701.505 204.211461 
L 704.931065 202.752 
L 706.881 201.516248 
L 709.569 199.183973 
L 711.158784 197.376 
L 713.012108 194.688 
L 714.433712 192 
L 715.540131 189.312 
L 716.390824 186.624 
L 717.024313 183.936 
L 717.633 179.706807 
L 717.755596 178.56 
L 717.893555 175.872 
L 717.894022 173.184 
L 717.633 168.988581 
L 717.188486 165.12 
L 716.228976 159.744 
L 714.945 154.309727 
L 712.711692 146.304 
L 704.193 118.155917 
L 702.788195 114.048 
L 700.688526 108.672 
L 698.251018 103.296 
L 695.395401 97.92 
L 692.02071 92.544 
L 690.095641 89.856 
L 687.988147 87.168 
L 685.377 84.1248 
L 682.689 81.292207 
L 680.001 78.725121 
L 677.313 76.392867 
L 673.923541 73.728 
L 670.061368 71.04 
L 666.561 68.870413 
L 663.873 67.365865 
L 658.497 64.755723 
L 653.121 62.622001 
L 650.433 61.694308 
L 645.057 60.196483 
L 639.681 59.025933 
L 634.305 58.253006 
L 628.929 57.836301 
L 623.553 57.754023 
L 618.177 58.001914 
L 612.801 58.59285 
L 607.425 59.558058 
L 602.049 60.892271 
L 599.361 61.694308 
L 593.985 63.632103 
L 589.36197 65.664 
L 585.921 67.365865 
L 583.233 68.870413 
L 579.732632 71.04 
L 575.870459 73.728 
L 575.169 74.249702 
L 572.453242 76.416 
L 569.378349 79.104 
L 566.60568 81.792 
L 564.092761 84.48 
L 561.729 87.265074 
L 559.041 90.773964 
L 557.77329 92.544 
L 554.398599 97.92 
L 551.542982 103.296 
L 549.105474 108.672 
L 547.005805 114.048 
L 545.167384 119.424 
L 542.680489 127.488 
L 535.545403 151.68 
L 534.165581 157.056 
L 533.041833 162.432 
L 532.265077 167.808 
L 531.899978 173.184 
L 531.900445 175.872 
L 532.038404 178.56 
L 532.038404 178.56 
" style="fill:none;stroke:#00d4ff;stroke-width:1.5;"/>
   </g>
   <g id="LineCollection_22">
    <path clip-path="url(#p8dfd5293e8)" d="M 491.841 259.765825 
L 492.788974 259.2 
L 494.529 258.519844 
L 497.217 257.252573 
L 498.491486 256.512 
L 499.905 255.962225 
L 502.593 254.683726 
L 504.089244 253.824 
L 505.281 253.355597 
L 507.969 252.056673 
L 509.565173 251.136 
L 510.657 250.695807 
L 513.345 249.366951 
L 514.909821 248.448 
L 516.033 247.976885 
L 518.721 246.608 
L 520.121149 245.76 
L 521.409 245.190691 
L 529.473 240.843268 
L 530.162974 240.384 
L 532.161 239.369829 
L 542.913 233.099753 
L 544.04643 232.32 
L 545.601 231.44966 
L 553.665 226.221291 
L 559.041 222.452793 
L 563.691857 218.88 
L 564.417 218.350928 
L 569.793 213.785264 
L 575.453634 208.128 
L 577.857 205.310179 
L 580.545 201.566848 
L 581.470861 200.064 
L 583.233 196.763649 
L 584.119728 194.688 
L 585.054284 192 
L 585.921 188.550595 
L 586.26305 186.624 
L 586.576693 183.936 
L 586.837399 178.56 
L 586.96409 167.808 
L 587.147272 165.12 
L 587.475979 162.432 
L 588.000039 159.744 
L 588.769249 157.056 
L 589.8124 154.368 
L 591.297 151.623256 
L 593.150303 148.992 
L 595.671237 146.304 
L 596.673 145.443475 
L 599.361 143.408331 
L 602.049 141.800732 
L 604.737 140.479236 
L 607.425 139.410662 
L 611.224421 138.24 
L 612.801 137.841714 
L 615.489 137.305679 
L 618.177 136.913135 
L 620.865 136.655819 
L 623.553 136.528449 
L 626.241 136.528449 
L 628.929 136.655819 
L 631.617 136.913135 
L 634.305 137.305679 
L 638.569579 138.24 
L 639.681 138.536832 
L 642.369 139.410662 
L 646.03441 140.928 
L 647.745 141.800732 
L 650.746816 143.616 
L 654.122763 146.304 
L 656.643697 148.992 
L 658.535296 151.68 
L 659.9816 154.368 
L 661.185 157.621084 
L 661.793961 159.744 
L 662.318021 162.432 
L 662.646728 165.12 
L 662.911689 170.496 
L 663.037837 181.248 
L 663.217307 183.936 
L 663.53095 186.624 
L 664.020591 189.312 
L 664.739716 192 
L 665.674272 194.688 
L 666.849188 197.376 
L 669.249 201.566848 
L 670.056958 202.752 
L 672.043417 205.44 
L 674.625 208.455762 
L 677.313 211.245453 
L 680.001 213.785264 
L 685.377 218.350928 
L 686.102143 218.88 
L 688.065 220.452726 
L 698.817 228.019647 
L 709.569 234.695016 
L 710.195644 235.008 
L 712.257 236.302386 
L 728.385 245.190691 
L 729.672851 245.76 
L 731.073 246.608 
L 739.137 250.695807 
L 740.228827 251.136 
L 741.825 252.056673 
L 749.889 255.962225 
L 751.302514 256.512 
L 752.577 257.252573 
L 755.265 258.519844 
L 757.005026 259.2 
L 757.953 259.765825 
L 757.953 259.765825 
" style="fill:none;stroke:#7dff7a;stroke-width:1.5;"/>
   </g>
   <g id="LineCollection_23">
    <path clip-path="url(#p8dfd5293e8)" d="M 566.541095 259.2 
L 565.654203 256.512 
L 565.038496 253.824 
L 564.676339 251.136 
L 564.556935 248.448 
L 564.675828 245.76 
L 565.034641 243.072 
L 565.641017 240.384 
L 566.508732 237.696 
L 568.902441 232.32 
L 572.481 226.439548 
L 573.93 224.256 
L 583.864348 210.816 
L 585.921 207.813261 
L 588.609 203.3559 
L 588.941838 202.752 
L 590.272413 200.064 
L 591.413176 197.376 
L 592.322362 194.688 
L 593.029506 192 
L 593.543721 189.312 
L 593.985 185.26297 
L 594.165006 181.248 
L 594.229092 170.496 
L 594.385713 167.808 
L 594.686574 165.12 
L 595.180831 162.432 
L 595.924601 159.744 
L 596.984864 157.056 
L 598.443964 154.368 
L 600.431684 151.68 
L 603.146143 148.992 
L 604.737 147.769619 
L 607.425 146.047459 
L 610.113 144.740983 
L 613.073835 143.616 
L 615.489 142.935231 
L 618.177 142.380231 
L 620.865 142.01726 
L 623.553 141.837837 
L 626.241 141.837837 
L 628.929 142.01726 
L 631.617 142.380231 
L 634.305 142.935231 
L 636.993 143.700076 
L 639.681 144.740983 
L 642.820266 146.304 
L 645.057 147.769619 
L 646.647857 148.992 
L 647.745 150.001271 
L 649.362316 151.68 
L 651.350036 154.368 
L 653.121 157.821927 
L 653.869399 159.744 
L 654.613169 162.432 
L 655.107426 165.12 
L 655.408287 167.808 
L 655.622493 173.184 
L 655.714409 183.936 
L 655.909165 186.624 
L 656.250279 189.312 
L 656.764494 192 
L 657.471638 194.688 
L 658.497 197.660532 
L 659.521587 200.064 
L 661.185 203.3559 
L 663.873 207.813261 
L 666.561 211.723522 
L 675.864 224.256 
L 679.373966 229.632 
L 682.191904 235.008 
L 684.152983 240.384 
L 684.759359 243.072 
L 685.118172 245.76 
L 685.237065 248.448 
L 685.117661 251.136 
L 684.755504 253.824 
L 684.139797 256.512 
L 683.252905 259.2 
L 682.115874 261.888 
L 680.001 265.722886 
L 679.025937 267.264 
L 677.021984 269.952 
L 674.625 272.711086 
L 671.937 275.37935 
L 668.860133 278.016 
L 665.193969 280.704 
L 663.873 281.589491 
L 660.836013 283.392 
L 658.497 284.67531 
L 653.121 287.135467 
L 648.576385 288.768 
L 645.057 289.867913 
L 642.369 290.549614 
L 636.993 291.580179 
L 631.617 292.265882 
L 626.241 292.551607 
L 620.865 292.4569 
L 615.489 291.975305 
L 610.113 291.112701 
L 607.425 290.549614 
L 604.737 289.867913 
L 599.361 288.157445 
L 596.673 287.135467 
L 591.297 284.67531 
L 588.609 283.201006 
L 584.600031 280.704 
L 583.233 279.766408 
L 580.545 277.706845 
L 577.801359 275.328 
L 575.101747 272.64 
L 572.481 269.573798 
L 570.768063 267.264 
L 569.081435 264.576 
L 567.678126 261.888 
L 566.541095 259.2 
L 566.541095 259.2 
" style="fill:none;stroke:#ffe600;stroke-width:1.5;"/>
   </g>
   <g id="LineCollection_24">
    <path clip-path="url(#p8dfd5293e8)" d="M 580.487572 253.824 
L 579.528262 251.136 
L 578.873796 248.448 
L 578.501794 245.76 
L 578.395609 243.072 
L 578.543284 240.384 
L 578.936573 237.696 
L 579.569953 235.008 
L 580.545 232.06478 
L 581.486666 229.632 
L 583.233 226.022023 
L 584.135181 224.256 
L 587.292368 218.88 
L 592.356856 210.816 
L 595.478466 205.44 
L 596.846712 202.752 
L 598.047514 200.064 
L 599.361 196.332193 
L 599.854991 194.688 
L 600.455984 192 
L 600.861201 189.312 
L 601.096958 186.624 
L 601.205164 181.248 
L 601.121173 173.184 
L 601.218609 170.496 
L 601.462279 167.808 
L 602.049 164.562045 
L 602.633795 162.432 
L 603.709412 159.744 
L 605.245314 157.056 
L 607.425 154.366648 
L 610.686508 151.68 
L 612.801 150.443891 
L 616.183286 148.992 
L 618.177 148.402363 
L 620.865 147.880046 
L 623.553 147.622192 
L 626.241 147.622192 
L 628.929 147.880046 
L 631.617 148.402363 
L 634.305 149.225306 
L 636.993 150.443891 
L 639.681 152.079629 
L 642.370364 154.368 
L 644.548686 157.056 
L 646.084588 159.744 
L 647.160205 162.432 
L 647.887924 165.12 
L 648.331721 167.808 
L 648.575391 170.496 
L 648.674876 175.872 
L 648.595999 183.936 
L 648.697042 186.624 
L 648.932799 189.312 
L 649.338016 192 
L 649.939009 194.688 
L 650.744104 197.376 
L 651.746486 200.064 
L 653.121 203.094494 
L 654.315534 205.44 
L 657.437144 210.816 
L 665.658819 224.256 
L 668.307334 229.632 
L 669.354444 232.32 
L 670.224047 235.008 
L 670.857427 237.696 
L 671.250716 240.384 
L 671.398391 243.072 
L 671.292206 245.76 
L 670.920204 248.448 
L 670.265738 251.136 
L 669.249 253.950862 
L 668.056649 256.512 
L 666.449941 259.2 
L 663.873 262.603308 
L 661.185 265.445868 
L 658.497 267.80156 
L 655.572928 269.952 
L 653.121 271.512678 
L 650.433 272.984104 
L 647.745 274.263069 
L 645.057 275.340412 
L 642.369 276.283801 
L 639.681 277.060494 
L 635.184242 278.016 
L 634.305 278.182623 
L 631.617 278.56252 
L 628.929 278.811988 
L 626.241 278.935597 
L 623.553 278.935597 
L 620.865 278.811988 
L 618.177 278.56252 
L 614.609758 278.016 
L 612.801 277.686041 
L 610.113 277.060494 
L 607.425 276.283801 
L 604.706067 275.328 
L 602.049 274.263069 
L 598.719858 272.64 
L 596.673 271.512678 
L 593.985 269.794333 
L 590.643785 267.264 
L 587.720569 264.576 
L 585.314277 261.888 
L 583.233 259.022137 
L 581.737351 256.512 
L 580.487572 253.824 
L 580.487572 253.824 
" style="fill:none;stroke:#ff4700;stroke-width:1.5;"/>
   </g>
   <g id="LineCollection_25">
    <path clip-path="url(#p8dfd5293e8)" d="M 590.261072 248.448 
L 589.417831 245.76 
L 588.904804 243.072 
L 588.696424 240.384 
L 588.771283 237.696 
L 589.110744 235.008 
L 589.697565 232.32 
L 590.514502 229.632 
L 591.54087 226.944 
L 592.745985 224.256 
L 595.594231 218.88 
L 600.433721 210.816 
L 603.565417 205.44 
L 606.214217 200.064 
L 607.425 196.712818 
L 608.064018 194.688 
L 608.652348 192 
L 609.002707 189.312 
L 609.153844 186.624 
L 609.061864 181.248 
L 608.841944 175.872 
L 608.844756 173.184 
L 609.012285 170.496 
L 609.414893 167.808 
L 610.129965 165.12 
L 611.397053 162.432 
L 613.311262 159.744 
L 615.489 157.790896 
L 616.596585 157.056 
L 618.177 156.218397 
L 620.865 155.281502 
L 623.553 154.820042 
L 626.241 154.820042 
L 628.929 155.281502 
L 631.617 156.218397 
L 633.197415 157.056 
L 634.305 157.790896 
L 636.482738 159.744 
L 636.993 160.35135 
L 638.396947 162.432 
L 639.681 165.174865 
L 640.379107 167.808 
L 640.781715 170.496 
L 640.949244 173.184 
L 640.857746 178.56 
L 640.639226 183.936 
L 640.640156 186.624 
L 640.791293 189.312 
L 641.141652 192 
L 641.729982 194.688 
L 642.561685 197.376 
L 643.579783 200.064 
L 645.057 203.154112 
L 646.228583 205.44 
L 650.433 212.561071 
L 654.199769 218.88 
L 657.048015 224.256 
L 658.497 227.594005 
L 659.279498 229.632 
L 660.096435 232.32 
L 660.683256 235.008 
L 661.022717 237.696 
L 661.097576 240.384 
L 660.889196 243.072 
L 660.376169 245.76 
L 659.532928 248.448 
L 658.327347 251.136 
L 656.71227 253.824 
L 654.620086 256.512 
L 651.942658 259.2 
L 650.433 260.463889 
L 647.745 262.387403 
L 643.820663 264.576 
L 642.369 265.262701 
L 639.681 266.325372 
L 636.647042 267.264 
L 634.305 267.845515 
L 631.617 268.335963 
L 628.929 268.657458 
L 626.241 268.816587 
L 623.553 268.816587 
L 620.865 268.657458 
L 618.177 268.335963 
L 615.489 267.845515 
L 612.801 267.177155 
L 610.113 266.325372 
L 605.973337 264.576 
L 604.737 263.962026 
L 601.306524 261.888 
L 599.361 260.463889 
L 596.673 258.0901 
L 595.173914 256.512 
L 593.08173 253.824 
L 591.297 250.77735 
L 590.261072 248.448 
L 590.261072 248.448 
" style="fill:none;stroke:#800000;stroke-width:1.5;"/>
   </g>
   <g id="patch_8">
    <path d="M 472.842 307.584 
L 472.842 41.472 
" style="fill:none;stroke:#000000;stroke-linecap:square;stroke-linejoin:miter;stroke-width:0.8;"/>
   </g>
   <g id="patch_9">
    <path d="M 776.952 307.584 
L 776.952 41.472 
" style="fill:none;stroke:#000000;stroke-linecap:square;stroke-linejoin:miter;stroke-width:0.8;"/>
   </g>
   <g id="patch_10">
    <path d="M 472.842 307.584 
L 776.952 307.584 
" style="fill:none;stroke:#000000;stroke-linecap:square;stroke-linejoin:miter;stroke-width:0.8;"/>
   </g>
   <g id="patch_11">
    <path d="M 472.842 41.472 
L 776.952 41.472 
" style="fill:none;stroke:#000000;stroke-linecap:square;stroke-linejoin:miter;stroke-width:0.8;"/>
   </g>
  </g>
 </g>
 <defs>
  <clipPath id="p658bb67487">
   <rect height="266.112" width="304.11" x="107.91" y="41.472"/>
  </clipPath>
  <clipPath id="p8dfd5293e8">
   <rect height="266.112" width="304.11" x="472.842" y="41.472"/>
  </clipPath>
 </defs>
</svg>
