<?xml version="1.0" encoding="utf-8" standalone="no"?>
<!DOCTYPE svg PUBLIC "-//W3C//DTD SVG 1.1//EN"
  "http://www.w3.org/Graphics/SVG/1.1/DTD/svg11.dtd">
<!-- Created with matplotlib (https://matplotlib.org/) -->
<svg height="345.6pt" version="1.1" viewBox="0 0 863.28 345.6" width="863.28pt" xmlns="http://www.w3.org/2000/svg" xmlns:xlink="http://www.w3.org/1999/xlink">
 <defs>
  <style type="text/css">
*{stroke-linecap:butt;stroke-linejoin:round;}
  </style>
 </defs>
 <g id="figure_1">
  <g id="patch_1">
   <path d="M 0 345.6 
L 863.28 345.6 
L 863.28 0 
L 0 0 
z
" style="fill:#ffffff;"/>
  </g>
  <g id="axes_1">
   <g id="patch_2">
    <path d="M 107.91 307.584 
L 412.02 307.584 
L 412.02 41.472 
L 107.91 41.472 
z
" style="fill:#ffffff;"/>
   </g>
   <g id="matplotlib.axis_1">
    <g id="xtick_1">
     <g id="line2d_1">
      <defs>
       <path d="M 0 0 
L 0 3.5 
" id="m47b4298f0b" style="stroke:#000000;stroke-width:0.8;"/>
      </defs>
      <g>
       <use style="stroke:#000000;stroke-width:0.8;" x="129.632143" xlink:href="#m47b4298f0b" y="307.584"/>
      </g>
     </g>
     <g id="text_1">
      <!-- −3 -->
      <defs>
       <path d="M 10.59375 35.5 
L 73.1875 35.5 
L 73.1875 27.203125 
L 10.59375 27.203125 
z
" id="DejaVuSans-8722"/>
       <path d="M 40.578125 39.3125 
Q 47.65625 37.796875 51.625 33 
Q 55.609375 28.21875 55.609375 21.1875 
Q 55.609375 10.40625 48.1875 4.484375 
Q 40.765625 -1.421875 27.09375 -1.421875 
Q 22.515625 -1.421875 17.65625 -0.515625 
Q 12.796875 0.390625 7.625 2.203125 
L 7.625 11.71875 
Q 11.71875 9.328125 16.59375 8.109375 
Q 21.484375 6.890625 26.8125 6.890625 
Q 36.078125 6.890625 40.9375 10.546875 
Q 45.796875 14.203125 45.796875 21.1875 
Q 45.796875 27.640625 41.28125 31.265625 
Q 36.765625 34.90625 28.71875 34.90625 
L 20.21875 34.90625 
L 20.21875 43.015625 
L 29.109375 43.015625 
Q 36.375 43.015625 40.234375 45.921875 
Q 44.09375 48.828125 44.09375 54.296875 
Q 44.09375 59.90625 40.109375 62.90625 
Q 36.140625 65.921875 28.71875 65.921875 
Q 24.65625 65.921875 20.015625 65.03125 
Q 15.375 64.15625 9.8125 62.3125 
L 9.8125 71.09375 
Q 15.4375 72.65625 20.34375 73.4375 
Q 25.25 74.21875 29.59375 74.21875 
Q 40.828125 74.21875 47.359375 69.109375 
Q 53.90625 64.015625 53.90625 55.328125 
Q 53.90625 49.265625 50.4375 45.09375 
Q 46.96875 40.921875 40.578125 39.3125 
z
" id="DejaVuSans-51"/>
      </defs>
      <g transform="translate(122.261049 322.182437)scale(0.1 -0.1)">
       <use xlink:href="#DejaVuSans-8722"/>
       <use x="83.789062" xlink:href="#DejaVuSans-51"/>
      </g>
     </g>
    </g>
    <g id="xtick_2">
     <g id="line2d_2">
      <g>
       <use style="stroke:#000000;stroke-width:0.8;" x="173.076429" xlink:href="#m47b4298f0b" y="307.584"/>
      </g>
     </g>
     <g id="text_2">
      <!-- −2 -->
      <defs>
       <path d="M 19.1875 8.296875 
L 53.609375 8.296875 
L 53.609375 0 
L 7.328125 0 
L 7.328125 8.296875 
Q 12.9375 14.109375 22.625 23.890625 
Q 32.328125 33.6875 34.8125 36.53125 
Q 39.546875 41.84375 41.421875 45.53125 
Q 43.3125 49.21875 43.3125 52.78125 
Q 43.3125 58.59375 39.234375 62.25 
Q 35.15625 65.921875 28.609375 65.921875 
Q 23.96875 65.921875 18.8125 64.3125 
Q 13.671875 62.703125 7.8125 59.421875 
L 7.8125 69.390625 
Q 13.765625 71.78125 18.9375 73 
Q 24.125 74.21875 28.421875 74.21875 
Q 39.75 74.21875 46.484375 68.546875 
Q 53.21875 62.890625 53.21875 53.421875 
Q 53.21875 48.921875 51.53125 44.890625 
Q 49.859375 40.875 45.40625 35.40625 
Q 44.1875 33.984375 37.640625 27.21875 
Q 31.109375 20.453125 19.1875 8.296875 
z
" id="DejaVuSans-50"/>
      </defs>
      <g transform="translate(165.705335 322.182437)scale(0.1 -0.1)">
       <use xlink:href="#DejaVuSans-8722"/>
       <use x="83.789062" xlink:href="#DejaVuSans-50"/>
      </g>
     </g>
    </g>
    <g id="xtick_3">
     <g id="line2d_3">
      <g>
       <use style="stroke:#000000;stroke-width:0.8;" x="216.520714" xlink:href="#m47b4298f0b" y="307.584"/>
      </g>
     </g>
     <g id="text_3">
      <!-- −1 -->
      <defs>
       <path d="M 12.40625 8.296875 
L 28.515625 8.296875 
L 28.515625 63.921875 
L 10.984375 60.40625 
L 10.984375 69.390625 
L 28.421875 72.90625 
L 38.28125 72.90625 
L 38.28125 8.296875 
L 54.390625 8.296875 
L 54.390625 0 
L 12.40625 0 
z
" id="DejaVuSans-49"/>
      </defs>
      <g transform="translate(209.149621 322.182437)scale(0.1 -0.1)">
       <use xlink:href="#DejaVuSans-8722"/>
       <use x="83.789062" xlink:href="#DejaVuSans-49"/>
      </g>
     </g>
    </g>
    <g id="xtick_4">
     <g id="line2d_4">
      <g>
       <use style="stroke:#000000;stroke-width:0.8;" x="259.965" xlink:href="#m47b4298f0b" y="307.584"/>
      </g>
     </g>
     <g id="text_4">
      <!-- 0 -->
      <defs>
       <path d="M 31.78125 66.40625 
Q 24.171875 66.40625 20.328125 58.90625 
Q 16.5 51.421875 16.5 36.375 
Q 16.5 21.390625 20.328125 13.890625 
Q 24.171875 6.390625 31.78125 6.390625 
Q 39.453125 6.390625 43.28125 13.890625 
Q 47.125 21.390625 47.125 36.375 
Q 47.125 51.421875 43.28125 58.90625 
Q 39.453125 66.40625 31.78125 66.40625 
z
M 31.78125 74.21875 
Q 44.046875 74.21875 50.515625 64.515625 
Q 56.984375 54.828125 56.984375 36.375 
Q 56.984375 17.96875 50.515625 8.265625 
Q 44.046875 -1.421875 31.78125 -1.421875 
Q 19.53125 -1.421875 13.0625 8.265625 
Q 6.59375 17.96875 6.59375 36.375 
Q 6.59375 54.828125 13.0625 64.515625 
Q 19.53125 74.21875 31.78125 74.21875 
z
" id="DejaVuSans-48"/>
      </defs>
      <g transform="translate(256.78375 322.182437)scale(0.1 -0.1)">
       <use xlink:href="#DejaVuSans-48"/>
      </g>
     </g>
    </g>
    <g id="xtick_5">
     <g id="line2d_5">
      <g>
       <use style="stroke:#000000;stroke-width:0.8;" x="303.409286" xlink:href="#m47b4298f0b" y="307.584"/>
      </g>
     </g>
     <g id="text_5">
      <!-- 1 -->
      <g transform="translate(300.228036 322.182437)scale(0.1 -0.1)">
       <use xlink:href="#DejaVuSans-49"/>
      </g>
     </g>
    </g>
    <g id="xtick_6">
     <g id="line2d_6">
      <g>
       <use style="stroke:#000000;stroke-width:0.8;" x="346.853571" xlink:href="#m47b4298f0b" y="307.584"/>
      </g>
     </g>
     <g id="text_6">
      <!-- 2 -->
      <g transform="translate(343.672321 322.182437)scale(0.1 -0.1)">
       <use xlink:href="#DejaVuSans-50"/>
      </g>
     </g>
    </g>
    <g id="xtick_7">
     <g id="line2d_7">
      <g>
       <use style="stroke:#000000;stroke-width:0.8;" x="390.297857" xlink:href="#m47b4298f0b" y="307.584"/>
      </g>
     </g>
     <g id="text_7">
      <!-- 3 -->
      <g transform="translate(387.116607 322.182437)scale(0.1 -0.1)">
       <use xlink:href="#DejaVuSans-51"/>
      </g>
     </g>
    </g>
   </g>
   <g id="matplotlib.axis_2">
    <g id="ytick_1">
     <g id="line2d_8">
      <defs>
       <path d="M 0 0 
L -3.5 0 
" id="m21ea9159af" style="stroke:#000000;stroke-width:0.8;"/>
      </defs>
      <g>
       <use style="stroke:#000000;stroke-width:0.8;" x="107.91" xlink:href="#m21ea9159af" y="288.576"/>
      </g>
     </g>
     <g id="text_8">
      <!-- −3 -->
      <g transform="translate(86.167812 292.375219)scale(0.1 -0.1)">
       <use xlink:href="#DejaVuSans-8722"/>
       <use x="83.789062" xlink:href="#DejaVuSans-51"/>
      </g>
     </g>
    </g>
    <g id="ytick_2">
     <g id="line2d_9">
      <g>
       <use style="stroke:#000000;stroke-width:0.8;" x="107.91" xlink:href="#m21ea9159af" y="250.56"/>
      </g>
     </g>
     <g id="text_9">
      <!-- −2 -->
      <g transform="translate(86.167812 254.359219)scale(0.1 -0.1)">
       <use xlink:href="#DejaVuSans-8722"/>
       <use x="83.789062" xlink:href="#DejaVuSans-50"/>
      </g>
     </g>
    </g>
    <g id="ytick_3">
     <g id="line2d_10">
      <g>
       <use style="stroke:#000000;stroke-width:0.8;" x="107.91" xlink:href="#m21ea9159af" y="212.544"/>
      </g>
     </g>
     <g id="text_10">
      <!-- −1 -->
      <g transform="translate(86.167812 216.343219)scale(0.1 -0.1)">
       <use xlink:href="#DejaVuSans-8722"/>
       <use x="83.789062" xlink:href="#DejaVuSans-49"/>
      </g>
     </g>
    </g>
    <g id="ytick_4">
     <g id="line2d_11">
      <g>
       <use style="stroke:#000000;stroke-width:0.8;" x="107.91" xlink:href="#m21ea9159af" y="174.528"/>
      </g>
     </g>
     <g id="text_11">
      <!-- 0 -->
      <g transform="translate(94.5475 178.327219)scale(0.1 -0.1)">
       <use xlink:href="#DejaVuSans-48"/>
      </g>
     </g>
    </g>
    <g id="ytick_5">
     <g id="line2d_12">
      <g>
       <use style="stroke:#000000;stroke-width:0.8;" x="107.91" xlink:href="#m21ea9159af" y="136.512"/>
      </g>
     </g>
     <g id="text_12">
      <!-- 1 -->
      <g transform="translate(94.5475 140.311219)scale(0.1 -0.1)">
       <use xlink:href="#DejaVuSans-49"/>
      </g>
     </g>
    </g>
    <g id="ytick_6">
     <g id="line2d_13">
      <g>
       <use style="stroke:#000000;stroke-width:0.8;" x="107.91" xlink:href="#m21ea9159af" y="98.496"/>
      </g>
     </g>
     <g id="text_13">
      <!-- 2 -->
      <g transform="translate(94.5475 102.295219)scale(0.1 -0.1)">
       <use xlink:href="#DejaVuSans-50"/>
      </g>
     </g>
    </g>
    <g id="ytick_7">
     <g id="line2d_14">
      <g>
       <use style="stroke:#000000;stroke-width:0.8;" x="107.91" xlink:href="#m21ea9159af" y="60.48"/>
      </g>
     </g>
     <g id="text_14">
      <!-- 3 -->
      <g transform="translate(94.5475 64.279219)scale(0.1 -0.1)">
       <use xlink:href="#DejaVuSans-51"/>
      </g>
     </g>
    </g>
   </g>
   <g id="LineCollection_1"/>
   <g id="LineCollection_2">
    <path clip-path="url(#pd31c607b9c)" d="M 239.946279 103.296 
L 239.998182 103.761889 
L 240.306781 105.984 
L 243.07 108.578713 
L 243.203961 108.672 
L 246.141818 109.720917 
L 249.213636 110.496585 
L 252.285455 111.023977 
L 255.357273 111.351776 
L 255.516014 111.36 
L 258.429091 111.465468 
L 261.500909 111.465468 
L 264.413986 111.36 
L 264.572727 111.351776 
L 267.644545 111.023977 
L 270.716364 110.496585 
L 273.788182 109.720917 
L 276.726039 108.672 
L 276.86 108.578713 
L 279.623219 105.984 
L 279.931818 103.761889 
L 279.983721 103.296 
L 279.931818 103.188405 
L 278.574247 100.608 
L 276.86 99.020527 
L 275.497521 97.92 
L 273.788182 96.993287 
L 270.716364 95.628861 
L 269.547876 95.232 
L 267.644545 94.738373 
L 264.572727 94.203698 
L 261.500909 93.935331 
L 258.429091 93.935331 
L 255.357273 94.203698 
L 252.285455 94.738373 
L 250.382124 95.232 
L 249.213636 95.628861 
L 246.141818 96.993287 
L 244.432479 97.92 
L 243.07 99.020527 
L 241.355753 100.608 
L 239.998182 103.188405 
L 239.946279 103.296 
" style="fill:none;stroke:#0000ff;stroke-width:1.5;"/>
   </g>
   <g id="LineCollection_3">
    <path clip-path="url(#pd31c607b9c)" d="M 208.811391 119.424 
L 209.28 119.87392 
L 212.351818 121.932835 
L 212.758215 122.112 
L 215.423636 122.924485 
L 218.495455 123.454624 
L 221.567273 123.714824 
L 224.639091 123.804495 
L 227.710909 123.787578 
L 230.782727 123.706345 
L 233.854545 123.589352 
L 236.926364 123.456205 
L 239.998182 123.320532 
L 243.07 123.191879 
L 246.141818 123.076958 
L 249.213636 122.980468 
L 252.285455 122.905659 
L 255.357273 122.854695 
L 258.429091 122.828899 
L 261.500909 122.828899 
L 264.572727 122.854695 
L 267.644545 122.905659 
L 270.716364 122.980468 
L 273.788182 123.076958 
L 276.86 123.191879 
L 279.931818 123.320532 
L 283.003636 123.456205 
L 286.075455 123.589352 
L 289.147273 123.706345 
L 292.219091 123.787578 
L 295.290909 123.804495 
L 298.362727 123.714824 
L 301.434545 123.454624 
L 304.506364 122.924485 
L 307.171785 122.112 
L 307.578182 121.932835 
L 310.65 119.87392 
L 311.118609 119.424 
L 312.791803 116.736 
L 313.503991 114.048 
L 313.587664 111.36 
L 313.200356 108.672 
L 312.418429 105.984 
L 311.274761 103.296 
L 310.65 102.181177 
L 309.769394 100.608 
L 307.898984 97.92 
L 307.578182 97.532562 
L 305.6269 95.232 
L 304.506364 94.097232 
L 302.910096 92.544 
L 301.434545 91.282754 
L 299.667632 89.856 
L 298.362727 88.910142 
L 295.772219 87.168 
L 295.290909 86.871355 
L 292.219091 85.125801 
L 290.96342 84.48 
L 289.147273 83.60645 
L 286.075455 82.291383 
L 284.7545 81.792 
L 283.003636 81.159525 
L 279.931818 80.198149 
L 276.86 79.389616 
L 275.550414 79.104 
L 273.788182 78.727588 
L 270.716364 78.206131 
L 267.644545 77.819428 
L 264.572727 77.563685 
L 261.500909 77.436425 
L 258.429091 77.436425 
L 255.357273 77.563685 
L 252.285455 77.819428 
L 249.213636 78.206131 
L 246.141818 78.727588 
L 244.379586 79.104 
L 243.07 79.389616 
L 239.998182 80.198149 
L 236.926364 81.159525 
L 235.1755 81.792 
L 233.854545 82.291383 
L 230.782727 83.60645 
L 228.96658 84.48 
L 227.710909 85.125801 
L 224.639091 86.871355 
L 224.157781 87.168 
L 221.567273 88.910142 
L 220.262368 89.856 
L 218.495455 91.282754 
L 217.019904 92.544 
L 215.423636 94.097232 
L 214.3031 95.232 
L 212.351818 97.532562 
L 212.031016 97.92 
L 210.160606 100.608 
L 209.28 102.181177 
L 208.655239 103.296 
L 207.511571 105.984 
L 206.729644 108.672 
L 206.342336 111.36 
L 206.426009 114.048 
L 207.138197 116.736 
L 208.811391 119.424 
" style="fill:none;stroke:#0060ff;stroke-width:1.5;"/>
   </g>
   <g id="LineCollection_4">
    <path clip-path="url(#pd31c607b9c)" d="M 160.101786 181.248 
L 160.726402 183.936 
L 161.62024 186.624 
L 163.202727 189.959457 
L 164.484554 192 
L 166.710104 194.688 
L 169.96423 197.376 
L 172.418182 198.753227 
L 175.49 199.91027 
L 178.561818 200.485434 
L 181.633636 200.583429 
L 185.403425 200.064 
L 187.777273 199.429087 
L 190.849091 198.142762 
L 193.920909 196.272875 
L 196.992727 193.606346 
L 198.34112 192 
L 200.191263 189.312 
L 201.380882 186.624 
L 202.245368 183.936 
L 202.815907 181.248 
L 203.138956 178.56 
L 203.251861 173.184 
L 203.136364 163.388672 
L 203.156922 162.432 
L 203.350084 159.744 
L 203.739976 157.056 
L 204.404488 154.368 
L 205.454879 151.68 
L 206.923886 148.992 
L 209.28 145.963658 
L 211.592219 143.616 
L 215.124665 140.928 
L 218.495455 138.912184 
L 219.732282 138.24 
L 221.567273 137.373897 
L 225.985939 135.552 
L 230.782727 133.983068 
L 236.926364 132.445078 
L 243.07 131.333374 
L 249.213636 130.604625 
L 255.357273 130.213165 
L 261.500909 130.133998 
L 267.644545 130.368638 
L 273.788182 130.92459 
L 279.931818 131.837419 
L 286.075455 133.1583 
L 289.147273 133.983068 
L 293.944061 135.552 
L 295.290909 136.069702 
L 300.197718 138.24 
L 301.434545 138.912184 
L 304.805335 140.928 
L 308.337781 143.616 
L 310.984582 146.304 
L 313.006114 148.992 
L 314.475121 151.68 
L 315.525512 154.368 
L 316.190024 157.056 
L 316.579916 159.744 
L 316.793636 163.388672 
L 316.802364 167.808 
L 316.678139 173.184 
L 316.791044 178.56 
L 317.114093 181.248 
L 317.684632 183.936 
L 318.549118 186.624 
L 319.865455 189.535438 
L 321.58888 192 
L 322.937273 193.606346 
L 324.089781 194.688 
L 326.009091 196.272875 
L 329.080909 198.142762 
L 332.152727 199.429087 
L 335.224545 200.243877 
L 338.296364 200.583429 
L 341.368182 200.485434 
L 344.44 199.91027 
L 347.511818 198.753227 
L 350.583636 196.957543 
L 353.655455 194.222595 
L 355.445446 192 
L 357.098052 189.312 
L 358.30976 186.624 
L 359.203598 183.936 
L 359.828214 181.248 
L 360.215803 178.56 
L 360.399612 175.872 
L 360.400322 173.184 
L 360.235127 170.496 
L 359.799091 167.08753 
L 359.463852 165.12 
L 358.201543 159.744 
L 356.587402 154.368 
L 349.418547 132.864 
L 345.307261 119.424 
L 343.370276 114.048 
L 341.076413 108.672 
L 339.783529 105.984 
L 336.780263 100.608 
L 335.038756 97.92 
L 332.152727 93.940204 
L 331.071348 92.544 
L 328.768441 89.856 
L 326.009091 86.938489 
L 322.937273 84.01495 
L 319.865455 81.387735 
L 316.793636 79.017188 
L 313.043962 76.416 
L 308.64497 73.728 
L 307.578182 73.11893 
L 303.554351 71.04 
L 301.434545 70.019485 
L 295.290909 67.474758 
L 289.886383 65.664 
L 286.075455 64.548345 
L 279.931818 63.153794 
L 273.788182 62.118787 
L 267.644545 61.475602 
L 261.500909 61.205693 
L 255.357273 61.295285 
L 249.213636 61.748934 
L 243.07 62.589957 
L 236.926364 63.793876 
L 233.854545 64.548345 
L 227.710909 66.389492 
L 222.434338 68.352 
L 218.495455 70.019485 
L 215.423636 71.500764 
L 211.28503 73.728 
L 206.886038 76.416 
L 206.208182 76.86094 
L 203.018495 79.104 
L 199.567282 81.792 
L 196.474078 84.48 
L 193.688636 87.168 
L 190.849091 90.218183 
L 187.777273 93.940204 
L 186.774541 95.232 
L 184.705455 98.211199 
L 183.149737 100.608 
L 180.146471 105.984 
L 177.652303 111.36 
L 175.49 116.961409 
L 173.746604 122.112 
L 167.051468 143.616 
L 163.202727 154.800878 
L 161.728457 159.744 
L 160.466148 165.12 
L 160.010727 167.808 
L 159.694873 170.496 
L 159.529678 173.184 
L 159.530388 175.872 
L 159.714197 178.56 
L 160.101786 181.248 
L 160.101786 181.248 
" style="fill:none;stroke:#00d4ff;stroke-width:1.5;"/>
   </g>
   <g id="LineCollection_5">
    <path clip-path="url(#pd31c607b9c)" d="M 107.91 259.765825 
L 108.993335 259.2 
L 110.981818 258.519844 
L 114.053636 257.252573 
L 115.510105 256.512 
L 117.125455 255.962225 
L 120.197273 254.683726 
L 121.907164 253.824 
L 123.269091 253.355597 
L 126.340909 252.056673 
L 128.164999 251.136 
L 129.412727 250.695807 
L 132.484545 249.366951 
L 134.272806 248.448 
L 135.556364 247.976885 
L 138.628182 246.608 
L 140.228257 245.76 
L 141.7 245.190691 
L 150.915455 240.843268 
L 151.70395 240.384 
L 153.987273 239.369829 
L 166.274545 233.099753 
L 167.569817 232.32 
L 169.346364 231.44966 
L 178.561818 226.221291 
L 184.705455 222.452793 
L 185.977299 221.568 
L 187.777273 220.452726 
L 193.920909 216.135775 
L 197.3209 213.504 
L 200.531983 210.816 
L 203.46164 208.128 
L 206.208182 205.310179 
L 209.28 201.566848 
L 210.338064 200.064 
L 212.351818 196.763649 
L 213.365162 194.688 
L 214.433163 192 
L 215.423636 188.550595 
L 215.814528 186.624 
L 216.172956 183.936 
L 216.378052 181.248 
L 216.495585 175.872 
L 216.522213 170.496 
L 216.615668 167.808 
L 216.825008 165.12 
L 217.20065 162.432 
L 217.799541 159.744 
L 218.678586 157.056 
L 219.870687 154.368 
L 221.567273 151.623256 
L 223.685208 148.992 
L 226.566105 146.304 
L 227.710909 145.443475 
L 230.782727 143.408331 
L 233.854545 141.800732 
L 236.926364 140.479236 
L 239.998182 139.410662 
L 244.34012 138.24 
L 246.141818 137.841714 
L 249.213636 137.305679 
L 252.285455 136.913135 
L 255.357273 136.655819 
L 258.429091 136.528449 
L 261.500909 136.528449 
L 264.572727 136.655819 
L 267.644545 136.913135 
L 270.716364 137.305679 
L 275.58988 138.24 
L 276.86 138.536832 
L 279.931818 139.410662 
L 284.120611 140.928 
L 286.075455 141.800732 
L 289.505898 143.616 
L 293.363895 146.304 
L 296.244792 148.992 
L 298.406492 151.68 
L 300.059313 154.368 
L 301.434545 157.621084 
L 302.130459 159.744 
L 302.72935 162.432 
L 303.104992 165.12 
L 303.314332 167.808 
L 303.432515 173.184 
L 303.459112 178.56 
L 303.551948 181.248 
L 303.757044 183.936 
L 304.115472 186.624 
L 304.675029 189.312 
L 305.496837 192 
L 306.564838 194.688 
L 307.907521 197.376 
L 310.65 201.566848 
L 311.573326 202.752 
L 313.84343 205.44 
L 316.793636 208.455762 
L 319.865455 211.245453 
L 322.937273 213.785264 
L 329.080909 218.350928 
L 329.909595 218.88 
L 332.152727 220.452726 
L 344.44 228.019647 
L 356.727273 234.695016 
L 357.443395 235.008 
L 359.799091 236.302386 
L 378.23 245.190691 
L 379.701743 245.76 
L 381.301818 246.608 
L 390.517273 250.695807 
L 391.765001 251.136 
L 393.589091 252.056673 
L 402.804545 255.962225 
L 404.419895 256.512 
L 405.876364 257.252573 
L 408.948182 258.519844 
L 410.936665 259.2 
L 412.02 259.765825 
L 412.02 259.765825 
" style="fill:none;stroke:#4dffaa;stroke-width:1.5;"/>
   </g>
   <g id="LineCollection_6">
    <path clip-path="url(#pd31c607b9c)" d="M 196.555872 256.512 
L 195.677863 253.824 
L 195.109845 251.136 
L 194.834589 248.448 
L 194.842144 245.76 
L 195.129247 243.072 
L 195.698917 240.384 
L 196.992727 236.703318 
L 197.661034 235.008 
L 199.009831 232.32 
L 202.389032 226.944 
L 209.28 218.08637 
L 217.152972 208.128 
L 219.039538 205.44 
L 221.567273 201.261677 
L 222.214527 200.064 
L 223.461595 197.376 
L 224.639091 194.145331 
L 225.253034 192 
L 225.806443 189.312 
L 226.16594 186.624 
L 226.365275 183.936 
L 226.450974 178.56 
L 226.432467 173.184 
L 226.506957 170.496 
L 226.704818 167.808 
L 227.079544 165.12 
L 227.710909 162.366788 
L 228.600829 159.744 
L 229.893293 157.056 
L 231.683994 154.368 
L 234.124433 151.68 
L 237.523944 148.992 
L 239.998182 147.527922 
L 243.07 146.057388 
L 246.141818 144.960733 
L 249.213636 144.114957 
L 252.285455 143.504458 
L 255.357273 143.122685 
L 258.429091 142.934 
L 261.500909 142.934 
L 264.572727 143.122685 
L 268.243492 143.616 
L 270.716364 144.114957 
L 273.788182 144.960733 
L 277.434087 146.304 
L 279.931818 147.527922 
L 283.003636 149.41047 
L 286.075455 151.949795 
L 288.246006 154.368 
L 290.036707 157.056 
L 291.329171 159.744 
L 292.240452 162.432 
L 292.850456 165.12 
L 293.225182 167.808 
L 293.423043 170.496 
L 293.499604 175.872 
L 293.484804 181.248 
L 293.564725 183.936 
L 293.76406 186.624 
L 294.123557 189.312 
L 294.676966 192 
L 295.451098 194.688 
L 296.468405 197.376 
L 298.362727 201.261677 
L 299.200756 202.752 
L 301.434545 206.241239 
L 304.7905 210.816 
L 317.540968 226.944 
L 319.865455 230.599403 
L 320.920169 232.32 
L 322.268966 235.008 
L 323.369826 237.696 
L 324.231083 240.384 
L 324.800753 243.072 
L 325.087856 245.76 
L 325.095411 248.448 
L 324.820155 251.136 
L 324.252137 253.824 
L 322.937273 257.52041 
L 322.213859 259.2 
L 320.735662 261.888 
L 318.92376 264.576 
L 316.740789 267.264 
L 313.721818 270.396682 
L 310.65 273.084742 
L 307.578182 275.397168 
L 303.532348 278.016 
L 301.434545 279.233461 
L 298.362727 280.804544 
L 295.290909 282.235121 
L 289.147273 284.595417 
L 284.13701 286.08 
L 283.003636 286.399122 
L 279.931818 287.144728 
L 276.86 287.760327 
L 270.716364 288.644728 
L 264.572727 289.153147 
L 258.429091 289.255647 
L 252.285455 288.946394 
L 246.141818 288.257318 
L 243.07 287.760327 
L 239.998182 287.144728 
L 233.854545 285.557915 
L 230.782727 284.595417 
L 224.639091 282.235121 
L 221.369036 280.704 
L 218.495455 279.233461 
L 215.423636 277.434462 
L 212.254651 275.328 
L 208.735823 272.64 
L 205.737926 269.952 
L 203.136364 267.201337 
L 201.00624 264.576 
L 199.194338 261.888 
L 197.716141 259.2 
L 196.555872 256.512 
L 196.555872 256.512 
" style="fill:none;stroke:#aaff4d;stroke-width:1.5;"/>
   </g>
   <g id="LineCollection_7">
    <path clip-path="url(#pd31c607b9c)" d="M 212.120222 245.76 
L 211.811038 243.072 
L 211.816439 240.384 
L 212.121607 237.696 
L 212.700844 235.008 
L 213.535646 232.32 
L 214.622646 229.632 
L 215.930302 226.944 
L 218.495455 222.528019 
L 219.074143 221.568 
L 222.691663 216.192 
L 228.25268 208.128 
L 230.782727 203.991444 
L 231.502856 202.752 
L 232.861732 200.064 
L 233.988717 197.376 
L 234.902287 194.688 
L 235.561913 192 
L 235.988843 189.312 
L 236.216974 186.624 
L 236.259711 181.248 
L 236.115762 173.184 
L 236.250361 170.496 
L 236.580692 167.808 
L 237.192072 165.12 
L 238.19 162.432 
L 239.998182 159.252134 
L 241.829955 157.056 
L 243.07 155.909303 
L 245.083065 154.368 
L 246.141818 153.70982 
L 249.213636 152.201952 
L 252.285455 151.176887 
L 255.357273 150.549832 
L 258.429091 150.240479 
L 261.500909 150.240479 
L 264.572727 150.549832 
L 267.644545 151.176887 
L 270.716364 152.201952 
L 273.788182 153.70982 
L 274.846935 154.368 
L 276.86 155.909303 
L 278.100045 157.056 
L 280.287834 159.744 
L 281.74 162.432 
L 282.737928 165.12 
L 283.349308 167.808 
L 283.679639 170.496 
L 283.814238 173.184 
L 283.748789 178.56 
L 283.639776 183.936 
L 283.713026 186.624 
L 283.941157 189.312 
L 284.368087 192 
L 285.027713 194.688 
L 286.075455 197.687469 
L 287.068268 200.064 
L 289.147273 203.991444 
L 289.977211 205.44 
L 293.486003 210.816 
L 300.855857 221.568 
L 303.999698 226.944 
L 305.307354 229.632 
L 306.394354 232.32 
L 307.229156 235.008 
L 307.808393 237.696 
L 308.113561 240.384 
L 308.118962 243.072 
L 307.809778 245.76 
L 307.178781 248.448 
L 306.204136 251.136 
L 304.506364 254.364242 
L 303.085546 256.512 
L 300.859886 259.2 
L 298.099988 261.888 
L 294.676827 264.576 
L 292.219091 266.197291 
L 289.147273 267.93544 
L 284.755359 269.952 
L 283.003636 270.657563 
L 279.931818 271.710135 
L 276.578912 272.64 
L 273.788182 273.294518 
L 270.716364 273.856199 
L 267.644545 274.268214 
L 264.572727 274.53857 
L 261.500909 274.672468 
L 258.429091 274.672468 
L 255.357273 274.53857 
L 252.285455 274.268214 
L 249.213636 273.856199 
L 246.141818 273.294518 
L 243.07 272.574652 
L 239.998182 271.710135 
L 235.174641 269.952 
L 233.854545 269.406721 
L 229.554966 267.264 
L 227.710909 266.197291 
L 224.639091 264.135836 
L 221.567273 261.652157 
L 218.495455 258.54147 
L 216.844454 256.512 
L 215.083963 253.824 
L 213.725864 251.136 
L 212.751219 248.448 
L 212.120222 245.76 
L 212.120222 245.76 
" style="fill:none;stroke:#ffe600;stroke-width:1.5;"/>
   </g>
   <g id="LineCollection_8">
    <path clip-path="url(#pd31c607b9c)" d="M 226.639467 245.76 
L 225.717702 243.072 
L 225.204731 240.384 
L 225.066586 237.696 
L 225.273128 235.008 
L 225.796239 232.32 
L 226.608061 229.632 
L 227.679302 226.944 
L 227.710909 226.879549 
L 229.003827 224.256 
L 230.518419 221.568 
L 230.782727 221.144538 
L 232.227987 218.88 
L 233.854545 216.471801 
L 234.051434 216.192 
L 236.001326 213.504 
L 236.926364 212.218947 
L 238.000977 210.816 
L 239.97278 208.128 
L 239.998182 208.090804 
L 241.974028 205.44 
L 243.07 203.779513 
L 243.836165 202.752 
L 245.534139 200.064 
L 246.141818 198.859801 
L 247.028157 197.376 
L 248.212407 194.688 
L 248.983232 192 
L 249.213636 190.47393 
L 249.436935 189.312 
L 249.567692 186.624 
L 249.414225 183.936 
L 249.213636 182.237567 
L 249.124425 181.248 
L 248.856097 178.56 
L 248.669648 175.872 
L 248.674329 173.184 
L 248.982688 170.496 
L 249.213636 169.63856 
L 249.859355 167.808 
L 251.513131 165.12 
L 252.285455 164.289513 
L 254.889089 162.432 
L 255.357273 162.189657 
L 258.429091 161.394967 
L 261.500909 161.394967 
L 264.572727 162.189657 
L 265.040911 162.432 
L 267.644545 164.289513 
L 268.416869 165.12 
L 270.070645 167.808 
L 270.716364 169.63856 
L 270.947312 170.496 
L 271.255671 173.184 
L 271.260352 175.872 
L 271.073903 178.56 
L 270.805575 181.248 
L 270.716364 182.237567 
L 270.515775 183.936 
L 270.362308 186.624 
L 270.493065 189.312 
L 270.716364 190.47393 
L 270.946768 192 
L 271.717593 194.688 
L 272.901843 197.376 
L 273.788182 198.859801 
L 274.395861 200.064 
L 276.093835 202.752 
L 276.86 203.779513 
L 277.955972 205.44 
L 279.931818 208.090804 
L 279.95722 208.128 
L 281.929023 210.816 
L 283.003636 212.218947 
L 283.928674 213.504 
L 285.878566 216.192 
L 286.075455 216.471801 
L 287.702013 218.88 
L 289.147273 221.144538 
L 289.411581 221.568 
L 290.926173 224.256 
L 292.219091 226.879549 
L 292.250698 226.944 
L 293.321939 229.632 
L 294.133761 232.32 
L 294.656872 235.008 
L 294.863414 237.696 
L 294.725269 240.384 
L 294.212298 243.072 
L 293.290533 245.76 
L 292.219091 247.885455 
L 291.91052 248.448 
L 289.981513 251.136 
L 289.147273 252.070521 
L 287.392048 253.824 
L 286.075455 254.937209 
L 283.933147 256.512 
L 283.003636 257.116638 
L 279.931818 258.824277 
L 279.124128 259.2 
L 276.86 260.174124 
L 273.788182 261.240455 
L 271.386704 261.888 
L 270.716364 262.061257 
L 267.644545 262.653549 
L 264.572727 263.041216 
L 261.500909 263.232923 
L 258.429091 263.232923 
L 255.357273 263.041216 
L 252.285455 262.653549 
L 249.213636 262.061257 
L 248.543296 261.888 
L 246.141818 261.240455 
L 243.07 260.174124 
L 240.805872 259.2 
L 239.998182 258.824277 
L 236.926364 257.116638 
L 235.996853 256.512 
L 233.854545 254.937209 
L 232.537952 253.824 
L 230.782727 252.070521 
L 229.948487 251.136 
L 228.01948 248.448 
L 227.710909 247.885455 
L 226.639467 245.76 
" style="fill:none;stroke:#ff7a00;stroke-width:1.5;"/>
   </g>
   <g id="LineCollection_9">
    <path clip-path="url(#pd31c607b9c)" d="M 239.914469 240.384 
L 239.114181 237.696 
L 238.843133 235.008 
L 239.047176 232.32 
L 239.673674 229.632 
L 239.998182 228.769979 
L 240.747037 226.944 
L 242.205378 224.256 
L 243.07 222.93152 
L 244.077249 221.568 
L 246.141818 219.094495 
L 246.354471 218.88 
L 249.213636 216.215017 
L 249.245159 216.192 
L 252.285455 214.060226 
L 253.433137 213.504 
L 255.357273 212.575748 
L 258.429091 211.818125 
L 261.500909 211.818125 
L 264.572727 212.575748 
L 266.496863 213.504 
L 267.644545 214.060226 
L 270.684841 216.192 
L 270.716364 216.215017 
L 273.575529 218.88 
L 273.788182 219.094495 
L 275.852751 221.568 
L 276.86 222.93152 
L 277.724622 224.256 
L 279.182963 226.944 
L 279.931818 228.769979 
L 280.256326 229.632 
L 280.882824 232.32 
L 281.086867 235.008 
L 280.815819 237.696 
L 280.015531 240.384 
L 279.931818 240.553134 
L 278.470136 243.072 
L 276.86 244.990946 
L 276.072131 245.76 
L 273.788182 247.496277 
L 272.176447 248.448 
L 270.716364 249.169537 
L 267.644545 250.284056 
L 264.572727 251.006424 
L 263.45804 251.136 
L 261.500909 251.340122 
L 258.429091 251.340122 
L 256.47196 251.136 
L 255.357273 251.006424 
L 252.285455 250.284056 
L 249.213636 249.169537 
L 247.753553 248.448 
L 246.141818 247.496277 
L 243.857869 245.76 
L 243.07 244.990946 
L 241.459864 243.072 
L 239.998182 240.553134 
L 239.914469 240.384 
" style="fill:none;stroke:#ff1300;stroke-width:1.5;"/>
   </g>
   <g id="LineCollection_10"/>
   <g id="patch_3">
    <path d="M 107.91 307.584 
L 107.91 41.472 
" style="fill:none;stroke:#000000;stroke-linecap:square;stroke-linejoin:miter;stroke-width:0.8;"/>
   </g>
   <g id="patch_4">
    <path d="M 412.02 307.584 
L 412.02 41.472 
" style="fill:none;stroke:#000000;stroke-linecap:square;stroke-linejoin:miter;stroke-width:0.8;"/>
   </g>
   <g id="patch_5">
    <path d="M 107.91 307.584 
L 412.02 307.584 
" style="fill:none;stroke:#000000;stroke-linecap:square;stroke-linejoin:miter;stroke-width:0.8;"/>
   </g>
   <g id="patch_6">
    <path d="M 107.91 41.472 
L 412.02 41.472 
" style="fill:none;stroke:#000000;stroke-linecap:square;stroke-linejoin:miter;stroke-width:0.8;"/>
   </g>
  </g>
  <g id="patch_7">
   <path d="M 472.842 307.584 
L 776.952 307.584 
L 776.952 41.472 
L 472.842 41.472 
z
" style="fill:#ffffff;"/>
  </g>
  <g id="pane3d_1">
   <g id="patch_8">
    <path d="M 600.049151 213.325306 
L 742.346088 234.183252 
L 745.386753 91.858533 
L 599.309319 77.253011 
" style="fill:#f2f2f2;opacity:0.5;stroke:#f2f2f2;stroke-linejoin:miter;"/>
   </g>
  </g>
  <g id="pane3d_2">
   <g id="patch_9">
    <path d="M 600.049151 213.325306 
L 511.472283 250.789429 
L 508.199125 103.512879 
L 599.309319 77.253011 
" style="fill:#e6e6e6;opacity:0.5;stroke:#e6e6e6;stroke-linejoin:miter;"/>
   </g>
  </g>
  <g id="pane3d_3">
   <g id="patch_10">
    <path d="M 600.049151 213.325306 
L 511.472283 250.789429 
L 662.176843 275.566128 
L 742.346088 234.183252 
" style="fill:#ececec;opacity:0.5;stroke:#ececec;stroke-linejoin:miter;"/>
   </g>
  </g>
  <g id="axis3d_1">
   <g id="line2d_15">
    <path d="M 742.346088 234.183252 
L 662.176843 275.566128 
" style="fill:none;stroke:#000000;stroke-linecap:square;stroke-width:0.8;"/>
   </g>
   <g id="Line3DCollection_1">
    <path d="M 733.000245 239.007519 
L 589.684085 217.709273 
L 588.668876 80.31981 
" style="fill:none;stroke:#b0b0b0;stroke-width:0.8;"/>
    <path d="M 723.550746 243.885293 
L 579.214581 222.137413 
L 577.915562 83.41914 
" style="fill:none;stroke:#b0b0b0;stroke-width:0.8;"/>
    <path d="M 713.895764 248.869136 
L 568.528328 226.657228 
L 566.933754 86.584328 
" style="fill:none;stroke:#b0b0b0;stroke-width:0.8;"/>
    <path d="M 704.028523 253.962545 
L 557.618525 231.271596 
L 555.716089 89.817494 
" style="fill:none;stroke:#b0b0b0;stroke-width:0.8;"/>
    <path d="M 693.941947 259.169174 
L 546.478081 235.983514 
L 544.254887 93.120853 
" style="fill:none;stroke:#b0b0b0;stroke-width:0.8;"/>
    <path d="M 683.62864 264.492841 
L 535.099605 240.79611 
L 532.542131 96.496714 
" style="fill:none;stroke:#b0b0b0;stroke-width:0.8;"/>
    <path d="M 673.080869 269.937536 
L 523.475387 245.712643 
L 520.569447 99.947493 
" style="fill:none;stroke:#b0b0b0;stroke-width:0.8;"/>
   </g>
   <g id="xtick_8">
    <g id="line2d_16">
     <path d="M 731.797692 238.828807 
L 735.408199 239.365365 
" style="fill:none;stroke:#000000;stroke-linecap:square;stroke-width:0.8;"/>
    </g>
    <g id="text_15">
     <!-- −3 -->
     <g transform="translate(737.082596 259.198651)scale(0.1 -0.1)">
      <use xlink:href="#DejaVuSans-8722"/>
      <use x="83.789062" xlink:href="#DejaVuSans-51"/>
     </g>
    </g>
   </g>
   <g id="xtick_9">
    <g id="line2d_17">
     <path d="M 722.339027 243.702717 
L 725.977083 244.250882 
" style="fill:none;stroke:#000000;stroke-linecap:square;stroke-width:0.8;"/>
    </g>
    <g id="text_16">
     <!-- −2 -->
     <g transform="translate(727.739561 264.220859)scale(0.1 -0.1)">
      <use xlink:href="#DejaVuSans-8722"/>
      <use x="83.789062" xlink:href="#DejaVuSans-50"/>
     </g>
    </g>
   </g>
   <g id="xtick_10">
    <g id="line2d_18">
     <path d="M 712.674763 248.682569 
L 716.340719 249.242721 
" style="fill:none;stroke:#000000;stroke-linecap:square;stroke-width:0.8;"/>
    </g>
    <g id="text_17">
     <!-- −1 -->
     <g transform="translate(718.19299 269.352475)scale(0.1 -0.1)">
      <use xlink:href="#DejaVuSans-8722"/>
      <use x="83.789062" xlink:href="#DejaVuSans-49"/>
     </g>
    </g>
   </g>
   <g id="xtick_11">
    <g id="line2d_19">
     <path d="M 702.798123 253.771855 
L 706.492333 254.344392 
" style="fill:none;stroke:#000000;stroke-linecap:square;stroke-width:0.8;"/>
    </g>
    <g id="text_18">
     <!-- 0 -->
     <g transform="translate(712.626003 274.597113)scale(0.1 -0.1)">
      <use xlink:href="#DejaVuSans-48"/>
     </g>
    </g>
   </g>
   <g id="xtick_12">
    <g id="line2d_20">
     <path d="M 692.702029 258.974223 
L 696.42485 259.55956 
" style="fill:none;stroke:#000000;stroke-linecap:square;stroke-width:0.8;"/>
    </g>
    <g id="text_19">
     <!-- 1 -->
     <g transform="translate(702.651889 279.958548)scale(0.1 -0.1)">
      <use xlink:href="#DejaVuSans-49"/>
     </g>
    </g>
   </g>
   <g id="xtick_13">
    <g id="line2d_21">
     <path d="M 682.379084 264.293483 
L 686.130876 264.892055 
" style="fill:none;stroke:#000000;stroke-linecap:square;stroke-width:0.8;"/>
    </g>
    <g id="text_20">
     <!-- 2 -->
     <g transform="translate(692.453151 285.440726)scale(0.1 -0.1)">
      <use xlink:href="#DejaVuSans-50"/>
     </g>
    </g>
   </g>
   <g id="xtick_14">
    <g id="line2d_22">
     <path d="M 671.821555 269.733621 
L 675.602681 270.345881 
" style="fill:none;stroke:#000000;stroke-linecap:square;stroke-width:0.8;"/>
    </g>
    <g id="text_21">
     <!-- 3 -->
     <g transform="translate(682.022116 291.047773)scale(0.1 -0.1)">
      <use xlink:href="#DejaVuSans-51"/>
     </g>
    </g>
   </g>
  </g>
  <g id="axis3d_2">
   <g id="line2d_23">
    <path d="M 511.472283 250.789429 
L 662.176843 275.566128 
" style="fill:none;stroke:#000000;stroke-linecap:square;stroke-width:0.8;"/>
   </g>
   <g id="Line3DCollection_2">
    <path d="M 616.939855 79.015797 
L 617.242237 215.845476 
L 529.612842 253.771841 
" style="fill:none;stroke:#b0b0b0;stroke-width:0.8;"/>
    <path d="M 634.599661 80.781509 
L 634.458682 218.369069 
L 547.796819 256.761392 
" style="fill:none;stroke:#b0b0b0;stroke-width:0.8;"/>
    <path d="M 652.473229 82.568594 
L 651.878236 220.922435 
L 566.21447 259.78936 
" style="fill:none;stroke:#b0b0b0;stroke-width:0.8;"/>
    <path d="M 670.564462 84.377442 
L 669.504517 223.506103 
L 584.870328 262.856491 
" style="fill:none;stroke:#b0b0b0;stroke-width:0.8;"/>
    <path d="M 688.877361 86.208453 
L 687.341226 226.120615 
L 603.769045 265.963549 
" style="fill:none;stroke:#b0b0b0;stroke-width:0.8;"/>
    <path d="M 707.416026 88.062038 
L 705.392153 228.766528 
L 622.915394 269.111319 
" style="fill:none;stroke:#b0b0b0;stroke-width:0.8;"/>
    <path d="M 726.184656 89.938615 
L 723.661182 231.44441 
L 642.314274 272.300607 
" style="fill:none;stroke:#b0b0b0;stroke-width:0.8;"/>
   </g>
   <g id="xtick_15">
    <g id="line2d_24">
     <path d="M 530.375122 253.441923 
L 528.085052 254.433075 
" style="fill:none;stroke:#000000;stroke-linecap:square;stroke-width:0.8;"/>
    </g>
    <g id="text_22">
     <!-- −3 -->
     <g transform="translate(515.03325 275.795696)scale(0.1 -0.1)">
      <use xlink:href="#DejaVuSans-8722"/>
      <use x="83.789062" xlink:href="#DejaVuSans-51"/>
     </g>
    </g>
   </g>
   <g id="xtick_16">
    <g id="line2d_25">
     <path d="M 548.551069 256.42725 
L 546.285103 257.431102 
" style="fill:none;stroke:#000000;stroke-linecap:square;stroke-width:0.8;"/>
    </g>
    <g id="text_23">
     <!-- −2 -->
     <g transform="translate(533.257654 278.89203)scale(0.1 -0.1)">
      <use xlink:href="#DejaVuSans-8722"/>
      <use x="83.789062" xlink:href="#DejaVuSans-50"/>
     </g>
    </g>
   </g>
   <g id="xtick_17">
    <g id="line2d_26">
     <path d="M 566.96042 259.450911 
L 564.719369 260.46771 
" style="fill:none;stroke:#000000;stroke-linecap:square;stroke-width:0.8;"/>
    </g>
    <g id="text_24">
     <!-- −1 -->
     <g transform="translate(551.717375 282.028344)scale(0.1 -0.1)">
      <use xlink:href="#DejaVuSans-8722"/>
      <use x="83.789062" xlink:href="#DejaVuSans-49"/>
     </g>
    </g>
   </g>
   <g id="xtick_18">
    <g id="line2d_27">
     <path d="M 585.6077 262.513652 
L 583.3924 263.543649 
" style="fill:none;stroke:#000000;stroke-linecap:square;stroke-width:0.8;"/>
    </g>
    <g id="text_25">
     <!-- 0 -->
     <g transform="translate(574.606844 285.205418)scale(0.1 -0.1)">
      <use xlink:href="#DejaVuSans-48"/>
     </g>
    </g>
   </g>
   <g id="xtick_19">
    <g id="line2d_28">
     <path d="M 604.497551 265.616234 
L 602.308865 266.659688 
" style="fill:none;stroke:#000000;stroke-linecap:square;stroke-width:0.8;"/>
    </g>
    <g id="text_26">
     <!-- 1 -->
     <g transform="translate(593.55108 288.424052)scale(0.1 -0.1)">
      <use xlink:href="#DejaVuSans-49"/>
     </g>
    </g>
   </g>
   <g id="xtick_20">
    <g id="line2d_29">
     <path d="M 623.634739 268.75944 
L 621.473557 269.816616 
" style="fill:none;stroke:#000000;stroke-linecap:square;stroke-width:0.8;"/>
    </g>
    <g id="text_27">
     <!-- 2 -->
     <g transform="translate(612.744759 291.685066)scale(0.1 -0.1)">
      <use xlink:href="#DejaVuSans-50"/>
     </g>
    </g>
   </g>
   <g id="xtick_21">
    <g id="line2d_30">
     <path d="M 643.024152 271.944073 
L 640.891393 273.015244 
" style="fill:none;stroke:#000000;stroke-linecap:square;stroke-width:0.8;"/>
    </g>
    <g id="text_28">
     <!-- 3 -->
     <g transform="translate(632.19284 294.989303)scale(0.1 -0.1)">
      <use xlink:href="#DejaVuSans-51"/>
     </g>
    </g>
   </g>
  </g>
  <g id="axis3d_3">
   <g id="line2d_31">
    <path d="M 511.472283 250.789429 
L 508.199125 103.512879 
" style="fill:none;stroke:#000000;stroke-linecap:square;stroke-width:0.8;"/>
   </g>
   <g id="Line3DCollection_3">
    <path d="M 510.810122 220.995328 
L 599.899215 185.748614 
L 742.961703 205.368085 
" style="fill:none;stroke:#b0b0b0;stroke-width:0.8;"/>
    <path d="M 510.158038 191.654663 
L 599.751694 158.61604 
L 743.567708 177.002775 
" style="fill:none;stroke:#b0b0b0;stroke-width:0.8;"/>
    <path d="M 509.49872 161.98846 
L 599.60267 131.20704 
L 744.180192 148.334163 
" style="fill:none;stroke:#b0b0b0;stroke-width:0.8;"/>
    <path d="M 508.832045 131.991271 
L 599.45212 103.517367 
L 744.799261 119.357359 
" style="fill:none;stroke:#b0b0b0;stroke-width:0.8;"/>
   </g>
   <g id="xtick_22">
    <g id="line2d_32">
     <path d="M 511.585052 220.688739 
L 509.256982 221.609804 
" style="fill:none;stroke:#000000;stroke-linecap:square;stroke-width:0.8;"/>
    </g>
    <g id="text_29">
     <!-- −0.5 -->
     <defs>
      <path d="M 10.6875 12.40625 
L 21 12.40625 
L 21 0 
L 10.6875 0 
z
" id="DejaVuSans-46"/>
      <path d="M 10.796875 72.90625 
L 49.515625 72.90625 
L 49.515625 64.59375 
L 19.828125 64.59375 
L 19.828125 46.734375 
Q 21.96875 47.46875 24.109375 47.828125 
Q 26.265625 48.1875 28.421875 48.1875 
Q 40.625 48.1875 47.75 41.5 
Q 54.890625 34.8125 54.890625 23.390625 
Q 54.890625 11.625 47.5625 5.09375 
Q 40.234375 -1.421875 26.90625 -1.421875 
Q 22.3125 -1.421875 17.546875 -0.640625 
Q 12.796875 0.140625 7.71875 1.703125 
L 7.71875 11.625 
Q 12.109375 9.234375 16.796875 8.0625 
Q 21.484375 6.890625 26.703125 6.890625 
Q 35.15625 6.890625 40.078125 11.328125 
Q 45.015625 15.765625 45.015625 23.390625 
Q 45.015625 31 40.078125 35.4375 
Q 35.15625 39.890625 26.703125 39.890625 
Q 22.75 39.890625 18.8125 39.015625 
Q 14.890625 38.140625 10.796875 36.28125 
z
" id="DejaVuSans-53"/>
     </defs>
     <g transform="translate(479.967016 229.852667)scale(0.1 -0.1)">
      <use xlink:href="#DejaVuSans-8722"/>
      <use x="83.789062" xlink:href="#DejaVuSans-48"/>
      <use x="147.412109" xlink:href="#DejaVuSans-46"/>
      <use x="179.199219" xlink:href="#DejaVuSans-53"/>
     </g>
    </g>
   </g>
   <g id="xtick_23">
    <g id="line2d_33">
     <path d="M 510.937702 191.367153 
L 508.595392 192.230906 
" style="fill:none;stroke:#000000;stroke-linecap:square;stroke-width:0.8;"/>
    </g>
    <g id="text_30">
     <!-- 0.0 -->
     <g transform="translate(483.399404 200.433682)scale(0.1 -0.1)">
      <use xlink:href="#DejaVuSans-48"/>
      <use x="63.623047" xlink:href="#DejaVuSans-46"/>
      <use x="95.410156" xlink:href="#DejaVuSans-48"/>
     </g>
    </g>
   </g>
   <g id="xtick_24">
    <g id="line2d_34">
     <path d="M 510.283175 161.720473 
L 507.926452 162.52558 
" style="fill:none;stroke:#000000;stroke-linecap:square;stroke-width:0.8;"/>
    </g>
    <g id="text_31">
     <!-- 0.5 -->
     <g transform="translate(482.63352 170.687335)scale(0.1 -0.1)">
      <use xlink:href="#DejaVuSans-48"/>
      <use x="63.623047" xlink:href="#DejaVuSans-46"/>
      <use x="95.410156" xlink:href="#DejaVuSans-53"/>
     </g>
    </g>
   </g>
   <g id="xtick_25">
    <g id="line2d_35">
     <path d="M 509.621351 131.743262 
L 507.250037 132.488357 
" style="fill:none;stroke:#000000;stroke-linecap:square;stroke-width:0.8;"/>
    </g>
    <g id="text_32">
     <!-- 1.0 -->
     <g transform="translate(481.859067 140.608134)scale(0.1 -0.1)">
      <use xlink:href="#DejaVuSans-49"/>
      <use x="63.623047" xlink:href="#DejaVuSans-46"/>
      <use x="95.410156" xlink:href="#DejaVuSans-48"/>
     </g>
    </g>
   </g>
  </g>
  <g id="axes_2">
   <g id="Line3DCollection_4"/>
   <g id="Line3DCollection_5"/>
   <g id="Line3DCollection_6">
    <path clip-path="url(#pb9cfec800b)" d="M 668.351087 238.913986 
L 668.110583 238.885178 
L 666.949557 238.754708 
L 665.029456 238.873197 
L 664.952256 238.881361 
L 663.746533 239.134705 
L 662.641626 239.423844 
L 661.656937 239.731889 
L 660.768731 240.055277 
L 660.727069 240.072653 
L 659.984243 240.395159 
L 659.254358 240.744076 
L 658.612925 241.083378 
L 658.57916 241.102068 
L 658.008063 241.476734 
L 657.534129 241.86706 
L 657.181508 242.2768 
L 656.994848 242.692587 
L 657.00871 242.715003 
L 657.625466 243.228705 
L 658.647544 243.432743 
L 658.865012 243.474073 
L 658.93053 243.476268 
L 660.528953 243.515956 
L 661.722217 243.43924 
L 662.590706 243.366055 
L 663.45562 243.239845 
L 664.860079 242.990416 
L 665.333583 242.886358 
L 666.028939 242.705402 
L 667.02068 242.393862 
L 667.879655 242.062656 
L 668.605023 241.711716 
L 669.196995 241.341133 
L 669.656833 240.951159 
L 669.861437 240.697689 
L 669.940764 240.535189 
L 669.991142 240.084533 
L 669.936841 239.821638 
L 669.715892 239.585304 
L 669.338706 239.273189 
L 668.391649 238.927844 
L 668.351087 238.913986 
" style="fill:none;stroke:#0000ff;stroke-width:1.5;"/>
   </g>
   <g id="Line3DCollection_7">
    <path clip-path="url(#pb9cfec800b)" d="M 602.048751 108.491545 
L 603.538509 108.569753 
L 604.896404 108.690564 
L 606.136383 108.849716 
L 607.271883 109.043076 
L 607.605394 109.115102 
L 608.296971 109.272739 
L 609.227232 109.533855 
L 609.649631 109.67449 
L 610.055563 109.828887 
L 610.73355 110.12861 
L 610.78399 110.157356 
L 611.357081 110.532596 
L 611.360327 110.536396 
L 611.631024 110.898595 
L 611.612922 111.022151 
L 611.580465 111.229278 
L 611.17699 111.521375 
L 610.404853 111.773011 
L 609.263492 111.983997 
L 608.327429 112.091705 
L 607.767565 112.155844 
L 605.963665 112.290152 
L 605.94451 112.291496 
L 603.926199 112.382055 
L 603.768136 112.387909 
L 602.04353 112.423509 
L 601.125969 112.432367 
L 600.263604 112.431605 
L 598.589058 112.405664 
L 597.513405 112.368148 
L 597.013099 112.348052 
L 595.551955 112.253715 
L 594.199774 112.12472 
L 592.970335 111.956829 
L 591.877764 111.745726 
L 591.817611 111.729718 
L 590.977538 111.473911 
L 590.465643 111.238717 
L 590.297215 111.13291 
L 590.046679 110.853097 
L 590.001586 110.670624 
L 590.028332 110.513044 
L 590.278155 110.20363 
L 590.715557 109.915774 
L 590.937642 109.818529 
L 591.338456 109.649177 
L 592.12018 109.400806 
L 592.715366 109.253631 
L 593.060492 109.170576 
L 594.185527 108.961335 
L 595.496808 108.773186 
L 596.211347 108.694011 
L 597.074008 108.614893 
L 598.481315 108.523392 
L 599.048048 108.500857 
L 600.372351 108.473218 
L 601.946661 108.489305 
L 602.048751 108.491545 
" style="fill:none;stroke:#ff1300;stroke-width:1.5;"/>
   </g>
   <g id="Line3DCollection_8">
    <path clip-path="url(#pb9cfec800b)" d="M 602.886403 124.61691 
L 604.395596 124.688242 
L 605.803866 124.793864 
L 607.119978 124.930991 
L 608.351664 125.097168 
L 609.506083 125.290118 
L 610.59028 125.507586 
L 611.611607 125.747198 
L 611.634646 125.753446 
L 612.571648 126.008527 
L 613.4861 126.286329 
L 613.623931 126.332309 
L 614.353762 126.581099 
L 615.108871 126.853674 
L 615.194725 126.886042 
L 616.005876 127.202279 
L 616.395965 127.353062 
L 616.806206 127.523341 
L 617.61494 127.842631 
L 617.626608 127.846893 
L 618.417889 128.165034 
L 618.94942 128.352494 
L 619.256825 128.476131 
L 620.137964 128.773708 
L 620.571111 128.894051 
L 621.071168 129.054274 
L 622.08263 129.308638 
L 623.197951 129.527749 
L 623.883073 129.634402 
L 624.393158 129.71978 
L 625.669539 129.884137 
L 627.017338 130.024086 
L 627.895094 130.103613 
L 628.399869 130.152357 
L 629.778138 130.282583 
L 631.13729 130.419999 
L 632.450511 130.574095 
L 633.690264 130.754681 
L 634.053419 130.823837 
L 634.791703 130.984838 
L 635.703729 131.282939 
L 635.921611 131.397911 
L 636.194072 131.7318 
L 636.19806 131.786628 
L 635.832949 132.100883 
L 635.075993 132.36977 
L 633.92658 132.593078 
L 633.691585 132.620122 
L 632.133123 132.741059 
L 631.533069 132.760758 
L 629.800461 132.750245 
L 628.739994 132.700906 
L 628.261145 132.671525 
L 626.863947 132.542999 
L 625.543414 132.387961 
L 624.271698 132.216332 
L 623.021662 132.037714 
L 622.559407 131.972839 
L 621.778273 131.857403 
L 620.502122 131.689177 
L 619.156149 131.545892 
L 618.532957 131.498528 
L 617.730459 131.430861 
L 616.226244 131.343521 
L 614.619031 131.292213 
L 613.673601 131.284146 
L 612.934425 131.267882 
L 611.198695 131.261307 
L 610.505704 131.268986 
L 609.421617 131.269021 
L 607.633801 131.28877 
L 607.6093 131.288845 
L 605.804231 131.306108 
L 604.850515 131.319078 
L 603.991917 131.325798 
L 602.192044 131.341157 
L 602.006227 131.342226 
L 600.424205 131.345505 
L 598.958018 131.34125 
L 598.685367 131.339936 
L 596.996394 131.31739 
L 595.395552 131.279251 
L 595.35627 131.278301 
L 593.781407 131.217178 
L 592.273648 131.133511 
L 590.84076 131.024787 
L 589.490144 130.888634 
L 588.229259 130.722676 
L 587.066058 130.524388 
L 586.009449 130.290941 
L 585.263194 130.076955 
L 585.072272 130.018204 
L 584.27793 129.698536 
L 584.044223 129.573437 
L 583.655036 129.322607 
L 583.460286 129.146163 
L 583.257063 128.872846 
L 583.206616 128.758845 
L 583.179014 128.399044 
L 583.206782 128.308702 
L 583.322322 128.060166 
L 583.600619 127.737907 
L 583.906555 127.49685 
L 583.995451 127.430044 
L 584.498443 127.135546 
L 585.098 126.853008 
L 585.789818 126.581888 
L 586.571722 126.321896 
L 587.44358 126.072981 
L 588.407297 125.835332 
L 589.466892 125.609385 
L 589.71884 125.562563 
L 590.633626 125.396419 
L 591.91551 125.19733 
L 592.948746 125.06116 
L 593.330539 125.014172 
L 594.913971 124.851004 
L 595.434565 124.806523 
L 596.719996 124.714068 
L 597.578712 124.665308 
L 598.851164 124.615206 
L 599.503878 124.596983 
L 601.263562 124.583966 
L 601.608092 124.589206 
L 602.886403 124.61691 
" style="fill:none;stroke:#ff7a00;stroke-width:1.5;"/>
   </g>
   <g id="Line3DCollection_9">
    <path clip-path="url(#pb9cfec800b)" d="M 605.390299 155.846543 
L 609.597201 156.170884 
L 613.182812 156.729553 
L 616.184902 157.512039 
L 618.709466 158.481986 
L 624.099918 160.974768 
L 626.88944 161.87857 
L 630.197289 162.592738 
L 635.228684 163.316481 
L 641.587858 164.208401 
L 643.834157 164.686165 
L 645.710162 165.312984 
L 646.434023 165.712449 
L 646.92826 166.20398 
L 647.047813 166.531568 
L 647.026443 166.917186 
L 646.821686 167.279981 
L 646.049001 167.960946 
L 644.837933 168.588033 
L 643.249201 169.168774 
L 641.2598 169.699898 
L 638.534083 170.211553 
L 635.632246 170.553835 
L 631.894675 170.745806 
L 628.484561 170.70062 
L 624.052139 170.367353 
L 610.365236 168.865224 
L 605.500615 168.713731 
L 597.760103 168.784962 
L 587.351438 168.943966 
L 582.417917 168.82109 
L 578.09301 168.473929 
L 574.441167 167.882126 
L 572.39881 167.34679 
L 570.688312 166.693507 
L 569.269777 165.83294 
L 568.790959 165.373401 
L 568.323136 164.521496 
L 568.267936 164.12031 
L 568.439621 163.357353 
L 568.913089 162.63697 
L 569.646845 161.953489 
L 570.586022 161.299545 
L 572.390312 160.374955 
L 574.596623 159.508017 
L 577.223404 158.700579 
L 580.254569 157.950029 
L 585.062028 157.054403 
L 590.430439 156.356268 
L 594.842663 155.985145 
L 600.520548 155.768213 
L 605.390299 155.846543 
L 605.390299 155.846543 
" style="fill:none;stroke:#aaff4d;stroke-width:1.5;"/>
   </g>
   <g id="Line3DCollection_10">
    <path clip-path="url(#pb9cfec800b)" d="M 606.561387 140.706818 
L 610.382839 141.171015 
L 613.600934 141.855447 
L 616.352947 142.714266 
L 623.286679 145.195966 
L 626.517567 145.91385 
L 630.243837 146.457143 
L 638.698775 147.56856 
L 640.246002 147.910121 
L 641.360925 148.264679 
L 642.250774 148.744796 
L 642.582016 149.157295 
L 642.478725 149.692759 
L 642.329389 149.872222 
L 641.289862 150.493055 
L 639.633011 151.040166 
L 637.309278 151.506963 
L 633.96657 151.849261 
L 631.228884 151.932465 
L 627.362649 151.787502 
L 623.746684 151.437993 
L 614.407607 150.344712 
L 609.801548 150.104056 
L 602.954872 150.041994 
L 591.81444 150.012001 
L 587.737838 149.838565 
L 583.623531 149.432957 
L 581.282397 149.023099 
L 579.135931 148.424127 
L 577.76495 147.803455 
L 577.194367 147.393079 
L 576.79636 146.923805 
L 576.625994 146.376729 
L 576.714714 145.863758 
L 577.200789 145.177985 
L 578.025619 144.537033 
L 579.136425 143.934098 
L 581.29454 143.095 
L 584.01832 142.330599 
L 587.357278 141.646276 
L 591.450881 141.058337 
L 594.777265 140.741201 
L 598.944321 140.527649 
L 603.622518 140.537784 
L 606.561387 140.706818 
L 606.561387 140.706818 
" style="fill:none;stroke:#ffe600;stroke-width:1.5;"/>
   </g>
   <g id="Line3DCollection_11">
    <path clip-path="url(#pb9cfec800b)" d="M 667.880496 217.187627 
L 667.552369 217.205936 
L 665.833822 217.388667 
L 665.651703 217.419417 
L 664.633017 217.646761 
L 663.655387 217.937733 
L 662.807878 218.248175 
L 662.042226 218.571133 
L 661.327385 218.902129 
L 660.642815 219.238198 
L 659.974633 219.577331 
L 659.313293 219.918146 
L 658.652147 220.259677 
L 657.986529 220.601243 
L 657.313149 220.942364 
L 656.629692 221.2827 
L 655.934552 221.622011 
L 655.226648 221.960137 
L 654.50531 222.296975 
L 653.770207 222.632473 
L 653.021318 222.966624 
L 652.258928 223.299466 
L 651.483667 223.631087 
L 650.696577 223.961638 
L 649.899238 224.291348 
L 649.093945 224.620556 
L 648.283988 224.949746 
L 647.47406 225.279614 
L 646.670871 225.611159 
L 645.884093 225.945822 
L 645.127826 226.285711 
L 644.422972 226.633953 
L 643.801176 226.995289 
L 643.311693 227.37711 
L 643.060509 227.734966 
L 643.049507 227.793661 
L 643.315005 228.289957 
L 643.422807 228.37582 
L 644.344058 228.762855 
L 645.502519 229.042397 
L 646.816378 229.251487 
L 648.246694 229.407681 
L 649.774423 229.519477 
L 651.391161 229.590518 
L 652.098507 229.603017 
L 653.096494 229.62077 
L 654.890783 229.609838 
L 655.161839 229.602485 
L 656.782406 229.553597 
L 657.619925 229.511663 
L 658.781162 229.447229 
L 659.767201 229.374707 
L 660.90583 229.281686 
L 661.69261 229.205001 
L 663.186048 229.042778 
L 663.449907 229.010643 
L 665.059283 228.794706 
L 665.682888 228.701476 
L 666.554174 228.56222 
L 667.945532 228.314859 
L 668.510367 228.203682 
L 669.243904 228.054232 
L 670.455687 227.781326 
L 671.589734 227.497486 
L 672.043296 227.372236 
L 672.649269 227.203222 
L 673.637322 226.899014 
L 674.556869 226.58533 
L 675.409884 226.262489 
L 676.197689 225.930714 
L 676.920991 225.590135 
L 677.579893 225.240796 
L 678.173899 224.882649 
L 678.701899 224.515559 
L 679.16214 224.139296 
L 679.387487 223.918129 
L 679.551883 223.753489 
L 679.868345 223.357758 
L 680.108564 222.951703 
L 680.203463 222.7145 
L 680.264008 222.53411 
L 680.328618 222.104134 
L 680.319323 221.843415 
L 680.292252 221.660335 
L 680.144412 221.201231 
L 680.109866 221.127726 
L 679.852453 220.722129 
L 679.689349 220.513227 
L 679.396925 220.220268 
L 679.118731 219.97095 
L 678.725402 219.688124 
L 678.427785 219.486648 
L 677.751051 219.113221 
L 677.635387 219.051235 
L 676.751552 218.659799 
L 676.185433 218.453988 
L 675.784749 218.308181 
L 674.735695 217.99583 
L 673.604274 217.722582 
L 672.382711 217.491798 
L 671.053053 217.311489 
L 669.578329 217.198321 
L 667.880496 217.187627 
" style="fill:none;stroke:#0060ff;stroke-width:1.5;"/>
   </g>
   <g id="Line3DCollection_12">
    <path clip-path="url(#pb9cfec800b)" d="M 625.124519 164.502021 
L 625.131718 164.632978 
L 624.844461 165.204478 
L 624.844732 165.380014 
L 624.589058 165.912864 
L 624.481217 166.270665 
L 624.15845 167.348375 
L 624.078552 167.712617 
L 623.799473 169.182047 
L 623.692992 170.685695 
L 624.180231 173.452109 
L 624.534191 174.255541 
L 625.528471 175.596061 
L 626.602004 176.520609 
L 627.9811 177.329855 
L 629.662421 178.023926 
L 631.65229 178.599077 
L 635.099632 179.282861 
L 647.464791 181.256404 
L 649.410882 181.891739 
L 650.411391 182.425771 
L 650.950122 182.899086 
L 651.208157 183.335758 
L 651.216337 183.99667 
L 650.954342 184.512975 
L 650.247193 185.22935 
L 649.223331 185.905916 
L 647.928853 186.548661 
L 645.506245 187.452506 
L 642.462558 188.277443 
L 638.598217 188.995508 
L 634.585456 189.43575 
L 630.691591 189.588481 
L 627.018647 189.497393 
L 622.922485 189.16301 
L 609.202877 187.604851 
L 604.252685 187.480922 
L 600.567484 187.552155 
L 594.205827 187.915325 
L 586.852352 188.581933 
L 576.913492 189.744751 
L 564.588836 191.448798 
L 560.11316 192.115947 
L 548.462425 193.956586 
L 548.462425 193.956586 
" style="fill:none;stroke:#4dffaa;stroke-width:1.5;"/>
   </g>
   <g id="Line3DCollection_13">
    <path clip-path="url(#pb9cfec800b)" d="M 649.619079 191.022363 
L 645.157967 190.767942 
L 641.703768 190.800446 
L 638.437152 191.09772 
L 636.166006 191.589969 
L 634.823922 192.212111 
L 634.48027 192.569238 
L 634.408903 193.139322 
L 634.516077 193.385504 
L 635.051614 193.866423 
L 636.333685 194.468464 
L 638.408703 195.029103 
L 642.025731 195.66404 
L 650.947241 196.965633 
L 653.135156 197.498731 
L 654.995715 198.270811 
L 655.697811 198.782182 
L 656.075045 199.249395 
L 656.272371 199.860094 
L 656.166342 200.511533 
L 655.984406 200.904284 
L 655.247225 201.809188 
L 654.580025 202.388362 
L 652.981346 203.432623 
L 651.000708 204.429378 
L 648.664076 205.381865 
L 645.957621 206.287714 
L 642.815879 207.137172 
L 639.126073 207.91361 
L 636.214383 208.369249 
L 632.191377 208.775703 
L 628.386056 208.895798 
L 625.11511 208.785733 
L 620.846083 208.350056 
L 610.11443 206.936099 
L 606.840407 206.775498 
L 603.26714 206.862988 
L 600.320655 207.150917 
L 597.732309 207.657002 
L 596.041052 208.295335 
L 595.531872 208.664359 
L 595.304968 209.075189 
L 595.388755 209.532092 
L 595.930939 210.056728 
L 597.221359 210.691575 
L 598.445247 211.10072 
L 600.688641 211.649777 
L 604.502895 212.290279 
L 608.71509 212.768056 
L 614.760993 213.228702 
L 643.089888 214.888233 
L 650.129664 214.939585 
L 656.05971 214.755123 
L 662.300591 214.3163 
L 667.508291 213.732037 
L 672.339354 212.973086 
L 675.811211 212.273255 
L 679.477704 211.338901 
L 682.038276 210.538325 
L 684.48187 209.58421 
L 686.506804 208.57697 
L 688.099573 207.515194 
L 689.26296 206.399765 
L 689.768211 205.62214 
L 690.041524 204.815318 
L 690.063524 203.976781 
L 689.79365 203.101087 
L 689.151638 202.161362 
L 688.001078 201.116973 
L 686.46761 200.147714 
L 684.940992 199.39052 
L 682.182033 198.318508 
L 679.154321 197.37705 
L 674.827652 196.264867 
L 656.033004 191.88675 
L 652.305847 191.315016 
L 649.619079 191.022363 
L 649.619079 191.022363 
" style="fill:none;stroke:#00d4ff;stroke-width:1.5;"/>
   </g>
  </g>
 </g>
 <defs>
  <clipPath id="pd31c607b9c">
   <rect height="266.112" width="304.11" x="107.91" y="41.472"/>
  </clipPath>
  <clipPath id="pb9cfec800b">
   <rect height="266.112" width="304.11" x="472.842" y="41.472"/>
  </clipPath>
 </defs>
</svg>
