<?xml version="1.0" encoding="utf-8" standalone="no"?>
<!DOCTYPE svg PUBLIC "-//W3C//DTD SVG 1.1//EN"
  "http://www.w3.org/Graphics/SVG/1.1/DTD/svg11.dtd">
<!-- Created with matplotlib (https://matplotlib.org/) -->
<svg height="345.6pt" version="1.1" viewBox="0 0 460.8 345.6" width="460.8pt" xmlns="http://www.w3.org/2000/svg" xmlns:xlink="http://www.w3.org/1999/xlink">
 <defs>
  <style type="text/css">
*{stroke-linecap:butt;stroke-linejoin:round;}
  </style>
 </defs>
 <g id="figure_1">
  <g id="patch_1">
   <path d="M 0 345.6 
L 460.8 345.6 
L 460.8 0 
L 0 0 
z
" style="fill:#ffffff;"/>
  </g>
  <g id="axes_1">
   <g id="patch_2">
    <path d="M 57.6 307.584 
L 414.72 307.584 
L 414.72 41.472 
L 57.6 41.472 
z
" style="fill:#ffffff;"/>
   </g>
   <g id="matplotlib.axis_1">
    <g id="xtick_1">
     <g id="line2d_1">
      <defs>
       <path d="M 0 0 
L 0 3.5 
" id="mf983436a52" style="stroke:#000000;stroke-width:0.8;"/>
      </defs>
      <g>
       <use style="stroke:#000000;stroke-width:0.8;" x="83.108571" xlink:href="#mf983436a52" y="307.584"/>
      </g>
     </g>
     <g id="text_1">
      <!-- −3 -->
      <defs>
       <path d="M 10.59375 35.5 
L 73.1875 35.5 
L 73.1875 27.203125 
L 10.59375 27.203125 
z
" id="DejaVuSans-8722"/>
       <path d="M 40.578125 39.3125 
Q 47.65625 37.796875 51.625 33 
Q 55.609375 28.21875 55.609375 21.1875 
Q 55.609375 10.40625 48.1875 4.484375 
Q 40.765625 -1.421875 27.09375 -1.421875 
Q 22.515625 -1.421875 17.65625 -0.515625 
Q 12.796875 0.390625 7.625 2.203125 
L 7.625 11.71875 
Q 11.71875 9.328125 16.59375 8.109375 
Q 21.484375 6.890625 26.8125 6.890625 
Q 36.078125 6.890625 40.9375 10.546875 
Q 45.796875 14.203125 45.796875 21.1875 
Q 45.796875 27.640625 41.28125 31.265625 
Q 36.765625 34.90625 28.71875 34.90625 
L 20.21875 34.90625 
L 20.21875 43.015625 
L 29.109375 43.015625 
Q 36.375 43.015625 40.234375 45.921875 
Q 44.09375 48.828125 44.09375 54.296875 
Q 44.09375 59.90625 40.109375 62.90625 
Q 36.140625 65.921875 28.71875 65.921875 
Q 24.65625 65.921875 20.015625 65.03125 
Q 15.375 64.15625 9.8125 62.3125 
L 9.8125 71.09375 
Q 15.4375 72.65625 20.34375 73.4375 
Q 25.25 74.21875 29.59375 74.21875 
Q 40.828125 74.21875 47.359375 69.109375 
Q 53.90625 64.015625 53.90625 55.328125 
Q 53.90625 49.265625 50.4375 45.09375 
Q 46.96875 40.921875 40.578125 39.3125 
z
" id="DejaVuSans-51"/>
      </defs>
      <g transform="translate(75.737478 322.182437)scale(0.1 -0.1)">
       <use xlink:href="#DejaVuSans-8722"/>
       <use x="83.789062" xlink:href="#DejaVuSans-51"/>
      </g>
     </g>
    </g>
    <g id="xtick_2">
     <g id="line2d_2">
      <g>
       <use style="stroke:#000000;stroke-width:0.8;" x="134.125714" xlink:href="#mf983436a52" y="307.584"/>
      </g>
     </g>
     <g id="text_2">
      <!-- −2 -->
      <defs>
       <path d="M 19.1875 8.296875 
L 53.609375 8.296875 
L 53.609375 0 
L 7.328125 0 
L 7.328125 8.296875 
Q 12.9375 14.109375 22.625 23.890625 
Q 32.328125 33.6875 34.8125 36.53125 
Q 39.546875 41.84375 41.421875 45.53125 
Q 43.3125 49.21875 43.3125 52.78125 
Q 43.3125 58.59375 39.234375 62.25 
Q 35.15625 65.921875 28.609375 65.921875 
Q 23.96875 65.921875 18.8125 64.3125 
Q 13.671875 62.703125 7.8125 59.421875 
L 7.8125 69.390625 
Q 13.765625 71.78125 18.9375 73 
Q 24.125 74.21875 28.421875 74.21875 
Q 39.75 74.21875 46.484375 68.546875 
Q 53.21875 62.890625 53.21875 53.421875 
Q 53.21875 48.921875 51.53125 44.890625 
Q 49.859375 40.875 45.40625 35.40625 
Q 44.1875 33.984375 37.640625 27.21875 
Q 31.109375 20.453125 19.1875 8.296875 
z
" id="DejaVuSans-50"/>
      </defs>
      <g transform="translate(126.754621 322.182437)scale(0.1 -0.1)">
       <use xlink:href="#DejaVuSans-8722"/>
       <use x="83.789062" xlink:href="#DejaVuSans-50"/>
      </g>
     </g>
    </g>
    <g id="xtick_3">
     <g id="line2d_3">
      <g>
       <use style="stroke:#000000;stroke-width:0.8;" x="185.142857" xlink:href="#mf983436a52" y="307.584"/>
      </g>
     </g>
     <g id="text_3">
      <!-- −1 -->
      <defs>
       <path d="M 12.40625 8.296875 
L 28.515625 8.296875 
L 28.515625 63.921875 
L 10.984375 60.40625 
L 10.984375 69.390625 
L 28.421875 72.90625 
L 38.28125 72.90625 
L 38.28125 8.296875 
L 54.390625 8.296875 
L 54.390625 0 
L 12.40625 0 
z
" id="DejaVuSans-49"/>
      </defs>
      <g transform="translate(177.771763 322.182437)scale(0.1 -0.1)">
       <use xlink:href="#DejaVuSans-8722"/>
       <use x="83.789062" xlink:href="#DejaVuSans-49"/>
      </g>
     </g>
    </g>
    <g id="xtick_4">
     <g id="line2d_4">
      <g>
       <use style="stroke:#000000;stroke-width:0.8;" x="236.16" xlink:href="#mf983436a52" y="307.584"/>
      </g>
     </g>
     <g id="text_4">
      <!-- 0 -->
      <defs>
       <path d="M 31.78125 66.40625 
Q 24.171875 66.40625 20.328125 58.90625 
Q 16.5 51.421875 16.5 36.375 
Q 16.5 21.390625 20.328125 13.890625 
Q 24.171875 6.390625 31.78125 6.390625 
Q 39.453125 6.390625 43.28125 13.890625 
Q 47.125 21.390625 47.125 36.375 
Q 47.125 51.421875 43.28125 58.90625 
Q 39.453125 66.40625 31.78125 66.40625 
z
M 31.78125 74.21875 
Q 44.046875 74.21875 50.515625 64.515625 
Q 56.984375 54.828125 56.984375 36.375 
Q 56.984375 17.96875 50.515625 8.265625 
Q 44.046875 -1.421875 31.78125 -1.421875 
Q 19.53125 -1.421875 13.0625 8.265625 
Q 6.59375 17.96875 6.59375 36.375 
Q 6.59375 54.828125 13.0625 64.515625 
Q 19.53125 74.21875 31.78125 74.21875 
z
" id="DejaVuSans-48"/>
      </defs>
      <g transform="translate(232.97875 322.182437)scale(0.1 -0.1)">
       <use xlink:href="#DejaVuSans-48"/>
      </g>
     </g>
    </g>
    <g id="xtick_5">
     <g id="line2d_5">
      <g>
       <use style="stroke:#000000;stroke-width:0.8;" x="287.177143" xlink:href="#mf983436a52" y="307.584"/>
      </g>
     </g>
     <g id="text_5">
      <!-- 1 -->
      <g transform="translate(283.995893 322.182437)scale(0.1 -0.1)">
       <use xlink:href="#DejaVuSans-49"/>
      </g>
     </g>
    </g>
    <g id="xtick_6">
     <g id="line2d_6">
      <g>
       <use style="stroke:#000000;stroke-width:0.8;" x="338.194286" xlink:href="#mf983436a52" y="307.584"/>
      </g>
     </g>
     <g id="text_6">
      <!-- 2 -->
      <g transform="translate(335.013036 322.182437)scale(0.1 -0.1)">
       <use xlink:href="#DejaVuSans-50"/>
      </g>
     </g>
    </g>
    <g id="xtick_7">
     <g id="line2d_7">
      <g>
       <use style="stroke:#000000;stroke-width:0.8;" x="389.211429" xlink:href="#mf983436a52" y="307.584"/>
      </g>
     </g>
     <g id="text_7">
      <!-- 3 -->
      <g transform="translate(386.030179 322.182437)scale(0.1 -0.1)">
       <use xlink:href="#DejaVuSans-51"/>
      </g>
     </g>
    </g>
   </g>
   <g id="matplotlib.axis_2">
    <g id="ytick_1">
     <g id="line2d_8">
      <defs>
       <path d="M 0 0 
L -3.5 0 
" id="m53d48a2b7c" style="stroke:#000000;stroke-width:0.8;"/>
      </defs>
      <g>
       <use style="stroke:#000000;stroke-width:0.8;" x="57.6" xlink:href="#m53d48a2b7c" y="288.576"/>
      </g>
     </g>
     <g id="text_8">
      <!-- −3 -->
      <g transform="translate(35.857813 292.375219)scale(0.1 -0.1)">
       <use xlink:href="#DejaVuSans-8722"/>
       <use x="83.789062" xlink:href="#DejaVuSans-51"/>
      </g>
     </g>
    </g>
    <g id="ytick_2">
     <g id="line2d_9">
      <g>
       <use style="stroke:#000000;stroke-width:0.8;" x="57.6" xlink:href="#m53d48a2b7c" y="250.56"/>
      </g>
     </g>
     <g id="text_9">
      <!-- −2 -->
      <g transform="translate(35.857813 254.359219)scale(0.1 -0.1)">
       <use xlink:href="#DejaVuSans-8722"/>
       <use x="83.789062" xlink:href="#DejaVuSans-50"/>
      </g>
     </g>
    </g>
    <g id="ytick_3">
     <g id="line2d_10">
      <g>
       <use style="stroke:#000000;stroke-width:0.8;" x="57.6" xlink:href="#m53d48a2b7c" y="212.544"/>
      </g>
     </g>
     <g id="text_10">
      <!-- −1 -->
      <g transform="translate(35.857813 216.343219)scale(0.1 -0.1)">
       <use xlink:href="#DejaVuSans-8722"/>
       <use x="83.789062" xlink:href="#DejaVuSans-49"/>
      </g>
     </g>
    </g>
    <g id="ytick_4">
     <g id="line2d_11">
      <g>
       <use style="stroke:#000000;stroke-width:0.8;" x="57.6" xlink:href="#m53d48a2b7c" y="174.528"/>
      </g>
     </g>
     <g id="text_11">
      <!-- 0 -->
      <g transform="translate(44.2375 178.327219)scale(0.1 -0.1)">
       <use xlink:href="#DejaVuSans-48"/>
      </g>
     </g>
    </g>
    <g id="ytick_5">
     <g id="line2d_12">
      <g>
       <use style="stroke:#000000;stroke-width:0.8;" x="57.6" xlink:href="#m53d48a2b7c" y="136.512"/>
      </g>
     </g>
     <g id="text_12">
      <!-- 1 -->
      <g transform="translate(44.2375 140.311219)scale(0.1 -0.1)">
       <use xlink:href="#DejaVuSans-49"/>
      </g>
     </g>
    </g>
    <g id="ytick_6">
     <g id="line2d_13">
      <g>
       <use style="stroke:#000000;stroke-width:0.8;" x="57.6" xlink:href="#m53d48a2b7c" y="98.496"/>
      </g>
     </g>
     <g id="text_13">
      <!-- 2 -->
      <g transform="translate(44.2375 102.295219)scale(0.1 -0.1)">
       <use xlink:href="#DejaVuSans-50"/>
      </g>
     </g>
    </g>
    <g id="ytick_7">
     <g id="line2d_14">
      <g>
       <use style="stroke:#000000;stroke-width:0.8;" x="57.6" xlink:href="#m53d48a2b7c" y="60.48"/>
      </g>
     </g>
     <g id="text_14">
      <!-- 3 -->
      <g transform="translate(44.2375 64.279219)scale(0.1 -0.1)">
       <use xlink:href="#DejaVuSans-51"/>
      </g>
     </g>
    </g>
   </g>
   <g id="LineCollection_1"/>
   <g id="LineCollection_2">
    <path clip-path="url(#p33a40f300e)" d="M 240.943044 94.156988 
L 237.963636 93.935331 
L 234.356364 93.935331 
L 230.749091 94.203698 
L 227.141818 94.738373 
L 224.906715 95.232 
L 223.534545 95.628861 
L 219.927273 96.993287 
L 217.919976 97.92 
L 216.32 99.020527 
L 214.306939 100.608 
L 212.712727 103.188405 
L 212.651777 103.296 
L 212.712727 103.761889 
L 213.075119 105.984 
L 216.32 108.578713 
L 216.477312 108.672 
L 219.927273 109.720917 
L 223.534545 110.496585 
L 227.141818 111.023977 
L 230.749091 111.351776 
L 230.935503 111.36 
L 234.356364 111.465468 
L 237.963636 111.465468 
L 241.384497 111.36 
L 241.570909 111.351776 
L 241.716295 111.338565 
" style="fill:none;stroke:#0000ff;stroke-width:1.5;"/>
   </g>
   <g id="LineCollection_3">
    <path clip-path="url(#p33a40f300e)" d="M 176.089707 119.424 
L 176.64 119.87392 
L 180.247273 121.932835 
L 180.724509 122.112 
L 183.854545 122.924485 
L 187.461818 123.454624 
L 191.069091 123.714824 
L 194.676364 123.804495 
L 198.283636 123.787578 
L 201.890909 123.706345 
L 205.498182 123.589352 
L 209.105455 123.456205 
L 212.712727 123.320532 
L 216.32 123.191879 
L 219.927273 123.076958 
L 223.534545 122.980468 
L 227.141818 122.905659 
L 230.749091 122.854695 
L 234.356364 122.828899 
L 237.963636 122.828899 
L 241.570909 122.854695 
L 245.178182 122.905659 
L 248.785455 122.980468 
L 252.392727 123.076958 
L 256 123.191879 
L 259.607273 123.320532 
L 263.214545 123.456205 
L 266.821818 123.589352 
L 270.429091 123.706345 
L 274.036364 123.787578 
L 277.643636 123.804495 
L 281.250909 123.714824 
L 284.858182 123.454624 
L 288.465455 122.924485 
L 291.595491 122.112 
L 292.072727 121.932835 
L 295.68 119.87392 
L 296.230293 119.424 
L 298.195145 116.736 
L 299.031476 114.048 
L 299.129734 111.36 
L 298.674913 108.672 
L 297.756687 105.984 
L 296.413664 103.296 
L 295.68 102.181177 
L 294.645893 100.608 
L 292.449449 97.92 
L 292.072727 97.532562 
L 289.781314 95.232 
L 288.465455 94.097232 
L 286.590938 92.544 
L 284.858182 91.282754 
L 282.783275 89.856 
L 281.250909 88.910142 
L 278.208844 87.168 
L 277.643636 86.871355 
L 274.036364 85.125801 
L 272.561814 84.48 
L 270.429091 83.60645 
L 266.821818 82.291383 
L 265.270606 81.792 
L 263.214545 81.159525 
L 259.607273 80.198149 
L 256 79.389616 
L 254.462137 79.104 
L 252.392727 78.727588 
L 248.785455 78.206131 
L 245.178182 77.819428 
L 241.570909 77.563685 
L 239.353581 77.48546 
" style="fill:none;stroke:#0060ff;stroke-width:1.5;"/>
    <path clip-path="url(#p33a40f300e)" d="M 197.319433 85.592378 
L 194.676364 86.871355 
L 194.111156 87.168 
L 191.069091 88.910142 
L 189.536725 89.856 
L 187.461818 91.282754 
L 185.729062 92.544 
L 183.854545 94.097232 
L 182.538686 95.232 
L 180.247273 97.532562 
L 179.870551 97.92 
L 177.674107 100.608 
L 176.64 102.181177 
L 175.906336 103.296 
L 174.563313 105.984 
L 173.645087 108.672 
L 173.190266 111.36 
L 173.288524 114.048 
L 174.124855 116.736 
L 176.089707 119.424 
" style="fill:none;stroke:#0060ff;stroke-width:1.5;"/>
   </g>
   <g id="LineCollection_4">
    <path clip-path="url(#p33a40f300e)" d="M 121.270104 158.347496 
L 119.996709 162.432 
L 118.923636 167.08753 
L 118.782505 167.808 
L 118.411593 170.496 
L 118.217604 173.184 
L 118.218437 175.872 
L 118.434287 178.56 
L 118.923636 181.377087 
L 119.62293 183.936 
L 120.672576 186.624 
L 122.530909 189.959457 
L 124.036173 192 
L 126.649663 194.688 
L 130.471022 197.376 
L 133.352727 198.753227 
L 136.96 199.91027 
L 140.567273 200.485434 
L 144.174545 200.583429 
L 148.601453 200.064 
L 151.389091 199.429087 
L 154.996364 198.142762 
L 158.603636 196.272875 
L 162.210909 193.606346 
L 163.794342 192 
L 165.966987 189.312 
L 167.363972 186.624 
L 168.379148 183.936 
L 169.049139 181.248 
L 169.428498 178.56 
L 169.558623 175.872 
L 169.494786 170.496 
L 169.374627 165.12 
L 169.449596 162.432 
L 169.676428 159.744 
L 170.134284 157.056 
L 170.914628 154.368 
L 172.148115 151.68 
L 173.873187 148.992 
L 176.64 145.963658 
L 179.355266 143.616 
L 183.50346 140.928 
L 187.461818 138.912184 
L 188.91424 138.24 
L 191.069091 137.373897 
L 196.257984 135.552 
L 201.890909 133.983068 
L 209.105455 132.445078 
L 216.32 131.333374 
L 223.534545 130.604625 
L 230.749091 130.213165 
L 237.963636 130.133998 
L 245.178182 130.368638 
L 252.392727 130.92459 
L 259.607273 131.837419 
L 266.821818 133.1583 
L 270.429091 133.983068 
L 276.062016 135.552 
L 277.643636 136.069702 
L 283.40576 138.24 
L 284.858182 138.912184 
L 288.81654 140.928 
L 292.964734 143.616 
L 296.072903 146.304 
L 298.446813 148.992 
L 300.171885 151.68 
L 301.405372 154.368 
L 302.185716 157.056 
L 302.643572 159.744 
L 302.894545 163.388672 
L 302.945373 165.12 
L 302.761377 175.872 
L 302.894545 178.585996 
L 303.270861 181.248 
L 303.940852 183.936 
L 304.956028 186.624 
L 306.501818 189.535438 
L 308.525658 192 
L 310.109091 193.606346 
L 311.462496 194.688 
L 313.716364 196.272875 
L 317.323636 198.142762 
L 320.930909 199.429087 
L 324.538182 200.243877 
L 328.145455 200.583429 
L 331.752727 200.485434 
L 335.36 199.91027 
L 338.967273 198.753227 
L 342.574545 196.957543 
L 346.181818 194.222595 
L 348.283827 192 
L 350.224501 189.312 
L 351.647424 186.624 
L 352.69707 183.936 
L 353.430563 181.248 
L 353.885713 178.56 
L 354.101563 175.872 
L 354.102396 173.184 
L 353.908407 170.496 
L 353.396364 167.08753 
L 353.002688 165.12 
L 352.323291 162.432 
L 350.614822 157.056 
L 348.560705 151.68 
L 342.574545 136.642555 
L 340.266395 130.176 
L 337.407291 122.112 
L 335.270759 116.736 
L 332.820782 111.36 
L 329.89185 105.984 
L 326.365079 100.608 
L 324.320007 97.92 
L 320.930909 93.940204 
L 319.661033 92.544 
L 316.956702 89.856 
L 313.716364 86.938489 
L 310.109091 84.01495 
L 306.501818 81.387735 
L 302.894545 79.017188 
L 298.491258 76.416 
L 293.325469 73.728 
L 292.072727 73.11893 
L 287.347494 71.04 
L 284.858182 70.019485 
L 277.643636 67.474758 
L 271.297037 65.664 
L 266.821818 64.548345 
L 263.214545 63.793876 
L 256 62.589957 
L 248.785455 61.748934 
L 241.570909 61.295285 
L 234.356364 61.205693 
L 227.141818 61.475602 
L 219.927273 62.118787 
L 212.712727 63.153794 
L 209.105455 63.793876 
L 205.498182 64.548345 
L 198.283636 66.389492 
L 192.087296 68.352 
L 191.069091 68.693103 
L 184.972506 71.04 
L 183.854545 71.500764 
L 178.994531 73.728 
L 173.828742 76.416 
L 173.032727 76.86094 
L 169.28704 79.104 
L 165.234239 81.792 
L 161.601853 84.48 
L 158.330876 87.168 
L 154.996364 90.218183 
L 151.389091 93.940204 
L 150.211571 95.232 
L 147.781818 98.211199 
L 145.954921 100.608 
L 142.42815 105.984 
L 139.499218 111.36 
L 137.049241 116.736 
L 136.551149 117.950016 
L 136.551149 117.950016 
" style="fill:none;stroke:#00d4ff;stroke-width:1.5;"/>
   </g>
   <g id="LineCollection_5">
    <path clip-path="url(#p33a40f300e)" d="M 57.6 259.765825 
L 58.872173 259.2 
L 61.207273 258.519844 
L 64.814545 257.252573 
L 66.524894 256.512 
L 68.421818 255.962225 
L 72.029091 254.683726 
L 74.037037 253.824 
L 75.636364 253.355597 
L 79.243636 252.056673 
L 81.385687 251.136 
L 82.850909 250.695807 
L 86.458182 249.366951 
L 87.171075 249.054988 
" style="fill:none;stroke:#4dffaa;stroke-width:1.5;"/>
    <path clip-path="url(#p33a40f300e)" d="M 121.603456 235.048475 
L 122.530909 234.695016 
L 129.745455 231.44966 
L 140.567273 226.221291 
L 147.781818 222.452793 
L 149.27536 221.568 
L 151.389091 220.452726 
L 158.603636 216.135775 
L 162.596286 213.504 
L 166.3671 210.816 
L 169.807431 208.128 
L 173.032727 205.310179 
L 176.64 201.566848 
L 177.882498 200.064 
L 180.247273 196.763649 
L 181.437255 194.688 
L 182.69142 192 
L 183.854545 188.550595 
L 184.313574 186.624 
L 184.73448 183.936 
L 184.975327 181.248 
L 185.113347 175.872 
L 185.144617 170.496 
L 185.254363 167.808 
L 185.500192 165.12 
L 185.941314 162.432 
L 186.644598 159.744 
L 187.676871 157.056 
L 189.07677 154.368 
L 191.069091 151.623256 
L 193.556208 148.992 
L 196.939279 146.304 
L 198.283636 145.443475 
L 201.890909 143.408331 
L 205.498182 141.800732 
L 209.105455 140.479236 
L 212.712727 139.410662 
L 217.811517 138.24 
L 219.927273 137.841714 
L 223.534545 137.305679 
L 227.141818 136.913135 
L 230.749091 136.655819 
L 234.356364 136.528449 
L 237.963636 136.528449 
L 241.570909 136.655819 
L 245.178182 136.913135 
L 248.785455 137.305679 
L 254.508483 138.24 
L 256 138.536832 
L 259.607273 139.410662 
L 264.526222 140.928 
L 266.821818 141.800732 
L 270.850229 143.616 
L 275.380721 146.304 
L 278.763792 148.992 
L 281.302303 151.68 
L 283.24323 154.368 
L 284.858182 157.621084 
L 285.675402 159.744 
L 286.378686 162.432 
L 286.819808 165.12 
L 287.065637 167.808 
L 287.204421 173.184 
L 287.235655 178.56 
L 287.344673 181.248 
L 287.58552 183.936 
L 288.006426 186.624 
L 288.66352 189.312 
L 289.62858 192 
L 290.882745 194.688 
L 292.459474 197.376 
L 295.68 201.566848 
L 296.764273 202.752 
L 299.430083 205.44 
L 302.894545 208.455762 
L 306.501818 211.245453 
L 310.109091 213.785264 
L 313.814437 216.192 
L 320.930909 220.452726 
L 335.36 228.019647 
L 349.789091 234.695016 
L 350.630042 235.008 
L 353.396364 236.302386 
L 375.04 245.190691 
L 376.768285 245.76 
L 378.647273 246.608 
L 389.469091 250.695807 
L 390.934313 251.136 
L 393.076364 252.056673 
L 403.898182 255.962225 
L 405.795106 256.512 
L 407.505455 257.252573 
L 411.112727 258.519844 
L 413.447827 259.2 
L 414.72 259.765825 
L 414.72 259.765825 
" style="fill:none;stroke:#4dffaa;stroke-width:1.5;"/>
   </g>
   <g id="LineCollection_6">
    <path clip-path="url(#p33a40f300e)" d="M 190.517803 202.096542 
L 191.829169 200.064 
L 193.293616 197.376 
L 194.676364 194.145331 
L 195.397325 192 
L 196.047199 189.312 
L 196.469361 186.624 
L 196.703442 183.936 
L 196.80408 178.56 
L 196.782347 173.184 
L 196.869821 170.496 
L 197.102172 167.808 
L 197.542217 165.12 
L 198.283636 162.366788 
L 199.328679 159.744 
L 200.846436 157.056 
L 202.949278 154.368 
L 205.815114 151.68 
L 209.8072 148.992 
L 212.712727 147.527922 
L 216.32 146.057388 
L 219.927273 144.960733 
L 223.534545 144.114957 
L 227.141818 143.504458 
L 230.749091 143.122685 
L 234.356364 142.934 
L 237.963636 142.934 
L 241.570909 143.122685 
L 245.881532 143.616 
L 248.785455 144.114957 
L 252.392727 144.960733 
L 256.674157 146.304 
L 259.607273 147.527922 
L 263.214545 149.41047 
L 266.821818 151.949795 
L 269.370722 154.368 
L 271.473564 157.056 
L 272.991321 159.744 
L 274.061448 162.432 
L 274.777783 165.12 
L 275.217828 167.808 
L 275.450179 170.496 
L 275.540086 175.872 
L 275.522706 181.248 
L 275.616558 183.936 
L 275.850639 186.624 
L 276.272801 189.312 
L 276.922675 192 
L 277.831748 194.688 
L 279.026384 197.376 
L 281.250909 201.261677 
L 282.235017 202.752 
L 284.858182 206.241239 
L 288.799119 210.816 
L 296.478576 218.88 
L 301.483071 224.256 
L 305.864591 229.632 
L 309.32429 235.008 
L 310.617043 237.696 
L 311.628428 240.384 
L 312.297398 243.072 
L 312.634546 245.76 
L 312.643418 248.448 
L 312.320182 251.136 
L 311.653152 253.824 
L 310.622095 256.512 
L 309.259577 259.2 
L 307.523714 261.888 
L 305.395975 264.576 
L 302.832487 267.264 
L 299.287273 270.396682 
L 295.68 273.084742 
L 292.072727 275.397168 
L 287.321657 278.016 
L 284.858182 279.233461 
L 281.250909 280.804544 
L 277.643636 282.235121 
L 270.429091 284.595417 
L 264.545479 286.08 
L 263.214545 286.399122 
L 259.607273 287.144728 
L 256 287.760327 
L 248.785455 288.644728 
L 241.570909 289.153147 
L 234.356364 289.255647 
L 227.141818 288.946394 
L 219.927273 288.257318 
L 216.32 287.760327 
L 212.712727 287.144728 
L 205.498182 285.557915 
L 201.890909 284.595417 
L 194.676364 282.235121 
L 190.836299 280.704 
L 187.461818 279.233461 
L 183.854545 277.434462 
L 180.133169 275.328 
L 176.000966 272.64 
L 172.480501 269.952 
L 169.425455 267.201337 
L 166.924025 264.576 
L 164.796286 261.888 
L 163.060423 259.2 
L 161.697905 256.512 
L 160.666848 253.824 
L 159.999818 251.136 
L 159.676582 248.448 
L 159.685454 245.76 
L 160.022602 243.072 
L 160.691572 240.384 
L 161.702957 237.696 
L 162.99571 235.008 
L 164.579618 232.32 
L 166.130653 230.125026 
L 166.130653 230.125026 
" style="fill:none;stroke:#aaff4d;stroke-width:1.5;"/>
   </g>
   <g id="LineCollection_7">
    <path clip-path="url(#p33a40f300e)" d="M 183.99396 254.543703 
L 183.455663 253.824 
L 181.860831 251.136 
L 180.716294 248.448 
L 179.975307 245.76 
L 179.612228 243.072 
L 179.618571 240.384 
L 179.976933 237.696 
L 180.657137 235.008 
L 181.637456 232.32 
L 182.913933 229.632 
L 184.449529 226.944 
L 186.197529 224.256 
L 190.217927 218.88 
L 198.919845 208.128 
L 201.890909 203.991444 
L 202.736564 202.752 
L 204.33231 200.064 
L 205.655742 197.376 
L 206.728557 194.688 
L 207.503164 192 
L 208.004513 189.312 
L 208.27241 186.624 
L 208.358428 183.936 
L 208.153555 173.184 
L 208.311616 170.496 
L 208.699528 167.808 
L 209.417479 165.12 
L 210.589357 162.432 
L 212.712727 159.252134 
L 214.863801 157.056 
L 216.32 155.909303 
L 218.683967 154.368 
L 219.927273 153.70982 
L 223.534545 152.201952 
L 227.141818 151.176887 
L 230.749091 150.549832 
L 234.356364 150.240479 
L 237.963636 150.240479 
L 241.570909 150.549832 
L 245.178182 151.176887 
L 248.785455 152.201952 
L 252.392727 153.70982 
L 253.636033 154.368 
L 256 155.909303 
L 257.456199 157.056 
L 260.025347 159.744 
L 261.730643 162.432 
L 262.902521 165.12 
L 263.620472 167.808 
L 264.008384 170.496 
L 264.166445 173.184 
L 264.089587 178.56 
L 263.961572 183.936 
L 264.04759 186.624 
L 264.315487 189.312 
L 264.816836 192 
L 265.591443 194.688 
L 266.821818 197.687469 
L 267.98769 200.064 
L 270.429091 203.991444 
L 271.403698 205.44 
L 275.524114 210.816 
L 284.178621 221.568 
L 287.870471 226.944 
L 289.406067 229.632 
L 290.682544 232.32 
L 291.662863 235.008 
L 292.343067 237.696 
L 292.701429 240.384 
L 292.707772 243.072 
L 292.344693 245.76 
L 291.603706 248.448 
L 290.459169 251.136 
L 288.465455 254.364242 
L 286.796971 256.512 
L 284.183353 259.2 
L 280.942371 261.888 
L 276.922512 264.576 
L 274.036364 266.197291 
L 270.429091 267.93544 
L 265.271614 269.952 
L 263.214545 270.657563 
L 259.607273 271.710135 
L 255.669915 272.64 
L 252.392727 273.294518 
L 248.785455 273.856199 
L 245.178182 274.268214 
L 241.570909 274.53857 
L 237.963636 274.672468 
L 234.356364 274.672468 
L 230.749091 274.53857 
L 227.141818 274.268214 
L 223.534545 273.856199 
L 219.927273 273.294518 
L 215.750778 272.438233 
L 215.750778 272.438233 
" style="fill:none;stroke:#ffe600;stroke-width:1.5;"/>
   </g>
   <g id="LineCollection_8">
    <path clip-path="url(#p33a40f300e)" d="M 223.79029 189.340706 
L 223.796768 189.312 
L 223.950318 186.624 
L 223.7701 183.936 
L 223.534545 182.237567 
L 223.429783 181.248 
L 223.114682 178.56 
L 222.895733 175.872 
L 222.90123 173.184 
L 223.26334 170.496 
L 223.534545 169.63856 
L 224.29282 167.808 
L 226.234869 165.12 
L 227.141818 164.289513 
L 230.199298 162.432 
L 230.749091 162.189657 
L 234.356364 161.394967 
L 237.963636 161.394967 
L 241.570909 162.189657 
L 242.120702 162.432 
L 245.178182 164.289513 
L 246.085131 165.12 
L 248.02718 167.808 
L 248.785455 169.63856 
L 249.05666 170.496 
L 249.41877 173.184 
L 249.424267 175.872 
L 249.205318 178.56 
L 248.890217 181.248 
L 248.785455 182.237567 
L 248.5499 183.936 
L 248.369682 186.624 
L 248.523232 189.312 
L 248.785455 190.47393 
L 249.056021 192 
L 249.96121 194.688 
L 251.351889 197.376 
L 252.392727 198.859801 
L 253.106333 200.064 
L 255.100283 202.752 
L 256 203.779513 
L 257.287013 205.44 
L 259.607273 208.090804 
L 259.637102 208.128 
L 261.952614 210.816 
L 263.214545 212.218947 
L 264.300829 213.504 
L 266.59061 216.192 
L 266.821818 216.471801 
L 268.731906 218.88 
L 270.429091 221.144538 
L 270.739471 221.568 
L 272.518074 224.256 
L 274.036364 226.879549 
L 274.073481 226.944 
L 275.331452 229.632 
L 276.284783 232.32 
L 276.899079 235.008 
L 277.141624 237.696 
L 276.979399 240.384 
L 276.377011 243.072 
L 275.29457 245.76 
L 274.036364 247.885455 
L 273.674006 248.448 
L 271.408749 251.136 
L 270.429091 252.070521 
L 268.36791 253.824 
L 266.821818 254.937209 
L 264.306081 256.512 
L 263.214545 257.116638 
L 259.607273 258.824277 
L 258.658793 259.2 
L 256 260.174124 
L 252.392727 261.240455 
L 249.572644 261.888 
L 248.785455 262.061257 
L 245.178182 262.653549 
L 241.570909 263.041216 
L 237.963636 263.232923 
L 234.356364 263.232923 
L 230.749091 263.041216 
L 227.141818 262.653549 
L 223.534545 262.061257 
L 222.747356 261.888 
L 219.927273 261.240455 
L 216.32 260.174124 
L 213.661207 259.2 
L 212.712727 258.824277 
L 209.105455 257.116638 
L 208.013919 256.512 
L 205.498182 254.937209 
L 203.95209 253.824 
L 201.890909 252.070521 
L 200.911251 251.136 
L 198.645994 248.448 
L 198.283636 247.885455 
L 197.02543 245.76 
L 195.942989 243.072 
L 195.340601 240.384 
L 195.178376 237.696 
L 195.420921 235.008 
L 196.035217 232.32 
L 196.988548 229.632 
L 198.246519 226.944 
L 198.283636 226.879549 
L 199.801926 224.256 
L 201.580529 221.568 
L 201.890909 221.144538 
L 203.021807 219.635592 
" style="fill:none;stroke:#ff7a00;stroke-width:1.5;"/>
   </g>
   <g id="LineCollection_9">
    <path clip-path="url(#p33a40f300e)" d="M 257.7605 225.425603 
L 258.727883 226.944 
L 259.607273 228.769979 
L 259.988346 229.632 
L 260.72405 232.32 
L 260.96366 235.008 
L 260.645365 237.696 
L 259.705577 240.384 
L 259.607273 240.553134 
L 257.890801 243.072 
L 256 244.990946 
L 255.074796 245.76 
L 252.392727 247.496277 
L 250.500047 248.448 
L 248.785455 249.169537 
L 245.178182 250.284056 
L 241.570909 251.006424 
L 240.261919 251.136 
L 237.963636 251.340122 
L 234.356364 251.340122 
L 232.058081 251.136 
L 230.749091 251.006424 
L 227.141818 250.284056 
L 223.534545 249.169537 
L 221.819953 248.448 
L 219.927273 247.496277 
L 217.245204 245.76 
L 216.32 244.990946 
L 214.429199 243.072 
L 212.712727 240.553134 
L 212.614423 240.384 
L 211.674635 237.696 
L 211.35634 235.008 
L 211.59595 232.32 
L 212.331654 229.632 
L 212.712727 228.769979 
L 213.592117 226.944 
L 215.304664 224.256 
L 216.32 222.93152 
L 217.502824 221.568 
L 219.927273 219.094495 
L 220.176993 218.88 
L 223.534545 216.215017 
L 223.571563 216.192 
L 226.045207 214.715004 
" style="fill:none;stroke:#ff1300;stroke-width:1.5;"/>
   </g>
   <g id="LineCollection_10"/>
   <g id="patch_3">
    <path d="M 57.6 307.584 
L 57.6 41.472 
" style="fill:none;stroke:#000000;stroke-linecap:square;stroke-linejoin:miter;stroke-width:0.8;"/>
   </g>
   <g id="patch_4">
    <path d="M 414.72 307.584 
L 414.72 41.472 
" style="fill:none;stroke:#000000;stroke-linecap:square;stroke-linejoin:miter;stroke-width:0.8;"/>
   </g>
   <g id="patch_5">
    <path d="M 57.6 307.584 
L 414.72 307.584 
" style="fill:none;stroke:#000000;stroke-linecap:square;stroke-linejoin:miter;stroke-width:0.8;"/>
   </g>
   <g id="patch_6">
    <path d="M 57.6 41.472 
L 414.72 41.472 
" style="fill:none;stroke:#000000;stroke-linecap:square;stroke-linejoin:miter;stroke-width:0.8;"/>
   </g>
   <g id="text_15">
    <g clip-path="url(#p33a40f300e)">
     <!-- -0.900 -->
     <defs>
      <path d="M 4.890625 31.390625 
L 31.203125 31.390625 
L 31.203125 23.390625 
L 4.890625 23.390625 
z
" id="DejaVuSans-45"/>
      <path d="M 10.6875 12.40625 
L 21 12.40625 
L 21 0 
L 10.6875 0 
z
" id="DejaVuSans-46"/>
      <path d="M 10.984375 1.515625 
L 10.984375 10.5 
Q 14.703125 8.734375 18.5 7.8125 
Q 22.3125 6.890625 25.984375 6.890625 
Q 35.75 6.890625 40.890625 13.453125 
Q 46.046875 20.015625 46.78125 33.40625 
Q 43.953125 29.203125 39.59375 26.953125 
Q 35.25 24.703125 29.984375 24.703125 
Q 19.046875 24.703125 12.671875 31.3125 
Q 6.296875 37.9375 6.296875 49.421875 
Q 6.296875 60.640625 12.9375 67.421875 
Q 19.578125 74.21875 30.609375 74.21875 
Q 43.265625 74.21875 49.921875 64.515625 
Q 56.59375 54.828125 56.59375 36.375 
Q 56.59375 19.140625 48.40625 8.859375 
Q 40.234375 -1.421875 26.421875 -1.421875 
Q 22.703125 -1.421875 18.890625 -0.6875 
Q 15.09375 0.046875 10.984375 1.515625 
z
M 30.609375 32.421875 
Q 37.25 32.421875 41.125 36.953125 
Q 45.015625 41.5 45.015625 49.421875 
Q 45.015625 57.28125 41.125 61.84375 
Q 37.25 66.40625 30.609375 66.40625 
Q 23.96875 66.40625 20.09375 61.84375 
Q 16.21875 57.28125 16.21875 49.421875 
Q 16.21875 41.5 20.09375 36.953125 
Q 23.96875 32.421875 30.609375 32.421875 
z
" id="DejaVuSans-57"/>
     </defs>
     <g style="fill:#0000ff;" transform="translate(256.072545 87.222542)rotate(-272.768734)scale(0.1 -0.1)">
      <use xlink:href="#DejaVuSans-45"/>
      <use x="36.083984" xlink:href="#DejaVuSans-48"/>
      <use x="99.707031" xlink:href="#DejaVuSans-46"/>
      <use x="131.494141" xlink:href="#DejaVuSans-57"/>
      <use x="195.117188" xlink:href="#DejaVuSans-48"/>
      <use x="258.740234" xlink:href="#DejaVuSans-48"/>
     </g>
    </g>
   </g>
   <g id="text_16">
    <g clip-path="url(#p33a40f300e)">
     <!-- -0.600 -->
     <defs>
      <path d="M 33.015625 40.375 
Q 26.375 40.375 22.484375 35.828125 
Q 18.609375 31.296875 18.609375 23.390625 
Q 18.609375 15.53125 22.484375 10.953125 
Q 26.375 6.390625 33.015625 6.390625 
Q 39.65625 6.390625 43.53125 10.953125 
Q 47.40625 15.53125 47.40625 23.390625 
Q 47.40625 31.296875 43.53125 35.828125 
Q 39.65625 40.375 33.015625 40.375 
z
M 52.59375 71.296875 
L 52.59375 62.3125 
Q 48.875 64.0625 45.09375 64.984375 
Q 41.3125 65.921875 37.59375 65.921875 
Q 27.828125 65.921875 22.671875 59.328125 
Q 17.53125 52.734375 16.796875 39.40625 
Q 19.671875 43.65625 24.015625 45.921875 
Q 28.375 48.1875 33.59375 48.1875 
Q 44.578125 48.1875 50.953125 41.515625 
Q 57.328125 34.859375 57.328125 23.390625 
Q 57.328125 12.15625 50.6875 5.359375 
Q 44.046875 -1.421875 33.015625 -1.421875 
Q 20.359375 -1.421875 13.671875 8.265625 
Q 6.984375 17.96875 6.984375 36.375 
Q 6.984375 53.65625 15.1875 63.9375 
Q 23.390625 74.21875 37.203125 74.21875 
Q 40.921875 74.21875 44.703125 73.484375 
Q 48.484375 72.75 52.59375 71.296875 
z
" id="DejaVuSans-54"/>
     </defs>
     <g style="fill:#0060ff;" transform="translate(202.540996 84.830838)rotate(-10.785535)scale(0.1 -0.1)">
      <use xlink:href="#DejaVuSans-45"/>
      <use x="36.083984" xlink:href="#DejaVuSans-48"/>
      <use x="99.707031" xlink:href="#DejaVuSans-46"/>
      <use x="131.494141" xlink:href="#DejaVuSans-54"/>
      <use x="195.117188" xlink:href="#DejaVuSans-48"/>
      <use x="258.740234" xlink:href="#DejaVuSans-48"/>
     </g>
    </g>
   </g>
   <g id="text_17">
    <g clip-path="url(#p33a40f300e)">
     <!-- -0.300 -->
     <g style="fill:#00d4ff;" transform="translate(126.021582 154.29024)rotate(-69.252523)scale(0.1 -0.1)">
      <use xlink:href="#DejaVuSans-45"/>
      <use x="36.083984" xlink:href="#DejaVuSans-48"/>
      <use x="99.707031" xlink:href="#DejaVuSans-46"/>
      <use x="131.494141" xlink:href="#DejaVuSans-51"/>
      <use x="195.117188" xlink:href="#DejaVuSans-48"/>
      <use x="258.740234" xlink:href="#DejaVuSans-48"/>
     </g>
    </g>
   </g>
   <g id="text_18">
    <g clip-path="url(#p33a40f300e)">
     <!-- 0.000 -->
     <g style="fill:#4dffaa;" transform="translate(92.261996 250.255546)rotate(-22.040037)scale(0.1 -0.1)">
      <use xlink:href="#DejaVuSans-48"/>
      <use x="63.623047" xlink:href="#DejaVuSans-46"/>
      <use x="95.410156" xlink:href="#DejaVuSans-48"/>
      <use x="159.033203" xlink:href="#DejaVuSans-48"/>
      <use x="222.65625" xlink:href="#DejaVuSans-48"/>
     </g>
    </g>
   </g>
   <g id="text_19">
    <g clip-path="url(#p33a40f300e)">
     <!-- 0.300 -->
     <g style="fill:#aaff4d;" transform="translate(170.86891 228.660162)rotate(-47.881146)scale(0.1 -0.1)">
      <use xlink:href="#DejaVuSans-48"/>
      <use x="63.623047" xlink:href="#DejaVuSans-46"/>
      <use x="95.410156" xlink:href="#DejaVuSans-51"/>
      <use x="159.033203" xlink:href="#DejaVuSans-48"/>
      <use x="222.65625" xlink:href="#DejaVuSans-48"/>
     </g>
    </g>
   </g>
   <g id="text_20">
    <g clip-path="url(#p33a40f300e)">
     <!-- 0.600 -->
     <g style="fill:#ffe600;" transform="translate(184.40921 261.724391)rotate(-331.22021)scale(0.1 -0.1)">
      <use xlink:href="#DejaVuSans-48"/>
      <use x="63.623047" xlink:href="#DejaVuSans-46"/>
      <use x="95.410156" xlink:href="#DejaVuSans-54"/>
      <use x="159.033203" xlink:href="#DejaVuSans-48"/>
      <use x="222.65625" xlink:href="#DejaVuSans-48"/>
     </g>
    </g>
   </g>
   <g id="text_21">
    <g clip-path="url(#p33a40f300e)">
     <!-- 0.900 -->
     <g style="fill:#ff7a00;" transform="translate(208.731652 218.58533)rotate(-53.477566)scale(0.1 -0.1)">
      <use xlink:href="#DejaVuSans-48"/>
      <use x="63.623047" xlink:href="#DejaVuSans-46"/>
      <use x="95.410156" xlink:href="#DejaVuSans-57"/>
      <use x="159.033203" xlink:href="#DejaVuSans-48"/>
      <use x="222.65625" xlink:href="#DejaVuSans-48"/>
     </g>
    </g>
   </g>
   <g id="text_22">
    <g clip-path="url(#p33a40f300e)">
     <!-- 1.200 -->
     <g style="fill:#ff1300;" transform="translate(229.417242 211.320859)rotate(-340.475711)scale(0.1 -0.1)">
      <use xlink:href="#DejaVuSans-49"/>
      <use x="63.623047" xlink:href="#DejaVuSans-46"/>
      <use x="95.410156" xlink:href="#DejaVuSans-50"/>
      <use x="159.033203" xlink:href="#DejaVuSans-48"/>
      <use x="222.65625" xlink:href="#DejaVuSans-48"/>
     </g>
    </g>
   </g>
  </g>
 </g>
 <defs>
  <clipPath id="p33a40f300e">
   <rect height="266.112" width="357.12" x="57.6" y="41.472"/>
  </clipPath>
 </defs>
</svg>
