<?xml version="1.0" encoding="utf-8" standalone="no"?>
<!DOCTYPE svg PUBLIC "-//W3C//DTD SVG 1.1//EN"
  "http://www.w3.org/Graphics/SVG/1.1/DTD/svg11.dtd">
<!-- Created with matplotlib (http://matplotlib.org/) -->
<svg height="432pt" version="1.1" viewBox="0 0 576 432" width="576pt" xmlns="http://www.w3.org/2000/svg" xmlns:xlink="http://www.w3.org/1999/xlink">
 <defs>
  <style type="text/css">
*{stroke-linecap:butt;stroke-linejoin:round;}
  </style>
 </defs>
 <g id="figure_1">
  <g id="patch_1">
   <path d="
M0 432
L576 432
L576 0
L0 0
z
" style="fill:#ffffff;"/>
  </g>
  <g id="axes_1">
   <g id="patch_2">
    <path d="
M72 388.8
L274.909 388.8
L274.909 43.2
L72 43.2
z
" style="fill:#ffffff;"/>
   </g>
   <g id="line2d_1">
    <path clip-path="url(#p346f55e68c)" d="
M72 216.008
L74.0291 216.015
L76.0582 216.028
L78.0873 216.048
L80.1164 216.079
L82.1455 216.126
L84.1745 216.195
L86.2036 216.296
L88.2327 216.439
L90.2618 216.641
L92.2909 216.919
L94.32 217.3
L96.3491 217.811
L98.3782 218.491
L100.407 219.381
L102.436 220.533
L104.465 222.004
L106.495 223.861
L108.524 226.173
L110.553 229.019
L112.582 232.476
L114.611 236.624
L116.64 241.535
L118.669 247.275
L120.698 253.893
L122.727 261.418
L124.756 269.852
L126.785 279.163
L128.815 289.277
L130.844 300.077
L132.873 311.397
L134.902 323.02
L136.931 334.678
L138.96 346.058
L140.989 356.807
L143.018 366.539
L145.047 374.852
L147.076 381.343
L149.105 385.623
L151.135 387.336
L153.164 386.181
L155.193 381.929
L157.222 374.437
L159.251 363.666
L161.28 349.684
L163.309 332.677
L165.338 312.94
L167.367 290.875
L169.396 266.976
L171.425 241.811
L173.455 216
L175.484 190.189
L177.513 165.024
L179.542 141.125
L181.571 119.06
L183.6 99.3232
L185.629 82.3158
L187.658 68.3344
L189.687 57.563
L191.716 50.0713
L193.745 45.8189
L195.775 44.6641
L197.804 46.3772
L199.833 50.6566
L201.862 57.1476
L203.891 65.4613
L205.92 75.1933
L207.949 85.9416
L209.978 97.3219
L212.007 108.98
L214.036 120.603
L216.065 131.923
L218.095 142.723
L220.124 152.837
L222.153 162.148
L224.182 170.582
L226.211 178.107
L228.24 184.725
L230.269 190.465
L232.298 195.376
L234.327 199.524
L236.356 202.981
L238.385 205.827
L240.415 208.139
L242.444 209.996
L244.473 211.467
L246.502 212.619
L248.531 213.509
L250.56 214.189
L252.589 214.7
L254.618 215.081
L256.647 215.359
L258.676 215.561
L260.705 215.704
L262.735 215.805
L264.764 215.874
L266.793 215.921
L268.822 215.952
L270.851 215.972
L272.88 215.985
L274.909 215.992" style="fill:none;stroke:#0000ff;stroke-linecap:square;"/>
   </g>
   <g id="matplotlib.axis_1">
    <g id="xtick_1">
     <g id="line2d_2">
      <defs>
       <path d="
M0 0
L0 -4" id="m93b0483c22" style="stroke:#000000;stroke-width:0.5;"/>
      </defs>
      <g>
       <use style="stroke:#000000;stroke-width:0.5;" x="72.0" xlink:href="#m93b0483c22" y="388.8"/>
      </g>
     </g>
     <g id="line2d_3">
      <defs>
       <path d="
M0 0
L0 4" id="m741efc42ff" style="stroke:#000000;stroke-width:0.5;"/>
      </defs>
      <g>
       <use style="stroke:#000000;stroke-width:0.5;" x="72.0" xlink:href="#m741efc42ff" y="43.2"/>
      </g>
     </g>
     <g id="text_1">
      <!-- −3 -->
      <defs>
       <path d="
M10.5938 35.5
L73.1875 35.5
L73.1875 27.2031
L10.5938 27.2031
z
" id="BitstreamVeraSans-Roman-2212"/>
       <path d="
M40.5781 39.3125
Q47.6562 37.7969 51.625 33
Q55.6094 28.2188 55.6094 21.1875
Q55.6094 10.4062 48.1875 4.48438
Q40.7656 -1.42188 27.0938 -1.42188
Q22.5156 -1.42188 17.6562 -0.515625
Q12.7969 0.390625 7.625 2.20312
L7.625 11.7188
Q11.7188 9.32812 16.5938 8.10938
Q21.4844 6.89062 26.8125 6.89062
Q36.0781 6.89062 40.9375 10.5469
Q45.7969 14.2031 45.7969 21.1875
Q45.7969 27.6406 41.2812 31.2656
Q36.7656 34.9062 28.7188 34.9062
L20.2188 34.9062
L20.2188 43.0156
L29.1094 43.0156
Q36.375 43.0156 40.2344 45.9219
Q44.0938 48.8281 44.0938 54.2969
Q44.0938 59.9062 40.1094 62.9062
Q36.1406 65.9219 28.7188 65.9219
Q24.6562 65.9219 20.0156 65.0312
Q15.375 64.1562 9.8125 62.3125
L9.8125 71.0938
Q15.4375 72.6562 20.3438 73.4375
Q25.25 74.2188 29.5938 74.2188
Q40.8281 74.2188 47.3594 69.1094
Q53.9062 64.0156 53.9062 55.3281
Q53.9062 49.2656 50.4375 45.0938
Q46.9688 40.9219 40.5781 39.3125" id="BitstreamVeraSans-Roman-33"/>
      </defs>
      <g transform="translate(64.27125 401.918125)scale(0.12 -0.12)">
       <use xlink:href="#BitstreamVeraSans-Roman-2212"/>
       <use x="83.7890625" xlink:href="#BitstreamVeraSans-Roman-33"/>
      </g>
     </g>
    </g>
    <g id="xtick_2">
     <g id="line2d_4">
      <g>
       <use style="stroke:#000000;stroke-width:0.5;" x="105.818181818" xlink:href="#m93b0483c22" y="388.8"/>
      </g>
     </g>
     <g id="line2d_5">
      <g>
       <use style="stroke:#000000;stroke-width:0.5;" x="105.818181818" xlink:href="#m741efc42ff" y="43.2"/>
      </g>
     </g>
     <g id="text_2">
      <!-- −2 -->
      <defs>
       <path d="
M19.1875 8.29688
L53.6094 8.29688
L53.6094 0
L7.32812 0
L7.32812 8.29688
Q12.9375 14.1094 22.625 23.8906
Q32.3281 33.6875 34.8125 36.5312
Q39.5469 41.8438 41.4219 45.5312
Q43.3125 49.2188 43.3125 52.7812
Q43.3125 58.5938 39.2344 62.25
Q35.1562 65.9219 28.6094 65.9219
Q23.9688 65.9219 18.8125 64.3125
Q13.6719 62.7031 7.8125 59.4219
L7.8125 69.3906
Q13.7656 71.7812 18.9375 73
Q24.125 74.2188 28.4219 74.2188
Q39.75 74.2188 46.4844 68.5469
Q53.2188 62.8906 53.2188 53.4219
Q53.2188 48.9219 51.5312 44.8906
Q49.8594 40.875 45.4062 35.4062
Q44.1875 33.9844 37.6406 27.2188
Q31.1094 20.4531 19.1875 8.29688" id="BitstreamVeraSans-Roman-32"/>
      </defs>
      <g transform="translate(98.2094318182 401.918125)scale(0.12 -0.12)">
       <use xlink:href="#BitstreamVeraSans-Roman-2212"/>
       <use x="83.7890625" xlink:href="#BitstreamVeraSans-Roman-32"/>
      </g>
     </g>
    </g>
    <g id="xtick_3">
     <g id="line2d_6">
      <g>
       <use style="stroke:#000000;stroke-width:0.5;" x="139.636363636" xlink:href="#m93b0483c22" y="388.8"/>
      </g>
     </g>
     <g id="line2d_7">
      <g>
       <use style="stroke:#000000;stroke-width:0.5;" x="139.636363636" xlink:href="#m741efc42ff" y="43.2"/>
      </g>
     </g>
     <g id="text_3">
      <!-- −1 -->
      <defs>
       <path d="
M12.4062 8.29688
L28.5156 8.29688
L28.5156 63.9219
L10.9844 60.4062
L10.9844 69.3906
L28.4219 72.9062
L38.2812 72.9062
L38.2812 8.29688
L54.3906 8.29688
L54.3906 0
L12.4062 0
z
" id="BitstreamVeraSans-Roman-31"/>
      </defs>
      <g transform="translate(131.980738636 401.918125)scale(0.12 -0.12)">
       <use xlink:href="#BitstreamVeraSans-Roman-2212"/>
       <use x="83.7890625" xlink:href="#BitstreamVeraSans-Roman-31"/>
      </g>
     </g>
    </g>
    <g id="xtick_4">
     <g id="line2d_8">
      <g>
       <use style="stroke:#000000;stroke-width:0.5;" x="173.454545455" xlink:href="#m93b0483c22" y="388.8"/>
      </g>
     </g>
     <g id="line2d_9">
      <g>
       <use style="stroke:#000000;stroke-width:0.5;" x="173.454545455" xlink:href="#m741efc42ff" y="43.2"/>
      </g>
     </g>
     <g id="text_4">
      <!-- 0 -->
      <defs>
       <path d="
M31.7812 66.4062
Q24.1719 66.4062 20.3281 58.9062
Q16.5 51.4219 16.5 36.375
Q16.5 21.3906 20.3281 13.8906
Q24.1719 6.39062 31.7812 6.39062
Q39.4531 6.39062 43.2812 13.8906
Q47.125 21.3906 47.125 36.375
Q47.125 51.4219 43.2812 58.9062
Q39.4531 66.4062 31.7812 66.4062
M31.7812 74.2188
Q44.0469 74.2188 50.5156 64.5156
Q56.9844 54.8281 56.9844 36.375
Q56.9844 17.9688 50.5156 8.26562
Q44.0469 -1.42188 31.7812 -1.42188
Q19.5312 -1.42188 13.0625 8.26562
Q6.59375 17.9688 6.59375 36.375
Q6.59375 54.8281 13.0625 64.5156
Q19.5312 74.2188 31.7812 74.2188" id="BitstreamVeraSans-Roman-30"/>
      </defs>
      <g transform="translate(170.431107955 401.918125)scale(0.12 -0.12)">
       <use xlink:href="#BitstreamVeraSans-Roman-30"/>
      </g>
     </g>
    </g>
    <g id="xtick_5">
     <g id="line2d_10">
      <g>
       <use style="stroke:#000000;stroke-width:0.5;" x="207.272727273" xlink:href="#m93b0483c22" y="388.8"/>
      </g>
     </g>
     <g id="line2d_11">
      <g>
       <use style="stroke:#000000;stroke-width:0.5;" x="207.272727273" xlink:href="#m741efc42ff" y="43.2"/>
      </g>
     </g>
     <g id="text_5">
      <!-- 1 -->
      <g transform="translate(204.668352273 401.918125)scale(0.12 -0.12)">
       <use xlink:href="#BitstreamVeraSans-Roman-31"/>
      </g>
     </g>
    </g>
    <g id="xtick_6">
     <g id="line2d_12">
      <g>
       <use style="stroke:#000000;stroke-width:0.5;" x="241.090909091" xlink:href="#m93b0483c22" y="388.8"/>
      </g>
     </g>
     <g id="line2d_13">
      <g>
       <use style="stroke:#000000;stroke-width:0.5;" x="241.090909091" xlink:href="#m741efc42ff" y="43.2"/>
      </g>
     </g>
     <g id="text_6">
      <!-- 2 -->
      <g transform="translate(238.314034091 401.918125)scale(0.12 -0.12)">
       <use xlink:href="#BitstreamVeraSans-Roman-32"/>
      </g>
     </g>
    </g>
    <g id="xtick_7">
     <g id="line2d_14">
      <g>
       <use style="stroke:#000000;stroke-width:0.5;" x="274.909090909" xlink:href="#m93b0483c22" y="388.8"/>
      </g>
     </g>
     <g id="line2d_15">
      <g>
       <use style="stroke:#000000;stroke-width:0.5;" x="274.909090909" xlink:href="#m741efc42ff" y="43.2"/>
      </g>
     </g>
     <g id="text_7">
      <!-- 3 -->
      <g transform="translate(272.030028409 401.918125)scale(0.12 -0.12)">
       <use xlink:href="#BitstreamVeraSans-Roman-33"/>
      </g>
     </g>
    </g>
   </g>
   <g id="matplotlib.axis_2">
    <g id="ytick_1">
     <g id="line2d_16">
      <defs>
       <path d="
M0 0
L4 0" id="m728421d6d4" style="stroke:#000000;stroke-width:0.5;"/>
      </defs>
      <g>
       <use style="stroke:#000000;stroke-width:0.5;" x="72.0" xlink:href="#m728421d6d4" y="388.8"/>
      </g>
     </g>
     <g id="line2d_17">
      <defs>
       <path d="
M0 0
L-4 0" id="mcb0005524f" style="stroke:#000000;stroke-width:0.5;"/>
      </defs>
      <g>
       <use style="stroke:#000000;stroke-width:0.5;" x="274.909090909" xlink:href="#mcb0005524f" y="388.8"/>
      </g>
     </g>
     <g id="text_8">
      <!-- −0.4 -->
      <defs>
       <path d="
M10.6875 12.4062
L21 12.4062
L21 0
L10.6875 0
z
" id="BitstreamVeraSans-Roman-2e"/>
       <path d="
M37.7969 64.3125
L12.8906 25.3906
L37.7969 25.3906
z

M35.2031 72.9062
L47.6094 72.9062
L47.6094 25.3906
L58.0156 25.3906
L58.0156 17.1875
L47.6094 17.1875
L47.6094 0
L37.7969 0
L37.7969 17.1875
L4.89062 17.1875
L4.89062 26.7031
z
" id="BitstreamVeraSans-Roman-34"/>
      </defs>
      <g transform="translate(40.805 392.11125)scale(0.12 -0.12)">
       <use xlink:href="#BitstreamVeraSans-Roman-2212"/>
       <use x="83.7890625" xlink:href="#BitstreamVeraSans-Roman-30"/>
       <use x="147.412109375" xlink:href="#BitstreamVeraSans-Roman-2e"/>
       <use x="179.19921875" xlink:href="#BitstreamVeraSans-Roman-34"/>
      </g>
     </g>
    </g>
    <g id="ytick_2">
     <g id="line2d_18">
      <g>
       <use style="stroke:#000000;stroke-width:0.5;" x="72.0" xlink:href="#m728421d6d4" y="345.6"/>
      </g>
     </g>
     <g id="line2d_19">
      <g>
       <use style="stroke:#000000;stroke-width:0.5;" x="274.909090909" xlink:href="#mcb0005524f" y="345.6"/>
      </g>
     </g>
     <g id="text_9">
      <!-- −0.3 -->
      <g transform="translate(41.09375 348.91125)scale(0.12 -0.12)">
       <use xlink:href="#BitstreamVeraSans-Roman-2212"/>
       <use x="83.7890625" xlink:href="#BitstreamVeraSans-Roman-30"/>
       <use x="147.412109375" xlink:href="#BitstreamVeraSans-Roman-2e"/>
       <use x="179.19921875" xlink:href="#BitstreamVeraSans-Roman-33"/>
      </g>
     </g>
    </g>
    <g id="ytick_3">
     <g id="line2d_20">
      <g>
       <use style="stroke:#000000;stroke-width:0.5;" x="72.0" xlink:href="#m728421d6d4" y="302.4"/>
      </g>
     </g>
     <g id="line2d_21">
      <g>
       <use style="stroke:#000000;stroke-width:0.5;" x="274.909090909" xlink:href="#mcb0005524f" y="302.4"/>
      </g>
     </g>
     <g id="text_10">
      <!-- −0.2 -->
      <g transform="translate(41.33375 305.71125)scale(0.12 -0.12)">
       <use xlink:href="#BitstreamVeraSans-Roman-2212"/>
       <use x="83.7890625" xlink:href="#BitstreamVeraSans-Roman-30"/>
       <use x="147.412109375" xlink:href="#BitstreamVeraSans-Roman-2e"/>
       <use x="179.19921875" xlink:href="#BitstreamVeraSans-Roman-32"/>
      </g>
     </g>
    </g>
    <g id="ytick_4">
     <g id="line2d_22">
      <g>
       <use style="stroke:#000000;stroke-width:0.5;" x="72.0" xlink:href="#m728421d6d4" y="259.2"/>
      </g>
     </g>
     <g id="line2d_23">
      <g>
       <use style="stroke:#000000;stroke-width:0.5;" x="274.909090909" xlink:href="#mcb0005524f" y="259.2"/>
      </g>
     </g>
     <g id="text_11">
      <!-- −0.1 -->
      <g transform="translate(41.24 262.51125)scale(0.12 -0.12)">
       <use xlink:href="#BitstreamVeraSans-Roman-2212"/>
       <use x="83.7890625" xlink:href="#BitstreamVeraSans-Roman-30"/>
       <use x="147.412109375" xlink:href="#BitstreamVeraSans-Roman-2e"/>
       <use x="179.19921875" xlink:href="#BitstreamVeraSans-Roman-31"/>
      </g>
     </g>
    </g>
    <g id="ytick_5">
     <g id="line2d_24">
      <g>
       <use style="stroke:#000000;stroke-width:0.5;" x="72.0" xlink:href="#m728421d6d4" y="216.0"/>
      </g>
     </g>
     <g id="line2d_25">
      <g>
       <use style="stroke:#000000;stroke-width:0.5;" x="274.909090909" xlink:href="#mcb0005524f" y="216.0"/>
      </g>
     </g>
     <g id="text_12">
      <!-- 0.0 -->
      <g transform="translate(50.504375 219.31125)scale(0.12 -0.12)">
       <use xlink:href="#BitstreamVeraSans-Roman-30"/>
       <use x="63.623046875" xlink:href="#BitstreamVeraSans-Roman-2e"/>
       <use x="95.41015625" xlink:href="#BitstreamVeraSans-Roman-30"/>
      </g>
     </g>
    </g>
    <g id="ytick_6">
     <g id="line2d_26">
      <g>
       <use style="stroke:#000000;stroke-width:0.5;" x="72.0" xlink:href="#m728421d6d4" y="172.8"/>
      </g>
     </g>
     <g id="line2d_27">
      <g>
       <use style="stroke:#000000;stroke-width:0.5;" x="274.909090909" xlink:href="#mcb0005524f" y="172.8"/>
      </g>
     </g>
     <g id="text_13">
      <!-- 0.1 -->
      <g transform="translate(50.815625 176.11125)scale(0.12 -0.12)">
       <use xlink:href="#BitstreamVeraSans-Roman-30"/>
       <use x="63.623046875" xlink:href="#BitstreamVeraSans-Roman-2e"/>
       <use x="95.41015625" xlink:href="#BitstreamVeraSans-Roman-31"/>
      </g>
     </g>
    </g>
    <g id="ytick_7">
     <g id="line2d_28">
      <g>
       <use style="stroke:#000000;stroke-width:0.5;" x="72.0" xlink:href="#m728421d6d4" y="129.6"/>
      </g>
     </g>
     <g id="line2d_29">
      <g>
       <use style="stroke:#000000;stroke-width:0.5;" x="274.909090909" xlink:href="#mcb0005524f" y="129.6"/>
      </g>
     </g>
     <g id="text_14">
      <!-- 0.2 -->
      <g transform="translate(50.909375 132.91125)scale(0.12 -0.12)">
       <use xlink:href="#BitstreamVeraSans-Roman-30"/>
       <use x="63.623046875" xlink:href="#BitstreamVeraSans-Roman-2e"/>
       <use x="95.41015625" xlink:href="#BitstreamVeraSans-Roman-32"/>
      </g>
     </g>
    </g>
    <g id="ytick_8">
     <g id="line2d_30">
      <g>
       <use style="stroke:#000000;stroke-width:0.5;" x="72.0" xlink:href="#m728421d6d4" y="86.4"/>
      </g>
     </g>
     <g id="line2d_31">
      <g>
       <use style="stroke:#000000;stroke-width:0.5;" x="274.909090909" xlink:href="#mcb0005524f" y="86.4"/>
      </g>
     </g>
     <g id="text_15">
      <!-- 0.3 -->
      <g transform="translate(50.669375 89.71125)scale(0.12 -0.12)">
       <use xlink:href="#BitstreamVeraSans-Roman-30"/>
       <use x="63.623046875" xlink:href="#BitstreamVeraSans-Roman-2e"/>
       <use x="95.41015625" xlink:href="#BitstreamVeraSans-Roman-33"/>
      </g>
     </g>
    </g>
    <g id="ytick_9">
     <g id="line2d_32">
      <g>
       <use style="stroke:#000000;stroke-width:0.5;" x="72.0" xlink:href="#m728421d6d4" y="43.2"/>
      </g>
     </g>
     <g id="line2d_33">
      <g>
       <use style="stroke:#000000;stroke-width:0.5;" x="274.909090909" xlink:href="#mcb0005524f" y="43.2"/>
      </g>
     </g>
     <g id="text_16">
      <!-- 0.4 -->
      <g transform="translate(50.380625 46.51125)scale(0.12 -0.12)">
       <use xlink:href="#BitstreamVeraSans-Roman-30"/>
       <use x="63.623046875" xlink:href="#BitstreamVeraSans-Roman-2e"/>
       <use x="95.41015625" xlink:href="#BitstreamVeraSans-Roman-34"/>
      </g>
     </g>
    </g>
   </g>
   <g id="patch_3">
    <path d="
M72 43.2
L274.909 43.2" style="fill:none;stroke:#000000;"/>
   </g>
   <g id="patch_4">
    <path d="
M274.909 388.8
L274.909 43.2" style="fill:none;stroke:#000000;"/>
   </g>
   <g id="patch_5">
    <path d="
M72 388.8
L274.909 388.8" style="fill:none;stroke:#000000;"/>
   </g>
   <g id="patch_6">
    <path d="
M72 388.8
L72 43.2" style="fill:none;stroke:#000000;"/>
   </g>
   <g id="text_17">
    <!-- Grafik 1 -->
    <defs>
     <path id="BitstreamVeraSans-Roman-20"/>
     <path d="
M41.1094 46.2969
Q39.5938 47.1719 37.8125 47.5781
Q36.0312 48 33.8906 48
Q26.2656 48 22.1875 43.0469
Q18.1094 38.0938 18.1094 28.8125
L18.1094 0
L9.07812 0
L9.07812 54.6875
L18.1094 54.6875
L18.1094 46.1875
Q20.9531 51.1719 25.4844 53.5781
Q30.0312 56 36.5312 56
Q37.4531 56 38.5781 55.875
Q39.7031 55.7656 41.0625 55.5156
z
" id="BitstreamVeraSans-Roman-72"/>
     <path d="
M9.07812 75.9844
L18.1094 75.9844
L18.1094 31.1094
L44.9219 54.6875
L56.3906 54.6875
L27.3906 29.1094
L57.625 0
L45.9062 0
L18.1094 26.7031
L18.1094 0
L9.07812 0
z
" id="BitstreamVeraSans-Roman-6b"/>
     <path d="
M59.5156 10.4062
L59.5156 29.9844
L43.4062 29.9844
L43.4062 38.0938
L69.2812 38.0938
L69.2812 6.78125
Q63.5781 2.73438 56.6875 0.65625
Q49.8125 -1.42188 42 -1.42188
Q24.9062 -1.42188 15.25 8.5625
Q5.60938 18.5625 5.60938 36.375
Q5.60938 54.25 15.25 64.2344
Q24.9062 74.2188 42 74.2188
Q49.125 74.2188 55.5469 72.4531
Q61.9688 70.7031 67.3906 67.2812
L67.3906 56.7812
Q61.9219 61.4219 55.7656 63.7656
Q49.6094 66.1094 42.8281 66.1094
Q29.4375 66.1094 22.7188 58.6406
Q16.0156 51.1719 16.0156 36.375
Q16.0156 21.625 22.7188 14.1562
Q29.4375 6.6875 42.8281 6.6875
Q48.0469 6.6875 52.1406 7.59375
Q56.25 8.5 59.5156 10.4062" id="BitstreamVeraSans-Roman-47"/>
     <path d="
M9.42188 54.6875
L18.4062 54.6875
L18.4062 0
L9.42188 0
z

M9.42188 75.9844
L18.4062 75.9844
L18.4062 64.5938
L9.42188 64.5938
z
" id="BitstreamVeraSans-Roman-69"/>
     <path d="
M37.1094 75.9844
L37.1094 68.5
L28.5156 68.5
Q23.6875 68.5 21.7969 66.5469
Q19.9219 64.5938 19.9219 59.5156
L19.9219 54.6875
L34.7188 54.6875
L34.7188 47.7031
L19.9219 47.7031
L19.9219 0
L10.8906 0
L10.8906 47.7031
L2.29688 47.7031
L2.29688 54.6875
L10.8906 54.6875
L10.8906 58.5
Q10.8906 67.625 15.1406 71.7969
Q19.3906 75.9844 28.6094 75.9844
z
" id="BitstreamVeraSans-Roman-66"/>
     <path d="
M34.2812 27.4844
Q23.3906 27.4844 19.1875 25
Q14.9844 22.5156 14.9844 16.5
Q14.9844 11.7188 18.1406 8.90625
Q21.2969 6.10938 26.7031 6.10938
Q34.1875 6.10938 38.7031 11.4062
Q43.2188 16.7031 43.2188 25.4844
L43.2188 27.4844
z

M52.2031 31.2031
L52.2031 0
L43.2188 0
L43.2188 8.29688
Q40.1406 3.32812 35.5469 0.953125
Q30.9531 -1.42188 24.3125 -1.42188
Q15.9219 -1.42188 10.9531 3.29688
Q6 8.01562 6 15.9219
Q6 25.1406 12.1719 29.8281
Q18.3594 34.5156 30.6094 34.5156
L43.2188 34.5156
L43.2188 35.4062
Q43.2188 41.6094 39.1406 45
Q35.0625 48.3906 27.6875 48.3906
Q23 48.3906 18.5469 47.2656
Q14.1094 46.1406 10.0156 43.8906
L10.0156 52.2031
Q14.9375 54.1094 19.5781 55.0469
Q24.2188 56 28.6094 56
Q40.4844 56 46.3438 49.8438
Q52.2031 43.7031 52.2031 31.2031" id="BitstreamVeraSans-Roman-61"/>
    </defs>
    <g transform="translate(145.595045455 38.2)scale(0.144 -0.144)">
     <use xlink:href="#BitstreamVeraSans-Roman-47"/>
     <use x="77.490234375" xlink:href="#BitstreamVeraSans-Roman-72"/>
     <use x="118.603515625" xlink:href="#BitstreamVeraSans-Roman-61"/>
     <use x="179.8828125" xlink:href="#BitstreamVeraSans-Roman-66"/>
     <use x="215.087890625" xlink:href="#BitstreamVeraSans-Roman-69"/>
     <use x="242.87109375" xlink:href="#BitstreamVeraSans-Roman-6b"/>
     <use x="300.78125" xlink:href="#BitstreamVeraSans-Roman-20"/>
     <use x="332.568359375" xlink:href="#BitstreamVeraSans-Roman-31"/>
    </g>
   </g>
  </g>
  <g id="axes_2">
   <g id="patch_7">
    <path d="
M315.491 388.8
L518.4 388.8
L518.4 43.2
L315.491 43.2
z
" style="fill:#ffffff;"/>
   </g>
   <g id="line2d_34">
    <path clip-path="url(#pc565ddf9d5)" d="
M320.064 216.003
L322.001 216.006
L323.939 216.011
L325.876 216.019
L327.814 216.032
L329.752 216.05
L331.689 216.078
L333.627 216.118
L335.565 216.176
L337.502 216.256
L339.44 216.368
L341.378 216.52
L343.315 216.725
L345.253 216.996
L347.19 217.352
L349.128 217.813
L351.066 218.402
L353.003 219.144
L354.941 220.069
L356.879 221.208
L358.816 222.591
L360.754 224.249
L362.692 226.214
L364.629 228.51
L366.567 231.157
L368.504 234.167
L370.442 237.541
L372.38 241.265
L374.317 245.311
L376.255 249.631
L378.193 254.159
L380.13 258.808
L382.068 263.471
L384.006 268.023
L385.943 272.323
L387.881 276.215
L389.819 279.541
L391.756 282.137
L393.694 283.849
L395.631 284.534
L397.569 284.072
L399.507 282.371
L401.444 279.375
L403.382 275.066
L405.32 269.474
L407.257 262.671
L409.195 254.776
L411.133 245.95
L413.07 236.391
L415.008 226.325
L416.945 216
L418.883 205.675
L420.821 195.609
L422.758 186.05
L424.696 177.224
L426.634 169.329
L428.571 162.526
L430.509 156.934
L432.447 152.625
L434.384 149.629
L436.322 147.928
L438.259 147.466
L440.197 148.151
L442.135 149.863
L444.072 152.459
L446.01 155.785
L447.948 159.677
L449.885 163.977
L451.823 168.529
L453.761 173.192
L455.698 177.841
L457.636 182.369
L459.574 186.689
L461.511 190.735
L463.449 194.459
L465.386 197.833
L467.324 200.843
L469.262 203.49
L471.199 205.786
L473.137 207.751
L475.075 209.409
L477.012 210.792
L478.95 211.931
L480.888 212.856
L482.825 213.598
L484.763 214.187
L486.7 214.648
L488.638 215.004
L490.576 215.275
L492.513 215.48
L494.451 215.632
L496.389 215.744
L498.326 215.824
L500.264 215.882
L502.202 215.922
L504.139 215.95
L506.077 215.968
L508.014 215.981
L509.952 215.989
L511.89 215.994
L513.827 215.997" style="fill:none;stroke:#0000ff;stroke-linecap:square;"/>
   </g>
   <g id="line2d_35">
    <path clip-path="url(#pc565ddf9d5)" d="
M320.064 215.994
L322.001 215.988
L323.939 215.978
L325.876 215.964
L327.814 215.941
L329.752 215.909
L331.689 215.863
L333.627 215.8
L335.565 215.714
L337.502 215.602
L339.44 215.458
L341.378 215.277
L343.315 215.056
L345.253 214.795
L347.19 214.497
L349.128 214.169
L351.066 213.828
L353.003 213.498
L354.941 213.215
L356.879 213.03
L358.816 213.005
L360.754 213.222
L362.692 213.774
L364.629 214.769
L366.567 216.327
L368.504 218.57
L370.442 221.619
L372.38 225.583
L374.317 230.548
L376.255 236.57
L378.193 243.654
L380.13 251.753
L382.068 260.749
L384.006 270.455
L385.943 280.604
L387.881 290.861
L389.819 300.822
L391.756 310.036
L393.694 318.019
L395.631 324.283
L397.569 328.365
L399.507 329.855
L401.444 328.426
L403.382 323.865
L405.32 316.092
L407.257 305.172
L409.195 291.329
L411.133 274.932
L413.07 256.488
L415.008 236.612
L416.945 216
L418.883 195.388
L420.821 175.512
L422.758 157.068
L424.696 140.671
L426.634 126.828
L428.571 115.908
L430.509 108.135
L432.447 103.574
L434.384 102.145
L436.322 103.635
L438.259 107.717
L440.197 113.981
L442.135 121.964
L444.072 131.178
L446.01 141.139
L447.948 151.396
L449.885 161.545
L451.823 171.251
L453.761 180.247
L455.698 188.346
L457.636 195.43
L459.574 201.452
L461.511 206.417
L463.449 210.381
L465.386 213.43
L467.324 215.673
L469.262 217.231
L471.199 218.226
L473.137 218.778
L475.075 218.995
L477.012 218.97
L478.95 218.785
L480.888 218.502
L482.825 218.172
L484.763 217.831
L486.7 217.503
L488.638 217.205
L490.576 216.944
L492.513 216.723
L494.451 216.542
L496.389 216.398
L498.326 216.286
L500.264 216.2
L502.202 216.137
L504.139 216.091
L506.077 216.059
L508.014 216.036
L509.952 216.022
L511.89 216.012
L513.827 216.006" style="fill:none;stroke:#ff0000;stroke-dasharray:6.000000,6.000000;stroke-dashoffset:0.0;"/>
   </g>
   <g id="matplotlib.axis_3">
    <g id="xtick_8">
     <g id="line2d_36">
      <g>
       <use style="stroke:#000000;stroke-width:0.5;" x="320.063500096" xlink:href="#m93b0483c22" y="388.8"/>
      </g>
     </g>
     <g id="line2d_37">
      <g>
       <use style="stroke:#000000;stroke-width:0.5;" x="320.063500096" xlink:href="#m741efc42ff" y="43.2"/>
      </g>
     </g>
     <g id="text_18">
      <!-- −3 -->
      <g transform="translate(312.334750096 401.918125)scale(0.12 -0.12)">
       <use xlink:href="#BitstreamVeraSans-Roman-2212"/>
       <use x="83.7890625" xlink:href="#BitstreamVeraSans-Roman-33"/>
      </g>
     </g>
    </g>
    <g id="xtick_9">
     <g id="line2d_38">
      <g>
       <use style="stroke:#000000;stroke-width:0.5;" x="352.357484913" xlink:href="#m93b0483c22" y="388.8"/>
      </g>
     </g>
     <g id="line2d_39">
      <g>
       <use style="stroke:#000000;stroke-width:0.5;" x="352.357484913" xlink:href="#m741efc42ff" y="43.2"/>
      </g>
     </g>
     <g id="text_19">
      <!-- −2 -->
      <g transform="translate(344.748734913 401.918125)scale(0.12 -0.12)">
       <use xlink:href="#BitstreamVeraSans-Roman-2212"/>
       <use x="83.7890625" xlink:href="#BitstreamVeraSans-Roman-32"/>
      </g>
     </g>
    </g>
    <g id="xtick_10">
     <g id="line2d_40">
      <g>
       <use style="stroke:#000000;stroke-width:0.5;" x="384.651469729" xlink:href="#m93b0483c22" y="388.8"/>
      </g>
     </g>
     <g id="line2d_41">
      <g>
       <use style="stroke:#000000;stroke-width:0.5;" x="384.651469729" xlink:href="#m741efc42ff" y="43.2"/>
      </g>
     </g>
     <g id="text_20">
      <!-- −1 -->
      <g transform="translate(376.995844729 401.918125)scale(0.12 -0.12)">
       <use xlink:href="#BitstreamVeraSans-Roman-2212"/>
       <use x="83.7890625" xlink:href="#BitstreamVeraSans-Roman-31"/>
      </g>
     </g>
    </g>
    <g id="xtick_11">
     <g id="line2d_42">
      <g>
       <use style="stroke:#000000;stroke-width:0.5;" x="416.945454545" xlink:href="#m93b0483c22" y="388.8"/>
      </g>
     </g>
     <g id="line2d_43">
      <g>
       <use style="stroke:#000000;stroke-width:0.5;" x="416.945454545" xlink:href="#m741efc42ff" y="43.2"/>
      </g>
     </g>
     <g id="text_21">
      <!-- 0 -->
      <g transform="translate(413.922017045 401.918125)scale(0.12 -0.12)">
       <use xlink:href="#BitstreamVeraSans-Roman-30"/>
      </g>
     </g>
    </g>
    <g id="xtick_12">
     <g id="line2d_44">
      <g>
       <use style="stroke:#000000;stroke-width:0.5;" x="449.239439362" xlink:href="#m93b0483c22" y="388.8"/>
      </g>
     </g>
     <g id="line2d_45">
      <g>
       <use style="stroke:#000000;stroke-width:0.5;" x="449.239439362" xlink:href="#m741efc42ff" y="43.2"/>
      </g>
     </g>
     <g id="text_22">
      <!-- 1 -->
      <g transform="translate(446.635064362 401.918125)scale(0.12 -0.12)">
       <use xlink:href="#BitstreamVeraSans-Roman-31"/>
      </g>
     </g>
    </g>
    <g id="xtick_13">
     <g id="line2d_46">
      <g>
       <use style="stroke:#000000;stroke-width:0.5;" x="481.533424178" xlink:href="#m93b0483c22" y="388.8"/>
      </g>
     </g>
     <g id="line2d_47">
      <g>
       <use style="stroke:#000000;stroke-width:0.5;" x="481.533424178" xlink:href="#m741efc42ff" y="43.2"/>
      </g>
     </g>
     <g id="text_23">
      <!-- 2 -->
      <g transform="translate(478.756549178 401.918125)scale(0.12 -0.12)">
       <use xlink:href="#BitstreamVeraSans-Roman-32"/>
      </g>
     </g>
    </g>
    <g id="xtick_14">
     <g id="line2d_48">
      <g>
       <use style="stroke:#000000;stroke-width:0.5;" x="513.827408995" xlink:href="#m93b0483c22" y="388.8"/>
      </g>
     </g>
     <g id="line2d_49">
      <g>
       <use style="stroke:#000000;stroke-width:0.5;" x="513.827408995" xlink:href="#m741efc42ff" y="43.2"/>
      </g>
     </g>
     <g id="text_24">
      <!-- 3 -->
      <g transform="translate(510.948346495 401.918125)scale(0.12 -0.12)">
       <use xlink:href="#BitstreamVeraSans-Roman-33"/>
      </g>
     </g>
    </g>
   </g>
   <g id="matplotlib.axis_4">
    <g id="ytick_10">
     <g id="line2d_50">
      <g>
       <use style="stroke:#000000;stroke-width:0.5;" x="315.490909091" xlink:href="#m728421d6d4" y="388.8"/>
      </g>
     </g>
     <g id="line2d_51">
      <g>
       <use style="stroke:#000000;stroke-width:0.5;" x="518.4" xlink:href="#mcb0005524f" y="388.8"/>
      </g>
     </g>
     <g id="text_25">
      <!-- −1.0 -->
      <g transform="translate(284.419659091 392.11125)scale(0.12 -0.12)">
       <use xlink:href="#BitstreamVeraSans-Roman-2212"/>
       <use x="83.7890625" xlink:href="#BitstreamVeraSans-Roman-31"/>
       <use x="147.412109375" xlink:href="#BitstreamVeraSans-Roman-2e"/>
       <use x="179.19921875" xlink:href="#BitstreamVeraSans-Roman-30"/>
      </g>
     </g>
    </g>
    <g id="ytick_11">
     <g id="line2d_52">
      <g>
       <use style="stroke:#000000;stroke-width:0.5;" x="315.490909091" xlink:href="#m728421d6d4" y="302.4"/>
      </g>
     </g>
     <g id="line2d_53">
      <g>
       <use style="stroke:#000000;stroke-width:0.5;" x="518.4" xlink:href="#mcb0005524f" y="302.4"/>
      </g>
     </g>
     <g id="text_26">
      <!-- −0.5 -->
      <defs>
       <path d="
M10.7969 72.9062
L49.5156 72.9062
L49.5156 64.5938
L19.8281 64.5938
L19.8281 46.7344
Q21.9688 47.4688 24.1094 47.8281
Q26.2656 48.1875 28.4219 48.1875
Q40.625 48.1875 47.75 41.5
Q54.8906 34.8125 54.8906 23.3906
Q54.8906 11.625 47.5625 5.09375
Q40.2344 -1.42188 26.9062 -1.42188
Q22.3125 -1.42188 17.5469 -0.640625
Q12.7969 0.140625 7.71875 1.70312
L7.71875 11.625
Q12.1094 9.23438 16.7969 8.0625
Q21.4844 6.89062 26.7031 6.89062
Q35.1562 6.89062 40.0781 11.3281
Q45.0156 15.7656 45.0156 23.3906
Q45.0156 31 40.0781 35.4375
Q35.1562 39.8906 26.7031 39.8906
Q22.75 39.8906 18.8125 39.0156
Q14.8906 38.1406 10.7969 36.2812
z
" id="BitstreamVeraSans-Roman-35"/>
      </defs>
      <g transform="translate(284.670909091 305.71125)scale(0.12 -0.12)">
       <use xlink:href="#BitstreamVeraSans-Roman-2212"/>
       <use x="83.7890625" xlink:href="#BitstreamVeraSans-Roman-30"/>
       <use x="147.412109375" xlink:href="#BitstreamVeraSans-Roman-2e"/>
       <use x="179.19921875" xlink:href="#BitstreamVeraSans-Roman-35"/>
      </g>
     </g>
    </g>
    <g id="ytick_12">
     <g id="line2d_54">
      <g>
       <use style="stroke:#000000;stroke-width:0.5;" x="315.490909091" xlink:href="#m728421d6d4" y="216.0"/>
      </g>
     </g>
     <g id="line2d_55">
      <g>
       <use style="stroke:#000000;stroke-width:0.5;" x="518.4" xlink:href="#mcb0005524f" y="216.0"/>
      </g>
     </g>
     <g id="text_27">
      <!-- 0.0 -->
      <g transform="translate(293.995284091 219.31125)scale(0.12 -0.12)">
       <use xlink:href="#BitstreamVeraSans-Roman-30"/>
       <use x="63.623046875" xlink:href="#BitstreamVeraSans-Roman-2e"/>
       <use x="95.41015625" xlink:href="#BitstreamVeraSans-Roman-30"/>
      </g>
     </g>
    </g>
    <g id="ytick_13">
     <g id="line2d_56">
      <g>
       <use style="stroke:#000000;stroke-width:0.5;" x="315.490909091" xlink:href="#m728421d6d4" y="129.6"/>
      </g>
     </g>
     <g id="line2d_57">
      <g>
       <use style="stroke:#000000;stroke-width:0.5;" x="518.4" xlink:href="#mcb0005524f" y="129.6"/>
      </g>
     </g>
     <g id="text_28">
      <!-- 0.5 -->
      <g transform="translate(294.246534091 132.91125)scale(0.12 -0.12)">
       <use xlink:href="#BitstreamVeraSans-Roman-30"/>
       <use x="63.623046875" xlink:href="#BitstreamVeraSans-Roman-2e"/>
       <use x="95.41015625" xlink:href="#BitstreamVeraSans-Roman-35"/>
      </g>
     </g>
    </g>
    <g id="ytick_14">
     <g id="line2d_58">
      <g>
       <use style="stroke:#000000;stroke-width:0.5;" x="315.490909091" xlink:href="#m728421d6d4" y="43.2"/>
      </g>
     </g>
     <g id="line2d_59">
      <g>
       <use style="stroke:#000000;stroke-width:0.5;" x="518.4" xlink:href="#mcb0005524f" y="43.2"/>
      </g>
     </g>
     <g id="text_29">
      <!-- 1.0 -->
      <g transform="translate(294.522159091 46.51125)scale(0.12 -0.12)">
       <use xlink:href="#BitstreamVeraSans-Roman-31"/>
       <use x="63.623046875" xlink:href="#BitstreamVeraSans-Roman-2e"/>
       <use x="95.41015625" xlink:href="#BitstreamVeraSans-Roman-30"/>
      </g>
     </g>
    </g>
   </g>
   <g id="patch_8">
    <path d="
M315.491 43.2
L518.4 43.2" style="fill:none;stroke:#000000;"/>
   </g>
   <g id="patch_9">
    <path d="
M518.4 388.8
L518.4 43.2" style="fill:none;stroke:#000000;"/>
   </g>
   <g id="patch_10">
    <path d="
M315.491 388.8
L518.4 388.8" style="fill:none;stroke:#000000;"/>
   </g>
   <g id="patch_11">
    <path d="
M315.491 388.8
L315.491 43.2" style="fill:none;stroke:#000000;"/>
   </g>
   <g id="text_30">
    <!-- Grafik 2 -->
    <g transform="translate(389.142204545 38.2)scale(0.144 -0.144)">
     <use xlink:href="#BitstreamVeraSans-Roman-47"/>
     <use x="77.490234375" xlink:href="#BitstreamVeraSans-Roman-72"/>
     <use x="118.603515625" xlink:href="#BitstreamVeraSans-Roman-61"/>
     <use x="179.8828125" xlink:href="#BitstreamVeraSans-Roman-66"/>
     <use x="215.087890625" xlink:href="#BitstreamVeraSans-Roman-69"/>
     <use x="242.87109375" xlink:href="#BitstreamVeraSans-Roman-6b"/>
     <use x="300.78125" xlink:href="#BitstreamVeraSans-Roman-20"/>
     <use x="332.568359375" xlink:href="#BitstreamVeraSans-Roman-32"/>
    </g>
   </g>
   <g id="legend_1">
    <g id="patch_12">
     <path d="
M428.29 96.993
L511.2 96.993
L511.2 50.4
L428.29 50.4
L428.29 96.993
z
" style="fill:#ffffff;stroke:#000000;"/>
    </g>
    <g id="line2d_60">
     <path d="
M438.37 62.0617
L458.53 62.0617" style="fill:none;stroke:#0000ff;stroke-linecap:square;"/>
    </g>
    <g id="line2d_61"/>
    <g id="text_31">
     <!-- w=1 -->
     <defs>
      <path d="
M4.20312 54.6875
L13.1875 54.6875
L24.4219 12.0156
L35.5938 54.6875
L46.1875 54.6875
L57.4219 12.0156
L68.6094 54.6875
L77.5938 54.6875
L63.2812 0
L52.6875 0
L40.9219 44.8281
L29.1094 0
L18.5 0
z
" id="BitstreamVeraSans-Roman-77"/>
      <path d="
M10.5938 45.4062
L73.1875 45.4062
L73.1875 37.2031
L10.5938 37.2031
z

M10.5938 25.4844
L73.1875 25.4844
L73.1875 17.1875
L10.5938 17.1875
z
" id="BitstreamVeraSans-Roman-3d"/>
     </defs>
     <g transform="translate(474.36975 67.10175)scale(0.144 -0.144)">
      <use xlink:href="#BitstreamVeraSans-Roman-77"/>
      <use x="81.787109375" xlink:href="#BitstreamVeraSans-Roman-3d"/>
      <use x="165.576171875" xlink:href="#BitstreamVeraSans-Roman-31"/>
     </g>
    </g>
    <g id="line2d_62">
     <path d="
M438.37 83.1982
L458.53 83.1982" style="fill:none;stroke:#ff0000;stroke-dasharray:6.000000,6.000000;stroke-dashoffset:0.0;"/>
    </g>
    <g id="line2d_63"/>
    <g id="text_32">
     <!-- w=2 -->
     <g transform="translate(474.36975 88.23825)scale(0.144 -0.144)">
      <use xlink:href="#BitstreamVeraSans-Roman-77"/>
      <use x="81.787109375" xlink:href="#BitstreamVeraSans-Roman-3d"/>
      <use x="165.576171875" xlink:href="#BitstreamVeraSans-Roman-32"/>
     </g>
    </g>
   </g>
  </g>
 </g>
 <defs>
  <clipPath id="p346f55e68c">
   <rect height="345.6" width="202.909090909" x="72.0" y="43.2"/>
  </clipPath>
  <clipPath id="pc565ddf9d5">
   <rect height="345.6" width="202.909090909" x="315.490909091" y="43.2"/>
  </clipPath>
 </defs>
</svg>
