<?xml version="1.0" encoding="utf-8" standalone="no"?>
<!DOCTYPE svg PUBLIC "-//W3C//DTD SVG 1.1//EN"
  "http://www.w3.org/Graphics/SVG/1.1/DTD/svg11.dtd">
<!-- Created with matplotlib (http://matplotlib.org/) -->
<svg height="432pt" version="1.1" viewBox="0 0 432 432" width="432pt" xmlns="http://www.w3.org/2000/svg" xmlns:xlink="http://www.w3.org/1999/xlink">
 <defs>
  <style type="text/css">
*{stroke-linecap:butt;stroke-linejoin:round;}
  </style>
 </defs>
 <g id="figure_1">
  <g id="patch_1">
   <path d="
M0 432
L432 432
L432 0
L0 0
z
" style="fill:#ffffff;"/>
  </g>
  <g id="axes_1">
   <g id="patch_2">
    <path d="
M44.185 193.82
L209.52 193.82
L209.52 28.76
L44.185 28.76
z
" style="fill:#ffffff;"/>
   </g>
   <g id="line2d_1">
    <path clip-path="url(#pd3fc720e95)" d="
M47.9109 111.291
L51.0685 111.295
L54.2262 111.305
L57.3839 111.327
L60.5415 111.374
L63.6992 111.466
L66.8568 111.636
L70.0145 111.936
L73.1722 112.437
L76.3298 113.234
L79.4875 114.438
L82.6452 116.168
L85.8028 118.529
L88.9605 121.578
L92.1182 125.289
L95.2758 129.515
L98.4335 133.962
L101.591 138.19
L104.749 141.637
L107.907 143.695
L111.064 143.802
L114.222 141.558
L117.38 136.829
L120.537 129.81
L123.695 121.029
L126.852 111.29
L130.01 101.551
L133.168 92.7704
L136.325 85.7507
L139.483 81.0219
L142.641 78.7783
L145.798 78.885
L148.956 80.9426
L152.114 84.39
L155.271 88.6175
L158.429 93.0652
L161.587 97.2911
L164.744 101.002
L167.902 104.051
L171.06 106.412
L174.217 108.142
L177.375 109.346
L180.533 110.143
L183.69 110.644
L186.848 110.944
L190.006 111.114
L193.163 111.206
L196.321 111.253
L199.479 111.275
L202.636 111.285
L205.794 111.289" style="fill:none;stroke:#0000ff;stroke-linecap:square;"/>
   </g>
   <g id="matplotlib.axis_1">
    <g id="xtick_1">
     <g id="line2d_2">
      <defs>
       <path d="
M0 0
L0 -4" id="m93b0483c22" style="stroke:#000000;stroke-width:0.5;"/>
      </defs>
      <g>
       <use style="stroke:#000000;stroke-width:0.5;" x="47.9108524517" xlink:href="#m93b0483c22" y="193.82"/>
      </g>
     </g>
     <g id="line2d_3">
      <defs>
       <path d="
M0 0
L0 4" id="m741efc42ff" style="stroke:#000000;stroke-width:0.5;"/>
      </defs>
      <g>
       <use style="stroke:#000000;stroke-width:0.5;" x="47.9108524517" xlink:href="#m741efc42ff" y="28.76"/>
      </g>
     </g>
     <g id="text_1">
      <!-- −3 -->
      <defs>
       <path d="
M10.5938 35.5
L73.1875 35.5
L73.1875 27.2031
L10.5938 27.2031
z
" id="BitstreamVeraSans-Roman-2212"/>
       <path d="
M40.5781 39.3125
Q47.6562 37.7969 51.625 33
Q55.6094 28.2188 55.6094 21.1875
Q55.6094 10.4062 48.1875 4.48438
Q40.7656 -1.42188 27.0938 -1.42188
Q22.5156 -1.42188 17.6562 -0.515625
Q12.7969 0.390625 7.625 2.20312
L7.625 11.7188
Q11.7188 9.32812 16.5938 8.10938
Q21.4844 6.89062 26.8125 6.89062
Q36.0781 6.89062 40.9375 10.5469
Q45.7969 14.2031 45.7969 21.1875
Q45.7969 27.6406 41.2812 31.2656
Q36.7656 34.9062 28.7188 34.9062
L20.2188 34.9062
L20.2188 43.0156
L29.1094 43.0156
Q36.375 43.0156 40.2344 45.9219
Q44.0938 48.8281 44.0938 54.2969
Q44.0938 59.9062 40.1094 62.9062
Q36.1406 65.9219 28.7188 65.9219
Q24.6562 65.9219 20.0156 65.0312
Q15.375 64.1562 9.8125 62.3125
L9.8125 71.0938
Q15.4375 72.6562 20.3438 73.4375
Q25.25 74.2188 29.5938 74.2188
Q40.8281 74.2188 47.3594 69.1094
Q53.9062 64.0156 53.9062 55.3281
Q53.9062 49.2656 50.4375 45.0938
Q46.9688 40.9219 40.5781 39.3125" id="BitstreamVeraSans-Roman-33"/>
      </defs>
      <g transform="translate(40.1821024517 206.938125)scale(0.12 -0.12)">
       <use xlink:href="#BitstreamVeraSans-Roman-2212"/>
       <use x="83.7890625" xlink:href="#BitstreamVeraSans-Roman-33"/>
      </g>
     </g>
    </g>
    <g id="xtick_2">
     <g id="line2d_4">
      <g>
       <use style="stroke:#000000;stroke-width:0.5;" x="74.2247349678" xlink:href="#m93b0483c22" y="193.82"/>
      </g>
     </g>
     <g id="line2d_5">
      <g>
       <use style="stroke:#000000;stroke-width:0.5;" x="74.2247349678" xlink:href="#m741efc42ff" y="28.76"/>
      </g>
     </g>
     <g id="text_2">
      <!-- −2 -->
      <defs>
       <path d="
M19.1875 8.29688
L53.6094 8.29688
L53.6094 0
L7.32812 0
L7.32812 8.29688
Q12.9375 14.1094 22.625 23.8906
Q32.3281 33.6875 34.8125 36.5312
Q39.5469 41.8438 41.4219 45.5312
Q43.3125 49.2188 43.3125 52.7812
Q43.3125 58.5938 39.2344 62.25
Q35.1562 65.9219 28.6094 65.9219
Q23.9688 65.9219 18.8125 64.3125
Q13.6719 62.7031 7.8125 59.4219
L7.8125 69.3906
Q13.7656 71.7812 18.9375 73
Q24.125 74.2188 28.4219 74.2188
Q39.75 74.2188 46.4844 68.5469
Q53.2188 62.8906 53.2188 53.4219
Q53.2188 48.9219 51.5312 44.8906
Q49.8594 40.875 45.4062 35.4062
Q44.1875 33.9844 37.6406 27.2188
Q31.1094 20.4531 19.1875 8.29688" id="BitstreamVeraSans-Roman-32"/>
      </defs>
      <g transform="translate(66.6159849678 206.938125)scale(0.12 -0.12)">
       <use xlink:href="#BitstreamVeraSans-Roman-2212"/>
       <use x="83.7890625" xlink:href="#BitstreamVeraSans-Roman-32"/>
      </g>
     </g>
    </g>
    <g id="xtick_3">
     <g id="line2d_6">
      <g>
       <use style="stroke:#000000;stroke-width:0.5;" x="100.538617484" xlink:href="#m93b0483c22" y="193.82"/>
      </g>
     </g>
     <g id="line2d_7">
      <g>
       <use style="stroke:#000000;stroke-width:0.5;" x="100.538617484" xlink:href="#m741efc42ff" y="28.76"/>
      </g>
     </g>
     <g id="text_3">
      <!-- −1 -->
      <defs>
       <path d="
M12.4062 8.29688
L28.5156 8.29688
L28.5156 63.9219
L10.9844 60.4062
L10.9844 69.3906
L28.4219 72.9062
L38.2812 72.9062
L38.2812 8.29688
L54.3906 8.29688
L54.3906 0
L12.4062 0
z
" id="BitstreamVeraSans-Roman-31"/>
      </defs>
      <g transform="translate(92.8829924839 206.938125)scale(0.12 -0.12)">
       <use xlink:href="#BitstreamVeraSans-Roman-2212"/>
       <use x="83.7890625" xlink:href="#BitstreamVeraSans-Roman-31"/>
      </g>
     </g>
    </g>
    <g id="xtick_4">
     <g id="line2d_8">
      <g>
       <use style="stroke:#000000;stroke-width:0.5;" x="126.8525" xlink:href="#m93b0483c22" y="193.82"/>
      </g>
     </g>
     <g id="line2d_9">
      <g>
       <use style="stroke:#000000;stroke-width:0.5;" x="126.8525" xlink:href="#m741efc42ff" y="28.76"/>
      </g>
     </g>
     <g id="text_4">
      <!-- 0 -->
      <defs>
       <path d="
M31.7812 66.4062
Q24.1719 66.4062 20.3281 58.9062
Q16.5 51.4219 16.5 36.375
Q16.5 21.3906 20.3281 13.8906
Q24.1719 6.39062 31.7812 6.39062
Q39.4531 6.39062 43.2812 13.8906
Q47.125 21.3906 47.125 36.375
Q47.125 51.4219 43.2812 58.9062
Q39.4531 66.4062 31.7812 66.4062
M31.7812 74.2188
Q44.0469 74.2188 50.5156 64.5156
Q56.9844 54.8281 56.9844 36.375
Q56.9844 17.9688 50.5156 8.26562
Q44.0469 -1.42188 31.7812 -1.42188
Q19.5312 -1.42188 13.0625 8.26562
Q6.59375 17.9688 6.59375 36.375
Q6.59375 54.8281 13.0625 64.5156
Q19.5312 74.2188 31.7812 74.2188" id="BitstreamVeraSans-Roman-30"/>
      </defs>
      <g transform="translate(123.8290625 206.938125)scale(0.12 -0.12)">
       <use xlink:href="#BitstreamVeraSans-Roman-30"/>
      </g>
     </g>
    </g>
    <g id="xtick_5">
     <g id="line2d_10">
      <g>
       <use style="stroke:#000000;stroke-width:0.5;" x="153.166382516" xlink:href="#m93b0483c22" y="193.82"/>
      </g>
     </g>
     <g id="line2d_11">
      <g>
       <use style="stroke:#000000;stroke-width:0.5;" x="153.166382516" xlink:href="#m741efc42ff" y="28.76"/>
      </g>
     </g>
     <g id="text_5">
      <!-- 1 -->
      <g transform="translate(150.562007516 206.938125)scale(0.12 -0.12)">
       <use xlink:href="#BitstreamVeraSans-Roman-31"/>
      </g>
     </g>
    </g>
    <g id="xtick_6">
     <g id="line2d_12">
      <g>
       <use style="stroke:#000000;stroke-width:0.5;" x="179.480265032" xlink:href="#m93b0483c22" y="193.82"/>
      </g>
     </g>
     <g id="line2d_13">
      <g>
       <use style="stroke:#000000;stroke-width:0.5;" x="179.480265032" xlink:href="#m741efc42ff" y="28.76"/>
      </g>
     </g>
     <g id="text_6">
      <!-- 2 -->
      <g transform="translate(176.703390032 206.938125)scale(0.12 -0.12)">
       <use xlink:href="#BitstreamVeraSans-Roman-32"/>
      </g>
     </g>
    </g>
    <g id="xtick_7">
     <g id="line2d_14">
      <g>
       <use style="stroke:#000000;stroke-width:0.5;" x="205.794147548" xlink:href="#m93b0483c22" y="193.82"/>
      </g>
     </g>
     <g id="line2d_15">
      <g>
       <use style="stroke:#000000;stroke-width:0.5;" x="205.794147548" xlink:href="#m741efc42ff" y="28.76"/>
      </g>
     </g>
     <g id="text_7">
      <!-- 3 -->
      <g transform="translate(202.915085048 206.938125)scale(0.12 -0.12)">
       <use xlink:href="#BitstreamVeraSans-Roman-33"/>
      </g>
     </g>
    </g>
   </g>
   <g id="matplotlib.axis_2">
    <g id="ytick_1">
     <g id="line2d_16">
      <defs>
       <path d="
M0 0
L4 0" id="m728421d6d4" style="stroke:#000000;stroke-width:0.5;"/>
      </defs>
      <g>
       <use style="stroke:#000000;stroke-width:0.5;" x="44.185" xlink:href="#m728421d6d4" y="193.82"/>
      </g>
     </g>
     <g id="line2d_17">
      <defs>
       <path d="
M0 0
L-4 0" id="mcb0005524f" style="stroke:#000000;stroke-width:0.5;"/>
      </defs>
      <g>
       <use style="stroke:#000000;stroke-width:0.5;" x="209.52" xlink:href="#mcb0005524f" y="193.82"/>
      </g>
     </g>
     <g id="text_8">
      <!-- −1.0 -->
      <defs>
       <path d="
M10.6875 12.4062
L21 12.4062
L21 0
L10.6875 0
z
" id="BitstreamVeraSans-Roman-2e"/>
      </defs>
      <g transform="translate(13.11375 197.13125)scale(0.12 -0.12)">
       <use xlink:href="#BitstreamVeraSans-Roman-2212"/>
       <use x="83.7890625" xlink:href="#BitstreamVeraSans-Roman-31"/>
       <use x="147.412109375" xlink:href="#BitstreamVeraSans-Roman-2e"/>
       <use x="179.19921875" xlink:href="#BitstreamVeraSans-Roman-30"/>
      </g>
     </g>
    </g>
    <g id="ytick_2">
     <g id="line2d_18">
      <g>
       <use style="stroke:#000000;stroke-width:0.5;" x="44.185" xlink:href="#m728421d6d4" y="152.555"/>
      </g>
     </g>
     <g id="line2d_19">
      <g>
       <use style="stroke:#000000;stroke-width:0.5;" x="209.52" xlink:href="#mcb0005524f" y="152.555"/>
      </g>
     </g>
     <g id="text_9">
      <!-- −0.5 -->
      <defs>
       <path d="
M10.7969 72.9062
L49.5156 72.9062
L49.5156 64.5938
L19.8281 64.5938
L19.8281 46.7344
Q21.9688 47.4688 24.1094 47.8281
Q26.2656 48.1875 28.4219 48.1875
Q40.625 48.1875 47.75 41.5
Q54.8906 34.8125 54.8906 23.3906
Q54.8906 11.625 47.5625 5.09375
Q40.2344 -1.42188 26.9062 -1.42188
Q22.3125 -1.42188 17.5469 -0.640625
Q12.7969 0.140625 7.71875 1.70312
L7.71875 11.625
Q12.1094 9.23438 16.7969 8.0625
Q21.4844 6.89062 26.7031 6.89062
Q35.1562 6.89062 40.0781 11.3281
Q45.0156 15.7656 45.0156 23.3906
Q45.0156 31 40.0781 35.4375
Q35.1562 39.8906 26.7031 39.8906
Q22.75 39.8906 18.8125 39.0156
Q14.8906 38.1406 10.7969 36.2812
z
" id="BitstreamVeraSans-Roman-35"/>
      </defs>
      <g transform="translate(13.365 155.86625)scale(0.12 -0.12)">
       <use xlink:href="#BitstreamVeraSans-Roman-2212"/>
       <use x="83.7890625" xlink:href="#BitstreamVeraSans-Roman-30"/>
       <use x="147.412109375" xlink:href="#BitstreamVeraSans-Roman-2e"/>
       <use x="179.19921875" xlink:href="#BitstreamVeraSans-Roman-35"/>
      </g>
     </g>
    </g>
    <g id="ytick_3">
     <g id="line2d_20">
      <g>
       <use style="stroke:#000000;stroke-width:0.5;" x="44.185" xlink:href="#m728421d6d4" y="111.29"/>
      </g>
     </g>
     <g id="line2d_21">
      <g>
       <use style="stroke:#000000;stroke-width:0.5;" x="209.52" xlink:href="#mcb0005524f" y="111.29"/>
      </g>
     </g>
     <g id="text_10">
      <!-- 0.0 -->
      <g transform="translate(22.689375 114.60125)scale(0.12 -0.12)">
       <use xlink:href="#BitstreamVeraSans-Roman-30"/>
       <use x="63.623046875" xlink:href="#BitstreamVeraSans-Roman-2e"/>
       <use x="95.41015625" xlink:href="#BitstreamVeraSans-Roman-30"/>
      </g>
     </g>
    </g>
    <g id="ytick_4">
     <g id="line2d_22">
      <g>
       <use style="stroke:#000000;stroke-width:0.5;" x="44.185" xlink:href="#m728421d6d4" y="70.025"/>
      </g>
     </g>
     <g id="line2d_23">
      <g>
       <use style="stroke:#000000;stroke-width:0.5;" x="209.52" xlink:href="#mcb0005524f" y="70.025"/>
      </g>
     </g>
     <g id="text_11">
      <!-- 0.5 -->
      <g transform="translate(22.940625 73.33625)scale(0.12 -0.12)">
       <use xlink:href="#BitstreamVeraSans-Roman-30"/>
       <use x="63.623046875" xlink:href="#BitstreamVeraSans-Roman-2e"/>
       <use x="95.41015625" xlink:href="#BitstreamVeraSans-Roman-35"/>
      </g>
     </g>
    </g>
    <g id="ytick_5">
     <g id="line2d_24">
      <g>
       <use style="stroke:#000000;stroke-width:0.5;" x="44.185" xlink:href="#m728421d6d4" y="28.76"/>
      </g>
     </g>
     <g id="line2d_25">
      <g>
       <use style="stroke:#000000;stroke-width:0.5;" x="209.52" xlink:href="#mcb0005524f" y="28.76"/>
      </g>
     </g>
     <g id="text_12">
      <!-- 1.0 -->
      <g transform="translate(23.21625 32.07125)scale(0.12 -0.12)">
       <use xlink:href="#BitstreamVeraSans-Roman-31"/>
       <use x="63.623046875" xlink:href="#BitstreamVeraSans-Roman-2e"/>
       <use x="95.41015625" xlink:href="#BitstreamVeraSans-Roman-30"/>
      </g>
     </g>
    </g>
   </g>
   <g id="patch_3">
    <path d="
M44.185 28.76
L209.52 28.76" style="fill:none;stroke:#000000;"/>
   </g>
   <g id="patch_4">
    <path d="
M209.52 193.82
L209.52 28.76" style="fill:none;stroke:#000000;"/>
   </g>
   <g id="patch_5">
    <path d="
M44.185 193.82
L209.52 193.82" style="fill:none;stroke:#000000;"/>
   </g>
   <g id="patch_6">
    <path d="
M44.185 193.82
L44.185 28.76" style="fill:none;stroke:#000000;"/>
   </g>
   <g id="text_13">
    <!-- Grafik 1 -->
    <defs>
     <path id="BitstreamVeraSans-Roman-20"/>
     <path d="
M41.1094 46.2969
Q39.5938 47.1719 37.8125 47.5781
Q36.0312 48 33.8906 48
Q26.2656 48 22.1875 43.0469
Q18.1094 38.0938 18.1094 28.8125
L18.1094 0
L9.07812 0
L9.07812 54.6875
L18.1094 54.6875
L18.1094 46.1875
Q20.9531 51.1719 25.4844 53.5781
Q30.0312 56 36.5312 56
Q37.4531 56 38.5781 55.875
Q39.7031 55.7656 41.0625 55.5156
z
" id="BitstreamVeraSans-Roman-72"/>
     <path d="
M9.07812 75.9844
L18.1094 75.9844
L18.1094 31.1094
L44.9219 54.6875
L56.3906 54.6875
L27.3906 29.1094
L57.625 0
L45.9062 0
L18.1094 26.7031
L18.1094 0
L9.07812 0
z
" id="BitstreamVeraSans-Roman-6b"/>
     <path d="
M59.5156 10.4062
L59.5156 29.9844
L43.4062 29.9844
L43.4062 38.0938
L69.2812 38.0938
L69.2812 6.78125
Q63.5781 2.73438 56.6875 0.65625
Q49.8125 -1.42188 42 -1.42188
Q24.9062 -1.42188 15.25 8.5625
Q5.60938 18.5625 5.60938 36.375
Q5.60938 54.25 15.25 64.2344
Q24.9062 74.2188 42 74.2188
Q49.125 74.2188 55.5469 72.4531
Q61.9688 70.7031 67.3906 67.2812
L67.3906 56.7812
Q61.9219 61.4219 55.7656 63.7656
Q49.6094 66.1094 42.8281 66.1094
Q29.4375 66.1094 22.7188 58.6406
Q16.0156 51.1719 16.0156 36.375
Q16.0156 21.625 22.7188 14.1562
Q29.4375 6.6875 42.8281 6.6875
Q48.0469 6.6875 52.1406 7.59375
Q56.25 8.5 59.5156 10.4062" id="BitstreamVeraSans-Roman-47"/>
     <path d="
M9.42188 54.6875
L18.4062 54.6875
L18.4062 0
L9.42188 0
z

M9.42188 75.9844
L18.4062 75.9844
L18.4062 64.5938
L9.42188 64.5938
z
" id="BitstreamVeraSans-Roman-69"/>
     <path d="
M37.1094 75.9844
L37.1094 68.5
L28.5156 68.5
Q23.6875 68.5 21.7969 66.5469
Q19.9219 64.5938 19.9219 59.5156
L19.9219 54.6875
L34.7188 54.6875
L34.7188 47.7031
L19.9219 47.7031
L19.9219 0
L10.8906 0
L10.8906 47.7031
L2.29688 47.7031
L2.29688 54.6875
L10.8906 54.6875
L10.8906 58.5
Q10.8906 67.625 15.1406 71.7969
Q19.3906 75.9844 28.6094 75.9844
z
" id="BitstreamVeraSans-Roman-66"/>
     <path d="
M34.2812 27.4844
Q23.3906 27.4844 19.1875 25
Q14.9844 22.5156 14.9844 16.5
Q14.9844 11.7188 18.1406 8.90625
Q21.2969 6.10938 26.7031 6.10938
Q34.1875 6.10938 38.7031 11.4062
Q43.2188 16.7031 43.2188 25.4844
L43.2188 27.4844
z

M52.2031 31.2031
L52.2031 0
L43.2188 0
L43.2188 8.29688
Q40.1406 3.32812 35.5469 0.953125
Q30.9531 -1.42188 24.3125 -1.42188
Q15.9219 -1.42188 10.9531 3.29688
Q6 8.01562 6 15.9219
Q6 25.1406 12.1719 29.8281
Q18.3594 34.5156 30.6094 34.5156
L43.2188 34.5156
L43.2188 35.4062
Q43.2188 41.6094 39.1406 45
Q35.0625 48.3906 27.6875 48.3906
Q23 48.3906 18.5469 47.2656
Q14.1094 46.1406 10.0156 43.8906
L10.0156 52.2031
Q14.9375 54.1094 19.5781 55.0469
Q24.2188 56 28.6094 56
Q40.4844 56 46.3438 49.8438
Q52.2031 43.7031 52.2031 31.2031" id="BitstreamVeraSans-Roman-61"/>
    </defs>
    <g transform="translate(98.993 23.76)scale(0.144 -0.144)">
     <use xlink:href="#BitstreamVeraSans-Roman-47"/>
     <use x="77.490234375" xlink:href="#BitstreamVeraSans-Roman-72"/>
     <use x="118.603515625" xlink:href="#BitstreamVeraSans-Roman-61"/>
     <use x="179.8828125" xlink:href="#BitstreamVeraSans-Roman-66"/>
     <use x="215.087890625" xlink:href="#BitstreamVeraSans-Roman-69"/>
     <use x="242.87109375" xlink:href="#BitstreamVeraSans-Roman-6b"/>
     <use x="300.78125" xlink:href="#BitstreamVeraSans-Roman-20"/>
     <use x="332.568359375" xlink:href="#BitstreamVeraSans-Roman-31"/>
    </g>
   </g>
  </g>
  <g id="axes_2">
   <g id="patch_7">
    <path d="
M44.185 403.34
L209.52 403.34
L209.52 238.28
L44.185 238.28
z
" style="fill:#ffffff;"/>
   </g>
   <g id="line2d_26">
    <path clip-path="url(#p14dcb76b3e)" d="
M47.9109 320.807
L51.0685 320.8
L54.2262 320.782
L57.3839 320.745
L60.5415 320.674
L63.6992 320.551
L66.8568 320.359
L70.0145 320.092
L73.1722 319.773
L76.3298 319.48
L79.4875 319.38
L82.6452 319.747
L85.8028 320.966
L88.9605 323.494
L92.1182 327.758
L95.2758 334.018
L98.4335 342.182
L101.591 351.665
L104.749 361.322
L107.907 369.535
L111.064 374.476
L114.222 374.505
L117.38 368.614
L120.537 356.787
L123.695 340.147
L126.852 320.81
L130.01 301.473
L133.168 284.833
L136.325 273.006
L139.483 267.115
L142.641 267.144
L145.798 272.085
L148.956 280.298
L152.114 289.955
L155.271 299.438
L158.429 307.602
L161.587 313.862
L164.744 318.126
L167.902 320.654
L171.06 321.873
L174.217 322.24
L177.375 322.14
L180.533 321.847
L183.69 321.528
L186.848 321.261
L190.006 321.069
L193.163 320.946
L196.321 320.875
L199.479 320.838
L202.636 320.82
L205.794 320.813" style="fill:none;stroke:#ff0000;stroke-linecap:square;"/>
   </g>
   <g id="matplotlib.axis_3">
    <g id="xtick_8">
     <g id="line2d_27">
      <g>
       <use style="stroke:#000000;stroke-width:0.5;" x="47.9108524517" xlink:href="#m93b0483c22" y="403.34"/>
      </g>
     </g>
     <g id="line2d_28">
      <g>
       <use style="stroke:#000000;stroke-width:0.5;" x="47.9108524517" xlink:href="#m741efc42ff" y="238.28"/>
      </g>
     </g>
     <g id="text_14">
      <!-- −3 -->
      <g transform="translate(40.1821024517 416.458125)scale(0.12 -0.12)">
       <use xlink:href="#BitstreamVeraSans-Roman-2212"/>
       <use x="83.7890625" xlink:href="#BitstreamVeraSans-Roman-33"/>
      </g>
     </g>
    </g>
    <g id="xtick_9">
     <g id="line2d_29">
      <g>
       <use style="stroke:#000000;stroke-width:0.5;" x="74.2247349678" xlink:href="#m93b0483c22" y="403.34"/>
      </g>
     </g>
     <g id="line2d_30">
      <g>
       <use style="stroke:#000000;stroke-width:0.5;" x="74.2247349678" xlink:href="#m741efc42ff" y="238.28"/>
      </g>
     </g>
     <g id="text_15">
      <!-- −2 -->
      <g transform="translate(66.6159849678 416.458125)scale(0.12 -0.12)">
       <use xlink:href="#BitstreamVeraSans-Roman-2212"/>
       <use x="83.7890625" xlink:href="#BitstreamVeraSans-Roman-32"/>
      </g>
     </g>
    </g>
    <g id="xtick_10">
     <g id="line2d_31">
      <g>
       <use style="stroke:#000000;stroke-width:0.5;" x="100.538617484" xlink:href="#m93b0483c22" y="403.34"/>
      </g>
     </g>
     <g id="line2d_32">
      <g>
       <use style="stroke:#000000;stroke-width:0.5;" x="100.538617484" xlink:href="#m741efc42ff" y="238.28"/>
      </g>
     </g>
     <g id="text_16">
      <!-- −1 -->
      <g transform="translate(92.8829924839 416.458125)scale(0.12 -0.12)">
       <use xlink:href="#BitstreamVeraSans-Roman-2212"/>
       <use x="83.7890625" xlink:href="#BitstreamVeraSans-Roman-31"/>
      </g>
     </g>
    </g>
    <g id="xtick_11">
     <g id="line2d_33">
      <g>
       <use style="stroke:#000000;stroke-width:0.5;" x="126.8525" xlink:href="#m93b0483c22" y="403.34"/>
      </g>
     </g>
     <g id="line2d_34">
      <g>
       <use style="stroke:#000000;stroke-width:0.5;" x="126.8525" xlink:href="#m741efc42ff" y="238.28"/>
      </g>
     </g>
     <g id="text_17">
      <!-- 0 -->
      <g transform="translate(123.8290625 416.458125)scale(0.12 -0.12)">
       <use xlink:href="#BitstreamVeraSans-Roman-30"/>
      </g>
     </g>
    </g>
    <g id="xtick_12">
     <g id="line2d_35">
      <g>
       <use style="stroke:#000000;stroke-width:0.5;" x="153.166382516" xlink:href="#m93b0483c22" y="403.34"/>
      </g>
     </g>
     <g id="line2d_36">
      <g>
       <use style="stroke:#000000;stroke-width:0.5;" x="153.166382516" xlink:href="#m741efc42ff" y="238.28"/>
      </g>
     </g>
     <g id="text_18">
      <!-- 1 -->
      <g transform="translate(150.562007516 416.458125)scale(0.12 -0.12)">
       <use xlink:href="#BitstreamVeraSans-Roman-31"/>
      </g>
     </g>
    </g>
    <g id="xtick_13">
     <g id="line2d_37">
      <g>
       <use style="stroke:#000000;stroke-width:0.5;" x="179.480265032" xlink:href="#m93b0483c22" y="403.34"/>
      </g>
     </g>
     <g id="line2d_38">
      <g>
       <use style="stroke:#000000;stroke-width:0.5;" x="179.480265032" xlink:href="#m741efc42ff" y="238.28"/>
      </g>
     </g>
     <g id="text_19">
      <!-- 2 -->
      <g transform="translate(176.703390032 416.458125)scale(0.12 -0.12)">
       <use xlink:href="#BitstreamVeraSans-Roman-32"/>
      </g>
     </g>
    </g>
    <g id="xtick_14">
     <g id="line2d_39">
      <g>
       <use style="stroke:#000000;stroke-width:0.5;" x="205.794147548" xlink:href="#m93b0483c22" y="403.34"/>
      </g>
     </g>
     <g id="line2d_40">
      <g>
       <use style="stroke:#000000;stroke-width:0.5;" x="205.794147548" xlink:href="#m741efc42ff" y="238.28"/>
      </g>
     </g>
     <g id="text_20">
      <!-- 3 -->
      <g transform="translate(202.915085048 416.458125)scale(0.12 -0.12)">
       <use xlink:href="#BitstreamVeraSans-Roman-33"/>
      </g>
     </g>
    </g>
   </g>
   <g id="matplotlib.axis_4">
    <g id="ytick_6">
     <g id="line2d_41">
      <g>
       <use style="stroke:#000000;stroke-width:0.5;" x="44.185" xlink:href="#m728421d6d4" y="403.34"/>
      </g>
     </g>
     <g id="line2d_42">
      <g>
       <use style="stroke:#000000;stroke-width:0.5;" x="209.52" xlink:href="#mcb0005524f" y="403.34"/>
      </g>
     </g>
     <g id="text_21">
      <!-- −1.0 -->
      <g transform="translate(13.11375 406.65125)scale(0.12 -0.12)">
       <use xlink:href="#BitstreamVeraSans-Roman-2212"/>
       <use x="83.7890625" xlink:href="#BitstreamVeraSans-Roman-31"/>
       <use x="147.412109375" xlink:href="#BitstreamVeraSans-Roman-2e"/>
       <use x="179.19921875" xlink:href="#BitstreamVeraSans-Roman-30"/>
      </g>
     </g>
    </g>
    <g id="ytick_7">
     <g id="line2d_43">
      <g>
       <use style="stroke:#000000;stroke-width:0.5;" x="44.185" xlink:href="#m728421d6d4" y="362.075"/>
      </g>
     </g>
     <g id="line2d_44">
      <g>
       <use style="stroke:#000000;stroke-width:0.5;" x="209.52" xlink:href="#mcb0005524f" y="362.075"/>
      </g>
     </g>
     <g id="text_22">
      <!-- −0.5 -->
      <g transform="translate(13.365 365.38625)scale(0.12 -0.12)">
       <use xlink:href="#BitstreamVeraSans-Roman-2212"/>
       <use x="83.7890625" xlink:href="#BitstreamVeraSans-Roman-30"/>
       <use x="147.412109375" xlink:href="#BitstreamVeraSans-Roman-2e"/>
       <use x="179.19921875" xlink:href="#BitstreamVeraSans-Roman-35"/>
      </g>
     </g>
    </g>
    <g id="ytick_8">
     <g id="line2d_45">
      <g>
       <use style="stroke:#000000;stroke-width:0.5;" x="44.185" xlink:href="#m728421d6d4" y="320.81"/>
      </g>
     </g>
     <g id="line2d_46">
      <g>
       <use style="stroke:#000000;stroke-width:0.5;" x="209.52" xlink:href="#mcb0005524f" y="320.81"/>
      </g>
     </g>
     <g id="text_23">
      <!-- 0.0 -->
      <g transform="translate(22.689375 324.12125)scale(0.12 -0.12)">
       <use xlink:href="#BitstreamVeraSans-Roman-30"/>
       <use x="63.623046875" xlink:href="#BitstreamVeraSans-Roman-2e"/>
       <use x="95.41015625" xlink:href="#BitstreamVeraSans-Roman-30"/>
      </g>
     </g>
    </g>
    <g id="ytick_9">
     <g id="line2d_47">
      <g>
       <use style="stroke:#000000;stroke-width:0.5;" x="44.185" xlink:href="#m728421d6d4" y="279.545"/>
      </g>
     </g>
     <g id="line2d_48">
      <g>
       <use style="stroke:#000000;stroke-width:0.5;" x="209.52" xlink:href="#mcb0005524f" y="279.545"/>
      </g>
     </g>
     <g id="text_24">
      <!-- 0.5 -->
      <g transform="translate(22.940625 282.85625)scale(0.12 -0.12)">
       <use xlink:href="#BitstreamVeraSans-Roman-30"/>
       <use x="63.623046875" xlink:href="#BitstreamVeraSans-Roman-2e"/>
       <use x="95.41015625" xlink:href="#BitstreamVeraSans-Roman-35"/>
      </g>
     </g>
    </g>
    <g id="ytick_10">
     <g id="line2d_49">
      <g>
       <use style="stroke:#000000;stroke-width:0.5;" x="44.185" xlink:href="#m728421d6d4" y="238.28"/>
      </g>
     </g>
     <g id="line2d_50">
      <g>
       <use style="stroke:#000000;stroke-width:0.5;" x="209.52" xlink:href="#mcb0005524f" y="238.28"/>
      </g>
     </g>
     <g id="text_25">
      <!-- 1.0 -->
      <g transform="translate(23.21625 241.59125)scale(0.12 -0.12)">
       <use xlink:href="#BitstreamVeraSans-Roman-31"/>
       <use x="63.623046875" xlink:href="#BitstreamVeraSans-Roman-2e"/>
       <use x="95.41015625" xlink:href="#BitstreamVeraSans-Roman-30"/>
      </g>
     </g>
    </g>
   </g>
   <g id="patch_8">
    <path d="
M44.185 238.28
L209.52 238.28" style="fill:none;stroke:#000000;"/>
   </g>
   <g id="patch_9">
    <path d="
M209.52 403.34
L209.52 238.28" style="fill:none;stroke:#000000;"/>
   </g>
   <g id="patch_10">
    <path d="
M44.185 403.34
L209.52 403.34" style="fill:none;stroke:#000000;"/>
   </g>
   <g id="patch_11">
    <path d="
M44.185 403.34
L44.185 238.28" style="fill:none;stroke:#000000;"/>
   </g>
   <g id="text_26">
    <!-- Grafik 2 -->
    <g transform="translate(99.04925 233.28)scale(0.144 -0.144)">
     <use xlink:href="#BitstreamVeraSans-Roman-47"/>
     <use x="77.490234375" xlink:href="#BitstreamVeraSans-Roman-72"/>
     <use x="118.603515625" xlink:href="#BitstreamVeraSans-Roman-61"/>
     <use x="179.8828125" xlink:href="#BitstreamVeraSans-Roman-66"/>
     <use x="215.087890625" xlink:href="#BitstreamVeraSans-Roman-69"/>
     <use x="242.87109375" xlink:href="#BitstreamVeraSans-Roman-6b"/>
     <use x="300.78125" xlink:href="#BitstreamVeraSans-Roman-20"/>
     <use x="332.568359375" xlink:href="#BitstreamVeraSans-Roman-32"/>
    </g>
   </g>
  </g>
  <g id="axes_3">
   <g id="patch_12">
    <path d="
M253.705 403.34
L419.04 403.34
L419.04 28.76
L253.705 28.76
z
" style="fill:#ffffff;"/>
   </g>
   <g id="line2d_51">
    <defs>
     <path d="
M0 1.5
C0.397805 1.5 0.77937 1.34195 1.06066 1.06066
C1.34195 0.77937 1.5 0.397805 1.5 0
C1.5 -0.397805 1.34195 -0.77937 1.06066 -1.06066
C0.77937 -1.34195 0.397805 -1.5 0 -1.5
C-0.397805 -1.5 -0.77937 -1.34195 -1.06066 -1.06066
C-1.34195 -0.77937 -1.5 -0.397805 -1.5 0
C-1.5 0.397805 -1.34195 0.77937 -1.06066 1.06066
C-0.77937 1.34195 -0.397805 1.5 0 1.5
z
" id="m76a7ce5b4a" style="stroke:#0000ff;stroke-width:0.5;"/>
    </defs>
    <g clip-path="url(#p939f7e3339)">
     <use style="fill:#0000ff;stroke:#0000ff;stroke-width:0.5;" x="257.430852452" xlink:href="#m76a7ce5b4a" y="216.053261766"/>
     <use style="fill:#0000ff;stroke:#0000ff;stroke-width:0.5;" x="260.588518354" xlink:href="#m76a7ce5b4a" y="216.062104963"/>
     <use style="fill:#0000ff;stroke:#0000ff;stroke-width:0.5;" x="263.746184256" xlink:href="#m76a7ce5b4a" y="216.084295844"/>
     <use style="fill:#0000ff;stroke:#0000ff;stroke-width:0.5;" x="266.903850157" xlink:href="#m76a7ce5b4a" y="216.134652669"/>
     <use style="fill:#0000ff;stroke:#0000ff;stroke-width:0.5;" x="270.061516059" xlink:href="#m76a7ce5b4a" y="216.240432277"/>
     <use style="fill:#0000ff;stroke:#0000ff;stroke-width:0.5;" x="273.219181961" xlink:href="#m76a7ce5b4a" y="216.448639248"/>
     <use style="fill:#0000ff;stroke:#0000ff;stroke-width:0.5;" x="276.376847863" xlink:href="#m76a7ce5b4a" y="216.835329059"/>
     <use style="fill:#0000ff;stroke:#0000ff;stroke-width:0.5;" x="279.534513765" xlink:href="#m76a7ce5b4a" y="217.515789598"/>
     <use style="fill:#0000ff;stroke:#0000ff;stroke-width:0.5;" x="282.692179667" xlink:href="#m76a7ce5b4a" y="218.653063656"/>
     <use style="fill:#0000ff;stroke:#0000ff;stroke-width:0.5;" x="285.849845569" xlink:href="#m76a7ce5b4a" y="220.460577297"/>
     <use style="fill:#0000ff;stroke:#0000ff;stroke-width:0.5;" x="289.007511471" xlink:href="#m76a7ce5b4a" y="223.193178131"/>
     <use style="fill:#0000ff;stroke:#0000ff;stroke-width:0.5;" x="292.165177373" xlink:href="#m76a7ce5b4a" y="227.120496619"/>
     <use style="fill:#0000ff;stroke:#0000ff;stroke-width:0.5;" x="295.322843275" xlink:href="#m76a7ce5b4a" y="232.478209297"/>
     <use style="fill:#0000ff;stroke:#0000ff;stroke-width:0.5;" x="298.480509177" xlink:href="#m76a7ce5b4a" y="239.397265708"/>
     <use style="fill:#0000ff;stroke:#0000ff;stroke-width:0.5;" x="301.638175079" xlink:href="#m76a7ce5b4a" y="247.818444732"/>
     <use style="fill:#0000ff;stroke:#0000ff;stroke-width:0.5;" x="304.795840981" xlink:href="#m76a7ce5b4a" y="257.408488737"/>
     <use style="fill:#0000ff;stroke:#0000ff;stroke-width:0.5;" x="307.953506883" xlink:href="#m76a7ce5b4a" y="267.501887907"/>
     <use style="fill:#0000ff;stroke:#0000ff;stroke-width:0.5;" x="311.111172785" xlink:href="#m76a7ce5b4a" y="277.095586234"/>
     <use style="fill:#0000ff;stroke:#0000ff;stroke-width:0.5;" x="314.268838686" xlink:href="#m76a7ce5b4a" y="284.919128057"/>
     <use style="fill:#0000ff;stroke:#0000ff;stroke-width:0.5;" x="317.426504588" xlink:href="#m76a7ce5b4a" y="289.588569502"/>
     <use style="fill:#0000ff;stroke:#0000ff;stroke-width:0.5;" x="320.58417049" xlink:href="#m76a7ce5b4a" y="289.830589282"/>
     <use style="fill:#0000ff;stroke:#0000ff;stroke-width:0.5;" x="323.741836392" xlink:href="#m76a7ce5b4a" y="284.739046063"/>
     <use style="fill:#0000ff;stroke:#0000ff;stroke-width:0.5;" x="326.899502294" xlink:href="#m76a7ce5b4a" y="274.007668049"/>
     <use style="fill:#0000ff;stroke:#0000ff;stroke-width:0.5;" x="330.057168196" xlink:href="#m76a7ce5b4a" y="258.07746623"/>
     <use style="fill:#0000ff;stroke:#0000ff;stroke-width:0.5;" x="333.214834098" xlink:href="#m76a7ce5b4a" y="238.150351834"/>
     <use style="fill:#0000ff;stroke:#0000ff;stroke-width:0.5;" x="336.3725" xlink:href="#m76a7ce5b4a" y="216.05"/>
     <use style="fill:#0000ff;stroke:#0000ff;stroke-width:0.5;" x="339.530165902" xlink:href="#m76a7ce5b4a" y="193.949648166"/>
     <use style="fill:#0000ff;stroke:#0000ff;stroke-width:0.5;" x="342.687831804" xlink:href="#m76a7ce5b4a" y="174.02253377"/>
     <use style="fill:#0000ff;stroke:#0000ff;stroke-width:0.5;" x="345.845497706" xlink:href="#m76a7ce5b4a" y="158.092331951"/>
     <use style="fill:#0000ff;stroke:#0000ff;stroke-width:0.5;" x="349.003163608" xlink:href="#m76a7ce5b4a" y="147.360953937"/>
     <use style="fill:#0000ff;stroke:#0000ff;stroke-width:0.5;" x="352.16082951" xlink:href="#m76a7ce5b4a" y="142.269410718"/>
     <use style="fill:#0000ff;stroke:#0000ff;stroke-width:0.5;" x="355.318495412" xlink:href="#m76a7ce5b4a" y="142.511430498"/>
     <use style="fill:#0000ff;stroke:#0000ff;stroke-width:0.5;" x="358.476161314" xlink:href="#m76a7ce5b4a" y="147.180871943"/>
     <use style="fill:#0000ff;stroke:#0000ff;stroke-width:0.5;" x="361.633827215" xlink:href="#m76a7ce5b4a" y="155.004413766"/>
     <use style="fill:#0000ff;stroke:#0000ff;stroke-width:0.5;" x="364.791493117" xlink:href="#m76a7ce5b4a" y="164.598112093"/>
     <use style="fill:#0000ff;stroke:#0000ff;stroke-width:0.5;" x="367.949159019" xlink:href="#m76a7ce5b4a" y="174.691511263"/>
     <use style="fill:#0000ff;stroke:#0000ff;stroke-width:0.5;" x="371.106824921" xlink:href="#m76a7ce5b4a" y="184.281555268"/>
     <use style="fill:#0000ff;stroke:#0000ff;stroke-width:0.5;" x="374.264490823" xlink:href="#m76a7ce5b4a" y="192.702734292"/>
     <use style="fill:#0000ff;stroke:#0000ff;stroke-width:0.5;" x="377.422156725" xlink:href="#m76a7ce5b4a" y="199.621790703"/>
     <use style="fill:#0000ff;stroke:#0000ff;stroke-width:0.5;" x="380.579822627" xlink:href="#m76a7ce5b4a" y="204.979503381"/>
     <use style="fill:#0000ff;stroke:#0000ff;stroke-width:0.5;" x="383.737488529" xlink:href="#m76a7ce5b4a" y="208.906821869"/>
     <use style="fill:#0000ff;stroke:#0000ff;stroke-width:0.5;" x="386.895154431" xlink:href="#m76a7ce5b4a" y="211.639422703"/>
     <use style="fill:#0000ff;stroke:#0000ff;stroke-width:0.5;" x="390.052820333" xlink:href="#m76a7ce5b4a" y="213.446936344"/>
     <use style="fill:#0000ff;stroke:#0000ff;stroke-width:0.5;" x="393.210486235" xlink:href="#m76a7ce5b4a" y="214.584210402"/>
     <use style="fill:#0000ff;stroke:#0000ff;stroke-width:0.5;" x="396.368152137" xlink:href="#m76a7ce5b4a" y="215.264670941"/>
     <use style="fill:#0000ff;stroke:#0000ff;stroke-width:0.5;" x="399.525818039" xlink:href="#m76a7ce5b4a" y="215.651360752"/>
     <use style="fill:#0000ff;stroke:#0000ff;stroke-width:0.5;" x="402.683483941" xlink:href="#m76a7ce5b4a" y="215.859567723"/>
     <use style="fill:#0000ff;stroke:#0000ff;stroke-width:0.5;" x="405.841149843" xlink:href="#m76a7ce5b4a" y="215.965347331"/>
     <use style="fill:#0000ff;stroke:#0000ff;stroke-width:0.5;" x="408.998815744" xlink:href="#m76a7ce5b4a" y="216.015704156"/>
     <use style="fill:#0000ff;stroke:#0000ff;stroke-width:0.5;" x="412.156481646" xlink:href="#m76a7ce5b4a" y="216.037895037"/>
     <use style="fill:#0000ff;stroke:#0000ff;stroke-width:0.5;" x="415.314147548" xlink:href="#m76a7ce5b4a" y="216.046738234"/>
    </g>
   </g>
   <g id="line2d_52">
    <path clip-path="url(#p939f7e3339)" d="
M257.431 216.044
L260.589 216.027
L263.746 215.986
L266.904 215.902
L270.062 215.74
L273.219 215.462
L276.377 215.027
L279.535 214.421
L282.692 213.696
L285.85 213.032
L289.008 212.804
L292.165 213.637
L295.323 216.405
L298.481 222.14
L301.638 231.818
L304.796 246.023
L307.954 264.551
L311.111 286.072
L314.269 307.985
L317.427 326.623
L320.584 337.837
L323.742 337.904
L326.9 324.535
L330.057 297.696
L333.215 259.933
L336.373 216.05
L339.53 172.167
L342.688 134.404
L345.845 107.565
L349.003 94.1963
L352.161 94.2625
L355.318 105.477
L358.476 124.115
L361.634 146.028
L364.791 167.549
L367.949 186.077
L371.107 200.282
L374.264 209.96
L377.422 215.695
L380.58 218.463
L383.737 219.296
L386.895 219.068
L390.053 218.404
L393.21 217.679
L396.368 217.073
L399.526 216.638
L402.683 216.36
L405.841 216.198
L408.999 216.114
L412.156 216.073
L415.314 216.056" style="fill:none;stroke:#ff0000;stroke-linecap:square;"/>
   </g>
   <g id="matplotlib.axis_5">
    <g id="xtick_15">
     <g id="line2d_53">
      <g>
       <use style="stroke:#000000;stroke-width:0.5;" x="257.430852452" xlink:href="#m93b0483c22" y="403.34"/>
      </g>
     </g>
     <g id="line2d_54">
      <g>
       <use style="stroke:#000000;stroke-width:0.5;" x="257.430852452" xlink:href="#m741efc42ff" y="28.76"/>
      </g>
     </g>
     <g id="text_27">
      <!-- −3 -->
      <g transform="translate(249.702102452 416.458125)scale(0.12 -0.12)">
       <use xlink:href="#BitstreamVeraSans-Roman-2212"/>
       <use x="83.7890625" xlink:href="#BitstreamVeraSans-Roman-33"/>
      </g>
     </g>
    </g>
    <g id="xtick_16">
     <g id="line2d_55">
      <g>
       <use style="stroke:#000000;stroke-width:0.5;" x="283.744734968" xlink:href="#m93b0483c22" y="403.34"/>
      </g>
     </g>
     <g id="line2d_56">
      <g>
       <use style="stroke:#000000;stroke-width:0.5;" x="283.744734968" xlink:href="#m741efc42ff" y="28.76"/>
      </g>
     </g>
     <g id="text_28">
      <!-- −2 -->
      <g transform="translate(276.135984968 416.458125)scale(0.12 -0.12)">
       <use xlink:href="#BitstreamVeraSans-Roman-2212"/>
       <use x="83.7890625" xlink:href="#BitstreamVeraSans-Roman-32"/>
      </g>
     </g>
    </g>
    <g id="xtick_17">
     <g id="line2d_57">
      <g>
       <use style="stroke:#000000;stroke-width:0.5;" x="310.058617484" xlink:href="#m93b0483c22" y="403.34"/>
      </g>
     </g>
     <g id="line2d_58">
      <g>
       <use style="stroke:#000000;stroke-width:0.5;" x="310.058617484" xlink:href="#m741efc42ff" y="28.76"/>
      </g>
     </g>
     <g id="text_29">
      <!-- −1 -->
      <g transform="translate(302.402992484 416.458125)scale(0.12 -0.12)">
       <use xlink:href="#BitstreamVeraSans-Roman-2212"/>
       <use x="83.7890625" xlink:href="#BitstreamVeraSans-Roman-31"/>
      </g>
     </g>
    </g>
    <g id="xtick_18">
     <g id="line2d_59">
      <g>
       <use style="stroke:#000000;stroke-width:0.5;" x="336.3725" xlink:href="#m93b0483c22" y="403.34"/>
      </g>
     </g>
     <g id="line2d_60">
      <g>
       <use style="stroke:#000000;stroke-width:0.5;" x="336.3725" xlink:href="#m741efc42ff" y="28.76"/>
      </g>
     </g>
     <g id="text_30">
      <!-- 0 -->
      <g transform="translate(333.3490625 416.458125)scale(0.12 -0.12)">
       <use xlink:href="#BitstreamVeraSans-Roman-30"/>
      </g>
     </g>
    </g>
    <g id="xtick_19">
     <g id="line2d_61">
      <g>
       <use style="stroke:#000000;stroke-width:0.5;" x="362.686382516" xlink:href="#m93b0483c22" y="403.34"/>
      </g>
     </g>
     <g id="line2d_62">
      <g>
       <use style="stroke:#000000;stroke-width:0.5;" x="362.686382516" xlink:href="#m741efc42ff" y="28.76"/>
      </g>
     </g>
     <g id="text_31">
      <!-- 1 -->
      <g transform="translate(360.082007516 416.458125)scale(0.12 -0.12)">
       <use xlink:href="#BitstreamVeraSans-Roman-31"/>
      </g>
     </g>
    </g>
    <g id="xtick_20">
     <g id="line2d_63">
      <g>
       <use style="stroke:#000000;stroke-width:0.5;" x="389.000265032" xlink:href="#m93b0483c22" y="403.34"/>
      </g>
     </g>
     <g id="line2d_64">
      <g>
       <use style="stroke:#000000;stroke-width:0.5;" x="389.000265032" xlink:href="#m741efc42ff" y="28.76"/>
      </g>
     </g>
     <g id="text_32">
      <!-- 2 -->
      <g transform="translate(386.223390032 416.458125)scale(0.12 -0.12)">
       <use xlink:href="#BitstreamVeraSans-Roman-32"/>
      </g>
     </g>
    </g>
    <g id="xtick_21">
     <g id="line2d_65">
      <g>
       <use style="stroke:#000000;stroke-width:0.5;" x="415.314147548" xlink:href="#m93b0483c22" y="403.34"/>
      </g>
     </g>
     <g id="line2d_66">
      <g>
       <use style="stroke:#000000;stroke-width:0.5;" x="415.314147548" xlink:href="#m741efc42ff" y="28.76"/>
      </g>
     </g>
     <g id="text_33">
      <!-- 3 -->
      <g transform="translate(412.435085048 416.458125)scale(0.12 -0.12)">
       <use xlink:href="#BitstreamVeraSans-Roman-33"/>
      </g>
     </g>
    </g>
   </g>
   <g id="matplotlib.axis_6">
    <g id="ytick_11">
     <g id="line2d_67">
      <g>
       <use style="stroke:#000000;stroke-width:0.5;" x="253.705" xlink:href="#m728421d6d4" y="403.34"/>
      </g>
     </g>
     <g id="line2d_68">
      <g>
       <use style="stroke:#000000;stroke-width:0.5;" x="419.04" xlink:href="#mcb0005524f" y="403.34"/>
      </g>
     </g>
     <g id="text_34">
      <!-- −1.0 -->
      <g transform="translate(222.63375 406.65125)scale(0.12 -0.12)">
       <use xlink:href="#BitstreamVeraSans-Roman-2212"/>
       <use x="83.7890625" xlink:href="#BitstreamVeraSans-Roman-31"/>
       <use x="147.412109375" xlink:href="#BitstreamVeraSans-Roman-2e"/>
       <use x="179.19921875" xlink:href="#BitstreamVeraSans-Roman-30"/>
      </g>
     </g>
    </g>
    <g id="ytick_12">
     <g id="line2d_69">
      <g>
       <use style="stroke:#000000;stroke-width:0.5;" x="253.705" xlink:href="#m728421d6d4" y="309.695"/>
      </g>
     </g>
     <g id="line2d_70">
      <g>
       <use style="stroke:#000000;stroke-width:0.5;" x="419.04" xlink:href="#mcb0005524f" y="309.695"/>
      </g>
     </g>
     <g id="text_35">
      <!-- −0.5 -->
      <g transform="translate(222.885 313.00625)scale(0.12 -0.12)">
       <use xlink:href="#BitstreamVeraSans-Roman-2212"/>
       <use x="83.7890625" xlink:href="#BitstreamVeraSans-Roman-30"/>
       <use x="147.412109375" xlink:href="#BitstreamVeraSans-Roman-2e"/>
       <use x="179.19921875" xlink:href="#BitstreamVeraSans-Roman-35"/>
      </g>
     </g>
    </g>
    <g id="ytick_13">
     <g id="line2d_71">
      <g>
       <use style="stroke:#000000;stroke-width:0.5;" x="253.705" xlink:href="#m728421d6d4" y="216.05"/>
      </g>
     </g>
     <g id="line2d_72">
      <g>
       <use style="stroke:#000000;stroke-width:0.5;" x="419.04" xlink:href="#mcb0005524f" y="216.05"/>
      </g>
     </g>
     <g id="text_36">
      <!-- 0.0 -->
      <g transform="translate(232.209375 219.36125)scale(0.12 -0.12)">
       <use xlink:href="#BitstreamVeraSans-Roman-30"/>
       <use x="63.623046875" xlink:href="#BitstreamVeraSans-Roman-2e"/>
       <use x="95.41015625" xlink:href="#BitstreamVeraSans-Roman-30"/>
      </g>
     </g>
    </g>
    <g id="ytick_14">
     <g id="line2d_73">
      <g>
       <use style="stroke:#000000;stroke-width:0.5;" x="253.705" xlink:href="#m728421d6d4" y="122.405"/>
      </g>
     </g>
     <g id="line2d_74">
      <g>
       <use style="stroke:#000000;stroke-width:0.5;" x="419.04" xlink:href="#mcb0005524f" y="122.405"/>
      </g>
     </g>
     <g id="text_37">
      <!-- 0.5 -->
      <g transform="translate(232.460625 125.71625)scale(0.12 -0.12)">
       <use xlink:href="#BitstreamVeraSans-Roman-30"/>
       <use x="63.623046875" xlink:href="#BitstreamVeraSans-Roman-2e"/>
       <use x="95.41015625" xlink:href="#BitstreamVeraSans-Roman-35"/>
      </g>
     </g>
    </g>
    <g id="ytick_15">
     <g id="line2d_75">
      <g>
       <use style="stroke:#000000;stroke-width:0.5;" x="253.705" xlink:href="#m728421d6d4" y="28.76"/>
      </g>
     </g>
     <g id="line2d_76">
      <g>
       <use style="stroke:#000000;stroke-width:0.5;" x="419.04" xlink:href="#mcb0005524f" y="28.76"/>
      </g>
     </g>
     <g id="text_38">
      <!-- 1.0 -->
      <g transform="translate(232.73625 32.07125)scale(0.12 -0.12)">
       <use xlink:href="#BitstreamVeraSans-Roman-31"/>
       <use x="63.623046875" xlink:href="#BitstreamVeraSans-Roman-2e"/>
       <use x="95.41015625" xlink:href="#BitstreamVeraSans-Roman-30"/>
      </g>
     </g>
    </g>
   </g>
   <g id="patch_13">
    <path d="
M253.705 28.76
L419.04 28.76" style="fill:none;stroke:#000000;"/>
   </g>
   <g id="patch_14">
    <path d="
M419.04 403.34
L419.04 28.76" style="fill:none;stroke:#000000;"/>
   </g>
   <g id="patch_15">
    <path d="
M253.705 403.34
L419.04 403.34" style="fill:none;stroke:#000000;"/>
   </g>
   <g id="patch_16">
    <path d="
M253.705 403.34
L253.705 28.76" style="fill:none;stroke:#000000;"/>
   </g>
   <g id="text_39">
    <!-- Grafik 3 -->
    <g transform="translate(308.42525 23.76)scale(0.144 -0.144)">
     <use xlink:href="#BitstreamVeraSans-Roman-47"/>
     <use x="77.490234375" xlink:href="#BitstreamVeraSans-Roman-72"/>
     <use x="118.603515625" xlink:href="#BitstreamVeraSans-Roman-61"/>
     <use x="179.8828125" xlink:href="#BitstreamVeraSans-Roman-66"/>
     <use x="215.087890625" xlink:href="#BitstreamVeraSans-Roman-69"/>
     <use x="242.87109375" xlink:href="#BitstreamVeraSans-Roman-6b"/>
     <use x="300.78125" xlink:href="#BitstreamVeraSans-Roman-20"/>
     <use x="332.568359375" xlink:href="#BitstreamVeraSans-Roman-33"/>
    </g>
   </g>
   <g id="legend_1">
    <g id="patch_17">
     <path d="
M328.93 82.553
L411.84 82.553
L411.84 35.96
L328.93 35.96
L328.93 82.553
z
" style="fill:#ffffff;stroke:#000000;"/>
    </g>
    <g id="line2d_77"/>
    <g id="line2d_78">
     <g>
      <use style="fill:#0000ff;stroke:#0000ff;stroke-width:0.5;" x="339.00975" xlink:href="#m76a7ce5b4a" y="47.62175"/>
      <use style="fill:#0000ff;stroke:#0000ff;stroke-width:0.5;" x="359.16975" xlink:href="#m76a7ce5b4a" y="47.62175"/>
     </g>
    </g>
    <g id="text_40">
     <!-- w=1 -->
     <defs>
      <path d="
M4.20312 54.6875
L13.1875 54.6875
L24.4219 12.0156
L35.5938 54.6875
L46.1875 54.6875
L57.4219 12.0156
L68.6094 54.6875
L77.5938 54.6875
L63.2812 0
L52.6875 0
L40.9219 44.8281
L29.1094 0
L18.5 0
z
" id="BitstreamVeraSans-Roman-77"/>
      <path d="
M10.5938 45.4062
L73.1875 45.4062
L73.1875 37.2031
L10.5938 37.2031
z

M10.5938 25.4844
L73.1875 25.4844
L73.1875 17.1875
L10.5938 17.1875
z
" id="BitstreamVeraSans-Roman-3d"/>
     </defs>
     <g transform="translate(375.00975 52.66175)scale(0.144 -0.144)">
      <use xlink:href="#BitstreamVeraSans-Roman-77"/>
      <use x="81.787109375" xlink:href="#BitstreamVeraSans-Roman-3d"/>
      <use x="165.576171875" xlink:href="#BitstreamVeraSans-Roman-31"/>
     </g>
    </g>
    <g id="line2d_79">
     <path d="
M339.01 68.7582
L359.17 68.7582" style="fill:none;stroke:#ff0000;stroke-linecap:square;"/>
    </g>
    <g id="line2d_80"/>
    <g id="text_41">
     <!-- w=2 -->
     <g transform="translate(375.00975 73.79825)scale(0.144 -0.144)">
      <use xlink:href="#BitstreamVeraSans-Roman-77"/>
      <use x="81.787109375" xlink:href="#BitstreamVeraSans-Roman-3d"/>
      <use x="165.576171875" xlink:href="#BitstreamVeraSans-Roman-32"/>
     </g>
    </g>
   </g>
  </g>
 </g>
 <defs>
  <clipPath id="p939f7e3339">
   <rect height="374.58" width="165.335" x="253.705" y="28.76"/>
  </clipPath>
  <clipPath id="p14dcb76b3e">
   <rect height="165.06" width="165.335" x="44.185" y="238.28"/>
  </clipPath>
  <clipPath id="pd3fc720e95">
   <rect height="165.06" width="165.335" x="44.185" y="28.76"/>
  </clipPath>
 </defs>
</svg>
