<?xml version="1.0" encoding="UTF-8"?>
<svg xmlns="http://www.w3.org/2000/svg" xmlns:xlink="http://www.w3.org/1999/xlink" width="198.923pt" height="71.065pt" viewBox="0 0 198.923 71.065" version="1.1">
<defs>
<clipPath id="clip1">
  <path d="M 0 35 L 198.921875 35 L 198.921875 36 L 0 36 Z M 0 35 "/>
</clipPath>
<clipPath id="clip2">
  <path d="M 197 34 L 198.921875 34 L 198.921875 37 L 197 37 Z M 197 34 "/>
</clipPath>
<clipPath id="clip3">
  <path d="M 0 0 L 190 0 L 190 71.066406 L 0 71.066406 Z M 0 0 "/>
</clipPath>
</defs>
<g id="surface1">
<g clip-path="url(#clip1)" clip-rule="nonzero">
<path style="fill:none;stroke-width:0.19925;stroke-linecap:butt;stroke-linejoin:miter;stroke:rgb(50%,50%,50%);stroke-opacity:1;stroke-miterlimit:10;" d="M 0.332469 0.00075 L 198.094188 0.00075 " transform="matrix(1,0,0,-1,0.398,35.532)"/>
</g>
<path style="fill:none;stroke-width:0.15938;stroke-linecap:round;stroke-linejoin:round;stroke:rgb(50%,50%,50%);stroke-opacity:1;stroke-miterlimit:10;" d="M -1.014354 1.354719 C -0.932322 0.846906 0.00127125 0.0851875 0.255178 -0.00075 C 0.00127125 -0.0827812 -0.932322 -0.848406 -1.014354 -1.356219 " transform="matrix(-1,0,0,1,0.73174,35.532)"/>
<g clip-path="url(#clip2)" clip-rule="nonzero">
<path style="fill:none;stroke-width:0.15938;stroke-linecap:round;stroke-linejoin:round;stroke:rgb(50%,50%,50%);stroke-opacity:1;stroke-miterlimit:10;" d="M -1.015357 1.356219 C -0.933326 0.848406 0.0002675 0.0827812 0.254174 0.00075 C 0.0002675 -0.0851875 -0.933326 -0.846906 -1.015357 -1.354719 " transform="matrix(1,0,0,-1,198.49192,35.532)"/>
</g>
<path style="fill:none;stroke-width:0.19925;stroke-linecap:butt;stroke-linejoin:miter;stroke:rgb(50%,50%,50%);stroke-opacity:1;stroke-miterlimit:10;" d="M 0.0004375 -35.100813 L 0.0004375 35.098406 " transform="matrix(1,0,0,-1,0.398,35.532)"/>
<path style="fill:none;stroke-width:0.15938;stroke-linecap:round;stroke-linejoin:round;stroke:rgb(50%,50%,50%);stroke-opacity:1;stroke-miterlimit:10;" d="M -1.014563 1.355906 C -0.932531 0.848094 0.0010625 0.086375 0.254969 0.0004375 C 0.0010625 -0.0855 -0.932531 -0.847219 -1.014563 -1.355031 " transform="matrix(0,1,1,0,0.398,70.63175)"/>
<path style="fill:none;stroke-width:0.15938;stroke-linecap:round;stroke-linejoin:round;stroke:rgb(50%,50%,50%);stroke-opacity:1;stroke-miterlimit:10;" d="M -1.016969 1.355031 C -0.931031 0.847219 -0.00134375 0.0855 0.252562 -0.0004375 C -0.00134375 -0.086375 -0.931031 -0.848094 -1.016969 -1.355906 " transform="matrix(0,-1,-1,0,0.398,0.43225)"/>
<g clip-path="url(#clip3)" clip-rule="nonzero">
<path style="fill:none;stroke-width:0.79701;stroke-linecap:butt;stroke-linejoin:miter;stroke:rgb(92.549133%,0%,54.899597%);stroke-opacity:1;stroke-miterlimit:10;" d="M 0.0004375 0.00075 L 1.797312 1.797625 L 3.598094 3.586687 L 5.394969 5.364031 L 7.19575 7.117937 L 8.996531 8.8445 L 10.793406 10.535906 L 12.594188 12.180437 L 14.391063 13.782 L 16.191844 15.324969 L 17.988719 16.805437 L 19.7895 18.2195 L 21.586375 19.559344 L 23.387156 20.821062 L 25.184031 22.00075 L 26.984813 23.086687 L 28.781688 24.082781 L 30.582469 24.985125 L 32.379344 25.782 L 34.180125 26.477312 L 35.977 27.067156 L 37.777781 27.547625 L 39.574656 27.914812 L 41.375437 28.172625 L 43.172312 28.31325 L 44.973094 28.340594 L 46.773875 28.254656 L 48.57075 28.059344 L 50.371531 27.746844 L 52.168406 27.321062 L 53.969187 26.789812 L 55.766062 26.145281 L 57.566844 25.399187 L 59.363719 24.551531 L 61.1645 23.602312 L 62.961375 22.559344 L 64.762156 21.426531 L 66.559031 20.203875 L 68.359813 18.903094 L 70.156688 17.528094 L 71.957469 16.078875 L 73.754344 14.567156 L 75.555125 12.992937 L 77.352 11.371844 L 79.152781 9.699969 L 80.953563 7.992937 L 82.750438 6.25075 L 84.551219 4.485125 L 86.348094 2.699969 L 88.148875 0.907 L 89.94575 -0.889875 L 91.746531 -2.68675 L 93.543406 -4.471906 L 95.344188 -6.237531 L 97.141063 -7.975813 L 98.941844 -9.68675 L 100.738719 -11.358625 L 102.5395 -12.979719 L 104.336375 -14.553938 L 106.137156 -16.065656 L 107.934031 -17.514875 L 109.734813 -18.893781 L 111.531688 -20.194563 L 113.332469 -21.417219 L 115.129344 -22.550031 L 116.930125 -23.593 L 118.730906 -24.542219 L 120.527781 -25.393781 L 122.328563 -26.139875 L 124.125438 -26.784406 L 125.926219 -27.315656 L 127.723094 -27.741438 L 129.523875 -28.053938 L 131.32075 -28.253156 L 133.121531 -28.343 L 134.918406 -28.315656 L 136.719188 -28.171125 L 138.516063 -27.917219 L 140.316844 -27.550031 L 142.113719 -27.069563 L 143.9145 -26.483625 L 145.711375 -25.788313 L 147.512156 -24.991438 L 149.309031 -24.093 L 151.109813 -23.096906 L 152.910594 -22.007063 L 154.707469 -20.831281 L 156.50825 -19.569563 L 158.305125 -18.229719 L 160.105906 -16.815656 L 161.902781 -15.335188 L 163.703563 -13.792219 L 165.500438 -12.194563 L 167.301219 -10.546125 L 169.098094 -8.858625 L 170.898875 -7.132063 L 172.69575 -5.378156 L 174.496531 -3.600813 L 176.293406 -1.81175 L 178.094188 -0.014875 " transform="matrix(1,0,0,-1,0.398,35.532)"/>
</g>
</g>
</svg>
