<?xml version="1.0" encoding="UTF-8"?>
<svg xmlns="http://www.w3.org/2000/svg" xmlns:xlink="http://www.w3.org/1999/xlink" width="85.438pt" height="57.091pt" viewBox="0 0 85.438 57.091" version="1.1">
<defs>
<clipPath id="clip1">
  <path d="M 0 0 L 85.4375 0 L 85.4375 57 L 0 57 Z M 0 0 "/>
</clipPath>
<clipPath id="clip2">
  <path d="M 0 0 L 85.4375 0 L 85.4375 57.089844 L 0 57.089844 Z M 0 0 "/>
</clipPath>
<clipPath id="clip3">
  <path d="M 22 0 L 85.4375 0 L 85.4375 57.089844 L 22 57.089844 Z M 22 0 "/>
</clipPath>
</defs>
<g id="surface1">
<g clip-path="url(#clip1)" clip-rule="nonzero">
<path style="fill:none;stroke-width:0.19925;stroke-linecap:butt;stroke-linejoin:miter;stroke:rgb(50%,50%,50%);stroke-opacity:1;stroke-miterlimit:10;" d="M 0.00021875 0.001375 L 85.039281 0.001375 M 0.00021875 28.345125 L 85.039281 28.345125 M 0.00021875 56.684969 L 85.039281 56.684969 M 0.00021875 0.001375 L 0.00021875 56.692781 M 28.347875 0.001375 L 28.347875 56.692781 M 56.695531 0.001375 L 56.695531 56.692781 M 85.031469 0.001375 L 85.031469 56.692781 " transform="matrix(1,0,0,-1,0.199,56.892)"/>
</g>
<g clip-path="url(#clip2)" clip-rule="nonzero">
<path style="fill:none;stroke-width:0.3985;stroke-linecap:butt;stroke-linejoin:miter;stroke:rgb(0%,0%,0%);stroke-opacity:1;stroke-miterlimit:10;" d="M 0.00021875 0.001375 L 85.039281 56.692781 " transform="matrix(1,0,0,-1,0.199,56.892)"/>
</g>
<g clip-path="url(#clip3)" clip-rule="nonzero">
<path style="fill:none;stroke-width:0.3985;stroke-linecap:butt;stroke-linejoin:miter;stroke:rgb(0%,0%,0%);stroke-opacity:1;stroke-miterlimit:10;" d="M 28.347875 56.692781 L 85.039281 0.001375 " transform="matrix(1,0,0,-1,0.199,56.892)"/>
</g>
</g>
</svg>
