<?xml version="1.0" encoding="UTF-8"?>
<svg xmlns="http://www.w3.org/2000/svg" xmlns:xlink="http://www.w3.org/1999/xlink" width="248.231pt" height="213.395pt" viewBox="0 0 248.231 213.395" version="1.1">
<defs>
<clipPath id="clip1">
  <path d="M 246 105 L 248.230469 105 L 248.230469 109 L 246 109 Z M 246 105 "/>
</clipPath>
<clipPath id="clip2">
  <path d="M 0 0 L 248.230469 0 L 248.230469 213.394531 L 0 213.394531 Z M 0 0 "/>
</clipPath>
<clipPath id="clip3">
  <path d="M 6 0 L 242 0 L 242 213.394531 L 6 213.394531 Z M 6 0 "/>
</clipPath>
</defs>
<g id="surface1">
<path style="fill:none;stroke-width:0.19925;stroke-linecap:butt;stroke-linejoin:miter;stroke:rgb(50%,50%,50%);stroke-opacity:1;stroke-miterlimit:10;" d="M -123.685312 0.0016875 L 123.681875 0.0016875 " transform="matrix(1,0,0,-1,124.115,106.697)"/>
<path style="fill:none;stroke-width:0.15938;stroke-linecap:round;stroke-linejoin:round;stroke:rgb(50%,50%,50%);stroke-opacity:1;stroke-miterlimit:10;" d="M -1.017749 1.353781 C -0.931811 0.845969 0.0017825 0.08425 0.255689 -0.0016875 C 0.0017825 -0.0837188 -0.931811 -0.845438 -1.017749 -1.35325 " transform="matrix(-1,0,0,1,0.43147,106.697)"/>
<g clip-path="url(#clip1)" clip-rule="nonzero">
<path style="fill:none;stroke-width:0.15938;stroke-linecap:round;stroke-linejoin:round;stroke:rgb(50%,50%,50%);stroke-opacity:1;stroke-miterlimit:10;" d="M -1.01728 1.35325 C -0.931342 0.845438 -0.001655 0.0837188 0.252251 0.0016875 C -0.001655 -0.08425 -0.931342 -0.845969 -1.01728 -1.353781 " transform="matrix(1,0,0,-1,247.79853,106.697)"/>
</g>
<path style="fill:none;stroke-width:0.19925;stroke-linecap:butt;stroke-linejoin:miter;stroke:rgb(50%,50%,50%);stroke-opacity:1;stroke-miterlimit:10;" d="M -0.00171875 -105.967062 L -0.00171875 105.966531 " transform="matrix(1,0,0,-1,124.115,106.697)"/>
<path style="fill:none;stroke-width:0.15938;stroke-linecap:round;stroke-linejoin:round;stroke:rgb(50%,50%,50%);stroke-opacity:1;stroke-miterlimit:10;" d="M -1.015343 1.35375 C -0.933311 0.845938 0.0002825 0.0842188 0.254189 -0.00171875 C 0.0002825 -0.08375 -0.933311 -0.845469 -1.015343 -1.353281 " transform="matrix(0,1,1,0,124.115,212.66378)"/>
<path style="fill:none;stroke-width:0.15938;stroke-linecap:round;stroke-linejoin:round;stroke:rgb(50%,50%,50%);stroke-opacity:1;stroke-miterlimit:10;" d="M -1.015874 1.353281 C -0.929936 0.845469 -0.00024875 0.08375 0.253658 0.00171875 C -0.00024875 -0.0842188 -0.929936 -0.845938 -1.015874 -1.35375 " transform="matrix(0,-1,-1,0,124.115,0.73022)"/>
<g clip-path="url(#clip2)" clip-rule="nonzero">
<path style="fill:none;stroke-width:1.59404;stroke-linecap:butt;stroke-linejoin:miter;stroke:rgb(0%,0%,100%);stroke-opacity:1;stroke-miterlimit:10;" d="M -111.318125 -0.006125 L -111.095469 -6.986594 L -110.872812 -13.912375 L -110.650156 -20.756125 L -110.4275 -27.486594 L -110.204844 -34.088156 L -109.982187 -40.517844 L -109.759531 -46.77175 L -109.536875 -52.810812 L -109.310312 -58.619406 L -109.087656 -64.166281 L -108.865 -69.443625 L -108.642344 -74.420187 L -108.419687 -79.08425 L -108.197031 -83.416281 L -107.974375 -87.404562 L -107.751719 -91.02175 L -107.529062 -94.27175 L -107.306406 -97.135031 L -107.08375 -99.599875 L -106.861094 -101.666281 L -106.638437 -103.310812 L -106.415781 -104.549094 L -106.193125 -105.369406 L -105.970469 -105.763937 L -105.747812 -105.744406 L -105.525156 -105.299094 L -105.3025 -104.447531 L -105.079844 -103.185812 L -104.857187 -101.517844 L -104.634531 -99.45925 L -104.411875 -97.010031 L -104.189219 -94.193625 L -103.966562 -91.017844 L -103.74 -87.4905 L -103.517344 -83.635031 L -103.294687 -79.463156 L -103.072031 -74.998312 L -102.849375 -70.256125 L -102.626719 -65.256125 L -102.404062 -60.017844 L -102.181406 -54.564719 L -101.95875 -48.924094 L -101.736094 -43.111594 L -101.513437 -37.154562 L -101.290781 -31.076437 L -101.068125 -24.900656 L -100.845469 -18.654562 L -100.622812 -12.3655 L -100.400156 -6.053 L -100.1775 0.255594 L -99.954844 6.532938 L -99.732187 12.7595 L -99.509531 18.907938 L -99.286875 24.954813 L -99.064219 30.872781 L -98.841562 36.642313 L -98.618906 42.243875 L -98.39625 47.654031 L -98.169687 52.845438 L -97.947031 57.810281 L -97.724375 62.525125 L -97.501719 66.966531 L -97.279062 71.126688 L -97.056406 74.982156 L -96.83375 78.525125 L -96.611094 81.739969 L -96.388437 84.618875 L -96.165781 87.154031 L -95.943125 89.322 L -95.720469 91.138406 L -95.497812 92.579813 L -95.275156 93.646219 L -95.0525 94.345438 L -94.829844 94.657938 L -94.607187 94.60325 L -94.384531 94.169656 L -94.161875 93.368875 L -93.939219 92.200906 L -93.716562 90.673563 L -93.493906 88.794656 L -93.27125 86.575906 L -93.048594 84.021219 L -92.825937 81.154031 L -92.599375 77.970438 L -92.376719 74.497781 L -92.154062 70.747781 L -91.931406 66.736063 L -91.70875 62.482156 L -91.486094 57.997781 L -91.263437 53.306375 L -91.040781 48.427469 L -90.818125 43.380594 L -90.595469 38.189188 L -90.372812 32.868875 L -90.150156 27.447 L -89.9275 21.943094 L -89.704844 16.376688 L -89.482187 10.775125 L -89.259531 5.161844 L -89.036875 -0.447531 L -88.814219 -6.025656 L -88.591562 -11.553 L -88.368906 -17.006125 L -88.14625 -22.3655 L -87.923594 -27.607687 L -87.700937 -32.717062 L -87.478281 -37.666281 L -87.255625 -42.447531 L -87.032969 -47.033469 L -86.806406 -51.408469 L -86.58375 -55.560812 L -86.361094 -59.470969 L -86.138437 -63.123312 L -85.915781 -66.510031 L -85.693125 -69.6155 L -85.470469 -72.428 L -85.247812 -74.939719 L -85.025156 -77.142844 L -84.8025 -79.029562 L -84.579844 -80.592062 L -84.357187 -81.830344 L -84.134531 -82.736594 L -83.911875 -83.310812 L -83.689219 -83.549094 L -83.466562 -83.45925 L -83.243906 -83.041281 L -83.02125 -82.295187 L -82.798594 -81.224875 L -82.575937 -79.842062 L -82.353281 -78.150656 L -82.130625 -76.158469 L -81.907969 -73.873312 L -81.685312 -71.310812 L -81.462656 -68.482687 L -81.236094 -65.392844 L -81.013437 -62.068625 L -80.790781 -58.510031 L -80.568125 -54.744406 L -80.345469 -50.779562 L -80.122812 -46.638937 L -79.900156 -42.33425 L -79.6775 -37.885031 L -79.454844 -33.314719 L -79.232187 -28.631125 L -79.009531 -23.8655 L -78.786875 -19.033469 L -78.564219 -14.150656 L -78.341562 -9.2405 L -78.118906 -4.322531 L -77.89625 0.583719 L -77.673594 5.462625 L -77.450937 10.29075 L -77.228281 15.048563 L -77.005625 19.720438 L -76.782969 24.29075 L -76.560312 28.736063 L -76.337656 33.04075 L -76.115 37.193094 L -75.892344 41.169656 L -75.665781 44.962625 L -75.443125 48.556375 L -75.220469 51.931375 L -74.997812 55.083719 L -74.775156 58.001688 L -74.5525 60.669656 L -74.329844 63.087625 L -74.107187 65.232156 L -73.884531 67.111063 L -73.661875 68.712625 L -73.439219 70.032938 L -73.216562 71.068094 L -72.993906 71.810281 L -72.77125 72.271219 L -72.548594 72.439188 L -72.325937 72.318094 L -72.103281 71.91575 L -71.880625 71.22825 L -71.657969 70.263406 L -71.435312 69.025125 L -71.212656 67.521219 L -70.99 65.763406 L -70.767344 63.751688 L -70.544687 61.501688 L -70.322031 59.021219 L -70.095469 56.322 L -69.872812 53.419656 L -69.650156 50.325906 L -69.4275 47.048563 L -69.204844 43.607156 L -68.982187 40.013406 L -68.759531 36.286844 L -68.536875 32.439188 L -68.314219 28.486063 L -68.091562 24.450906 L -67.868906 20.341531 L -67.64625 16.181375 L -67.423594 11.982156 L -67.200937 7.763406 L -66.978281 3.54075 L -66.755625 -0.666281 L -66.532969 -4.842062 L -66.310312 -8.970969 L -66.087656 -13.041281 L -65.865 -17.029562 L -65.642344 -20.920187 L -65.419687 -24.705344 L -65.197031 -28.3655 L -64.974375 -31.888937 L -64.751719 -35.263937 L -64.525156 -38.470969 L -64.3025 -41.506125 L -64.079844 -44.357687 L -63.857187 -47.010031 L -63.634531 -49.463156 L -63.411875 -51.697531 L -63.189219 -53.713156 L -62.966562 -55.502219 L -62.743906 -57.056906 L -62.52125 -58.377219 L -62.298594 -59.455344 L -62.075937 -60.291281 L -61.853281 -60.881125 L -61.630625 -61.224875 L -61.407969 -61.322531 L -61.185312 -61.178 L -60.962656 -60.791281 L -60.74 -60.170187 L -60.517344 -59.306906 L -60.294687 -58.224875 L -60.072031 -56.912375 L -59.849375 -55.385031 L -59.626719 -53.650656 L -59.404062 -51.717062 L -59.181406 -49.592062 L -58.95875 -47.283469 L -58.732187 -44.806906 L -58.509531 -42.174094 L -58.286875 -39.392844 L -58.064219 -36.474875 L -57.841562 -33.435812 L -57.618906 -30.283469 L -57.39625 -27.041281 L -57.173594 -23.713156 L -56.950937 -20.318625 L -56.728281 -16.869406 L -56.505625 -13.377219 L -56.282969 -9.861594 L -56.060312 -6.33425 L -55.837656 -2.814719 L -55.615 0.693094 L -55.392344 4.169656 L -55.169687 7.60325 L -54.947031 10.974344 L -54.724375 14.279031 L -54.501719 17.497781 L -54.279062 20.622781 L -54.056406 23.638406 L -53.83375 26.536844 L -53.611094 29.306375 L -53.388437 31.935281 L -53.161875 34.41575 L -52.939219 36.739969 L -52.716562 38.896219 L -52.493906 40.8845 L -52.27125 42.689188 L -52.048594 44.310281 L -51.825937 45.743875 L -51.603281 46.97825 L -51.380625 48.021219 L -51.157969 48.861063 L -50.935312 49.497781 L -50.712656 49.939188 L -50.49 50.169656 L -50.267344 50.204813 L -50.044687 50.036844 L -49.822031 49.673563 L -49.599375 49.114969 L -49.376719 48.364969 L -49.154062 47.431375 L -48.931406 46.318094 L -48.70875 45.029031 L -48.486094 43.575906 L -48.263437 41.958719 L -48.040781 40.189188 L -47.818125 38.279031 L -47.591562 36.232156 L -47.368906 34.064188 L -47.14625 31.775125 L -46.923594 29.3845 L -46.700937 26.900125 L -46.478281 24.333719 L -46.255625 21.693094 L -46.032969 18.989969 L -45.810312 16.236063 L -45.587656 13.447 L -45.365 10.630594 L -45.142344 7.802469 L -44.919687 4.966531 L -44.697031 2.142313 L -44.474375 -0.662375 L -44.251719 -3.439719 L -44.029062 -6.174094 L -43.806406 -8.857687 L -43.58375 -11.474875 L -43.361094 -14.02175 L -43.138437 -16.486594 L -42.915781 -18.861594 L -42.693125 -21.138937 L -42.470469 -23.303 L -42.247812 -25.353781 L -42.02125 -27.283469 L -41.798594 -29.08425 L -41.575937 -30.748312 L -41.353281 -32.27175 L -41.130625 -33.650656 L -40.907969 -34.881125 L -40.685312 -35.95925 L -40.462656 -36.881125 L -40.24 -37.642844 L -40.017344 -38.252219 L -39.794687 -38.697531 L -39.572031 -38.982687 L -39.349375 -39.111594 L -39.126719 -39.08425 L -38.904062 -38.89675 L -38.681406 -38.556906 L -38.45875 -38.068625 L -38.236094 -37.435812 L -38.013437 -36.654562 L -37.790781 -35.744406 L -37.568125 -34.693625 L -37.345469 -33.52175 L -37.122812 -32.228781 L -36.900156 -30.818625 L -36.6775 -29.306906 L -36.450937 -27.693625 L -36.228281 -25.9905 L -36.005625 -24.201437 L -35.782969 -22.338156 L -35.560312 -20.412375 L -35.337656 -18.424094 L -35.115 -16.388937 L -34.892344 -14.314719 L -34.669687 -12.20925 L -34.447031 -10.080344 L -34.224375 -7.939719 L -34.001719 -5.791281 L -33.779062 -3.650656 L -33.556406 -1.525656 L -33.33375 0.579813 L -33.111094 2.654031 L -32.888437 4.693094 L -32.665781 6.685281 L -32.443125 8.618875 L -32.220469 10.497781 L -31.997812 12.302469 L -31.775156 14.036844 L -31.5525 15.689188 L -31.329844 17.255594 L -31.107187 18.732156 L -30.884531 20.107156 L -30.657969 21.3845 L -30.435312 22.560281 L -30.212656 23.622781 L -29.99 24.579813 L -29.767344 25.419656 L -29.544687 26.146219 L -29.322031 26.755594 L -29.099375 27.247781 L -28.876719 27.622781 L -28.654062 27.880594 L -28.431406 28.021219 L -28.20875 28.044656 L -27.986094 27.958719 L -27.763437 27.7595 L -27.540781 27.447 L -27.318125 27.032938 L -27.095469 26.513406 L -26.872812 25.896219 L -26.650156 25.185281 L -26.4275 24.380594 L -26.204844 23.493875 L -25.982187 22.525125 L -25.759531 21.47825 L -25.536875 20.364969 L -25.314219 19.189188 L -25.087656 17.954813 L -24.865 16.669656 L -24.642344 15.337625 L -24.419687 13.966531 L -24.197031 12.564188 L -23.974375 11.138406 L -23.751719 9.689188 L -23.529062 8.232156 L -23.306406 6.763406 L -23.08375 5.298563 L -22.861094 3.837625 L -22.638437 2.392313 L -22.415781 0.962625 L -22.193125 -0.439719 L -21.970469 -1.814719 L -21.747812 -3.154562 L -21.525156 -4.455344 L -21.3025 -5.70925 L -21.079844 -6.916281 L -20.857187 -8.068625 L -20.634531 -9.162375 L -20.411875 -10.193625 L -20.189219 -11.162375 L -19.966562 -12.060812 L -19.743906 -12.892844 L -19.517344 -13.650656 L -19.294687 -14.33425 L -19.072031 -14.943625 L -18.849375 -15.474875 L -18.626719 -15.931906 L -18.404062 -16.306906 L -18.181406 -16.607687 L -17.95875 -16.830344 L -17.736094 -16.978781 L -17.513437 -17.049094 L -17.290781 -17.049094 L -17.068125 -16.974875 L -16.845469 -16.830344 L -16.622812 -16.619406 L -16.400156 -16.342062 L -16.1775 -16.002219 L -15.954844 -15.603781 L -15.732187 -15.150656 L -15.509531 -14.642844 L -15.286875 -14.088156 L -15.064219 -13.486594 L -14.841562 -12.845969 L -14.618906 -12.170187 L -14.39625 -11.45925 L -14.173594 -10.720969 L -13.947031 -9.95925 L -13.724375 -9.174094 L -13.501719 -8.377219 L -13.279062 -7.568625 L -12.83375 -5.935812 L -12.611094 -5.1155 L -12.388437 -4.303 L -12.165781 -3.502219 L -11.943125 -2.713156 L -11.720469 -1.939719 L -11.497812 -1.185812 L -11.275156 -0.455344 L -11.0525 0.247781 L -10.829844 0.923563 L -10.607187 1.564188 L -10.384531 2.173563 L -10.161875 2.747781 L -9.939219 3.282938 L -9.716562 3.779031 L -9.493906 4.236063 L -9.27125 4.650125 L -9.048594 5.021219 L -8.825937 5.349344 L -8.603281 5.6345 L -8.380625 5.872781 L -8.154062 6.072 L -7.931406 6.22825 L -7.70875 6.341531 L -7.486094 6.411844 L -7.263437 6.447 L -7.040781 6.439188 L -6.818125 6.396219 L -6.595469 6.318094 L -6.372812 6.208719 L -6.150156 6.068094 L -5.9275 5.896219 L -5.704844 5.700906 L -5.482187 5.482156 L -5.259531 5.239969 L -5.036875 4.97825 L -4.814219 4.704813 L -4.591562 4.419656 L -4.14625 3.818094 L -3.923594 3.5095 L -3.700937 3.197 L -3.478281 2.888406 L -3.255625 2.583719 L -3.032969 2.286844 L -2.810312 2.001688 L -2.58375 1.724344 L -2.361094 1.462625 L -2.138437 1.216531 L -1.915781 0.986063 L -1.693125 0.779031 L -1.470469 0.595438 L -1.247812 0.431375 L -1.025156 0.294656 L -0.8025 0.181375 L -0.579844 0.0954375 L -0.357187 0.0368438 L -0.134531 0.00559375 L 0.088125 0.0016875 L 0.310781 0.0290313 L 0.533438 0.0798125 L 0.756094 0.161844 L 0.97875 0.267313 L 1.201406 0.400125 L 1.424063 0.556375 L 1.646719 0.739969 L 1.869375 0.943094 L 2.092031 1.16575 L 2.314688 1.407938 L 2.537344 1.66575 L 2.76 1.943094 L 2.986563 2.22825 L 3.209219 2.521219 L 3.431875 2.825906 L 4.099844 3.751688 L 4.3225 4.056375 L 4.545156 4.357156 L 4.767813 4.646219 L 4.990469 4.923563 L 5.213125 5.185281 L 5.435781 5.431375 L 5.658438 5.657938 L 5.881094 5.857156 L 6.10375 6.032938 L 6.326406 6.181375 L 6.549063 6.298563 L 6.771719 6.3845 L 6.994375 6.435281 L 7.217031 6.447 L 7.439688 6.423563 L 7.662344 6.361063 L 7.885 6.255594 L 8.107656 6.107156 L 8.330313 5.919656 L 8.556875 5.685281 L 8.779531 5.411844 L 9.002188 5.091531 L 9.224844 4.732156 L 9.4475 4.325906 L 9.670156 3.880594 L 9.892813 3.392313 L 10.115469 2.864969 L 10.338125 2.298563 L 10.560781 1.697 L 10.783438 1.060281 L 11.006094 0.392313 L 11.22875 -0.306906 L 11.451406 -1.033469 L 11.674063 -1.779562 L 11.896719 -2.549094 L 12.119375 -3.33425 L 12.342031 -4.135031 L 12.564688 -4.947531 L 13.232656 -7.39675 L 13.455313 -8.20925 L 13.677969 -9.010031 L 13.900625 -9.795187 L 14.123281 -10.564719 L 14.349844 -11.306906 L 14.5725 -12.02175 L 14.795156 -12.70925 L 15.017813 -13.357687 L 15.240469 -13.967062 L 15.463125 -14.529562 L 15.685781 -15.049094 L 15.908438 -15.513937 L 16.131094 -15.924094 L 16.35375 -16.275656 L 16.576406 -16.564719 L 16.799063 -16.791281 L 17.021719 -16.951437 L 17.244375 -17.037375 L 17.467031 -17.056906 L 17.689688 -16.998312 L 17.912344 -16.869406 L 18.135 -16.662375 L 18.357656 -16.377219 L 18.580313 -16.013937 L 18.802969 -15.576437 L 19.025625 -15.060812 L 19.248281 -14.467062 L 19.470938 -13.799094 L 19.693594 -13.056906 L 19.920156 -12.2405 L 20.142813 -11.353781 L 20.365469 -10.400656 L 20.588125 -9.381125 L 20.810781 -8.299094 L 21.033438 -7.162375 L 21.256094 -5.967062 L 21.47875 -4.720969 L 21.701406 -3.431906 L 21.924063 -2.099875 L 22.146719 -0.732687 L 22.369375 0.66575 L 22.592031 2.091531 L 22.814688 3.536844 L 23.037344 4.993875 L 23.482656 7.923563 L 23.705313 9.3845 L 23.927969 10.837625 L 24.150625 12.267313 L 24.373281 13.677469 L 24.595938 15.052469 L 24.818594 16.392313 L 25.04125 17.689188 L 25.263906 18.935281 L 25.490469 20.126688 L 25.713125 21.251688 L 25.935781 22.310281 L 26.158438 23.294656 L 26.381094 24.200906 L 26.60375 25.025125 L 26.826406 25.755594 L 27.049063 26.392313 L 27.271719 26.931375 L 27.494375 27.368875 L 27.717031 27.700906 L 27.939688 27.923563 L 28.162344 28.036844 L 28.385 28.036844 L 28.607656 27.919656 L 28.830313 27.685281 L 29.052969 27.337625 L 29.275625 26.868875 L 29.498281 26.282938 L 29.720938 25.579813 L 29.943594 24.763406 L 30.16625 23.833719 L 30.388906 22.79075 L 30.611563 21.642313 L 30.834219 20.3845 L 31.060781 19.025125 L 31.283438 17.572 L 31.506094 16.025125 L 31.72875 14.388406 L 31.951406 12.669656 L 32.174063 10.880594 L 32.396719 9.017313 L 32.619375 7.091531 L 32.842031 5.111063 L 33.064688 3.083719 L 33.287344 1.017313 L 33.51 -1.080344 L 33.732656 -3.205344 L 33.955313 -5.345969 L 34.177969 -7.4905 L 34.400625 -9.631125 L 34.623281 -11.763937 L 34.845938 -13.877219 L 35.068594 -15.95925 L 35.29125 -18.002219 L 35.513906 -20.002219 L 35.736563 -21.943625 L 35.959219 -23.818625 L 36.181875 -25.623312 L 36.404531 -27.345969 L 36.631094 -28.978781 L 36.85375 -30.513937 L 37.076406 -31.943625 L 37.299063 -33.260031 L 37.521719 -34.45925 L 37.744375 -35.533469 L 37.967031 -36.478781 L 38.189688 -37.283469 L 38.412344 -37.947531 L 38.635 -38.467062 L 38.857656 -38.838156 L 39.080313 -39.056906 L 39.302969 -39.119406 L 39.525625 -39.025656 L 39.748281 -38.767844 L 39.970938 -38.353781 L 40.193594 -37.783469 L 40.41625 -37.053 L 40.638906 -36.162375 L 40.861563 -35.119406 L 41.084219 -33.920187 L 41.306875 -32.572531 L 41.529531 -31.076437 L 41.752188 -29.443625 L 41.974844 -27.670187 L 42.1975 -25.767844 L 42.424063 -23.744406 L 42.646719 -21.599875 L 42.869375 -19.345969 L 43.092031 -16.994406 L 43.314688 -14.545187 L 43.537344 -12.013937 L 43.76 -9.408469 L 43.982656 -6.7405 L 44.205313 -4.013937 L 44.427969 -1.248312 L 44.650625 1.552469 L 44.873281 4.376688 L 45.318594 10.04075 L 45.54125 12.861063 L 45.763906 15.657938 L 45.986563 18.41575 L 46.209219 21.130594 L 46.431875 23.786844 L 46.654531 26.368875 L 46.877188 28.872781 L 47.099844 31.286844 L 47.3225 33.595438 L 47.545156 35.79075 L 47.767813 37.861063 L 47.994375 39.802469 L 48.217031 41.599344 L 48.439688 43.247781 L 48.662344 44.739969 L 48.885 46.064188 L 49.107656 47.216531 L 49.330313 48.185281 L 49.552969 48.974344 L 49.775625 49.572 L 49.998281 49.97825 L 50.220938 50.185281 L 50.443594 50.193094 L 50.66625 50.001688 L 50.888906 49.607156 L 51.111563 49.0095 L 51.334219 48.212625 L 51.556875 47.212625 L 51.779531 46.017313 L 52.002188 44.626688 L 52.224844 43.044656 L 52.4475 41.275125 L 52.670156 39.325906 L 52.892813 37.204813 L 53.115469 34.91575 L 53.338125 32.466531 L 53.564688 29.864969 L 53.787344 27.126688 L 54.01 24.255594 L 54.232656 21.263406 L 54.455313 18.157938 L 54.677969 14.958719 L 54.900625 11.669656 L 55.123281 8.310281 L 55.345938 4.892313 L 55.568594 1.423563 L 55.79125 -2.076437 L 56.013906 -5.599875 L 56.236563 -9.127219 L 56.459219 -12.64675 L 56.681875 -16.142844 L 56.904531 -19.599875 L 57.127188 -23.010031 L 57.349844 -26.353781 L 57.5725 -29.6155 L 57.795156 -32.783469 L 58.017813 -35.849875 L 58.240469 -38.795187 L 58.463125 -41.603781 L 58.685781 -44.27175 L 58.908438 -46.779562 L 59.135 -49.123312 L 59.357656 -51.287375 L 59.580313 -53.263937 L 59.802969 -55.041281 L 60.025625 -56.611594 L 60.248281 -57.967062 L 60.470938 -59.099875 L 60.693594 -60.006125 L 60.91625 -60.681906 L 61.138906 -61.1155 L 61.361563 -61.314719 L 61.584219 -61.263937 L 61.806875 -60.970969 L 62.029531 -60.435812 L 62.252188 -59.650656 L 62.474844 -58.623312 L 62.6975 -57.353781 L 62.920156 -55.845969 L 63.142813 -54.107687 L 63.365469 -52.135031 L 63.588125 -49.943625 L 63.810781 -47.541281 L 64.033438 -44.928 L 64.256094 -42.119406 L 64.47875 -39.119406 L 64.701406 -35.947531 L 64.927969 -32.607687 L 65.150625 -29.111594 L 65.373281 -25.482687 L 65.595938 -21.720969 L 65.818594 -17.849875 L 66.04125 -13.881125 L 66.263906 -9.826437 L 66.486563 -5.70925 L 66.709219 -1.541281 L 66.931875 2.657938 L 67.154531 6.880594 L 67.377188 11.099344 L 67.599844 15.302469 L 67.8225 19.474344 L 68.045156 23.595438 L 68.267813 27.650125 L 68.490469 31.622781 L 68.713125 35.493875 L 68.935781 39.243875 L 69.158438 42.868875 L 69.381094 46.341531 L 69.60375 49.654031 L 69.826406 52.79075 L 70.049063 55.732156 L 70.271719 58.474344 L 70.498281 61.001688 L 70.720938 63.298563 L 70.943594 65.361063 L 71.16625 67.177469 L 71.388906 68.732156 L 71.611563 70.029031 L 71.834219 71.048563 L 72.056875 71.794656 L 72.279531 72.2595 L 72.502188 72.435281 L 72.724844 72.329813 L 72.9475 71.931375 L 73.170156 71.247781 L 73.392813 70.271219 L 73.615469 69.013406 L 73.838125 67.470438 L 74.060781 65.646219 L 74.283438 63.556375 L 74.506094 61.197 L 74.72875 58.579813 L 74.951406 55.716531 L 75.174063 52.611063 L 75.396719 49.279031 L 75.619375 45.72825 L 75.842031 41.97825 L 76.068594 38.04075 L 76.29125 33.919656 L 76.513906 29.650125 L 76.736563 25.22825 L 76.959219 20.685281 L 77.181875 16.032938 L 77.404531 11.29075 L 77.627188 6.474344 L 77.849844 1.607156 L 78.0725 -3.295187 L 78.295156 -8.213156 L 78.517813 -13.127219 L 78.740469 -18.017844 L 78.963125 -22.861594 L 79.185781 -27.642844 L 79.408438 -32.345969 L 79.631094 -36.939719 L 79.85375 -41.416281 L 80.076406 -45.752219 L 80.299063 -49.928 L 80.521719 -53.931906 L 80.744375 -57.7405 L 80.967031 -61.342062 L 81.189688 -64.720969 L 81.412344 -67.857687 L 81.638906 -70.744406 L 81.861563 -73.361594 L 82.084219 -75.705344 L 82.306875 -77.760031 L 82.529531 -79.513937 L 82.752188 -80.967062 L 82.974844 -82.095969 L 83.1975 -82.912375 L 83.420156 -83.400656 L 83.642813 -83.556906 L 83.865469 -83.388937 L 84.088125 -82.881125 L 84.310781 -82.045187 L 84.533438 -80.881125 L 84.756094 -79.381125 L 84.97875 -77.564719 L 85.201406 -75.428 L 85.424063 -72.978781 L 85.646719 -70.228781 L 85.869375 -67.181906 L 86.092031 -63.853781 L 86.314688 -60.256125 L 86.537344 -56.39675 L 86.76 -52.295187 L 86.982656 -47.963156 L 87.205313 -43.424094 L 87.431875 -38.681906 L 87.654531 -33.763937 L 87.877188 -28.689719 L 88.099844 -23.470969 L 88.3225 -18.135031 L 88.545156 -12.697531 L 88.767813 -7.185812 L 88.990469 -1.6155 L 89.213125 3.986063 L 89.435781 9.60325 L 89.658438 15.208719 L 89.881094 20.782938 L 90.10375 26.302469 L 90.326406 31.743875 L 90.549063 37.087625 L 90.771719 42.306375 L 90.994375 47.388406 L 91.217031 52.302469 L 91.439688 57.032938 L 91.662344 61.560281 L 91.885 65.868875 L 92.107656 69.931375 L 92.330313 73.739969 L 92.552969 77.271219 L 92.775625 80.513406 L 93.002188 83.447 L 93.224844 86.068094 L 93.4475 88.361063 L 93.670156 90.310281 L 93.892813 91.911844 L 94.115469 93.154031 L 94.338125 94.029031 L 94.560781 94.544656 L 94.783438 94.677469 L 95.006094 94.439188 L 95.22875 93.825906 L 95.451406 92.833719 L 95.674063 91.470438 L 95.896719 89.732156 L 96.119375 87.6345 L 96.342031 85.177469 L 96.564688 82.368875 L 96.787344 79.224344 L 97.01 75.747781 L 97.232656 71.954813 L 97.455313 67.861063 L 97.677969 63.474344 L 97.900625 58.818094 L 98.123281 53.904031 L 98.345938 48.755594 L 98.5725 43.392313 L 98.795156 37.829813 L 99.017813 32.091531 L 99.240469 26.200906 L 99.463125 20.181375 L 99.685781 14.052469 L 99.908438 7.841531 L 100.131094 1.572 L 100.35375 -4.732687 L 100.576406 -11.045187 L 100.799063 -17.345969 L 101.021719 -23.599875 L 101.244375 -29.795187 L 101.467031 -35.89675 L 101.689688 -41.881125 L 101.912344 -47.724875 L 102.135 -53.400656 L 102.357656 -58.89675 L 102.580313 -64.181906 L 102.802969 -69.232687 L 103.025625 -74.033469 L 103.248281 -78.556906 L 103.470938 -82.791281 L 103.693594 -86.713156 L 103.91625 -90.306906 L 104.142813 -93.560812 L 104.365469 -96.451437 L 104.588125 -98.978781 L 104.810781 -101.119406 L 105.033438 -102.869406 L 105.256094 -104.220969 L 105.47875 -105.154562 L 105.701406 -105.685812 L 105.924063 -105.795187 L 106.146719 -105.482687 L 106.369375 -104.756125 L 106.592031 -103.603781 L 106.814688 -102.041281 L 107.037344 -100.064719 L 107.26 -97.681906 L 107.482656 -94.904562 L 107.705313 -91.732687 L 107.927969 -88.185812 L 108.150625 -84.275656 L 108.373281 -80.013937 L 108.595938 -75.424094 L 108.818594 -70.506125 L 109.04125 -65.291281 L 109.263906 -59.799094 L 109.486563 -54.045187 L 109.713125 -48.053 L 109.935781 -41.842062 L 110.158438 -35.443625 L 110.381094 -28.877219 L 110.60375 -22.170187 L 110.826406 -15.349875 L 111.049063 -8.439719 L 111.271719 -1.467062 " transform="matrix(1,0,0,-1,124.115,106.697)"/>
</g>
<g clip-path="url(#clip3)" clip-rule="nonzero">
<path style="fill:none;stroke-width:0.79701;stroke-linecap:butt;stroke-linejoin:miter;stroke:rgb(100%,0%,0%);stroke-opacity:1;stroke-dasharray:2.98883,2.98883;stroke-miterlimit:10;" d="M -106.298594 -106.299094 L -79.724375 -79.724875 L -70.868906 -70.8655 L -62.009531 -62.010031 L -44.290781 -44.291281 L -35.435312 -35.431906 L -26.575937 -26.576437 L -8.857187 -8.857687 L -0.00171875 0.0016875 L 8.857656 8.857156 L 26.576406 26.575906 L 35.431875 35.435281 L 44.29125 44.29075 L 62.01 62.0095 L 70.865469 70.868875 L 79.724844 79.724344 L 97.443594 97.443094 L 106.299063 106.302469 " transform="matrix(1,0,0,-1,124.115,106.697)"/>
<path style="fill:none;stroke-width:0.79701;stroke-linecap:butt;stroke-linejoin:miter;stroke:rgb(100%,0%,0%);stroke-opacity:1;stroke-dasharray:2.98883,2.98883;stroke-miterlimit:10;" d="M -106.298594 106.302469 L -97.443125 97.443094 L 106.299063 -106.299094 " transform="matrix(1,0,0,-1,124.115,106.697)"/>
</g>
</g>
</svg>
